<svg width="152" height="24" viewBox="0 0 152 24" fill="none" xmlns="http://www.w3.org/2000/svg">
<path d="M33.494 19V6.4H35.906L41.27 15.292H39.992L45.266 6.4H47.66L47.696 19H44.96L44.942 10.594H45.446L41.234 17.668H39.92L35.618 10.594H36.23V19H33.494ZM55.2934 19.144C54.1894 19.144 53.2174 18.928 52.3774 18.496C51.5494 18.064 50.9074 17.476 50.4514 16.732C49.9954 15.976 49.7674 15.118 49.7674 14.158C49.7674 13.186 49.9894 12.328 50.4334 11.584C50.8894 10.828 51.5074 10.24 52.2874 9.82C53.0674 9.388 53.9494 9.172 54.9334 9.172C55.8814 9.172 56.7334 9.376 57.4894 9.784C58.2574 10.18 58.8634 10.756 59.3074 11.512C59.7514 12.256 59.9734 13.15 59.9734 14.194C59.9734 14.302 59.9674 14.428 59.9554 14.572C59.9434 14.704 59.9314 14.83 59.9194 14.95H52.0534V13.312H58.4434L57.3634 13.798C57.3634 13.294 57.2614 12.856 57.0574 12.484C56.8534 12.112 56.5714 11.824 56.2114 11.62C55.8514 11.404 55.4314 11.296 54.9514 11.296C54.4714 11.296 54.0454 11.404 53.6734 11.62C53.3134 11.824 53.0314 12.118 52.8274 12.502C52.6234 12.874 52.5214 13.318 52.5214 13.834V14.266C52.5214 14.794 52.6354 15.262 52.8634 15.67C53.1034 16.066 53.4334 16.372 53.8534 16.588C54.2854 16.792 54.7894 16.894 55.3654 16.894C55.8814 16.894 56.3314 16.816 56.7154 16.66C57.1114 16.504 57.4714 16.27 57.7954 15.958L59.2894 17.578C58.8454 18.082 58.2874 18.472 57.6154 18.748C56.9434 19.012 56.1694 19.144 55.2934 19.144ZM65.8029 19.144C64.6629 19.144 63.7749 18.856 63.1389 18.28C62.5029 17.692 62.1849 16.822 62.1849 15.67V7.174H64.9929V15.634C64.9929 16.042 65.1009 16.36 65.3169 16.588C65.5329 16.804 65.8269 16.912 66.1989 16.912C66.6429 16.912 67.0209 16.792 67.3329 16.552L68.0889 18.532C67.8009 18.736 67.4529 18.892 67.0449 19C66.6489 19.096 66.2349 19.144 65.8029 19.144ZM60.6909 11.692V9.532H67.4049V11.692H60.6909ZM75.6051 19V17.11L75.4251 16.696V13.312C75.4251 12.712 75.2391 12.244 74.8671 11.908C74.5071 11.572 73.9491 11.404 73.1931 11.404C72.6771 11.404 72.1671 11.488 71.6631 11.656C71.1711 11.812 70.7511 12.028 70.4031 12.304L69.3951 10.342C69.9231 9.97 70.5591 9.682 71.3031 9.478C72.0471 9.274 72.8031 9.172 73.5711 9.172C75.0471 9.172 76.1931 9.52 77.0091 10.216C77.8251 10.912 78.2331 11.998 78.2331 13.474V19H75.6051ZM72.6531 19.144C71.8971 19.144 71.2491 19.018 70.7091 18.766C70.1691 18.502 69.7551 18.148 69.4671 17.704C69.1791 17.26 69.0351 16.762 69.0351 16.21C69.0351 15.634 69.1731 15.13 69.4491 14.698C69.7371 14.266 70.1871 13.93 70.7991 13.69C71.4111 13.438 72.2091 13.312 73.1931 13.312H75.7671V14.95H73.4991C72.8391 14.95 72.3831 15.058 72.1311 15.274C71.8911 15.49 71.7711 15.76 71.7711 16.084C71.7711 16.444 71.9091 16.732 72.1851 16.948C72.4731 17.152 72.8631 17.254 73.3551 17.254C73.8231 17.254 74.2431 17.146 74.6151 16.93C74.9871 16.702 75.2571 16.372 75.4251 15.94L75.8571 17.236C75.6531 17.86 75.2811 18.334 74.7411 18.658C74.2011 18.982 73.5051 19.144 72.6531 19.144ZM92.1002 19.216C91.1282 19.216 90.2222 19.06 89.3822 18.748C88.5542 18.424 87.8342 17.968 87.2222 17.38C86.6102 16.792 86.1302 16.102 85.7822 15.31C85.4462 14.518 85.2782 13.648 85.2782 12.7C85.2782 11.752 85.4462 10.882 85.7822 10.09C86.1302 9.298 86.6102 8.608 87.2222 8.02C87.8462 7.432 88.5722 6.982 89.4002 6.67C90.2282 6.346 91.1342 6.184 92.1182 6.184C93.2102 6.184 94.1942 6.376 95.0702 6.76C95.9582 7.132 96.7022 7.684 97.3022 8.416L95.4302 10.144C94.9982 9.652 94.5182 9.286 93.9902 9.046C93.4622 8.794 92.8862 8.668 92.2622 8.668C91.6742 8.668 91.1342 8.764 90.6422 8.956C90.1502 9.148 89.7242 9.424 89.3642 9.784C89.0042 10.144 88.7222 10.57 88.5182 11.062C88.3262 11.554 88.2302 12.1 88.2302 12.7C88.2302 13.3 88.3262 13.846 88.5182 14.338C88.7222 14.83 89.0042 15.256 89.3642 15.616C89.7242 15.976 90.1502 16.252 90.6422 16.444C91.1342 16.636 91.6742 16.732 92.2622 16.732C92.8862 16.732 93.4622 16.612 93.9902 16.372C94.5182 16.12 94.9982 15.742 95.4302 15.238L97.3022 16.966C96.7022 17.698 95.9582 18.256 95.0702 18.64C94.1942 19.024 93.2042 19.216 92.1002 19.216ZM104.961 19V17.11L104.781 16.696V13.312C104.781 12.712 104.595 12.244 104.223 11.908C103.863 11.572 103.305 11.404 102.549 11.404C102.033 11.404 101.523 11.488 101.019 11.656C100.527 11.812 100.107 12.028 99.7586 12.304L98.7506 10.342C99.2786 9.97 99.9146 9.682 100.659 9.478C101.403 9.274 102.159 9.172 102.927 9.172C104.403 9.172 105.549 9.52 106.365 10.216C107.181 10.912 107.589 11.998 107.589 13.474V19H104.961ZM102.009 19.144C101.253 19.144 100.605 19.018 100.065 18.766C99.5246 18.502 99.1106 18.148 98.8226 17.704C98.5346 17.26 98.3906 16.762 98.3906 16.21C98.3906 15.634 98.5286 15.13 98.8046 14.698C99.0926 14.266 99.5426 13.93 100.155 13.69C100.767 13.438 101.565 13.312 102.549 13.312H105.123V14.95H102.855C102.195 14.95 101.739 15.058 101.487 15.274C101.247 15.49 101.127 15.76 101.127 16.084C101.127 16.444 101.265 16.732 101.541 16.948C101.829 17.152 102.219 17.254 102.711 17.254C103.179 17.254 103.599 17.146 103.971 16.93C104.343 16.702 104.613 16.372 104.781 15.94L105.213 17.236C105.009 17.86 104.637 18.334 104.097 18.658C103.557 18.982 102.861 19.144 102.009 19.144ZM115.854 19.144C115.038 19.144 114.324 18.964 113.712 18.604C113.1 18.244 112.62 17.698 112.272 16.966C111.936 16.222 111.768 15.286 111.768 14.158C111.768 13.018 111.93 12.082 112.254 11.35C112.578 10.618 113.046 10.072 113.658 9.712C114.27 9.352 115.002 9.172 115.854 9.172C116.766 9.172 117.582 9.382 118.302 9.802C119.034 10.21 119.61 10.786 120.03 11.53C120.462 12.274 120.678 13.15 120.678 14.158C120.678 15.178 120.462 16.06 120.03 16.804C119.61 17.548 119.034 18.124 118.302 18.532C117.582 18.94 116.766 19.144 115.854 19.144ZM110.13 22.492V9.316H112.812V11.296L112.758 14.176L112.938 17.038V22.492H110.13ZM115.368 16.84C115.836 16.84 116.25 16.732 116.61 16.516C116.982 16.3 117.276 15.994 117.492 15.598C117.72 15.19 117.834 14.71 117.834 14.158C117.834 13.594 117.72 13.114 117.492 12.718C117.276 12.322 116.982 12.016 116.61 11.8C116.25 11.584 115.836 11.476 115.368 11.476C114.9 11.476 114.48 11.584 114.108 11.8C113.736 12.016 113.442 12.322 113.226 12.718C113.01 13.114 112.902 13.594 112.902 14.158C112.902 14.71 113.01 15.19 113.226 15.598C113.442 15.994 113.736 16.3 114.108 16.516C114.48 16.732 114.9 16.84 115.368 16.84ZM122.558 19V9.316H125.366V19H122.558ZM123.962 7.966C123.446 7.966 123.026 7.816 122.702 7.516C122.378 7.216 122.216 6.844 122.216 6.4C122.216 5.956 122.378 5.584 122.702 5.284C123.026 4.984 123.446 4.834 123.962 4.834C124.478 4.834 124.898 4.978 125.222 5.266C125.546 5.542 125.708 5.902 125.708 6.346C125.708 6.814 125.546 7.204 125.222 7.516C124.91 7.816 124.49 7.966 123.962 7.966ZM131.932 19.144C130.792 19.144 129.904 18.856 129.268 18.28C128.632 17.692 128.314 16.822 128.314 15.67V7.174H131.122V15.634C131.122 16.042 131.23 16.36 131.446 16.588C131.662 16.804 131.956 16.912 132.328 16.912C132.772 16.912 133.15 16.792 133.462 16.552L134.218 18.532C133.93 18.736 133.582 18.892 133.174 19C132.778 19.096 132.364 19.144 131.932 19.144ZM126.82 11.692V9.532H133.534V11.692H126.82ZM141.734 19V17.11L141.554 16.696V13.312C141.554 12.712 141.368 12.244 140.996 11.908C140.636 11.572 140.078 11.404 139.322 11.404C138.806 11.404 138.296 11.488 137.792 11.656C137.3 11.812 136.88 12.028 136.532 12.304L135.524 10.342C136.052 9.97 136.688 9.682 137.432 9.478C138.176 9.274 138.932 9.172 139.7 9.172C141.176 9.172 142.322 9.52 143.138 10.216C143.954 10.912 144.362 11.998 144.362 13.474V19H141.734ZM138.782 19.144C138.026 19.144 137.378 19.018 136.838 18.766C136.298 18.502 135.884 18.148 135.596 17.704C135.308 17.26 135.164 16.762 135.164 16.21C135.164 15.634 135.302 15.13 135.578 14.698C135.866 14.266 136.316 13.93 136.928 13.69C137.54 13.438 138.338 13.312 139.322 13.312H141.896V14.95H139.628C138.968 14.95 138.512 15.058 138.26 15.274C138.02 15.49 137.9 15.76 137.9 16.084C137.9 16.444 138.038 16.732 138.314 16.948C138.602 17.152 138.992 17.254 139.484 17.254C139.952 17.254 140.372 17.146 140.744 16.93C141.116 16.702 141.386 16.372 141.554 15.94L141.986 17.236C141.782 17.86 141.41 18.334 140.87 18.658C140.33 18.982 139.634 19.144 138.782 19.144ZM146.903 19V5.644H149.711V19H146.903Z" fill="white"/>
<path d="M17.8387 14.5445V9.45404H19.2617L21.3154 12.7774H20.5673L22.5624 9.45404H23.9853L24 14.5445H22.423L22.4083 11.8102H22.6577L21.2934 14.0864H20.5306L19.1077 11.8102H19.4157V14.5445H17.8387Z" fill="url(#paint0_linear_2243_1490)"/>
<path d="M20.1493 4.02165L16.6951 7.44631C16.4859 7.65376 16.15 7.65786 15.9227 7.47002C14.7792 6.52498 13.638 6.07207 12.0112 6.09068C8.6946 6.12862 6.02629 8.80186 6.05161 12.0902C6.07673 15.3533 8.89387 17.9079 12.0112 17.9079C13.6846 17.9079 14.8556 17.2552 15.936 16.2737C16.1549 16.0749 16.4926 16.0678 16.708 16.2703C17.911 17.4011 19.0084 18.4965 20.2152 19.823C20.4004 20.0266 20.4033 20.3364 20.212 20.5344C18.3549 22.4562 15.4557 23.9403 12.0112 23.9983C5.37874 24.1101 0.0506068 18.6667 0.000354708 12.0902C-0.0502824 5.46332 5.32711 -0.04438 12.0112 0.000269579C15.4364 0.0231504 17.8736 1.13918 20.143 3.25625C20.3642 3.46266 20.3641 3.80865 20.1493 4.02165Z" fill="url(#paint1_linear_2243_1490)"/>
<defs>
<linearGradient id="paint0_linear_2243_1490" x1="0" y1="0" x2="24" y2="24" gradientUnits="userSpaceOnUse">
<stop stop-color="#B721FF"/>
<stop offset="1" stop-color="#21FDF6"/>
</linearGradient>
<linearGradient id="paint1_linear_2243_1490" x1="0" y1="0" x2="24" y2="24" gradientUnits="userSpaceOnUse">
<stop stop-color="#B721FF"/>
<stop offset="1" stop-color="#21FDF6"/>
</linearGradient>
</defs>
</svg>
