<svg width="1150" height="428" viewBox="0 0 1150 428" fill="none" xmlns="http://www.w3.org/2000/svg">
<g filter="url(#filter0_f_141_726)">
<circle cx="1217" cy="134" r="269" fill="url(#paint0_radial_141_726)"/>
</g>
<g filter="url(#filter1_f_141_726)">
<circle cx="692" cy="650" r="291.582" fill="url(#paint1_radial_141_726)"/>
</g>
<path style="mix-blend-mode:color-dodge" d="M1054.1 125.288C1054.1 114.279 1063.04 105.354 1074.08 105.354C1085.11 105.354 1094.06 114.279 1094.06 125.288C1094.06 136.298 1085.11 145.223 1074.08 145.223C1063.04 145.223 1054.1 136.298 1054.1 125.288Z" fill="url(#paint2_radial_141_726)" fill-opacity="0.8"/>
<path style="mix-blend-mode:color-dodge" d="M414.76 80.9344C414.76 69.9248 423.705 60.9998 434.739 60.9998C445.773 60.9998 454.718 69.9248 454.718 80.9344C454.718 91.9441 445.773 100.869 434.739 100.869C423.705 100.869 414.76 91.9441 414.76 80.9344Z" fill="url(#paint3_radial_141_726)" fill-opacity="0.8"/>
<path style="mix-blend-mode:color-dodge" d="M183 130.772C183 123.065 189.262 116.817 196.986 116.817C204.71 116.817 210.971 123.065 210.971 130.772C210.971 138.478 204.71 144.726 196.986 144.726C189.262 144.726 183 138.478 183 130.772Z" fill="url(#paint4_radial_141_726)" fill-opacity="0.8"/>
<path style="mix-blend-mode:color-dodge" d="M210.971 192.569C210.971 184.862 217.232 178.614 224.956 178.614C232.68 178.614 238.942 184.862 238.942 192.569C238.942 200.275 232.68 206.523 224.956 206.523C217.232 206.523 210.971 200.275 210.971 192.569Z" fill="url(#paint5_radial_141_726)" fill-opacity="0.8"/>
<path style="mix-blend-mode:color-dodge" d="M244.936 86.8167C244.936 79.11 251.197 72.8625 258.921 72.8625C266.645 72.8625 272.907 79.11 272.907 86.8167C272.907 94.5234 266.645 100.771 258.921 100.771C251.197 100.771 244.936 94.5234 244.936 86.8167Z" fill="url(#paint6_radial_141_726)" fill-opacity="0.8"/>
<path style="mix-blend-mode:color-dodge" d="M312.866 292.055C312.866 284.348 319.127 278.101 326.851 278.101C334.575 278.101 340.837 284.348 340.837 292.055C340.837 299.761 334.575 306.009 326.851 306.009C319.127 306.009 312.866 299.761 312.866 292.055Z" fill="url(#paint7_radial_141_726)" fill-opacity="0.8"/>
<path style="mix-blend-mode:color-dodge" d="M1038.12 182.601C1038.12 151.774 1063.16 126.784 1094.06 126.784C1124.95 126.784 1150 151.774 1150 182.601C1150 213.428 1124.95 238.418 1094.06 238.418C1063.16 238.418 1038.12 213.428 1038.12 182.601Z" fill="url(#paint8_radial_141_726)" fill-opacity="0.8"/>
<path style="mix-blend-mode:color-dodge" d="M754.409 242.405C754.409 211.578 779.456 186.588 810.352 186.588C841.248 186.588 866.294 211.578 866.294 242.405C866.294 273.232 841.248 298.222 810.352 298.222C779.456 298.222 754.409 273.232 754.409 242.405Z" fill="url(#paint9_radial_141_726)" fill-opacity="0.8"/>
<path style="mix-blend-mode:color-dodge" d="M464.745 172.634C464.745 141.807 489.791 116.817 520.687 116.817C551.583 116.817 576.629 141.807 576.629 172.634C576.629 203.461 551.583 228.451 520.687 228.451C489.791 228.451 464.745 203.461 464.745 172.634Z" fill="url(#paint10_radial_141_726)" fill-opacity="0.8"/>
<path style="mix-blend-mode:color-dodge" d="M312.866 242.405C312.866 211.578 337.912 186.588 368.808 186.588C399.704 186.588 424.75 211.578 424.75 242.405C424.75 273.232 399.704 298.222 368.808 298.222C337.912 298.222 312.866 273.232 312.866 242.405Z" fill="url(#paint11_radial_141_726)" fill-opacity="0.8"/>
<path style="mix-blend-mode:color-dodge" d="M982.174 146.719C982.174 124.7 1000.06 106.85 1022.13 106.85C1044.2 106.85 1062.09 124.7 1062.09 146.719C1062.09 168.738 1044.2 186.589 1022.13 186.589C1000.06 186.589 982.174 168.738 982.174 146.719Z" fill="url(#paint12_radial_141_726)" fill-opacity="0.8"/>
<path style="mix-blend-mode:color-dodge" d="M1010.15 338.091C1010.15 322.678 1022.67 310.183 1038.12 310.183C1053.56 310.183 1066.09 322.678 1066.09 338.091C1066.09 353.505 1053.56 366 1038.12 366C1022.67 366 1010.15 353.505 1010.15 338.091Z" fill="url(#paint13_radial_141_726)" fill-opacity="0.8"/>
<ellipse cx="962" cy="341.544" rx="32" ry="18.5" fill="url(#paint14_radial_141_726)"/>
<ellipse cx="874" cy="386.5" rx="32" ry="18.5" fill="url(#paint15_radial_141_726)"/>
<ellipse cx="745" cy="318.544" rx="32" ry="18.5" fill="url(#paint16_radial_141_726)"/>
<ellipse cx="575" cy="371.5" rx="32" ry="18.5" fill="url(#paint17_radial_141_726)"/>
<path d="M1100 263.544L960 342.043M960 342.043L883.297 385.051C877.213 388.462 869.79 388.457 863.71 385.038L756.167 324.544L746.5 319.107M960 342.043L1019 375.044M746.5 319.107L723.073 305.929C717.111 302.575 709.849 302.501 703.82 305.733L596 363.521M746.5 319.107L689 353.544M596 363.521L584.254 369.816C578.185 373.069 570.869 372.971 564.889 369.557L425.466 289.949C419.565 286.58 412.357 286.437 406.327 289.571L113 442M596 363.521L471 295.044" stroke="url(#paint18_linear_141_726)" stroke-width="10" stroke-linecap="round"/>
<path fill-rule="evenodd" clip-rule="evenodd" d="M711.603 160.5C712.081 160.776 712.081 161.224 711.603 161.5L650.981 196.5C650.502 196.776 649.727 196.776 649.249 196.5C648.77 196.224 648.77 195.776 649.249 195.5L709.87 160.5C710.349 160.224 711.124 160.224 711.603 160.5Z" fill="url(#paint19_linear_141_726)"/>
<circle cx="28" cy="28" r="28" transform="matrix(0.866025 0.5 -0.866025 0.5 710.737 133)" fill="url(#paint20_radial_141_726)"/>
<circle cx="3" cy="3" r="3" transform="matrix(0.866025 0.5 -0.866025 0.5 710.737 158)" fill="#21FDF6"/>
<path fill-rule="evenodd" clip-rule="evenodd" d="M644.866 265.5C645.344 265.776 645.344 266.224 644.866 266.5L584.244 301.5C583.766 301.776 582.99 301.776 582.512 301.5C582.034 301.224 582.034 300.776 582.512 300.5L643.134 265.5C643.612 265.224 644.388 265.224 644.866 265.5Z" fill="url(#paint21_linear_141_726)"/>
<circle cx="28" cy="28" r="28" transform="matrix(0.866025 0.5 -0.866025 0.5 582.512 273.5)" fill="url(#paint22_radial_141_726)"/>
<circle cx="3" cy="3" r="3" transform="matrix(0.866025 0.5 -0.866025 0.5 582.512 298.5)" fill="#21FDF6"/>
<path fill-rule="evenodd" clip-rule="evenodd" d="M1047.6 201.5C1048.08 201.776 1048.08 202.224 1047.6 202.5L986.981 237.5C986.503 237.776 985.727 237.776 985.249 237.5C984.77 237.224 984.77 236.776 985.249 236.5L1045.87 201.5C1046.35 201.224 1047.12 201.224 1047.6 201.5Z" fill="url(#paint23_linear_141_726)"/>
<circle cx="28" cy="28" r="28" transform="matrix(0.866025 0.5 -0.866025 0.5 1046.74 174)" fill="url(#paint24_radial_141_726)"/>
<circle cx="3" cy="3" r="3" transform="matrix(0.866025 0.5 -0.866025 0.5 1046.74 199)" fill="#21FDF6"/>
<path fill-rule="evenodd" clip-rule="evenodd" d="M988.866 54.5C989.344 54.7761 989.344 55.2239 988.866 55.5L928.244 90.5C927.766 90.7761 926.99 90.7761 926.512 90.5C926.034 90.2239 926.034 89.7761 926.512 89.5L987.134 54.5C987.612 54.2239 988.388 54.2239 988.866 54.5Z" fill="url(#paint25_linear_141_726)"/>
<circle cx="28" cy="28" r="28" transform="matrix(0.866025 0.5 -0.866025 0.5 926.512 62.5)" fill="url(#paint26_radial_141_726)"/>
<circle cx="3" cy="3" r="3" transform="matrix(0.866025 0.5 -0.866025 0.5 926.512 87.5)" fill="#21FDF6"/>
<g opacity="0.67">
<path d="M875.706 358.426C874.866 358.911 873.829 358.906 872.993 358.412L702.055 257.384C700.282 256.337 700.296 253.768 702.079 252.739L869.398 156.154C870.239 155.668 871.276 155.674 872.111 156.168L1043.04 257.196C1044.81 258.243 1044.79 260.812 1043.01 261.841L875.706 358.426Z" fill="#1E2140"/>
</g>
<path d="M799.131 166.521C796.903 165.238 796.903 163.151 799.131 161.854C801.358 160.571 804.982 160.571 807.21 161.854C809.438 163.137 809.438 165.224 807.21 166.521C804.982 167.804 801.358 167.804 799.131 166.521Z" fill="white"/>
<path d="M799.131 177.604C796.903 176.32 796.903 174.234 799.131 172.936C801.358 171.653 804.982 171.653 807.21 172.936C809.438 174.22 809.438 176.306 807.21 177.604C804.982 178.887 801.358 178.887 799.131 177.604Z" fill="white"/>
<path d="M799.131 188.898C796.903 187.615 796.903 185.528 799.131 184.231C801.358 182.948 804.982 182.948 807.21 184.231C809.438 185.514 809.438 187.601 807.21 188.898C804.982 190.181 801.358 190.181 799.131 188.898Z" fill="white"/>
<path d="M808.888 164.181V158.414C808.888 159.26 808.324 160.106 807.21 160.74C804.982 162.023 801.358 162.023 799.13 160.74C798.045 160.12 797.495 159.302 797.467 158.484V134.077H808.888V205.973C808.888 209.131 806.335 211.684 803.177 211.684C800.019 211.684 797.467 209.131 797.467 205.973V186.487C797.438 187.361 797.988 188.235 799.13 188.898C801.358 190.181 804.982 190.181 807.21 188.898C808.324 188.249 808.874 187.417 808.888 186.571V180.79C808.888 181.636 808.324 182.482 807.21 183.117C804.982 184.4 801.358 184.4 799.13 183.117C798.045 182.497 797.495 181.679 797.467 180.861V175.193C797.438 176.067 797.988 176.941 799.13 177.604C801.358 178.887 804.982 178.887 807.21 177.604C808.324 176.955 808.874 176.123 808.888 175.277V169.496C808.888 170.342 808.324 171.188 807.21 171.823C804.982 173.106 801.358 173.106 799.13 171.823C798.045 171.202 797.495 170.385 797.467 169.567V164.096C797.438 164.97 797.988 165.844 799.13 166.507C801.358 167.79 804.982 167.79 807.21 166.507C808.324 165.859 808.874 165.027 808.888 164.181Z" fill="url(#paint27_linear_141_726)"/>
<path d="M799.131 188.616C801.358 189.899 804.982 189.899 807.21 188.616C808.267 188.009 808.817 187.22 808.874 186.43C808.944 187.318 808.394 188.221 807.21 188.898C804.982 190.181 801.358 190.181 799.131 188.898C797.96 188.221 797.41 187.318 797.467 186.43C797.523 187.22 798.073 188.009 799.131 188.616Z" fill="white"/>
<path opacity="0.48" d="M799.131 160.754C801.358 162.037 804.982 162.037 807.21 160.754C808.324 160.106 808.888 159.274 808.888 158.428V164.195C808.888 165.041 808.324 165.873 807.21 166.521C804.982 167.804 801.358 167.804 799.131 166.521C797.989 165.858 797.425 164.984 797.467 164.11V158.498C797.495 159.316 798.045 160.134 799.131 160.754Z" fill="url(#paint28_linear_141_726)"/>
<path opacity="0.48" d="M799.131 171.837C801.358 173.12 804.982 173.12 807.21 171.837C808.324 171.188 808.888 170.356 808.888 169.51V175.277C808.888 176.123 808.324 176.955 807.21 177.603C804.982 178.887 801.358 178.887 799.131 177.603C797.989 176.941 797.425 176.067 797.467 175.192V169.581C797.495 170.398 798.045 171.216 799.131 171.837Z" fill="url(#paint29_linear_141_726)"/>
<path opacity="0.48" d="M799.131 183.131C801.358 184.414 804.982 184.414 807.21 183.131C808.324 182.482 808.888 181.65 808.888 180.804V186.571C808.888 187.417 808.324 188.249 807.21 188.898C804.982 190.181 801.358 190.181 799.131 188.898C797.989 188.235 797.425 187.361 797.467 186.486V180.875C797.495 181.692 798.045 182.51 799.131 183.131Z" fill="url(#paint30_linear_141_726)"/>
<path d="M823.805 125.208C824.073 125.067 824.327 124.912 824.581 124.743L827.373 108.937L823.876 87.9562L814.147 77.353L804.122 67.6241L788.161 61.0112L787.738 60.842C786.976 61.2227 786.271 61.688 785.609 62.2097C781.618 61.7162 777.628 61.2086 773.638 60.7151C774.314 59.0654 775.104 57.5708 776.035 56.2595L774.131 55.5122L781.28 51.395C781.364 51.3386 781.449 51.2963 781.534 51.254L781.802 51.0989H781.816C787.963 47.7854 796.325 48.3917 805.546 53.7215C824.412 64.6067 839.696 91.1005 839.696 112.871C839.696 123.672 835.931 131.286 829.84 134.895L829.798 134.923C829.727 134.966 829.657 135.008 829.586 135.05L822.001 139.393L822.395 137.193C821.451 137.264 820.478 137.278 819.477 137.208C821.578 133.499 824.426 129.396 823.82 125.223L823.805 125.208Z" fill="url(#paint31_linear_141_726)"/>
<path d="M771.424 74.3075C771.424 74.0114 771.41 73.7153 771.41 73.4192C771.41 68.4842 772.214 64.2401 773.652 60.7151C777.642 61.2086 781.632 61.7162 785.623 62.2097C781.787 65.2412 779.461 70.6697 779.461 78.0722C779.461 94.7102 791.15 114.958 805.56 123.277C812.666 127.38 819.11 127.803 823.805 125.208C824.412 129.368 821.564 133.485 819.463 137.193C816.29 136.996 812.878 136.122 809.282 134.5L810.41 135.769C810.41 135.769 796.212 130.834 795.916 130.524C795.62 130.214 779.08 113.505 779.08 113.505L768.28 90.2123L771.41 74.3075H771.424Z" fill="url(#paint32_linear_141_726)"/>
<path opacity="0.5" d="M819.36 128.574C829.55 122.691 829.547 103.609 819.353 85.9532C809.16 68.2976 792.636 58.7542 782.446 64.6375C772.256 70.5207 772.258 89.6027 782.452 107.258C792.645 124.914 809.169 134.457 819.36 128.574Z" fill="url(#paint33_linear_141_726)"/>
<path d="M763.895 77.7617C763.895 99.5461 779.179 126.026 798.045 136.911C816.911 147.796 832.195 138.97 832.195 117.199C832.195 95.429 816.911 68.9351 798.045 58.0499C779.179 47.1647 763.895 55.9913 763.895 77.7617ZM771.946 82.4147C771.946 65.7767 783.635 59.0228 798.045 67.3418C812.455 75.6608 824.144 95.9083 824.144 112.546C824.144 129.184 812.455 135.938 798.045 127.619C783.635 119.3 771.946 99.0527 771.946 82.4147Z" fill="url(#paint34_linear_141_726)"/>
<path d="M831.687 117.777C831.687 95.993 816.403 69.5132 797.537 58.628C785.933 51.9305 775.682 52.706 769.507 59.3612C775.612 52.1702 786.116 51.155 798.059 58.0499C816.925 68.9351 832.209 95.429 832.209 117.199C832.209 125.575 829.939 132.018 826.09 136.178C829.629 132.004 831.687 125.772 831.687 117.777Z" fill="#E1E8FC"/>
<path d="M797.523 128.198C783.113 119.879 771.424 99.6312 771.424 82.9932C771.424 76.5495 773.187 71.5863 776.176 68.4138C773.511 71.6004 771.946 76.338 771.946 82.4151C771.946 99.0531 783.635 119.301 798.045 127.62C806.871 132.724 814.669 132.16 819.392 127.126C814.739 132.682 806.688 133.485 797.523 128.198Z" fill="#E1E8FC"/>
<rect y="1.5" width="173.825" height="104.63" rx="2.5" transform="matrix(0.866025 0.5 -0.866025 0.5 839.509 187.75)" stroke="white" stroke-opacity="0.08" stroke-width="3"/>
<rect y="1.5" width="173.825" height="104.63" rx="2.5" transform="matrix(0.866025 0.5 -0.866025 0.5 839.509 187.75)" stroke="url(#paint35_radial_141_726)" stroke-width="3"/>
<path d="M842.925 150.743L862.891 32.2609L861.283 31.5841L863.694 30.2023C864.16 29.9062 864.822 29.9203 865.556 30.3433L1025.17 122.487C1026.48 123.248 1027.47 125.18 1027.24 126.548L1007.11 245.975C1007.01 246.595 1006.7 247.004 1006.26 247.187L1003.9 248.555L1003.5 246.355L1003.64 246.398L844.998 154.804C843.687 154.043 842.7 152.111 842.925 150.743Z" fill="#272E4A"/>
<path d="M1024.28 125.73L1026.9 124.574C1027.2 125.251 1027.34 125.956 1027.24 126.548L1007.11 245.975C1007.01 246.595 1006.7 247.004 1006.26 247.187L1003.9 248.555L1003.5 246.355L1003.64 246.398L995.614 241.759L1024.28 125.73Z" fill="#272E4A"/>
<path d="M842.488 156.228L1002.1 248.371C1003.33 249.076 1004.38 248.667 1004.61 247.398L1024.74 127.972C1024.97 126.618 1023.98 124.672 1022.67 123.911L863.06 31.7672C861.833 31.0622 860.776 31.4711 860.55 32.7401L840.415 152.167C840.19 153.521 841.177 155.467 842.488 156.228Z" fill="#1E2338"/>
<g opacity="0.51">
<path d="M865.147 39.3958L1018.99 128.226L999.914 240.701L846.168 151.928L865.147 39.3958Z" fill="#3A4159"/>
</g>
<path d="M742.167 212.77L750.881 217.324L838.216 166.902C839.683 166.056 842.235 166.169 843.913 167.142L994.557 254.111C995.995 253.307 1002.57 250.149 1002.57 250.149L999.379 258.454C999.252 258.82 998.97 259.173 998.491 259.441L906.502 312.555C905.036 313.401 902.484 313.289 900.806 312.316L746.651 223.316C745.96 222.922 745.537 222.428 745.354 221.935L742.181 212.784L742.167 212.77Z" fill="#363F66"/>
<path d="M743.506 214.207L901.497 305.42C903.231 306.421 905.839 306.52 907.334 305.66L1001.61 251.234C1003.1 250.374 1002.92 248.865 1001.18 247.864L843.193 156.651C841.459 155.65 838.85 155.551 837.356 156.412L743.083 210.837C741.589 211.698 741.772 213.206 743.506 214.207Z" fill="#272E4A"/>
<path d="M949.155 285.68V283.946C949.155 283.777 949.056 283.706 948.929 283.777L942.824 287.302C942.697 287.372 942.598 287.57 942.598 287.725V289.459C942.598 289.628 942.697 289.699 942.824 289.628L948.929 286.103C949.056 286.033 949.155 285.836 949.155 285.68Z" fill="#1E2338"/>
<path d="M940.004 290.954V289.22C940.004 289.05 939.905 288.98 939.778 289.05L933.673 292.575C933.546 292.646 933.447 292.843 933.447 292.998V294.733C933.447 294.902 933.546 294.972 933.673 294.902L939.778 291.377C939.905 291.306 940.004 291.109 940.004 290.954Z" fill="#1E2338"/>
<path d="M977.03 246.13L845.745 170.328C844.871 169.821 843.785 169.821 842.911 170.328L796.156 197.372C795.479 197.767 795.479 198.726 796.156 199.121L927.384 274.88C928.258 275.388 929.33 275.388 930.204 274.88L977.016 247.864C977.693 247.47 977.693 246.511 977.016 246.116L977.03 246.13Z" fill="#1E2338"/>
<path d="M977.031 247.878L976.565 248.146L845.745 172.627C844.871 172.119 843.786 172.119 842.911 172.627L796.635 199.402L796.17 199.135C795.493 198.754 795.493 197.781 796.17 197.386L842.925 170.342C843.8 169.835 844.885 169.835 845.76 170.342L977.045 246.144C977.721 246.539 977.721 247.498 977.045 247.892L977.031 247.878Z" fill="#161A29"/>
<path d="M839.4 177.181L953.427 243.028L958.503 240.095L844.462 174.248L839.4 177.181Z" fill="#363F66"/>
<path d="M826.964 184.358L933.926 246.116L939.002 243.183L832.04 181.439L826.964 184.358Z" fill="#363F66"/>
<path d="M818.87 189.039L944.812 261.739L949.874 258.82L823.932 186.106L818.87 189.039Z" fill="#363F66"/>
<path d="M810.763 193.706L936.704 266.42L941.78 263.487L815.839 190.788L810.763 193.706Z" fill="#363F66"/>
<path d="M802.67 198.388L928.611 271.101L933.687 268.169L807.746 195.455L802.67 198.388Z" fill="#363F66"/>
<path d="M960.322 247.004L965.398 249.923L970.46 247.004L965.398 244.072L960.322 247.004Z" fill="#363F66"/>
<path d="M942.443 251.037L952.961 257.1L958.037 254.181L947.505 248.104L942.443 251.037Z" fill="#363F66"/>
<path d="M840.698 264.474L805.292 244.043C803.911 243.239 803.911 241.942 805.292 241.153L829.502 227.179C830.884 226.376 833.126 226.376 834.508 227.179L869.913 247.61C871.295 248.414 871.295 249.711 869.913 250.501L845.703 264.474C844.321 265.278 842.079 265.278 840.698 264.474Z" fill="url(#paint36_linear_141_726)"/>
<path d="M869.913 248.781L834.507 228.35C833.126 227.546 830.884 227.546 829.502 228.35L805.292 242.323C804.869 242.562 804.587 242.859 804.418 243.183C804.051 242.478 804.333 241.702 805.292 241.138L829.502 227.165C830.884 226.362 833.126 226.362 834.507 227.165L869.913 247.596C870.871 248.146 871.153 248.936 870.787 249.641C870.618 249.33 870.35 249.034 869.913 248.781Z" fill="#9198DB"/>
<g opacity="0.11">
<mask id="mask0_141_726" style="mask-type:luminance" maskUnits="userSpaceOnUse" x="846" y="39" width="173" height="202">
<path d="M865.147 39.3958L1018.99 128.226L999.915 240.701L846.168 151.928L865.147 39.3958Z" fill="white"/>
</mask>
<g mask="url(#mask0_141_726)">
<path d="M843.052 156.454L1001.04 247.667C1002.78 248.668 1005.39 248.767 1006.88 247.907L1101.15 193.481C1102.65 192.62 1102.46 191.112 1100.73 190.111L942.739 98.8978C941.005 97.8967 938.396 97.798 936.902 98.6581L842.629 153.084C841.135 153.944 841.318 155.453 843.052 156.454Z" fill="#444D6A"/>
<path d="M1046.29 204.746L915.004 128.945C914.13 128.437 913.045 128.437 912.17 128.945L865.415 155.988C864.738 156.383 864.738 157.342 865.415 157.737L996.643 233.496C997.518 234.004 998.589 234.004 999.463 233.496L1046.28 206.481C1046.95 206.086 1046.95 205.127 1046.28 204.732L1046.29 204.746Z" fill="#ADB1F2"/>
<path d="M1046.29 206.495L1045.82 206.763L915.005 131.243C914.13 130.736 913.045 130.736 912.17 131.243L865.894 158.019L865.429 157.751C864.752 157.371 864.752 156.398 865.429 156.003L912.185 128.959C913.059 128.451 914.144 128.451 915.019 128.959L1046.3 204.761C1046.98 205.155 1046.98 206.114 1046.3 206.509L1046.29 206.495Z" fill="#9198DB"/>
<g opacity="0.5">
<path d="M877.654 154.156L992.033 220.186L987.507 222.794L873.128 156.764L877.654 154.156Z" fill="#444D6A"/>
<path d="M889.709 147.19L998.42 209.963L993.894 212.572L885.183 149.813L889.709 147.19Z" fill="#444D6A"/>
<path d="M1006.54 214.645L1016.69 220.51L1012.15 223.119L1002 217.267L1006.54 214.645Z" fill="#444D6A"/>
<path d="M997.574 223.386L1004.64 227.461L1000.11 230.084L993.034 225.995L997.574 223.386Z" fill="#444D6A"/>
<path d="M897.267 142.833L1024.24 216.153L1019.71 218.762L892.726 145.456L897.267 142.833Z" fill="#444D6A"/>
<path d="M904.81 138.477L1031.79 211.782L1027.25 214.405L900.284 141.085L904.81 138.477Z" fill="#444D6A"/>
<path d="M912.368 134.119L1039.34 207.425L1034.81 210.048L907.828 136.728L912.368 134.119Z" fill="#444D6A"/>
</g>
</g>
</g>
<path opacity="0.42" d="M916.203 239.376L950.24 218.437L873.72 174.248L837.61 198.528L916.203 239.376Z" fill="#232942"/>
<path opacity="0.42" d="M950.24 218.437L958.038 169.186L886.226 128V181.382L950.24 218.437Z" fill="#232942"/>
<path d="M878.711 104.072L886.311 99.7012C886.409 99.6448 886.536 99.6448 886.691 99.7294L981.881 154.691C982.191 154.874 982.445 155.354 982.445 155.763V173.726C982.445 173.924 982.388 174.065 982.289 174.149C982.289 174.149 982.275 174.149 982.261 174.149L974.591 178.562L974.534 169.877L886.691 119.159C886.381 118.976 886.127 118.496 886.127 118.088V111.926L878.711 104.044V104.072Z" fill="#99B0F2"/>
<path d="M879.049 123.587L974.238 178.549C974.549 178.732 974.802 178.549 974.802 178.126V160.162C974.802 159.753 974.549 159.26 974.238 159.091L879.049 104.129C878.739 103.945 878.485 104.129 878.485 104.552V122.515C878.485 122.924 878.739 123.418 879.049 123.587Z" fill="white"/>
<path opacity="0.6" d="M892.176 119.949L966.3 163.532C964.016 165.506 961.845 167.762 959.856 170.243L885.183 127.14C887.326 124.461 889.681 122.036 892.176 119.963V119.949Z" fill="#868C9D"/>
<path d="M881.771 118.186L971.531 170.004C971.743 170.131 971.912 170.004 971.912 169.708V165.196C971.912 164.914 971.743 164.589 971.531 164.462L881.771 112.645C881.559 112.518 881.39 112.645 881.39 112.941V117.453C881.39 117.735 881.559 118.059 881.771 118.186Z" fill="#161A29"/>
<path d="M881.771 112.645L883.59 113.702V116.142C883.59 116.424 883.759 116.748 883.97 116.875L971.912 167.649V169.722C971.912 170.004 971.743 170.13 971.531 170.018L881.771 118.2C881.559 118.073 881.39 117.749 881.39 117.467V112.955C881.39 112.673 881.559 112.546 881.771 112.659V112.645Z" fill="#272E4A"/>
<path opacity="0.96" d="M831.335 312.625L756.662 269.507C766.292 263.952 774.414 251.77 776.895 240.137C777.896 235.414 780.787 231.325 784.96 228.913L841.389 196.342C857.11 187.276 867.29 170.934 868.362 152.816C869.264 137.517 880.826 122.473 889.808 117.298L964.482 160.416C955.641 165.52 945.912 179.789 944.798 194.82C943.458 212.938 933.617 229.336 917.881 238.417L859.648 272.031C855.474 274.442 852.584 278.545 851.583 283.255C849.101 294.901 840.98 307.07 831.349 312.625H831.335Z" fill="#ABB9DF"/>
<path opacity="0.8" d="M889.808 117.298L964.482 160.416C963.889 160.768 963.297 161.135 962.705 161.53L888.045 118.412C888.638 118.031 889.216 117.65 889.822 117.312L889.808 117.298Z" fill="#272E4A"/>
<path d="M818.293 154.522H842.108V205.395C842.108 207.157 840.951 208.92 838.625 210.259C833.972 212.938 826.428 212.938 821.775 210.259C819.449 208.92 818.293 207.157 818.293 205.395V154.522Z" fill="url(#paint37_linear_141_726)"/>
<path d="M818.293 154.522H842.108V205.395C842.108 207.157 840.951 208.92 838.625 210.259C833.972 212.938 826.428 212.938 821.775 210.259C819.449 208.92 818.293 207.157 818.293 205.395V154.522Z" fill="url(#paint38_linear_141_726)"/>
<path d="M821.775 159.386C826.428 162.065 833.972 162.065 838.625 159.386C843.278 156.707 843.278 152.351 838.625 149.657C833.972 146.978 826.428 146.978 821.775 149.657C817.122 152.336 817.122 156.693 821.775 159.386Z" fill="white"/>
<path opacity="0.3" d="M824.764 157.666C827.768 159.401 832.632 159.401 835.636 157.666C838.639 155.932 838.639 153.126 835.636 151.392C832.632 149.657 827.768 149.657 824.764 151.392C821.761 153.126 821.761 155.932 824.764 157.666Z" fill="#9AB1F3"/>
<path opacity="0.5" d="M821.775 158.879C826.428 161.558 833.971 161.558 838.624 158.879C840.838 157.596 841.98 155.946 842.093 154.268C842.206 156.115 841.064 157.977 838.624 159.387C833.971 162.066 826.428 162.066 821.775 159.387C819.336 157.977 818.194 156.115 818.306 154.268C818.419 155.946 819.561 157.596 821.775 158.879Z" fill="white"/>
<path d="M818.293 143.468H842.108V148.121C842.108 149.883 840.951 151.646 838.625 152.985C833.972 155.664 826.428 155.664 821.775 152.985C819.449 151.646 818.293 149.883 818.293 148.121V143.468Z" fill="url(#paint39_linear_141_726)"/>
<path d="M818.293 143.468H842.108V148.121C842.108 149.883 840.951 151.646 838.625 152.985C833.972 155.664 826.428 155.664 821.775 152.985C819.449 151.646 818.293 149.883 818.293 148.121V143.468Z" fill="url(#paint40_linear_141_726)"/>
<path d="M821.775 148.332C826.428 151.011 833.972 151.011 838.625 148.332C843.278 145.653 843.278 141.296 838.625 138.603C833.972 135.924 826.428 135.924 821.775 138.603C817.122 141.282 817.122 145.639 821.775 148.332Z" fill="white"/>
<path opacity="0.5" d="M821.775 147.825C826.428 150.504 833.971 150.504 838.624 147.825C840.838 146.541 841.98 144.892 842.093 143.214C842.206 145.061 841.064 146.922 838.624 148.332C833.971 151.011 826.428 151.011 821.775 148.332C819.336 146.922 818.194 145.061 818.306 143.214C818.419 144.892 819.561 146.541 821.775 147.825Z" fill="white"/>
<path d="M837.976 182.834H861.791V216.759C861.791 218.522 860.635 220.284 858.308 221.624C853.655 224.303 846.112 224.303 841.459 221.624C839.132 220.284 837.976 218.522 837.976 216.759V182.834Z" fill="url(#paint41_linear_141_726)"/>
<path d="M837.976 182.834H861.791V216.759C861.791 218.522 860.635 220.284 858.308 221.624C853.655 224.303 846.112 224.303 841.459 221.624C839.132 220.284 837.976 218.522 837.976 216.759V182.834Z" fill="url(#paint42_linear_141_726)"/>
<path d="M841.473 187.699C846.126 190.378 853.669 190.378 858.322 187.699C862.975 185.02 862.975 180.663 858.322 177.97C853.669 175.291 846.126 175.291 841.473 177.97C836.82 180.649 836.82 185.006 841.473 187.699Z" fill="white"/>
<path opacity="0.5" d="M841.473 187.192C846.126 189.871 853.67 189.871 858.323 187.192C860.536 185.908 861.678 184.259 861.791 182.581C861.904 184.428 860.762 186.289 858.323 187.699C853.67 190.378 846.126 190.378 841.473 187.699C839.034 186.289 837.892 184.428 838.004 182.581C838.117 184.259 839.259 185.908 841.473 187.192Z" fill="white"/>
<path d="M857.674 176.828H881.488V228.124C881.488 229.886 880.332 231.649 878.006 232.988C873.353 235.667 865.809 235.667 861.156 232.988C858.83 231.649 857.674 229.886 857.674 228.124V176.828Z" fill="url(#paint43_linear_141_726)"/>
<path d="M857.674 176.828H881.488V228.124C881.488 229.886 880.332 231.649 878.006 232.988C873.353 235.667 865.809 235.667 861.156 232.988C858.83 231.649 857.674 229.886 857.674 228.124V176.828Z" fill="url(#paint44_linear_141_726)"/>
<path d="M861.17 181.693C865.823 184.372 873.367 184.372 878.02 181.693C882.673 179.014 882.673 174.657 878.02 171.964C873.367 169.285 865.823 169.285 861.17 171.964C856.517 174.643 856.517 178.999 861.17 181.693Z" fill="white"/>
<path opacity="0.5" d="M861.17 181.185C865.823 183.864 873.367 183.864 878.02 181.185C880.234 179.902 881.376 178.252 881.489 176.574C881.601 178.421 880.459 180.283 878.02 181.693C873.367 184.372 865.823 184.372 861.17 181.693C858.731 180.283 857.589 178.421 857.702 176.574C857.815 178.252 858.957 179.902 861.17 181.185Z" fill="white"/>
<path d="M877.371 197.428H901.186V239.474C901.186 241.237 900.03 242.999 897.703 244.339C893.05 247.018 885.507 247.018 880.854 244.339C878.527 242.999 877.371 241.237 877.371 239.474V197.428Z" fill="url(#paint45_linear_141_726)"/>
<path d="M877.371 197.428H901.186V239.474C901.186 241.237 900.03 242.999 897.703 244.339C893.05 247.018 885.507 247.018 880.854 244.339C878.527 242.999 877.371 241.237 877.371 239.474V197.428Z" fill="url(#paint46_linear_141_726)"/>
<path d="M880.854 202.293C885.507 204.972 893.051 204.972 897.704 202.293C902.357 199.614 902.357 195.257 897.704 192.564C893.051 189.885 885.507 189.885 880.854 192.564C876.201 195.243 876.201 199.6 880.854 202.293Z" fill="white"/>
<path opacity="0.5" d="M880.854 201.785C885.507 204.464 893.05 204.464 897.703 201.785C899.917 200.502 901.059 198.852 901.172 197.175C901.285 199.022 900.143 200.883 897.703 202.293C893.05 204.972 885.507 204.972 880.854 202.293C878.415 200.883 877.272 199.022 877.385 197.175C877.498 198.852 878.64 200.502 880.854 201.785Z" fill="white"/>
<path d="M897.069 219.156H920.884V250.839C920.884 252.601 919.728 254.364 917.402 255.703C912.749 258.382 905.205 258.382 900.552 255.703C898.226 254.364 897.069 252.601 897.069 250.839V219.156Z" fill="url(#paint47_linear_141_726)"/>
<path d="M897.069 219.156H920.884V250.839C920.884 252.601 919.728 254.364 917.402 255.703C912.749 258.382 905.205 258.382 900.552 255.703C898.226 254.364 897.069 252.601 897.069 250.839V219.156Z" fill="url(#paint48_linear_141_726)"/>
<path d="M900.552 224.021C905.205 226.7 912.748 226.7 917.401 224.021C922.054 221.342 922.054 216.985 917.401 214.292C912.748 211.613 905.205 211.613 900.552 214.292C895.899 216.971 895.899 221.328 900.552 224.021Z" fill="white"/>
<path opacity="0.5" d="M900.552 223.499C905.205 226.178 912.749 226.178 917.402 223.499C919.615 222.216 920.757 220.566 920.87 218.888C920.983 220.736 919.841 222.597 917.402 224.007C912.749 226.686 905.205 226.686 900.552 224.007C898.113 222.597 896.971 220.736 897.083 218.888C897.196 220.566 898.338 222.216 900.552 223.499Z" fill="white"/>
<path d="M1004.36 133.767L1006.67 135.219L1006.94 133.527L1004.64 132.061L1004.36 133.767Z" fill="#25F8F6"/>
<path d="M1002.51 145.259L1004.82 146.725L1006.41 136.77L1004.12 135.304L1002.51 145.259Z" fill="#25F8F6"/>
<path d="M1001.64 150.757L1003.93 152.224L1004.57 148.276L1002.27 146.809L1001.64 150.757Z" fill="#25F8F6"/>
<path d="M1000.72 156.454L1003.02 157.92L1003.65 153.972L1001.35 152.506L1000.72 156.454Z" fill="#25F8F6"/>
<path d="M1000.04 137.08L1002.35 138.533L1002.99 134.585L1000.68 133.132L1000.04 137.08Z" fill="#25F8F6"/>
<path d="M998.829 144.624L1001.14 146.09L1002.07 140.295L999.76 138.829L998.829 144.624Z" fill="#25F8F6"/>
<path d="M997.715 151.575L1000.03 153.028L1000.82 148.065L998.519 146.598L997.715 151.575Z" fill="#25F8F6"/>
<path d="M999.802 162.15L1002.1 163.617L1002.73 159.669L1000.44 158.202L999.802 162.15Z" fill="#25F8F6"/>
<path d="M1000.93 131.581L1003.23 133.048L1003.5 131.342L1001.2 129.875L1000.93 131.581Z" fill="#25F8F6"/>
<path d="M997.207 166.592L1001.23 169.144L1001.48 167.494L997.461 164.942L997.207 166.592Z" fill="#25F8F6"/>
<defs>
<filter id="filter0_f_141_726" x="448" y="-635" width="1538" height="1538" filterUnits="userSpaceOnUse" color-interpolation-filters="sRGB">
<feFlood flood-opacity="0" result="BackgroundImageFix"/>
<feBlend mode="normal" in="SourceGraphic" in2="BackgroundImageFix" result="shape"/>
<feGaussianBlur stdDeviation="250" result="effect1_foregroundBlur_141_726"/>
</filter>
<filter id="filter1_f_141_726" x="0.418213" y="-41.5818" width="1383.16" height="1383.16" filterUnits="userSpaceOnUse" color-interpolation-filters="sRGB">
<feFlood flood-opacity="0" result="BackgroundImageFix"/>
<feBlend mode="normal" in="SourceGraphic" in2="BackgroundImageFix" result="shape"/>
<feGaussianBlur stdDeviation="200" result="effect1_foregroundBlur_141_726"/>
</filter>
<radialGradient id="paint0_radial_141_726" cx="0" cy="0" r="1" gradientUnits="userSpaceOnUse" gradientTransform="translate(1217 134) rotate(90) scale(269)">
<stop stop-color="#21FDF6"/>
<stop offset="1" stop-color="#21FDF6" stop-opacity="0"/>
</radialGradient>
<radialGradient id="paint1_radial_141_726" cx="0" cy="0" r="1" gradientUnits="userSpaceOnUse" gradientTransform="translate(692 650) rotate(90) scale(291.582)">
<stop stop-color="#B721FF"/>
<stop offset="1" stop-color="#B721FF" stop-opacity="0"/>
</radialGradient>
<radialGradient id="paint2_radial_141_726" cx="0" cy="0" r="1" gradientUnits="userSpaceOnUse" gradientTransform="translate(1074.08 125.288) rotate(-138.476) scale(25.5074 25.7198)">
<stop stop-color="white"/>
<stop offset="0.15" stop-color="#575757" stop-opacity="0.77"/>
<stop offset="0.32" stop-color="#05041A" stop-opacity="0.54"/>
<stop offset="0.48" stop-color="#05041A" stop-opacity="0.35"/>
<stop offset="0.64" stop-color="#05041A" stop-opacity="0.2"/>
<stop offset="0.78" stop-color="#05041A" stop-opacity="0.09"/>
<stop offset="0.9" stop-color="#05041A" stop-opacity="0.02"/>
<stop offset="1" stop-color="#05041A" stop-opacity="0"/>
</radialGradient>
<radialGradient id="paint3_radial_141_726" cx="0" cy="0" r="1" gradientUnits="userSpaceOnUse" gradientTransform="translate(434.739 80.9345) rotate(-138.476) scale(25.5074 25.7198)">
<stop stop-color="white"/>
<stop offset="0.15" stop-color="#575757" stop-opacity="0.77"/>
<stop offset="0.32" stop-color="#05041A" stop-opacity="0.54"/>
<stop offset="0.48" stop-color="#05041A" stop-opacity="0.35"/>
<stop offset="0.64" stop-color="#05041A" stop-opacity="0.2"/>
<stop offset="0.78" stop-color="#05041A" stop-opacity="0.09"/>
<stop offset="0.9" stop-color="#05041A" stop-opacity="0.02"/>
<stop offset="1" stop-color="#05041A" stop-opacity="0"/>
</radialGradient>
<radialGradient id="paint4_radial_141_726" cx="0" cy="0" r="1" gradientUnits="userSpaceOnUse" gradientTransform="translate(196.986 130.772) rotate(-138.476) scale(17.8552 18.0039)">
<stop stop-color="white"/>
<stop offset="0.15" stop-color="#575757" stop-opacity="0.77"/>
<stop offset="0.32" stop-color="#05041A" stop-opacity="0.54"/>
<stop offset="0.48" stop-color="#05041A" stop-opacity="0.35"/>
<stop offset="0.64" stop-color="#05041A" stop-opacity="0.2"/>
<stop offset="0.78" stop-color="#05041A" stop-opacity="0.09"/>
<stop offset="0.9" stop-color="#05041A" stop-opacity="0.02"/>
<stop offset="1" stop-color="#05041A" stop-opacity="0"/>
</radialGradient>
<radialGradient id="paint5_radial_141_726" cx="0" cy="0" r="1" gradientUnits="userSpaceOnUse" gradientTransform="translate(224.956 192.569) rotate(-138.476) scale(17.8552 18.0039)">
<stop stop-color="white"/>
<stop offset="0.15" stop-color="#575757" stop-opacity="0.77"/>
<stop offset="0.32" stop-color="#05041A" stop-opacity="0.54"/>
<stop offset="0.48" stop-color="#05041A" stop-opacity="0.35"/>
<stop offset="0.64" stop-color="#05041A" stop-opacity="0.2"/>
<stop offset="0.78" stop-color="#05041A" stop-opacity="0.09"/>
<stop offset="0.9" stop-color="#05041A" stop-opacity="0.02"/>
<stop offset="1" stop-color="#05041A" stop-opacity="0"/>
</radialGradient>
<radialGradient id="paint6_radial_141_726" cx="0" cy="0" r="1" gradientUnits="userSpaceOnUse" gradientTransform="translate(258.921 86.8167) rotate(-138.476) scale(17.8552 18.0039)">
<stop stop-color="white"/>
<stop offset="0.15" stop-color="#575757" stop-opacity="0.77"/>
<stop offset="0.32" stop-color="#05041A" stop-opacity="0.54"/>
<stop offset="0.48" stop-color="#05041A" stop-opacity="0.35"/>
<stop offset="0.64" stop-color="#05041A" stop-opacity="0.2"/>
<stop offset="0.78" stop-color="#05041A" stop-opacity="0.09"/>
<stop offset="0.9" stop-color="#05041A" stop-opacity="0.02"/>
<stop offset="1" stop-color="#05041A" stop-opacity="0"/>
</radialGradient>
<radialGradient id="paint7_radial_141_726" cx="0" cy="0" r="1" gradientUnits="userSpaceOnUse" gradientTransform="translate(326.851 292.055) rotate(-138.476) scale(17.8552 18.0039)">
<stop stop-color="white"/>
<stop offset="0.15" stop-color="#575757" stop-opacity="0.77"/>
<stop offset="0.32" stop-color="#05041A" stop-opacity="0.54"/>
<stop offset="0.48" stop-color="#05041A" stop-opacity="0.35"/>
<stop offset="0.64" stop-color="#05041A" stop-opacity="0.2"/>
<stop offset="0.78" stop-color="#05041A" stop-opacity="0.09"/>
<stop offset="0.9" stop-color="#05041A" stop-opacity="0.02"/>
<stop offset="1" stop-color="#05041A" stop-opacity="0"/>
</radialGradient>
<radialGradient id="paint8_radial_141_726" cx="0" cy="0" r="1" gradientUnits="userSpaceOnUse" gradientTransform="translate(1094.06 182.601) rotate(-138.476) scale(71.4207 72.0154)">
<stop stop-color="white"/>
<stop offset="0.15" stop-color="#575757" stop-opacity="0.77"/>
<stop offset="0.32" stop-color="#05041A" stop-opacity="0.54"/>
<stop offset="0.48" stop-color="#05041A" stop-opacity="0.35"/>
<stop offset="0.64" stop-color="#05041A" stop-opacity="0.2"/>
<stop offset="0.78" stop-color="#05041A" stop-opacity="0.09"/>
<stop offset="0.9" stop-color="#05041A" stop-opacity="0.02"/>
<stop offset="1" stop-color="#05041A" stop-opacity="0"/>
</radialGradient>
<radialGradient id="paint9_radial_141_726" cx="0" cy="0" r="1" gradientUnits="userSpaceOnUse" gradientTransform="translate(810.352 242.405) rotate(-138.476) scale(71.4207 72.0154)">
<stop stop-color="white"/>
<stop offset="0.15" stop-color="#575757" stop-opacity="0.77"/>
<stop offset="0.32" stop-color="#05041A" stop-opacity="0.54"/>
<stop offset="0.48" stop-color="#05041A" stop-opacity="0.35"/>
<stop offset="0.64" stop-color="#05041A" stop-opacity="0.2"/>
<stop offset="0.78" stop-color="#05041A" stop-opacity="0.09"/>
<stop offset="0.9" stop-color="#05041A" stop-opacity="0.02"/>
<stop offset="1" stop-color="#05041A" stop-opacity="0"/>
</radialGradient>
<radialGradient id="paint10_radial_141_726" cx="0" cy="0" r="1" gradientUnits="userSpaceOnUse" gradientTransform="translate(520.687 172.634) rotate(-138.476) scale(71.4207 72.0154)">
<stop stop-color="white"/>
<stop offset="0.15" stop-color="#575757" stop-opacity="0.77"/>
<stop offset="0.32" stop-color="#05041A" stop-opacity="0.54"/>
<stop offset="0.48" stop-color="#05041A" stop-opacity="0.35"/>
<stop offset="0.64" stop-color="#05041A" stop-opacity="0.2"/>
<stop offset="0.78" stop-color="#05041A" stop-opacity="0.09"/>
<stop offset="0.9" stop-color="#05041A" stop-opacity="0.02"/>
<stop offset="1" stop-color="#05041A" stop-opacity="0"/>
</radialGradient>
<radialGradient id="paint11_radial_141_726" cx="0" cy="0" r="1" gradientUnits="userSpaceOnUse" gradientTransform="translate(368.808 242.405) rotate(-138.476) scale(71.4207 72.0154)">
<stop stop-color="white"/>
<stop offset="0.15" stop-color="#575757" stop-opacity="0.77"/>
<stop offset="0.32" stop-color="#05041A" stop-opacity="0.54"/>
<stop offset="0.48" stop-color="#05041A" stop-opacity="0.35"/>
<stop offset="0.64" stop-color="#05041A" stop-opacity="0.2"/>
<stop offset="0.78" stop-color="#05041A" stop-opacity="0.09"/>
<stop offset="0.9" stop-color="#05041A" stop-opacity="0.02"/>
<stop offset="1" stop-color="#05041A" stop-opacity="0"/>
</radialGradient>
<radialGradient id="paint12_radial_141_726" cx="0" cy="0" r="1" gradientUnits="userSpaceOnUse" gradientTransform="translate(1022.13 146.719) rotate(-138.476) scale(51.0148 51.4396)">
<stop stop-color="white"/>
<stop offset="0.15" stop-color="#575757" stop-opacity="0.77"/>
<stop offset="0.32" stop-color="#05041A" stop-opacity="0.54"/>
<stop offset="0.48" stop-color="#05041A" stop-opacity="0.35"/>
<stop offset="0.64" stop-color="#05041A" stop-opacity="0.2"/>
<stop offset="0.78" stop-color="#05041A" stop-opacity="0.09"/>
<stop offset="0.9" stop-color="#05041A" stop-opacity="0.02"/>
<stop offset="1" stop-color="#05041A" stop-opacity="0"/>
</radialGradient>
<radialGradient id="paint13_radial_141_726" cx="0" cy="0" r="1" gradientUnits="userSpaceOnUse" gradientTransform="translate(1038.12 338.091) rotate(-138.476) scale(35.7104 36.0077)">
<stop stop-color="white"/>
<stop offset="0.15" stop-color="#575757" stop-opacity="0.77"/>
<stop offset="0.32" stop-color="#05041A" stop-opacity="0.54"/>
<stop offset="0.48" stop-color="#05041A" stop-opacity="0.35"/>
<stop offset="0.64" stop-color="#05041A" stop-opacity="0.2"/>
<stop offset="0.78" stop-color="#05041A" stop-opacity="0.09"/>
<stop offset="0.9" stop-color="#05041A" stop-opacity="0.02"/>
<stop offset="1" stop-color="#05041A" stop-opacity="0"/>
</radialGradient>
<radialGradient id="paint14_radial_141_726" cx="0" cy="0" r="1" gradientUnits="userSpaceOnUse" gradientTransform="translate(962 341.544) rotate(90) scale(18.5 32)">
<stop stop-color="#3CD6F8"/>
<stop offset="0.29" stop-color="#3CD6F8" stop-opacity="0.506767"/>
<stop offset="0.665" stop-color="#3CD6F8" stop-opacity="0.2"/>
<stop offset="1" stop-color="#3CD6F8" stop-opacity="0"/>
</radialGradient>
<radialGradient id="paint15_radial_141_726" cx="0" cy="0" r="1" gradientUnits="userSpaceOnUse" gradientTransform="translate(874 386.5) rotate(90) scale(18.5 32)">
<stop stop-color="#47C6F9"/>
<stop offset="0.29" stop-color="#47C6F9" stop-opacity="0.506767"/>
<stop offset="0.665" stop-color="#47C6F9" stop-opacity="0.2"/>
<stop offset="1" stop-color="#47C6F9" stop-opacity="0"/>
</radialGradient>
<radialGradient id="paint16_radial_141_726" cx="0" cy="0" r="1" gradientUnits="userSpaceOnUse" gradientTransform="translate(745 318.544) rotate(90) scale(18.5 32)">
<stop stop-color="#5FA3FA"/>
<stop offset="0.29" stop-color="#5FA3FA" stop-opacity="0.506767"/>
<stop offset="0.665" stop-color="#5FA3FA" stop-opacity="0.2"/>
<stop offset="1" stop-color="#5FA3FA" stop-opacity="0"/>
</radialGradient>
<radialGradient id="paint17_radial_141_726" cx="0" cy="0" r="1" gradientUnits="userSpaceOnUse" gradientTransform="translate(575 371.5) rotate(90) scale(18.5 32)">
<stop stop-color="#7781FC"/>
<stop offset="0.29" stop-color="#7781FC" stop-opacity="0.506767"/>
<stop offset="0.665" stop-color="#7781FC" stop-opacity="0.2"/>
<stop offset="1" stop-color="#7781FC" stop-opacity="0"/>
</radialGradient>
<linearGradient id="paint18_linear_141_726" x1="113" y1="263.544" x2="1036.08" y2="611.549" gradientUnits="userSpaceOnUse">
<stop stop-color="#B721FF"/>
<stop offset="1" stop-color="#21FDF6"/>
</linearGradient>
<linearGradient id="paint19_linear_141_726" x1="649.682" y1="196.25" x2="680.426" y2="143" gradientUnits="userSpaceOnUse">
<stop stop-color="#B721FF"/>
<stop offset="1" stop-color="#21FDF6"/>
</linearGradient>
<radialGradient id="paint20_radial_141_726" cx="0" cy="0" r="1" gradientUnits="userSpaceOnUse" gradientTransform="translate(28 28) rotate(90) scale(28)">
<stop stop-color="#3CD6F8"/>
<stop offset="0.29" stop-color="#3CD6F8" stop-opacity="0.506767"/>
<stop offset="0.665" stop-color="#3CD6F8" stop-opacity="0.2"/>
<stop offset="1" stop-color="#3CD6F8" stop-opacity="0"/>
</radialGradient>
<linearGradient id="paint21_linear_141_726" x1="582.945" y1="301.25" x2="613.689" y2="248" gradientUnits="userSpaceOnUse">
<stop stop-color="#B721FF"/>
<stop offset="1" stop-color="#21FDF6"/>
</linearGradient>
<radialGradient id="paint22_radial_141_726" cx="0" cy="0" r="1" gradientUnits="userSpaceOnUse" gradientTransform="translate(28 28) rotate(90) scale(28)">
<stop stop-color="#3CD6F8"/>
<stop offset="0.29" stop-color="#3CD6F8" stop-opacity="0.506767"/>
<stop offset="0.665" stop-color="#3CD6F8" stop-opacity="0.2"/>
<stop offset="1" stop-color="#3CD6F8" stop-opacity="0"/>
</radialGradient>
<linearGradient id="paint23_linear_141_726" x1="985.682" y1="237.25" x2="1016.43" y2="184" gradientUnits="userSpaceOnUse">
<stop stop-color="#B721FF"/>
<stop offset="1" stop-color="#21FDF6"/>
</linearGradient>
<radialGradient id="paint24_radial_141_726" cx="0" cy="0" r="1" gradientUnits="userSpaceOnUse" gradientTransform="translate(28 28) rotate(90) scale(28)">
<stop stop-color="#3CD6F8"/>
<stop offset="0.29" stop-color="#3CD6F8" stop-opacity="0.506767"/>
<stop offset="0.665" stop-color="#3CD6F8" stop-opacity="0.2"/>
<stop offset="1" stop-color="#3CD6F8" stop-opacity="0"/>
</radialGradient>
<linearGradient id="paint25_linear_141_726" x1="926.945" y1="90.25" x2="957.689" y2="37" gradientUnits="userSpaceOnUse">
<stop stop-color="#B721FF"/>
<stop offset="1" stop-color="#21FDF6"/>
</linearGradient>
<radialGradient id="paint26_radial_141_726" cx="0" cy="0" r="1" gradientUnits="userSpaceOnUse" gradientTransform="translate(28 28) rotate(90) scale(28)">
<stop stop-color="#3CD6F8"/>
<stop offset="0.29" stop-color="#3CD6F8" stop-opacity="0.506767"/>
<stop offset="0.665" stop-color="#3CD6F8" stop-opacity="0.2"/>
<stop offset="1" stop-color="#3CD6F8" stop-opacity="0"/>
</radialGradient>
<linearGradient id="paint27_linear_141_726" x1="821.615" y1="172.885" x2="799.663" y2="172.885" gradientUnits="userSpaceOnUse">
<stop stop-color="#59668C"/>
<stop offset="1" stop-color="#99B0F2"/>
</linearGradient>
<linearGradient id="paint28_linear_141_726" x1="797.465" y1="158.428" x2="809.577" y2="159.469" gradientUnits="userSpaceOnUse">
<stop stop-color="#B721FF"/>
<stop offset="1" stop-color="#21FDF6"/>
</linearGradient>
<linearGradient id="paint29_linear_141_726" x1="797.465" y1="169.51" x2="809.577" y2="170.551" gradientUnits="userSpaceOnUse">
<stop stop-color="#B721FF"/>
<stop offset="1" stop-color="#21FDF6"/>
</linearGradient>
<linearGradient id="paint30_linear_141_726" x1="808.888" y1="185.33" x2="1431.57" y2="185.33" gradientUnits="userSpaceOnUse">
<stop stop-color="#42E8E0"/>
<stop offset="0.15" stop-color="#42E3DF"/>
<stop offset="0.33" stop-color="#44D4DE"/>
<stop offset="0.52" stop-color="#48BDDD"/>
<stop offset="0.72" stop-color="#4D9BDA"/>
<stop offset="0.93" stop-color="#5471D8"/>
<stop offset="1" stop-color="#5761D7"/>
</linearGradient>
<linearGradient id="paint31_linear_141_726" x1="913.303" y1="94.2296" x2="786.349" y2="94.2296" gradientUnits="userSpaceOnUse">
<stop stop-color="#59668C"/>
<stop offset="1" stop-color="#99B0F2"/>
</linearGradient>
<linearGradient id="paint32_linear_141_726" x1="885.851" y1="98.9589" x2="778.98" y2="98.9589" gradientUnits="userSpaceOnUse">
<stop stop-color="#99B0F2"/>
<stop offset="1" stop-color="#7F93C9"/>
</linearGradient>
<linearGradient id="paint33_linear_141_726" x1="763.995" y1="75.29" x2="804.245" y2="54.1162" gradientUnits="userSpaceOnUse">
<stop stop-color="#B721FF"/>
<stop offset="1" stop-color="#21FDF6"/>
</linearGradient>
<linearGradient id="paint34_linear_141_726" x1="908.3" y1="97.4859" x2="777.037" y2="97.4859" gradientUnits="userSpaceOnUse">
<stop stop-color="#59668C"/>
<stop offset="1" stop-color="#99B0F2"/>
</linearGradient>
<radialGradient id="paint35_radial_141_726" cx="0" cy="0" r="1" gradientUnits="userSpaceOnUse" gradientTransform="translate(88.8354) rotate(90) scale(52.9029 27.2317)">
<stop stop-color="#B721FF"/>
<stop offset="1" stop-color="#B721FF" stop-opacity="0"/>
</radialGradient>
<linearGradient id="paint36_linear_141_726" x1="870.956" y1="245.82" x2="804.263" y2="245.82" gradientUnits="userSpaceOnUse">
<stop stop-color="#C0BFF6"/>
<stop offset="0.29" stop-color="#C4C3F6"/>
<stop offset="0.64" stop-color="#D2D2F9"/>
<stop offset="1" stop-color="#E9E9FD"/>
</linearGradient>
<linearGradient id="paint37_linear_141_726" x1="842.108" y1="183.399" x2="818.42" y2="183.399" gradientUnits="userSpaceOnUse">
<stop stop-color="#C0BFF6"/>
<stop offset="0.49" stop-color="#D1D1F9"/>
<stop offset="1" stop-color="#E9E9FD"/>
</linearGradient>
<linearGradient id="paint38_linear_141_726" x1="868.644" y1="183.399" x2="822.875" y2="183.399" gradientUnits="userSpaceOnUse">
<stop stop-color="#59668C"/>
<stop offset="1" stop-color="#99B0F2"/>
</linearGradient>
<linearGradient id="paint39_linear_141_726" x1="4171.4" y1="149.234" x2="4169.99" y2="149.234" gradientUnits="userSpaceOnUse">
<stop stop-color="#C0BFF6"/>
<stop offset="0.49" stop-color="#D1D1F9"/>
<stop offset="1" stop-color="#E9E9FD"/>
</linearGradient>
<linearGradient id="paint40_linear_141_726" x1="868.644" y1="149.232" x2="822.875" y2="149.232" gradientUnits="userSpaceOnUse">
<stop stop-color="#59668C"/>
<stop offset="1" stop-color="#99B0F2"/>
</linearGradient>
<linearGradient id="paint41_linear_141_726" x1="861.805" y1="203.237" x2="838.117" y2="203.237" gradientUnits="userSpaceOnUse">
<stop stop-color="#C0BFF6"/>
<stop offset="0.49" stop-color="#D1D1F9"/>
<stop offset="1" stop-color="#E9E9FD"/>
</linearGradient>
<linearGradient id="paint42_linear_141_726" x1="888.327" y1="203.236" x2="842.559" y2="203.236" gradientUnits="userSpaceOnUse">
<stop stop-color="#59668C"/>
<stop offset="1" stop-color="#99B0F2"/>
</linearGradient>
<linearGradient id="paint43_linear_141_726" x1="881.488" y1="205.902" x2="857.815" y2="205.902" gradientUnits="userSpaceOnUse">
<stop stop-color="#C0BFF6"/>
<stop offset="0.49" stop-color="#D1D1F9"/>
<stop offset="1" stop-color="#E9E9FD"/>
</linearGradient>
<linearGradient id="paint44_linear_141_726" x1="908.025" y1="205.916" x2="862.256" y2="205.916" gradientUnits="userSpaceOnUse">
<stop stop-color="#59668C"/>
<stop offset="1" stop-color="#99B0F2"/>
</linearGradient>
<linearGradient id="paint45_linear_141_726" x1="901.186" y1="221.892" x2="877.498" y2="221.892" gradientUnits="userSpaceOnUse">
<stop stop-color="#C0BFF6"/>
<stop offset="0.49" stop-color="#D1D1F9"/>
<stop offset="1" stop-color="#E9E9FD"/>
</linearGradient>
<linearGradient id="paint46_linear_141_726" x1="927.722" y1="221.891" x2="881.954" y2="221.891" gradientUnits="userSpaceOnUse">
<stop stop-color="#59668C"/>
<stop offset="1" stop-color="#99B0F2"/>
</linearGradient>
<linearGradient id="paint47_linear_141_726" x1="920.884" y1="238.431" x2="897.196" y2="238.431" gradientUnits="userSpaceOnUse">
<stop stop-color="#C0BFF6"/>
<stop offset="0.49" stop-color="#D1D1F9"/>
<stop offset="1" stop-color="#E9E9FD"/>
</linearGradient>
<linearGradient id="paint48_linear_141_726" x1="947.421" y1="238.437" x2="901.652" y2="238.437" gradientUnits="userSpaceOnUse">
<stop stop-color="#59668C"/>
<stop offset="1" stop-color="#99B0F2"/>
</linearGradient>
</defs>
</svg>
