<svg width="20" height="20" viewBox="0 0 20 20" fill="none" xmlns="http://www.w3.org/2000/svg">
<g filter="url(#filter0_i_2292_1445)">
<rect width="20" height="20" rx="10" fill="white" fill-opacity="0.06"/>
<rect x="0.2" y="0.2" width="19.6" height="19.6" rx="9.8" stroke="url(#paint0_linear_2292_1445)" stroke-width="0.4"/>
<path d="M8.10415 7.80127H11.8958V6.67952C11.8958 6.6346 11.8771 6.59348 11.8397 6.55615C11.8023 6.51872 11.7612 6.5 11.7163 6.5H8.28367C8.23875 6.5 8.19763 6.51872 8.16029 6.55615C8.12286 6.59348 8.10415 6.6346 8.10415 6.67952V7.80127ZM4.98565 14.375C4.83622 14.375 4.71099 14.3244 4.60998 14.2233C4.50887 14.1223 4.45831 13.9971 4.45831 13.8477V11.5256H6.61213V11.6714C6.61213 11.7954 6.65408 11.8993 6.73798 11.9832C6.82188 12.067 6.92586 12.1089 7.04992 12.1089C7.17388 12.1089 7.27776 12.067 7.36156 11.9832C7.44527 11.8993 7.48713 11.7954 7.48713 11.6714V11.5256H12.5128V11.6714C12.5128 11.7954 12.5548 11.8993 12.6387 11.9832C12.7226 12.067 12.8265 12.1089 12.9505 12.1089C13.0745 12.1089 13.1784 12.067 13.2621 11.9832C13.3459 11.8993 13.3878 11.7954 13.3878 11.6714V11.5256H15.5416V13.8477C15.5416 13.9971 15.4911 14.1223 15.39 14.2233C15.289 14.3244 15.1637 14.375 15.0143 14.375H4.98565ZM4.45831 11.0096V8.85769C4.45831 8.56174 4.5604 8.31169 4.76456 8.10752C4.96873 7.90335 5.21815 7.80127 5.51283 7.80127H7.22915V6.67952C7.22915 6.38484 7.33123 6.13542 7.5354 5.93125C7.73956 5.72708 7.98899 5.625 8.28367 5.625H11.7163C12.011 5.625 12.2604 5.72708 12.4646 5.93125C12.6687 6.13542 12.7708 6.38484 12.7708 6.67952V7.80127H14.4871C14.7818 7.80127 15.0312 7.90335 15.2354 8.10752C15.4396 8.31169 15.5416 8.56174 15.5416 8.85769V11.0096H13.3878V10.5047C13.3878 10.3809 13.3459 10.277 13.262 10.1931C13.1781 10.1093 13.0741 10.0674 12.95 10.0674C12.8261 10.0674 12.7222 10.1093 12.6384 10.1931C12.5547 10.277 12.5128 10.3809 12.5128 10.5047V11.0096H7.48713V10.5047C7.48713 10.3809 7.44517 10.277 7.36127 10.1931C7.27737 10.1093 7.17344 10.0674 7.04948 10.0674C6.92542 10.0674 6.82154 10.1093 6.73783 10.1931C6.65403 10.277 6.61213 10.3809 6.61213 10.5047V11.0096H4.45831Z" fill="white"/>
</g>
<defs>
<filter id="filter0_i_2292_1445" x="0" y="-2" width="20" height="22" filterUnits="userSpaceOnUse" color-interpolation-filters="sRGB">
<feFlood flood-opacity="0" result="BackgroundImageFix"/>
<feBlend mode="normal" in="SourceGraphic" in2="BackgroundImageFix" result="shape"/>
<feColorMatrix in="SourceAlpha" type="matrix" values="0 0 0 0 0 0 0 0 0 0 0 0 0 0 0 0 0 0 127 0" result="hardAlpha"/>
<feOffset dy="-2"/>
<feGaussianBlur stdDeviation="1"/>
<feComposite in2="hardAlpha" operator="arithmetic" k2="-1" k3="1"/>
<feColorMatrix type="matrix" values="0 0 0 0 1 0 0 0 0 1 0 0 0 0 1 0 0 0 0.14 0"/>
<feBlend mode="normal" in2="shape" result="effect1_innerShadow_2292_1445"/>
</filter>
<linearGradient id="paint0_linear_2292_1445" x1="10" y1="-1.76471" x2="10" y2="20" gradientUnits="userSpaceOnUse">
<stop stop-color="white" stop-opacity="0"/>
<stop offset="1" stop-color="white" stop-opacity="0.3"/>
</linearGradient>
</defs>
</svg>
