<svg width="384" height="122" viewBox="0 0 384 122" fill="none" xmlns="http://www.w3.org/2000/svg">
<path style="mix-blend-mode:color-dodge" d="M345.996 25.5493C345.996 21.1765 349.541 17.6317 353.913 17.6317C358.286 17.6317 361.831 21.1765 361.831 25.5493C361.831 29.922 358.286 33.4668 353.913 33.4668C349.541 33.4668 345.996 29.922 345.996 25.5493Z" fill="url(#paint0_radial_2292_1076)" fill-opacity="0.8"/>
<path style="mix-blend-mode:color-dodge" d="M92.635 7.93304C92.635 3.56031 96.1798 0.0155348 100.553 0.015535C104.925 0.0155352 108.47 3.56032 108.47 7.93304C108.47 12.3058 104.925 15.8506 100.553 15.8506C96.1798 15.8506 92.635 12.3058 92.635 7.93304Z" fill="url(#paint1_radial_2292_1076)" fill-opacity="0.8"/>
<path style="mix-blend-mode:color-dodge" d="M0.791806 27.727C0.791807 24.6661 3.27316 22.1848 6.33407 22.1848C9.39499 22.1848 11.8763 24.6661 11.8763 27.727C11.8763 30.7879 9.39499 33.2693 6.33407 33.2693C3.27316 33.2693 0.791806 30.7879 0.791806 27.727Z" fill="url(#paint2_radial_2292_1076)" fill-opacity="0.8"/>
<path style="mix-blend-mode:color-dodge" d="M11.8763 52.2712C11.8763 49.2103 14.3577 46.7289 17.4186 46.7289C20.4795 46.7289 22.9609 49.2103 22.9609 52.2712C22.9609 55.3321 20.4795 57.8135 17.4186 57.8135C14.3577 57.8135 11.8763 55.3321 11.8763 52.2712Z" fill="url(#paint3_radial_2292_1076)" fill-opacity="0.8"/>
<path style="mix-blend-mode:color-dodge" d="M25.3361 22.1845C25.3361 19.1236 27.8175 16.6423 30.8784 16.6423C33.9393 16.6423 36.4207 19.1236 36.4207 22.1845C36.4207 25.2454 33.9393 27.7268 30.8784 27.7268C27.8175 27.7268 25.3361 25.2454 25.3361 22.1845Z" fill="url(#paint4_radial_2292_1076)" fill-opacity="0.8"/>
<path style="mix-blend-mode:color-dodge" d="M52.2559 91.7844C52.2559 88.7235 54.7373 86.2421 57.7982 86.2421C60.8591 86.2421 63.3405 88.7235 63.3405 91.7844C63.3405 94.8453 60.8591 97.3267 57.7982 97.3267C54.7373 97.3267 52.2559 94.8453 52.2559 91.7844Z" fill="url(#paint5_radial_2292_1076)" fill-opacity="0.8"/>
<path style="mix-blend-mode:color-dodge" d="M339.662 48.3123C339.662 36.0687 349.587 26.1433 361.831 26.1433C374.075 26.1433 384 36.0687 384 48.3123C384 60.556 374.075 70.4814 361.831 70.4814C349.587 70.4814 339.662 60.556 339.662 48.3123Z" fill="url(#paint6_radial_2292_1076)" fill-opacity="0.8"/>
<path style="mix-blend-mode:color-dodge" d="M227.233 72.065C227.233 59.8214 237.159 49.896 249.402 49.896C261.646 49.896 271.571 59.8214 271.571 72.065C271.571 84.3087 261.646 94.2341 249.402 94.2341C237.159 94.2341 227.233 84.3087 227.233 72.065Z" fill="url(#paint7_radial_2292_1076)" fill-opacity="0.8"/>
<path style="mix-blend-mode:color-dodge" d="M112.443 44.3536C112.443 32.1099 122.369 22.1846 134.612 22.1846C146.856 22.1846 156.781 32.1099 156.781 44.3536C156.781 56.5972 146.856 66.5227 134.612 66.5227C122.369 66.5227 112.443 56.5972 112.443 44.3536Z" fill="url(#paint8_radial_2292_1076)" fill-opacity="0.8"/>
<path style="mix-blend-mode:color-dodge" d="M52.2558 72.065C52.2558 59.8214 62.1813 49.896 74.4249 49.896C86.6686 49.896 96.594 59.8214 96.594 72.065C96.594 84.3087 86.6686 94.2341 74.4249 94.2341C62.1813 94.2341 52.2558 84.3087 52.2558 72.065Z" fill="url(#paint9_radial_2292_1076)" fill-opacity="0.8"/>
<path style="mix-blend-mode:color-dodge" d="M317.493 34.0609C317.493 25.3155 324.583 18.2259 333.328 18.2259C342.073 18.2259 349.163 25.3155 349.163 34.0609C349.163 42.8064 342.073 49.896 333.328 49.896C324.583 49.896 317.493 42.8064 317.493 34.0609Z" fill="url(#paint10_radial_2292_1076)" fill-opacity="0.8"/>
<path style="mix-blend-mode:color-dodge" d="M328.578 110.069C328.578 103.947 333.54 98.9845 339.662 98.9845C345.784 98.9845 350.747 103.947 350.747 110.069C350.747 116.191 345.784 121.154 339.662 121.154C333.54 121.154 328.578 116.191 328.578 110.069Z" fill="url(#paint11_radial_2292_1076)" fill-opacity="0.8"/>
<defs>
<radialGradient id="paint0_radial_2292_1076" cx="0" cy="0" r="1" gradientUnits="userSpaceOnUse" gradientTransform="translate(353.913 25.5493) rotate(-138.412) scale(10.1182 10.2052)">
<stop stop-color="white"/>
<stop offset="0.15" stop-color="#575757" stop-opacity="0.77"/>
<stop offset="0.32" stop-color="#05041A" stop-opacity="0.54"/>
<stop offset="0.48" stop-color="#05041A" stop-opacity="0.35"/>
<stop offset="0.64" stop-color="#05041A" stop-opacity="0.2"/>
<stop offset="0.78" stop-color="#05041A" stop-opacity="0.09"/>
<stop offset="0.9" stop-color="#05041A" stop-opacity="0.02"/>
<stop offset="1" stop-color="#05041A" stop-opacity="0"/>
</radialGradient>
<radialGradient id="paint1_radial_2292_1076" cx="0" cy="0" r="1" gradientUnits="userSpaceOnUse" gradientTransform="translate(100.553 7.93306) rotate(-138.412) scale(10.1182 10.2052)">
<stop stop-color="white"/>
<stop offset="0.15" stop-color="#575757" stop-opacity="0.77"/>
<stop offset="0.32" stop-color="#05041A" stop-opacity="0.54"/>
<stop offset="0.48" stop-color="#05041A" stop-opacity="0.35"/>
<stop offset="0.64" stop-color="#05041A" stop-opacity="0.2"/>
<stop offset="0.78" stop-color="#05041A" stop-opacity="0.09"/>
<stop offset="0.9" stop-color="#05041A" stop-opacity="0.02"/>
<stop offset="1" stop-color="#05041A" stop-opacity="0"/>
</radialGradient>
<radialGradient id="paint2_radial_2292_1076" cx="0" cy="0" r="1" gradientUnits="userSpaceOnUse" gradientTransform="translate(6.33407 27.727) rotate(-138.412) scale(7.08273 7.14362)">
<stop stop-color="white"/>
<stop offset="0.15" stop-color="#575757" stop-opacity="0.77"/>
<stop offset="0.32" stop-color="#05041A" stop-opacity="0.54"/>
<stop offset="0.48" stop-color="#05041A" stop-opacity="0.35"/>
<stop offset="0.64" stop-color="#05041A" stop-opacity="0.2"/>
<stop offset="0.78" stop-color="#05041A" stop-opacity="0.09"/>
<stop offset="0.9" stop-color="#05041A" stop-opacity="0.02"/>
<stop offset="1" stop-color="#05041A" stop-opacity="0"/>
</radialGradient>
<radialGradient id="paint3_radial_2292_1076" cx="0" cy="0" r="1" gradientUnits="userSpaceOnUse" gradientTransform="translate(17.4186 52.2712) rotate(-138.412) scale(7.08273 7.14362)">
<stop stop-color="white"/>
<stop offset="0.15" stop-color="#575757" stop-opacity="0.77"/>
<stop offset="0.32" stop-color="#05041A" stop-opacity="0.54"/>
<stop offset="0.48" stop-color="#05041A" stop-opacity="0.35"/>
<stop offset="0.64" stop-color="#05041A" stop-opacity="0.2"/>
<stop offset="0.78" stop-color="#05041A" stop-opacity="0.09"/>
<stop offset="0.9" stop-color="#05041A" stop-opacity="0.02"/>
<stop offset="1" stop-color="#05041A" stop-opacity="0"/>
</radialGradient>
<radialGradient id="paint4_radial_2292_1076" cx="0" cy="0" r="1" gradientUnits="userSpaceOnUse" gradientTransform="translate(30.8784 22.1845) rotate(-138.412) scale(7.08273 7.14362)">
<stop stop-color="white"/>
<stop offset="0.15" stop-color="#575757" stop-opacity="0.77"/>
<stop offset="0.32" stop-color="#05041A" stop-opacity="0.54"/>
<stop offset="0.48" stop-color="#05041A" stop-opacity="0.35"/>
<stop offset="0.64" stop-color="#05041A" stop-opacity="0.2"/>
<stop offset="0.78" stop-color="#05041A" stop-opacity="0.09"/>
<stop offset="0.9" stop-color="#05041A" stop-opacity="0.02"/>
<stop offset="1" stop-color="#05041A" stop-opacity="0"/>
</radialGradient>
<radialGradient id="paint5_radial_2292_1076" cx="0" cy="0" r="1" gradientUnits="userSpaceOnUse" gradientTransform="translate(57.7982 91.7844) rotate(-138.412) scale(7.08273 7.14362)">
<stop stop-color="white"/>
<stop offset="0.15" stop-color="#575757" stop-opacity="0.77"/>
<stop offset="0.32" stop-color="#05041A" stop-opacity="0.54"/>
<stop offset="0.48" stop-color="#05041A" stop-opacity="0.35"/>
<stop offset="0.64" stop-color="#05041A" stop-opacity="0.2"/>
<stop offset="0.78" stop-color="#05041A" stop-opacity="0.09"/>
<stop offset="0.9" stop-color="#05041A" stop-opacity="0.02"/>
<stop offset="1" stop-color="#05041A" stop-opacity="0"/>
</radialGradient>
<radialGradient id="paint6_radial_2292_1076" cx="0" cy="0" r="1" gradientUnits="userSpaceOnUse" gradientTransform="translate(361.831 48.3124) rotate(-138.412) scale(28.3309 28.5745)">
<stop stop-color="white"/>
<stop offset="0.15" stop-color="#575757" stop-opacity="0.77"/>
<stop offset="0.32" stop-color="#05041A" stop-opacity="0.54"/>
<stop offset="0.48" stop-color="#05041A" stop-opacity="0.35"/>
<stop offset="0.64" stop-color="#05041A" stop-opacity="0.2"/>
<stop offset="0.78" stop-color="#05041A" stop-opacity="0.09"/>
<stop offset="0.9" stop-color="#05041A" stop-opacity="0.02"/>
<stop offset="1" stop-color="#05041A" stop-opacity="0"/>
</radialGradient>
<radialGradient id="paint7_radial_2292_1076" cx="0" cy="0" r="1" gradientUnits="userSpaceOnUse" gradientTransform="translate(249.402 72.0651) rotate(-138.412) scale(28.3309 28.5745)">
<stop stop-color="white"/>
<stop offset="0.15" stop-color="#575757" stop-opacity="0.77"/>
<stop offset="0.32" stop-color="#05041A" stop-opacity="0.54"/>
<stop offset="0.48" stop-color="#05041A" stop-opacity="0.35"/>
<stop offset="0.64" stop-color="#05041A" stop-opacity="0.2"/>
<stop offset="0.78" stop-color="#05041A" stop-opacity="0.09"/>
<stop offset="0.9" stop-color="#05041A" stop-opacity="0.02"/>
<stop offset="1" stop-color="#05041A" stop-opacity="0"/>
</radialGradient>
<radialGradient id="paint8_radial_2292_1076" cx="0" cy="0" r="1" gradientUnits="userSpaceOnUse" gradientTransform="translate(134.612 44.3536) rotate(-138.412) scale(28.3309 28.5745)">
<stop stop-color="white"/>
<stop offset="0.15" stop-color="#575757" stop-opacity="0.77"/>
<stop offset="0.32" stop-color="#05041A" stop-opacity="0.54"/>
<stop offset="0.48" stop-color="#05041A" stop-opacity="0.35"/>
<stop offset="0.64" stop-color="#05041A" stop-opacity="0.2"/>
<stop offset="0.78" stop-color="#05041A" stop-opacity="0.09"/>
<stop offset="0.9" stop-color="#05041A" stop-opacity="0.02"/>
<stop offset="1" stop-color="#05041A" stop-opacity="0"/>
</radialGradient>
<radialGradient id="paint9_radial_2292_1076" cx="0" cy="0" r="1" gradientUnits="userSpaceOnUse" gradientTransform="translate(74.4249 72.0651) rotate(-138.412) scale(28.3309 28.5745)">
<stop stop-color="white"/>
<stop offset="0.15" stop-color="#575757" stop-opacity="0.77"/>
<stop offset="0.32" stop-color="#05041A" stop-opacity="0.54"/>
<stop offset="0.48" stop-color="#05041A" stop-opacity="0.35"/>
<stop offset="0.64" stop-color="#05041A" stop-opacity="0.2"/>
<stop offset="0.78" stop-color="#05041A" stop-opacity="0.09"/>
<stop offset="0.9" stop-color="#05041A" stop-opacity="0.02"/>
<stop offset="1" stop-color="#05041A" stop-opacity="0"/>
</radialGradient>
<radialGradient id="paint10_radial_2292_1076" cx="0" cy="0" r="1" gradientUnits="userSpaceOnUse" gradientTransform="translate(333.328 34.0609) rotate(-138.412) scale(20.2364 20.4103)">
<stop stop-color="white"/>
<stop offset="0.15" stop-color="#575757" stop-opacity="0.77"/>
<stop offset="0.32" stop-color="#05041A" stop-opacity="0.54"/>
<stop offset="0.48" stop-color="#05041A" stop-opacity="0.35"/>
<stop offset="0.64" stop-color="#05041A" stop-opacity="0.2"/>
<stop offset="0.78" stop-color="#05041A" stop-opacity="0.09"/>
<stop offset="0.9" stop-color="#05041A" stop-opacity="0.02"/>
<stop offset="1" stop-color="#05041A" stop-opacity="0"/>
</radialGradient>
<radialGradient id="paint11_radial_2292_1076" cx="0" cy="0" r="1" gradientUnits="userSpaceOnUse" gradientTransform="translate(339.662 110.069) rotate(-138.412) scale(14.1655 14.2872)">
<stop stop-color="white"/>
<stop offset="0.15" stop-color="#575757" stop-opacity="0.77"/>
<stop offset="0.32" stop-color="#05041A" stop-opacity="0.54"/>
<stop offset="0.48" stop-color="#05041A" stop-opacity="0.35"/>
<stop offset="0.64" stop-color="#05041A" stop-opacity="0.2"/>
<stop offset="0.78" stop-color="#05041A" stop-opacity="0.09"/>
<stop offset="0.9" stop-color="#05041A" stop-opacity="0.02"/>
<stop offset="1" stop-color="#05041A" stop-opacity="0"/>
</radialGradient>
</defs>
</svg>
