<svg width="100" height="100" viewBox="0 0 100 100" fill="none" xmlns="http://www.w3.org/2000/svg">
<g filter="url(#filter0_i_126_1558)">
<rect width="100" height="100" rx="29.0909" fill="white" fill-opacity="0.02"/>
<rect x="0.454545" y="0.454545" width="99.0909" height="99.0909" rx="28.6364" stroke="white" stroke-opacity="0.2" stroke-width="0.909091"/>
<path d="M62.6638 54.3919V43.7867H65.6283L69.907 50.7104H68.3483L72.5047 43.7867H75.4693L75.4998 54.3919H72.2144L72.1838 48.6954H72.7034L69.8611 53.4375H68.2719L65.3074 48.6954H65.9492V54.3919H62.6638Z" fill="url(#paint0_linear_126_1558)"/>
<path d="M67.4776 32.4693L60.2813 39.604C59.8454 40.0361 59.1456 40.0447 58.6721 39.6534C56.2899 37.6845 53.9123 36.741 50.5231 36.7797C43.6136 36.8588 38.0546 42.428 38.1073 49.2787C38.1597 56.0769 44.0287 61.3989 50.5231 61.3989C54.0094 61.3989 56.449 60.0392 58.6998 57.9945C59.1558 57.5801 59.8593 57.5654 60.3082 57.9874C62.8144 60.343 65.1006 62.6251 67.6148 65.3888C68.0007 65.813 68.0067 66.4583 67.6081 66.8708C63.7392 70.8747 57.6992 73.9664 50.5231 74.0873C36.7055 74.3201 25.6052 62.9797 25.5006 49.2787C25.3951 35.4727 36.598 23.9984 50.5231 24.0914C57.6591 24.1391 62.7364 26.4641 67.4643 30.8747C67.9253 31.3047 67.9251 32.0255 67.4776 32.4693Z" fill="url(#paint1_linear_126_1558)"/>
</g>
<defs>
<filter id="filter0_i_126_1558" x="0" y="-2.72727" width="100" height="102.727" filterUnits="userSpaceOnUse" color-interpolation-filters="sRGB">
<feFlood flood-opacity="0" result="BackgroundImageFix"/>
<feBlend mode="normal" in="SourceGraphic" in2="BackgroundImageFix" result="shape"/>
<feColorMatrix in="SourceAlpha" type="matrix" values="0 0 0 0 0 0 0 0 0 0 0 0 0 0 0 0 0 0 127 0" result="hardAlpha"/>
<feOffset dy="-2.72727"/>
<feGaussianBlur stdDeviation="4.54545"/>
<feComposite in2="hardAlpha" operator="arithmetic" k2="-1" k3="1"/>
<feColorMatrix type="matrix" values="0 0 0 0 1 0 0 0 0 1 0 0 0 0 1 0 0 0 0.14 0"/>
<feBlend mode="normal" in2="shape" result="effect1_innerShadow_126_1558"/>
</filter>
<linearGradient id="paint0_linear_126_1558" x1="25.4998" y1="24.0908" x2="75.4998" y2="74.0908" gradientUnits="userSpaceOnUse">
<stop stop-color="#B721FF"/>
<stop offset="1" stop-color="#21FDF6"/>
</linearGradient>
<linearGradient id="paint1_linear_126_1558" x1="25.4998" y1="24.0908" x2="75.4998" y2="74.0908" gradientUnits="userSpaceOnUse">
<stop stop-color="#B721FF"/>
<stop offset="1" stop-color="#21FDF6"/>
</linearGradient>
</defs>
</svg>
