<svg width="257" height="136" viewBox="0 0 257 136" fill="none" xmlns="http://www.w3.org/2000/svg">
<g filter="url(#filter0_bii_2388_1256)">
<rect width="257" height="64" rx="14" fill="white" fill-opacity="0.06"/>
<rect x="0.5" y="0.5" width="256" height="63" rx="13.5" stroke="white"/>
<path d="M26.4187 38.374C25.4641 39.6878 24.1947 40.4736 22.6104 40.7315C21.0261 40.9896 19.5782 40.6422 18.2667 39.6893C16.9551 38.7364 16.1759 37.4657 15.9291 35.8773C15.6822 34.289 16.0361 32.8379 16.9906 31.5241L22.2751 24.2506C22.9533 23.3171 23.8539 22.7592 24.977 22.5768C26.0998 22.3943 27.128 22.6421 28.0615 23.3203C28.995 23.9985 29.5485 24.8999 29.722 26.0243C29.8956 27.1487 29.6433 28.1777 28.9651 29.1111L23.9632 35.9957C23.5653 36.5432 23.035 36.8721 22.3721 36.9824C21.709 37.0925 21.1034 36.9484 20.5551 36.5501C20.0068 36.1517 19.6786 35.6194 19.5707 34.9533C19.4628 34.2871 19.6098 33.6776 20.0115 33.1246L24.7307 26.6292C24.8556 26.4573 25.0184 26.3554 25.2192 26.3235C25.42 26.2918 25.6064 26.3385 25.7785 26.4635C25.9504 26.5884 26.0523 26.7512 26.084 26.9518C26.1156 27.1525 26.0689 27.3388 25.944 27.5108L21.2248 34.0062C21.0673 34.223 21.0075 34.4585 21.0455 34.7127C21.0835 34.9669 21.2109 35.1728 21.4278 35.3303C21.6444 35.4878 21.8795 35.5453 22.1331 35.5028C22.3866 35.4604 22.5921 35.3308 22.7496 35.114L27.7571 28.2218C28.1828 27.6182 28.3429 26.9616 28.2373 26.2518C28.1316 25.5419 27.7792 24.9693 27.1798 24.5339C26.583 24.1003 25.9272 23.9422 25.2122 24.0598C24.4971 24.1774 23.9226 24.5349 23.4886 25.1323L18.2041 32.4057C17.4851 33.3778 17.2189 34.4552 17.4054 35.6381C17.5918 36.8211 18.1738 37.7677 19.1512 38.4778C20.1147 39.1779 21.1829 39.4301 22.3556 39.2346C23.5281 39.0391 24.478 38.4583 25.2052 37.4923L30.2069 30.608C30.3318 30.436 30.4947 30.3342 30.6956 30.3023C30.8965 30.2707 31.0829 30.3173 31.2549 30.4423C31.4269 30.5672 31.5287 30.73 31.5605 30.9307C31.592 31.1314 31.5454 31.3177 31.4205 31.4896L26.4187 38.374Z" fill="white" fill-opacity="0.5"/>
<path d="M45.127 27.5H43.9902V18.9688H45.127V27.5ZM48.6953 23.7266H44.8809V22.8125H48.6953V23.7266ZM49.2754 19.8887H44.8809V18.9688H49.2754V19.8887ZM51.367 18.8574C51.5779 18.8574 51.738 18.918 51.8474 19.0391C51.9607 19.1602 52.0173 19.3066 52.0173 19.4785C52.0173 19.6465 51.9607 19.791 51.8474 19.9121C51.738 20.0293 51.5779 20.0879 51.367 20.0879C51.156 20.0879 50.9959 20.0293 50.8865 19.9121C50.781 19.791 50.7283 19.6465 50.7283 19.4785C50.7283 19.3066 50.781 19.1602 50.8865 19.0391C50.9959 18.918 51.156 18.8574 51.367 18.8574ZM51.9177 27.5H50.8279V21.1602H51.9177V27.5ZM55.0288 27.5H53.9331V21.1602H54.9702L55.0288 22.5137V27.5ZM54.314 24.0664C54.3218 23.4883 54.4331 22.9727 54.648 22.5195C54.8628 22.0625 55.1616 21.7031 55.5445 21.4414C55.9312 21.1758 56.3804 21.043 56.8921 21.043C57.3101 21.043 57.6695 21.1211 57.9702 21.2773C58.2749 21.4297 58.5093 21.6738 58.6734 22.0098C58.8413 22.3457 58.9253 22.791 58.9253 23.3457V27.5H57.8296V23.334C57.8296 23.002 57.7808 22.7344 57.6831 22.5312C57.5894 22.3281 57.4487 22.1816 57.2612 22.0918C57.0737 21.998 56.8433 21.9512 56.5698 21.9512C56.3003 21.9512 56.0562 22.0078 55.8374 22.1211C55.6187 22.2344 55.4292 22.3906 55.2691 22.5898C55.1089 22.7891 54.9859 23.0176 54.8999 23.2754C54.814 23.5293 54.771 23.7988 54.771 24.084L54.314 24.0664ZM64.5442 23.1523C64.5442 22.7734 64.4309 22.4727 64.2044 22.25C63.9817 22.0234 63.6516 21.9102 63.2141 21.9102C62.9446 21.9102 62.7063 21.957 62.4993 22.0508C62.2962 22.1445 62.138 22.2676 62.0247 22.4199C61.9114 22.5723 61.8548 22.7383 61.8548 22.918H60.7591C60.7591 22.6133 60.8626 22.3184 61.0696 22.0332C61.2766 21.7441 61.5677 21.5078 61.9427 21.3242C62.3216 21.1367 62.7669 21.043 63.2786 21.043C63.7395 21.043 64.1477 21.1211 64.5032 21.2773C64.8587 21.4336 65.136 21.6699 65.3352 21.9863C65.5384 22.2988 65.6399 22.6914 65.6399 23.1641V26.1172C65.6399 26.3281 65.6575 26.5527 65.6927 26.791C65.7317 27.0293 65.7884 27.2344 65.8626 27.4062V27.5H64.72C64.6653 27.375 64.6223 27.209 64.5911 27.002C64.5598 26.791 64.5442 26.5957 64.5442 26.416V23.1523ZM64.7317 24.418H63.6536C63.0364 24.418 62.5598 24.5156 62.2239 24.7109C61.888 24.9062 61.72 25.1992 61.72 25.5898C61.72 25.8945 61.8216 26.1523 62.0247 26.3633C62.2317 26.5742 62.5325 26.6797 62.927 26.6797C63.2591 26.6797 63.552 26.6094 63.8059 26.4688C64.0598 26.3281 64.261 26.1543 64.4095 25.9473C64.5579 25.7402 64.638 25.541 64.6497 25.3496L65.1184 25.8711C65.0911 26.0352 65.0169 26.2168 64.8958 26.416C64.7747 26.6152 64.6126 26.8066 64.4095 26.9902C64.2102 27.1699 63.972 27.3203 63.6946 27.4414C63.4212 27.5586 63.1126 27.6172 62.7688 27.6172C62.3391 27.6172 61.9622 27.5352 61.638 27.3711C61.3177 27.2031 61.0677 26.9766 60.888 26.6914C60.7122 26.4062 60.6243 26.0898 60.6243 25.7422C60.6243 25.0586 60.8821 24.541 61.3977 24.1895C61.9134 23.834 62.6067 23.6562 63.4778 23.6562H64.7317V24.418ZM68.7745 27.5H67.6787V18.5H68.7745V27.5ZM75.3482 27.5H74.2115V18.9688H75.3482V27.5ZM78.5648 27.5H77.4691V21.1602H78.5062L78.5648 22.5137V27.5ZM77.8499 24.0664C77.8577 23.4883 77.9691 22.9727 78.1839 22.5195C78.3988 22.0625 78.6976 21.7031 79.0804 21.4414C79.4671 21.1758 79.9163 21.043 80.428 21.043C80.846 21.043 81.2054 21.1211 81.5062 21.2773C81.8109 21.4297 82.0452 21.6738 82.2093 22.0098C82.3773 22.3457 82.4613 22.791 82.4613 23.3457V27.5H81.3655V23.334C81.3655 23.002 81.3167 22.7344 81.2191 22.5312C81.1253 22.3281 80.9847 22.1816 80.7972 22.0918C80.6097 21.998 80.3792 21.9512 80.1058 21.9512C79.8363 21.9512 79.5921 22.0078 79.3734 22.1211C79.1546 22.2344 78.9652 22.3906 78.805 22.5898C78.6448 22.7891 78.5218 23.0176 78.4359 23.2754C78.3499 23.5293 78.307 23.7988 78.307 24.084L77.8499 24.0664ZM86.6739 27.6172C86.1153 27.6172 85.6427 27.5176 85.2559 27.3184C84.8692 27.1191 84.5762 26.8633 84.377 26.5508C84.1778 26.2344 84.0782 25.9004 84.0782 25.5488H85.1739C85.1934 25.8457 85.2794 26.082 85.4317 26.2578C85.588 26.4297 85.7774 26.5527 86.0001 26.627C86.2266 26.7012 86.4512 26.7383 86.6739 26.7383C86.9708 26.7383 87.2188 26.6992 87.418 26.6211C87.6212 26.5391 87.7735 26.4297 87.8751 26.293C87.9805 26.1523 88.0333 25.9941 88.0333 25.8184C88.0333 25.6621 87.9981 25.5176 87.9278 25.3848C87.8614 25.248 87.7247 25.125 87.5177 25.0156C87.3106 24.9023 86.9981 24.8027 86.5802 24.7168C86.1114 24.6191 85.7052 24.4961 85.3614 24.3477C85.0216 24.1953 84.7579 24.002 84.5704 23.7676C84.3868 23.5332 84.295 23.2422 84.295 22.8945C84.295 22.5586 84.3907 22.252 84.5821 21.9746C84.7774 21.6934 85.0509 21.4688 85.4024 21.3008C85.7579 21.1289 86.172 21.043 86.6446 21.043C87.1524 21.043 87.586 21.1328 87.9454 21.3125C88.3087 21.4883 88.586 21.7266 88.7774 22.0273C88.9688 22.3242 89.0645 22.6543 89.0645 23.0176H87.9688C87.9688 22.7559 87.8536 22.5078 87.6231 22.2734C87.3966 22.0391 87.0704 21.9219 86.6446 21.9219C86.3477 21.9219 86.1055 21.9688 85.918 22.0625C85.7345 22.1523 85.5997 22.2695 85.5137 22.4141C85.4317 22.5547 85.3907 22.7031 85.3907 22.8594C85.3907 23.0156 85.4298 23.1523 85.5079 23.2695C85.586 23.3828 85.7286 23.4844 85.9356 23.5742C86.1466 23.6641 86.4512 23.7539 86.8497 23.8438C87.3692 23.9609 87.797 24.1016 88.1329 24.2656C88.4688 24.4297 88.7188 24.6309 88.8829 24.8691C89.047 25.1074 89.129 25.3984 89.129 25.7422C89.129 26.1094 89.0274 26.4355 88.8243 26.7207C88.6212 27.002 88.336 27.2227 87.9688 27.3828C87.6016 27.5391 87.17 27.6172 86.6739 27.6172ZM93.6873 27.6172C93.2811 27.6172 92.9237 27.5508 92.6151 27.418C92.3065 27.2852 92.0448 27.0938 91.8299 26.8438C91.6151 26.5898 91.4432 26.2871 91.3143 25.9355C91.1893 25.5801 91.1034 25.1797 91.0565 24.7344V24.0547C91.119 23.4336 91.2537 22.8984 91.4608 22.4492C91.6717 22 91.9588 21.6543 92.3221 21.4121C92.6893 21.166 93.1385 21.043 93.6698 21.043C94.201 21.043 94.6502 21.1777 95.0174 21.4473C95.3846 21.7168 95.6639 22.0957 95.8553 22.584C96.0467 23.0684 96.1424 23.6328 96.1424 24.2773V24.4004C96.1424 25.0176 96.0467 25.5684 95.8553 26.0527C95.6639 26.5371 95.3846 26.9199 95.0174 27.2012C94.6541 27.4785 94.2108 27.6172 93.6873 27.6172ZM90.7811 29.9375V21.1602H91.7772L91.8768 22.3789V29.9375H90.7811ZM93.3534 26.7383C93.744 26.7383 94.0643 26.6309 94.3143 26.416C94.5643 26.2012 94.7479 25.918 94.8651 25.5664C94.9862 25.2109 95.0467 24.8223 95.0467 24.4004V24.2773C95.0467 23.8555 94.9862 23.4688 94.8651 23.1172C94.7479 22.7617 94.5623 22.4785 94.3084 22.2676C94.0584 22.0566 93.7362 21.9512 93.3416 21.9512C93.0721 21.9512 92.8377 21.998 92.6385 22.0918C92.4393 22.1855 92.2694 22.3125 92.1287 22.4727C91.9881 22.6289 91.8729 22.8086 91.783 23.0117C91.6971 23.2109 91.6327 23.418 91.5897 23.6328V25.1621C91.6678 25.4355 91.7752 25.6934 91.912 25.9355C92.0526 26.1738 92.2381 26.3672 92.4686 26.5156C92.703 26.6641 92.9979 26.7383 93.3534 26.7383ZM100.396 27.6172C99.8063 27.6172 99.2926 27.4863 98.8551 27.2246C98.4215 26.959 98.0836 26.5957 97.8414 26.1348C97.6031 25.6738 97.484 25.1465 97.484 24.5527V24.3008C97.484 23.6133 97.6148 23.0273 97.8766 22.543C98.1422 22.0547 98.4859 21.6836 98.9078 21.4297C99.3336 21.1719 99.7828 21.043 100.255 21.043C100.865 21.043 101.361 21.1797 101.744 21.4531C102.13 21.7227 102.414 22.0918 102.593 22.5605C102.777 23.0254 102.869 23.5527 102.869 24.1426V24.6289H98.1344V23.75H101.773V23.668C101.757 23.3867 101.701 23.1133 101.603 22.8477C101.505 22.5781 101.349 22.3574 101.134 22.1855C100.92 22.0098 100.627 21.9219 100.255 21.9219C99.9273 21.9219 99.6363 22.0156 99.3824 22.2031C99.1324 22.3867 98.9352 22.6562 98.7906 23.0117C98.65 23.3633 98.5797 23.793 98.5797 24.3008V24.5527C98.5797 24.9551 98.6539 25.3223 98.8023 25.6543C98.9508 25.9824 99.1656 26.2461 99.4469 26.4453C99.7281 26.6406 100.064 26.7383 100.455 26.7383C100.838 26.7383 101.162 26.6602 101.427 26.5039C101.693 26.3477 101.925 26.1387 102.125 25.877L102.787 26.3926C102.584 26.7051 102.291 26.9883 101.908 27.2422C101.529 27.4922 101.025 27.6172 100.396 27.6172ZM106.917 27.6172C106.281 27.6172 105.753 27.4727 105.335 27.1836C104.917 26.8906 104.605 26.5039 104.398 26.0234C104.195 25.543 104.093 25.0195 104.093 24.4531V24.207C104.093 23.6367 104.197 23.1133 104.404 22.6367C104.611 22.1562 104.923 21.7715 105.341 21.4824C105.759 21.1895 106.285 21.043 106.917 21.043C107.413 21.043 107.847 21.1445 108.218 21.3477C108.593 21.5469 108.886 21.8203 109.097 22.168C109.312 22.5117 109.429 22.9023 109.449 23.3398H108.411C108.392 23.0781 108.318 22.8398 108.189 22.625C108.064 22.4102 107.892 22.2402 107.673 22.1152C107.458 21.9863 107.206 21.9219 106.917 21.9219C106.476 21.9219 106.128 22.0352 105.874 22.2617C105.624 22.4883 105.447 22.7773 105.341 23.1289C105.24 23.4766 105.189 23.8359 105.189 24.207V24.4531C105.189 24.8242 105.24 25.1855 105.341 25.5371C105.443 25.8887 105.619 26.1777 105.869 26.4043C106.122 26.627 106.472 26.7383 106.917 26.7383C107.175 26.7383 107.413 26.6855 107.632 26.5801C107.851 26.4707 108.031 26.3223 108.171 26.1348C108.312 25.9473 108.392 25.7344 108.411 25.4961H109.449C109.429 25.8711 109.302 26.2207 109.068 26.5449C108.833 26.8652 108.529 27.125 108.154 27.3242C107.779 27.5195 107.367 27.6172 106.917 27.6172ZM113.573 21.9863H110.14V21.1602H113.573V21.9863ZM112.39 19.6191V25.9297C112.39 26.1484 112.423 26.3125 112.489 26.4219C112.556 26.5312 112.642 26.6035 112.747 26.6387C112.853 26.6738 112.966 26.6914 113.087 26.6914C113.177 26.6914 113.271 26.6836 113.368 26.668C113.47 26.6523 113.544 26.6387 113.591 26.627V27.5C113.505 27.5273 113.394 27.5527 113.257 27.5762C113.12 27.6035 112.954 27.6172 112.759 27.6172C112.493 27.6172 112.249 27.5645 112.026 27.459C111.804 27.3535 111.626 27.1777 111.493 26.9316C111.36 26.6816 111.294 26.3457 111.294 25.9238V19.6191H112.39ZM115.747 18.8574C115.958 18.8574 116.118 18.918 116.227 19.0391C116.341 19.1602 116.397 19.3066 116.397 19.4785C116.397 19.6465 116.341 19.791 116.227 19.9121C116.118 20.0293 115.958 20.0879 115.747 20.0879C115.536 20.0879 115.376 20.0293 115.266 19.9121C115.161 19.791 115.108 19.6465 115.108 19.4785C115.108 19.3066 115.161 19.1602 115.266 19.0391C115.376 18.918 115.536 18.8574 115.747 18.8574ZM116.298 27.5H115.208V21.1602H116.298V27.5ZM118.032 24.2656C118.032 23.6523 118.149 23.1035 118.383 22.6191C118.618 22.1348 118.95 21.752 119.38 21.4707C119.809 21.1855 120.319 21.043 120.909 21.043C121.506 21.043 122.022 21.1855 122.456 21.4707C122.889 21.752 123.221 22.1348 123.452 22.6191C123.686 23.1035 123.803 23.6523 123.803 24.2656V24.4004C123.803 25.0098 123.686 25.5586 123.452 26.0469C123.221 26.5312 122.889 26.9141 122.456 27.1953C122.026 27.4766 121.514 27.6172 120.921 27.6172C120.327 27.6172 119.813 27.4766 119.38 27.1953C118.95 26.9141 118.618 26.5312 118.383 26.0469C118.149 25.5586 118.032 25.0098 118.032 24.4004V24.2656ZM119.128 24.4004C119.128 24.8184 119.194 25.2051 119.327 25.5605C119.46 25.916 119.657 26.2012 119.919 26.416C120.184 26.6309 120.518 26.7383 120.921 26.7383C121.319 26.7383 121.649 26.6309 121.911 26.416C122.176 26.2012 122.376 25.916 122.508 25.5605C122.641 25.2051 122.708 24.8184 122.708 24.4004V24.2656C122.708 23.8477 122.641 23.4609 122.508 23.1055C122.376 22.75 122.176 22.4648 121.911 22.25C121.645 22.0312 121.311 21.9219 120.909 21.9219C120.514 21.9219 120.184 22.0312 119.919 22.25C119.653 22.4648 119.454 22.75 119.321 23.1055C119.192 23.4609 119.128 23.8477 119.128 24.2656V24.4004ZM126.504 27.5H125.409V21.1602H126.446L126.504 22.5137V27.5ZM125.789 24.0664C125.797 23.4883 125.909 22.9727 126.123 22.5195C126.338 22.0625 126.637 21.7031 127.02 21.4414C127.407 21.1758 127.856 21.043 128.368 21.043C128.786 21.043 129.145 21.1211 129.446 21.2773C129.75 21.4297 129.985 21.6738 130.149 22.0098C130.317 22.3457 130.401 22.791 130.401 23.3457V27.5H129.305V23.334C129.305 23.002 129.256 22.7344 129.159 22.5312C129.065 22.3281 128.924 22.1816 128.737 22.0918C128.549 21.998 128.319 21.9512 128.045 21.9512C127.776 21.9512 127.532 22.0078 127.313 22.1211C127.094 22.2344 126.905 22.3906 126.745 22.5898C126.584 22.7891 126.461 23.0176 126.375 23.2754C126.289 23.5293 126.246 23.7988 126.246 24.084L125.789 24.0664ZM132.979 27.5645C132.76 27.5645 132.592 27.5039 132.475 27.3828C132.361 27.2617 132.305 27.1113 132.305 26.9316C132.305 26.748 132.361 26.5938 132.475 26.4688C132.592 26.3398 132.76 26.2754 132.979 26.2754C133.201 26.2754 133.369 26.3398 133.483 26.4688C133.6 26.5938 133.658 26.748 133.658 26.9316C133.658 27.1113 133.6 27.2617 133.483 27.3828C133.369 27.5039 133.201 27.5645 132.979 27.5645ZM136.828 21.1602V28.2559C136.828 28.8379 136.691 29.2832 136.418 29.5918C136.144 29.9043 135.728 30.0605 135.17 30.0605C135.072 30.0605 134.959 30.0508 134.83 30.0312C134.697 30.0117 134.586 29.9883 134.496 29.9609V29.0938C134.57 29.1094 134.656 29.1211 134.754 29.1289C134.848 29.1406 134.93 29.1465 135 29.1465C135.234 29.1465 135.414 29.0781 135.539 28.9414C135.668 28.8086 135.732 28.5801 135.732 28.2559V21.1602H136.828ZM136.277 20.4688C136.066 20.4688 135.906 20.4102 135.797 20.293C135.691 20.1719 135.639 20.0273 135.639 19.8594C135.639 19.6875 135.691 19.541 135.797 19.4199C135.906 19.2988 136.066 19.2383 136.277 19.2383C136.488 19.2383 136.648 19.2988 136.758 19.4199C136.871 19.541 136.928 19.6875 136.928 19.8594C136.928 20.0273 136.871 20.1719 136.758 20.293C136.648 20.4102 136.488 20.4688 136.277 20.4688ZM141.797 27.6172C141.39 27.6172 141.033 27.5508 140.724 27.418C140.416 27.2852 140.154 27.0938 139.939 26.8438C139.724 26.5898 139.552 26.2871 139.424 25.9355C139.299 25.5801 139.213 25.1797 139.166 24.7344V24.0547C139.228 23.4336 139.363 22.8984 139.57 22.4492C139.781 22 140.068 21.6543 140.431 21.4121C140.799 21.166 141.248 21.043 141.779 21.043C142.31 21.043 142.759 21.1777 143.127 21.4473C143.494 21.7168 143.773 22.0957 143.965 22.584C144.156 23.0684 144.252 23.6328 144.252 24.2773V24.4004C144.252 25.0176 144.156 25.5684 143.965 26.0527C143.773 26.5371 143.494 26.9199 143.127 27.2012C142.763 27.4785 142.32 27.6172 141.797 27.6172ZM138.89 29.9375V21.1602H139.886L139.986 22.3789V29.9375H138.89ZM141.463 26.7383C141.853 26.7383 142.174 26.6309 142.424 26.416C142.674 26.2012 142.857 25.918 142.974 25.5664C143.095 25.2109 143.156 24.8223 143.156 24.4004V24.2773C143.156 23.8555 143.095 23.4688 142.974 23.1172C142.857 22.7617 142.672 22.4785 142.418 22.2676C142.168 22.0566 141.845 21.9512 141.451 21.9512C141.181 21.9512 140.947 21.998 140.748 22.0918C140.549 22.1855 140.379 22.3125 140.238 22.4727C140.097 22.6289 139.982 22.8086 139.892 23.0117C139.806 23.2109 139.742 23.418 139.699 23.6328V25.1621C139.777 25.4355 139.884 25.6934 140.021 25.9355C140.162 26.1738 140.347 26.3672 140.578 26.5156C140.812 26.6641 141.107 26.7383 141.463 26.7383ZM148.283 30.002C148.064 30.002 147.806 29.9668 147.509 29.8965C147.216 29.8301 146.927 29.7148 146.642 29.5508C146.361 29.3906 146.124 29.1738 145.933 28.9004L146.501 28.2617C146.767 28.582 147.044 28.8047 147.333 28.9297C147.626 29.0586 147.915 29.123 148.201 29.123C148.712 29.123 149.119 28.9766 149.419 28.6836C149.724 28.3945 149.876 27.9727 149.876 27.418V22.5547L149.976 21.1602H150.972V27.3652C150.972 27.9238 150.857 28.4004 150.626 28.7949C150.4 29.1895 150.083 29.4883 149.677 29.6914C149.275 29.8984 148.81 30.002 148.283 30.002ZM148.107 27.6172C147.599 27.6172 147.158 27.4785 146.783 27.2012C146.412 26.9199 146.122 26.5371 145.915 26.0527C145.712 25.5684 145.611 25.0176 145.611 24.4004V24.2773C145.611 23.6328 145.712 23.0684 145.915 22.584C146.119 22.0957 146.408 21.7168 146.783 21.4473C147.158 21.1777 147.603 21.043 148.119 21.043C148.517 21.043 148.865 21.1133 149.162 21.2539C149.462 21.3906 149.716 21.5898 149.923 21.8516C150.134 22.1133 150.3 22.4297 150.421 22.8008C150.546 23.1719 150.632 23.5898 150.679 24.0547V24.623C150.621 25.2363 150.49 25.7676 150.287 26.2168C150.087 26.6621 149.808 27.0078 149.449 27.2539C149.089 27.4961 148.642 27.6172 148.107 27.6172ZM148.376 26.7031C148.736 26.7031 149.031 26.627 149.261 26.4746C149.492 26.3223 149.677 26.1211 149.818 25.8711C149.958 25.6211 150.068 25.3496 150.146 25.0566V23.6328C150.099 23.418 150.033 23.2109 149.947 23.0117C149.861 22.8086 149.747 22.6289 149.607 22.4727C149.466 22.3125 149.294 22.1855 149.091 22.0918C148.892 21.998 148.658 21.9512 148.388 21.9512C147.994 21.9512 147.671 22.0566 147.421 22.2676C147.175 22.4785 146.994 22.7617 146.876 23.1172C146.763 23.4688 146.706 23.8555 146.706 24.2773V24.4004C146.706 24.8223 146.763 25.207 146.876 25.5547C146.994 25.9023 147.175 26.1816 147.421 26.3926C147.667 26.5996 147.986 26.7031 148.376 26.7031Z" fill="white"/>
<path d="M48.0537 41.4678C48.0537 42.2393 47.9626 42.8545 47.7803 43.3135C47.6012 43.7692 47.3441 44.098 47.0088 44.2998C46.6735 44.4984 46.2764 44.5977 45.8174 44.5977C45.3649 44.5977 44.9694 44.4984 44.6309 44.2998C44.2923 44.098 44.0286 43.7692 43.8398 43.3135C43.6543 42.8545 43.5615 42.2393 43.5615 41.4678V40.3789C43.5615 39.6042 43.6527 38.9922 43.835 38.543C44.0205 38.0938 44.2809 37.7731 44.6162 37.5811C44.9548 37.389 45.3519 37.293 45.8076 37.293C46.2666 37.293 46.6637 37.389 46.999 37.5811C47.3343 37.7731 47.5931 38.0938 47.7754 38.543C47.9609 38.9922 48.0537 39.6042 48.0537 40.3789V41.4678ZM47.1406 40.2275C47.1406 39.6937 47.0902 39.2656 46.9893 38.9434C46.8883 38.6211 46.7386 38.3883 46.54 38.2451C46.3415 38.0986 46.0973 38.0254 45.8076 38.0254C45.5212 38.0254 45.2786 38.0986 45.0801 38.2451C44.8815 38.3883 44.7301 38.6211 44.626 38.9434C44.5251 39.2656 44.4746 39.6937 44.4746 40.2275V41.6094C44.4746 42.14 44.5267 42.5713 44.6309 42.9033C44.735 43.2354 44.8864 43.4795 45.085 43.6357C45.2868 43.7887 45.5309 43.8652 45.8174 43.8652C46.1104 43.8652 46.3545 43.7887 46.5498 43.6357C46.7451 43.4795 46.8916 43.2354 46.9893 42.9033C47.0902 42.5713 47.1406 42.14 47.1406 41.6094V40.2275ZM52.3895 44.5H51.4764V38.4697L49.66 39.1387V38.3232L52.2479 37.3516H52.3895V44.5ZM55.5191 45.1104H54.7379L57.7066 37.3906H58.483L55.5191 45.1104ZM61.5346 40.5059C61.8471 40.5059 62.1059 40.4521 62.3109 40.3447C62.5193 40.2373 62.6739 40.0924 62.7748 39.9102C62.879 39.7246 62.9311 39.5146 62.9311 39.2803C62.9311 39.0101 62.8855 38.7822 62.7943 38.5967C62.7032 38.4079 62.5665 38.2663 62.3842 38.1719C62.2019 38.0742 61.9724 38.0254 61.6957 38.0254C61.4418 38.0254 61.2188 38.0758 61.0268 38.1768C60.8347 38.2777 60.685 38.4193 60.5775 38.6016C60.4701 38.7839 60.4164 39.0003 60.4164 39.251H59.5033C59.5033 38.8864 59.5945 38.5576 59.7768 38.2646C59.959 37.9684 60.2146 37.7324 60.5434 37.5566C60.8721 37.3809 61.2563 37.293 61.6957 37.293C62.1254 37.293 62.5014 37.3695 62.8236 37.5225C63.1459 37.6722 63.3965 37.8968 63.5756 38.1963C63.7546 38.4925 63.8441 38.8604 63.8441 39.2998C63.8441 39.4821 63.8018 39.6742 63.7172 39.876C63.6358 40.0778 63.5072 40.2682 63.3314 40.4473C63.1589 40.623 62.9343 40.7679 62.6576 40.8818C62.3809 40.9925 62.0489 41.0479 61.6615 41.0479H60.89V40.5059H61.5346ZM60.89 40.7012H61.6615C62.114 40.7012 62.4883 40.7549 62.7846 40.8623C63.0808 40.9697 63.3135 41.113 63.4828 41.292C63.6553 41.4678 63.7758 41.6631 63.8441 41.8779C63.9158 42.0928 63.9516 42.306 63.9516 42.5176C63.9516 42.9603 63.8523 43.3363 63.6537 43.6455C63.4584 43.9548 63.1898 44.1908 62.848 44.3535C62.5095 44.5163 62.127 44.5977 61.7006 44.5977C61.3913 44.5977 61.1 44.5537 60.8266 44.4658C60.5531 44.3779 60.3122 44.251 60.1039 44.085C59.8988 43.9157 59.7377 43.709 59.6205 43.4648C59.5033 43.2174 59.4447 42.9359 59.4447 42.6201H60.3578C60.3578 42.8675 60.4115 43.0856 60.5189 43.2744C60.6296 43.46 60.7842 43.6048 60.9828 43.709C61.1846 43.8132 61.4239 43.8652 61.7006 43.8652C62.114 43.8652 62.4395 43.7546 62.6771 43.5332C62.918 43.3118 63.0385 42.9798 63.0385 42.5371C63.0385 42.2409 62.9766 41.9967 62.8529 41.8047C62.7292 41.6126 62.5551 41.471 62.3305 41.3799C62.1059 41.2855 61.8406 41.2383 61.5346 41.2383H60.89V40.7012ZM69.8596 41.4678C69.8596 42.2393 69.7684 42.8545 69.5861 43.3135C69.4071 43.7692 69.1499 44.098 68.8146 44.2998C68.4794 44.4984 68.0822 44.5977 67.6232 44.5977C67.1708 44.5977 66.7753 44.4984 66.4367 44.2998C66.0982 44.098 65.8345 43.7692 65.6457 43.3135C65.4602 42.8545 65.3674 42.2393 65.3674 41.4678V40.3789C65.3674 39.6042 65.4585 38.9922 65.6408 38.543C65.8264 38.0938 66.0868 37.7731 66.4221 37.5811C66.7606 37.389 67.1577 37.293 67.6135 37.293C68.0725 37.293 68.4696 37.389 68.8049 37.5811C69.1402 37.7731 69.399 38.0938 69.5812 38.543C69.7668 38.9922 69.8596 39.6042 69.8596 40.3789V41.4678ZM68.9465 40.2275C68.9465 39.6937 68.896 39.2656 68.7951 38.9434C68.6942 38.6211 68.5445 38.3883 68.3459 38.2451C68.1473 38.0986 67.9032 38.0254 67.6135 38.0254C67.327 38.0254 67.0845 38.0986 66.8859 38.2451C66.6874 38.3883 66.536 38.6211 66.4318 38.9434C66.3309 39.2656 66.2805 39.6937 66.2805 40.2275V41.6094C66.2805 42.14 66.3326 42.5713 66.4367 42.9033C66.5409 43.2354 66.6923 43.4795 66.8908 43.6357C67.0926 43.7887 67.3368 43.8652 67.6232 43.8652C67.9162 43.8652 68.1604 43.7887 68.3557 43.6357C68.551 43.4795 68.6975 43.2354 68.7951 42.9033C68.896 42.5713 68.9465 42.14 68.9465 41.6094V40.2275ZM71.5 45.1104H70.7188L73.6875 37.3906H74.4639L71.5 45.1104ZM78.1111 40.1201L79.8104 37.3906H80.9188L78.6775 40.9111L80.9725 44.5H79.8543L78.1111 41.7168L76.3582 44.5H75.2449L77.5447 40.9111L75.2938 37.3906H76.407L78.1111 40.1201ZM84.5904 40.1201L86.2896 37.3906H87.398L85.1568 40.9111L87.4518 44.5H86.3336L84.5904 41.7168L82.8375 44.5H81.7242L84.024 40.9111L81.773 37.3906H82.8863L84.5904 40.1201Z" fill="white" fill-opacity="0.5"/>
<g filter="url(#filter1_i_2388_1256)">
<path d="M205 32C205 22.0589 213.059 14 223 14V14C232.941 14 241 22.0589 241 32V32C241 41.9411 232.941 50 223 50V50C213.059 50 205 41.9411 205 32V32Z" fill="white" fill-opacity="0.02"/>
<path d="M223 49.5C213.335 49.5 205.5 41.665 205.5 32C205.5 22.335 213.335 14.5 223 14.5C232.665 14.5 240.5 22.335 240.5 32C240.5 41.665 232.665 49.5 223 49.5Z" stroke="url(#paint0_linear_2388_1256)"/>
<path d="M222.5 35.4115C222.379 35.4115 222.267 35.3923 222.164 35.3538C222.06 35.3154 221.961 35.2494 221.867 35.1558L218.758 32.0463C218.609 31.8974 218.536 31.7233 218.538 31.524C218.54 31.3247 218.613 31.1474 218.758 30.9922C218.913 30.8372 219.091 30.7572 219.292 30.752C219.494 30.7468 219.672 30.8218 219.827 30.977L221.75 32.9V25.25C221.75 25.0372 221.822 24.859 221.965 24.7155C222.109 24.5718 222.287 24.5 222.5 24.5C222.713 24.5 222.891 24.5718 223.035 24.7155C223.178 24.859 223.25 25.0372 223.25 25.25V32.9L225.173 30.977C225.322 30.8283 225.498 30.7549 225.703 30.7568C225.907 30.7588 226.087 30.8372 226.242 30.9922C226.387 31.1474 226.462 31.3231 226.467 31.5192C226.472 31.7154 226.397 31.8911 226.242 32.0463L223.133 35.1558C223.039 35.2494 222.94 35.3154 222.836 35.3538C222.733 35.3923 222.621 35.4115 222.5 35.4115ZM216.808 39.5C216.303 39.5 215.875 39.325 215.525 38.975C215.175 38.625 215 38.1974 215 37.6923V35.7308C215 35.5179 215.072 35.3397 215.215 35.1962C215.359 35.0526 215.537 34.9808 215.75 34.9808C215.963 34.9808 216.141 35.0526 216.285 35.1962C216.428 35.3397 216.5 35.5179 216.5 35.7308V37.6923C216.5 37.7693 216.532 37.8398 216.596 37.9038C216.66 37.9679 216.731 38 216.808 38H228.192C228.269 38 228.34 37.9679 228.404 37.9038C228.468 37.8398 228.5 37.7693 228.5 37.6923V35.7308C228.5 35.5179 228.572 35.3397 228.715 35.1962C228.859 35.0526 229.037 34.9808 229.25 34.9808C229.463 34.9808 229.641 35.0526 229.785 35.1962C229.928 35.3397 230 35.5179 230 35.7308V37.6923C230 38.1974 229.825 38.625 229.475 38.975C229.125 39.325 228.697 39.5 228.192 39.5H216.808Z" fill="white"/>
</g>
</g>
<g filter="url(#filter2_bii_2388_1256)">
<rect y="72" width="257" height="64" rx="14" fill="white" fill-opacity="0.06"/>
<rect x="0.5" y="72.5" width="256" height="63" rx="13.5" stroke="white"/>
<path d="M26.4187 110.374C25.4641 111.688 24.1947 112.474 22.6104 112.731C21.0261 112.99 19.5782 112.642 18.2667 111.689C16.9551 110.736 16.1759 109.466 15.9291 107.877C15.6822 106.289 16.0361 104.838 16.9906 103.524L22.2751 96.2506C22.9533 95.3171 23.8539 94.7592 24.977 94.5768C26.0998 94.3943 27.128 94.6421 28.0615 95.3203C28.995 95.9985 29.5485 96.8999 29.722 98.0243C29.8956 99.1487 29.6433 100.178 28.9651 101.111L23.9632 107.996C23.5653 108.543 23.035 108.872 22.3721 108.982C21.709 109.093 21.1034 108.948 20.5551 108.55C20.0068 108.152 19.6786 107.619 19.5707 106.953C19.4628 106.287 19.6098 105.678 20.0115 105.125L24.7307 98.6292C24.8556 98.4573 25.0184 98.3554 25.2192 98.3235C25.42 98.2918 25.6064 98.3385 25.7785 98.4635C25.9504 98.5884 26.0523 98.7512 26.084 98.9518C26.1156 99.1525 26.0689 99.3388 25.944 99.5108L21.2248 106.006C21.0673 106.223 21.0075 106.458 21.0455 106.713C21.0835 106.967 21.2109 107.173 21.4278 107.33C21.6444 107.488 21.8795 107.545 22.1331 107.503C22.3866 107.46 22.5921 107.331 22.7496 107.114L27.7571 100.222C28.1828 99.6182 28.3429 98.9616 28.2373 98.2518C28.1316 97.5419 27.7792 96.9693 27.1798 96.5339C26.583 96.1003 25.9272 95.9422 25.2122 96.0598C24.4971 96.1774 23.9226 96.5349 23.4886 97.1323L18.2041 104.406C17.4851 105.378 17.2189 106.455 17.4054 107.638C17.5918 108.821 18.1738 109.768 19.1512 110.478C20.1147 111.178 21.1829 111.43 22.3556 111.235C23.5281 111.039 24.478 110.458 25.2052 109.492L30.2069 102.608C30.3318 102.436 30.4947 102.334 30.6956 102.302C30.8965 102.271 31.0829 102.317 31.2549 102.442C31.4269 102.567 31.5287 102.73 31.5605 102.931C31.592 103.131 31.5454 103.318 31.4205 103.49L26.4187 110.374Z" fill="white" fill-opacity="0.5"/>
<path d="M45.127 99.5H43.9902V90.9688H45.127V99.5ZM48.6953 95.7266H44.8809V94.8125H48.6953V95.7266ZM49.2754 91.8887H44.8809V90.9688H49.2754V91.8887ZM51.367 90.8574C51.5779 90.8574 51.738 90.918 51.8474 91.0391C51.9607 91.1602 52.0173 91.3066 52.0173 91.4785C52.0173 91.6465 51.9607 91.791 51.8474 91.9121C51.738 92.0293 51.5779 92.0879 51.367 92.0879C51.156 92.0879 50.9959 92.0293 50.8865 91.9121C50.781 91.791 50.7283 91.6465 50.7283 91.4785C50.7283 91.3066 50.781 91.1602 50.8865 91.0391C50.9959 90.918 51.156 90.8574 51.367 90.8574ZM51.9177 99.5H50.8279V93.1602H51.9177V99.5ZM55.0288 99.5H53.9331V93.1602H54.9702L55.0288 94.5137V99.5ZM54.314 96.0664C54.3218 95.4883 54.4331 94.9727 54.648 94.5195C54.8628 94.0625 55.1616 93.7031 55.5445 93.4414C55.9312 93.1758 56.3804 93.043 56.8921 93.043C57.3101 93.043 57.6695 93.1211 57.9702 93.2773C58.2749 93.4297 58.5093 93.6738 58.6734 94.0098C58.8413 94.3457 58.9253 94.791 58.9253 95.3457V99.5H57.8296V95.334C57.8296 95.002 57.7808 94.7344 57.6831 94.5312C57.5894 94.3281 57.4487 94.1816 57.2612 94.0918C57.0737 93.998 56.8433 93.9512 56.5698 93.9512C56.3003 93.9512 56.0562 94.0078 55.8374 94.1211C55.6187 94.2344 55.4292 94.3906 55.2691 94.5898C55.1089 94.7891 54.9859 95.0176 54.8999 95.2754C54.814 95.5293 54.771 95.7988 54.771 96.084L54.314 96.0664ZM64.5442 95.1523C64.5442 94.7734 64.4309 94.4727 64.2044 94.25C63.9817 94.0234 63.6516 93.9102 63.2141 93.9102C62.9446 93.9102 62.7063 93.957 62.4993 94.0508C62.2962 94.1445 62.138 94.2676 62.0247 94.4199C61.9114 94.5723 61.8548 94.7383 61.8548 94.918H60.7591C60.7591 94.6133 60.8626 94.3184 61.0696 94.0332C61.2766 93.7441 61.5677 93.5078 61.9427 93.3242C62.3216 93.1367 62.7669 93.043 63.2786 93.043C63.7395 93.043 64.1477 93.1211 64.5032 93.2773C64.8587 93.4336 65.136 93.6699 65.3352 93.9863C65.5384 94.2988 65.6399 94.6914 65.6399 95.1641V98.1172C65.6399 98.3281 65.6575 98.5527 65.6927 98.791C65.7317 99.0293 65.7884 99.2344 65.8626 99.4062V99.5H64.72C64.6653 99.375 64.6223 99.209 64.5911 99.002C64.5598 98.791 64.5442 98.5957 64.5442 98.416V95.1523ZM64.7317 96.418H63.6536C63.0364 96.418 62.5598 96.5156 62.2239 96.7109C61.888 96.9062 61.72 97.1992 61.72 97.5898C61.72 97.8945 61.8216 98.1523 62.0247 98.3633C62.2317 98.5742 62.5325 98.6797 62.927 98.6797C63.2591 98.6797 63.552 98.6094 63.8059 98.4688C64.0598 98.3281 64.261 98.1543 64.4095 97.9473C64.5579 97.7402 64.638 97.541 64.6497 97.3496L65.1184 97.8711C65.0911 98.0352 65.0169 98.2168 64.8958 98.416C64.7747 98.6152 64.6126 98.8066 64.4095 98.9902C64.2102 99.1699 63.972 99.3203 63.6946 99.4414C63.4212 99.5586 63.1126 99.6172 62.7688 99.6172C62.3391 99.6172 61.9622 99.5352 61.638 99.3711C61.3177 99.2031 61.0677 98.9766 60.888 98.6914C60.7122 98.4062 60.6243 98.0898 60.6243 97.7422C60.6243 97.0586 60.8821 96.541 61.3977 96.1895C61.9134 95.834 62.6067 95.6562 63.4778 95.6562H64.7317V96.418ZM68.6807 99.5H67.585V93.1602H68.6221L68.6807 94.5137V99.5ZM67.9659 96.0664C67.9737 95.4883 68.085 94.9727 68.2998 94.5195C68.5147 94.0625 68.8135 93.7031 69.1963 93.4414C69.583 93.1758 70.0323 93.043 70.544 93.043C70.962 93.043 71.3213 93.1211 71.6221 93.2773C71.9268 93.4297 72.1612 93.6738 72.3252 94.0098C72.4932 94.3457 72.5772 94.791 72.5772 95.3457V99.5H71.4815V95.334C71.4815 95.002 71.4327 94.7344 71.335 94.5312C71.2412 94.3281 71.1006 94.1816 70.9131 94.0918C70.7256 93.998 70.4952 93.9512 70.2217 93.9512C69.9522 93.9512 69.708 94.0078 69.4893 94.1211C69.2705 94.2344 69.0811 94.3906 68.9209 94.5898C68.7608 94.7891 68.6377 95.0176 68.5518 95.2754C68.4659 95.5293 68.4229 95.7988 68.4229 96.084L67.9659 96.0664ZM77.0008 99.6172C76.3641 99.6172 75.8367 99.4727 75.4188 99.1836C75.0008 98.8906 74.6883 98.5039 74.4813 98.0234C74.2781 97.543 74.1766 97.0195 74.1766 96.4531V96.207C74.1766 95.6367 74.2801 95.1133 74.4871 94.6367C74.6941 94.1562 75.0066 93.7715 75.4246 93.4824C75.8426 93.1895 76.368 93.043 77.0008 93.043C77.4969 93.043 77.9305 93.1445 78.3016 93.3477C78.6766 93.5469 78.9695 93.8203 79.1805 94.168C79.3953 94.5117 79.5125 94.9023 79.532 95.3398H78.4949C78.4754 95.0781 78.4012 94.8398 78.2723 94.625C78.1473 94.4102 77.9754 94.2402 77.7566 94.1152C77.5418 93.9863 77.2898 93.9219 77.0008 93.9219C76.5594 93.9219 76.2117 94.0352 75.9578 94.2617C75.7078 94.4883 75.5301 94.7773 75.4246 95.1289C75.323 95.4766 75.2723 95.8359 75.2723 96.207V96.4531C75.2723 96.8242 75.323 97.1855 75.4246 97.5371C75.5262 97.8887 75.702 98.1777 75.952 98.4043C76.2059 98.627 76.5555 98.7383 77.0008 98.7383C77.2586 98.7383 77.4969 98.6855 77.7156 98.5801C77.9344 98.4707 78.1141 98.3223 78.2547 98.1348C78.3953 97.9473 78.4754 97.7344 78.4949 97.4961H79.532C79.5125 97.8711 79.3855 98.2207 79.1512 98.5449C78.9168 98.8652 78.6121 99.125 78.2371 99.3242C77.8621 99.5195 77.45 99.6172 77.0008 99.6172ZM81.6646 90.8574C81.8755 90.8574 82.0357 90.918 82.1451 91.0391C82.2584 91.1602 82.315 91.3066 82.315 91.4785C82.315 91.6465 82.2584 91.791 82.1451 91.9121C82.0357 92.0293 81.8755 92.0879 81.6646 92.0879C81.4537 92.0879 81.2935 92.0293 81.1841 91.9121C81.0787 91.791 81.0259 91.6465 81.0259 91.4785C81.0259 91.3066 81.0787 91.1602 81.1841 91.0391C81.2935 90.918 81.4537 90.8574 81.6646 90.8574ZM82.2154 99.5H81.1255V93.1602H82.2154V99.5ZM85.3265 99.5H84.2308V93.1602H85.2679L85.3265 94.5137V99.5ZM84.6116 96.0664C84.6195 95.4883 84.7308 94.9727 84.9456 94.5195C85.1605 94.0625 85.4593 93.7031 85.8421 93.4414C86.2288 93.1758 86.678 93.043 87.1898 93.043C87.6077 93.043 87.9671 93.1211 88.2679 93.2773C88.5726 93.4297 88.807 93.6738 88.971 94.0098C89.139 94.3457 89.223 94.791 89.223 95.3457V99.5H88.1273V95.334C88.1273 95.002 88.0784 94.7344 87.9808 94.5312C87.887 94.3281 87.7464 94.1816 87.5589 94.0918C87.3714 93.998 87.1409 93.9512 86.8675 93.9512C86.598 93.9512 86.3538 94.0078 86.1351 94.1211C85.9163 94.2344 85.7269 94.3906 85.5667 94.5898C85.4066 94.7891 85.2835 95.0176 85.1976 95.2754C85.1116 95.5293 85.0687 95.7988 85.0687 96.084L84.6116 96.0664ZM93.5177 102.002C93.2989 102.002 93.0411 101.967 92.7442 101.896C92.4512 101.83 92.1622 101.715 91.877 101.551C91.5958 101.391 91.3595 101.174 91.168 100.9L91.7364 100.262C92.002 100.582 92.2794 100.805 92.5684 100.93C92.8614 101.059 93.1505 101.123 93.4356 101.123C93.9473 101.123 94.3536 100.977 94.6544 100.684C94.9591 100.395 95.1114 99.9727 95.1114 99.418V94.5547L95.211 93.1602H96.2071V99.3652C96.2071 99.9238 96.0919 100.4 95.8614 100.795C95.6348 101.189 95.3184 101.488 94.9122 101.691C94.5098 101.898 94.045 102.002 93.5177 102.002ZM93.3419 99.6172C92.8341 99.6172 92.3927 99.4785 92.0177 99.2012C91.6466 98.9199 91.3575 98.5371 91.1505 98.0527C90.9473 97.5684 90.8458 97.0176 90.8458 96.4004V96.2773C90.8458 95.6328 90.9473 95.0684 91.1505 94.584C91.3536 94.0957 91.6427 93.7168 92.0177 93.4473C92.3927 93.1777 92.838 93.043 93.3536 93.043C93.752 93.043 94.0997 93.1133 94.3966 93.2539C94.6973 93.3906 94.9512 93.5898 95.1583 93.8516C95.3692 94.1133 95.5352 94.4297 95.6563 94.8008C95.7813 95.1719 95.8673 95.5898 95.9141 96.0547V96.623C95.8555 97.2363 95.7247 97.7676 95.5216 98.2168C95.3223 98.6621 95.043 99.0078 94.6837 99.2539C94.3243 99.4961 93.877 99.6172 93.3419 99.6172ZM93.6114 98.7031C93.9708 98.7031 94.2657 98.627 94.4962 98.4746C94.7266 98.3223 94.9122 98.1211 95.0528 97.8711C95.1934 97.6211 95.3028 97.3496 95.3809 97.0566V95.6328C95.3341 95.418 95.2677 95.2109 95.1817 95.0117C95.0958 94.8086 94.9825 94.6289 94.8419 94.4727C94.7012 94.3125 94.5294 94.1855 94.3262 94.0918C94.127 93.998 93.8927 93.9512 93.6231 93.9512C93.2286 93.9512 92.9063 94.0566 92.6563 94.2676C92.4102 94.4785 92.2286 94.7617 92.1114 95.1172C91.9981 95.4688 91.9415 95.8555 91.9415 96.2773V96.4004C91.9415 96.8223 91.9981 97.207 92.1114 97.5547C92.2286 97.9023 92.4102 98.1816 92.6563 98.3926C92.9024 98.5996 93.2208 98.7031 93.6114 98.7031ZM107.75 96.793C107.691 97.3281 107.537 97.8105 107.287 98.2402C107.037 98.666 106.683 99.002 106.226 99.248C105.769 99.4941 105.197 99.6172 104.509 99.6172C103.841 99.6172 103.257 99.4551 102.757 99.1309C102.257 98.8027 101.869 98.3418 101.591 97.748C101.314 97.1543 101.175 96.4609 101.175 95.668V94.8066C101.175 94.0098 101.314 93.3164 101.591 92.7266C101.873 92.1328 102.271 91.6719 102.787 91.3438C103.302 91.0156 103.912 90.8516 104.615 90.8516C105.259 90.8516 105.804 90.9727 106.25 91.2148C106.695 91.4531 107.041 91.7871 107.287 92.2168C107.537 92.6465 107.691 93.1426 107.75 93.7051H106.613C106.527 93.1074 106.336 92.6367 106.039 92.293C105.746 91.9453 105.271 91.7715 104.615 91.7715C104.111 91.7715 103.689 91.8984 103.349 92.1523C103.009 92.4023 102.752 92.7539 102.576 93.207C102.404 93.6602 102.318 94.1895 102.318 94.7949V95.668C102.318 96.2266 102.396 96.7363 102.552 97.1973C102.709 97.6543 102.947 98.0195 103.267 98.293C103.591 98.5664 104.005 98.7031 104.509 98.7031C104.99 98.7031 105.371 98.627 105.652 98.4746C105.937 98.3223 106.152 98.1035 106.296 97.8184C106.445 97.5332 106.55 97.1914 106.613 96.793H107.75ZM109.074 96.2656C109.074 95.6523 109.191 95.1035 109.425 94.6191C109.66 94.1348 109.992 93.752 110.421 93.4707C110.851 93.1855 111.361 93.043 111.951 93.043C112.548 93.043 113.064 93.1855 113.497 93.4707C113.931 93.752 114.263 94.1348 114.494 94.6191C114.728 95.1035 114.845 95.6523 114.845 96.2656V96.4004C114.845 97.0098 114.728 97.5586 114.494 98.0469C114.263 98.5312 113.931 98.9141 113.497 99.1953C113.068 99.4766 112.556 99.6172 111.962 99.6172C111.369 99.6172 110.855 99.4766 110.421 99.1953C109.992 98.9141 109.66 98.5312 109.425 98.0469C109.191 97.5586 109.074 97.0098 109.074 96.4004V96.2656ZM110.169 96.4004C110.169 96.8184 110.236 97.2051 110.369 97.5605C110.501 97.916 110.699 98.2012 110.96 98.416C111.226 98.6309 111.56 98.7383 111.962 98.7383C112.361 98.7383 112.691 98.6309 112.952 98.416C113.218 98.2012 113.417 97.916 113.55 97.5605C113.683 97.2051 113.749 96.8184 113.749 96.4004V96.2656C113.749 95.8477 113.683 95.4609 113.55 95.1055C113.417 94.75 113.218 94.4648 112.952 94.25C112.687 94.0312 112.353 93.9219 111.951 93.9219C111.556 93.9219 111.226 94.0312 110.96 94.25C110.695 94.4648 110.495 94.75 110.363 95.1055C110.234 95.4609 110.169 95.8477 110.169 96.2656V96.4004ZM117.546 99.5H116.45V93.1602H117.487L117.546 94.5137V99.5ZM116.831 96.0664C116.839 95.4883 116.95 94.9727 117.165 94.5195C117.38 94.0625 117.679 93.7031 118.062 93.4414C118.448 93.1758 118.898 93.043 119.409 93.043C119.827 93.043 120.187 93.1211 120.487 93.2773C120.792 93.4297 121.026 93.6738 121.191 94.0098C121.359 94.3457 121.442 94.791 121.442 95.3457V99.5H120.347V95.334C120.347 95.002 120.298 94.7344 120.2 94.5312C120.107 94.3281 119.966 94.1816 119.778 94.0918C119.591 93.998 119.36 93.9512 119.087 93.9512C118.817 93.9512 118.573 94.0078 118.355 94.1211C118.136 94.2344 117.946 94.3906 117.786 94.5898C117.626 94.7891 117.503 95.0176 117.417 95.2754C117.331 95.5293 117.288 95.7988 117.288 96.084L116.831 96.0664ZM125.989 93.9863H122.556V93.1602H125.989V93.9863ZM124.806 91.6191V97.9297C124.806 98.1484 124.839 98.3125 124.905 98.4219C124.972 98.5312 125.058 98.6035 125.163 98.6387C125.268 98.6738 125.382 98.6914 125.503 98.6914C125.593 98.6914 125.686 98.6836 125.784 98.668C125.886 98.6523 125.96 98.6387 126.007 98.627V99.5C125.921 99.5273 125.809 99.5527 125.673 99.5762C125.536 99.6035 125.37 99.6172 125.175 99.6172C124.909 99.6172 124.665 99.5645 124.442 99.459C124.22 99.3535 124.042 99.1777 123.909 98.9316C123.776 98.6816 123.71 98.3457 123.71 97.9238V91.6191H124.806ZM128.585 99.5H127.489V93.1602H128.555L128.585 94.1562V99.5ZM130.559 94.127C130.465 94.1074 130.378 94.0957 130.296 94.0918C130.217 94.084 130.128 94.0801 130.026 94.0801C129.694 94.0801 129.413 94.1484 129.182 94.2852C128.956 94.4219 128.78 94.6113 128.655 94.8535C128.53 95.0918 128.452 95.3652 128.421 95.6738L128.11 95.8496C128.11 95.3379 128.178 94.8711 128.315 94.4492C128.452 94.0234 128.665 93.6836 128.954 93.4297C129.247 93.1719 129.622 93.043 130.079 93.043C130.153 93.043 130.241 93.0527 130.342 93.0723C130.448 93.0879 130.52 93.1055 130.559 93.125V94.127ZM135.346 95.1523C135.346 94.7734 135.233 94.4727 135.006 94.25C134.784 94.0234 134.454 93.9102 134.016 93.9102C133.746 93.9102 133.508 93.957 133.301 94.0508C133.098 94.1445 132.94 94.2676 132.827 94.4199C132.713 94.5723 132.657 94.7383 132.657 94.918H131.561C131.561 94.6133 131.664 94.3184 131.871 94.0332C132.079 93.7441 132.37 93.5078 132.745 93.3242C133.123 93.1367 133.569 93.043 134.08 93.043C134.541 93.043 134.95 93.1211 135.305 93.2773C135.661 93.4336 135.938 93.6699 136.137 93.9863C136.34 94.2988 136.442 94.6914 136.442 95.1641V98.1172C136.442 98.3281 136.459 98.5527 136.495 98.791C136.534 99.0293 136.59 99.2344 136.664 99.4062V99.5H135.522C135.467 99.375 135.424 99.209 135.393 99.002C135.362 98.791 135.346 98.5957 135.346 98.416V95.1523ZM135.534 96.418H134.455C133.838 96.418 133.362 96.5156 133.026 96.7109C132.69 96.9062 132.522 97.1992 132.522 97.5898C132.522 97.8945 132.623 98.1523 132.827 98.3633C133.034 98.5742 133.334 98.6797 133.729 98.6797C134.061 98.6797 134.354 98.6094 134.608 98.4688C134.862 98.3281 135.063 98.1543 135.211 97.9473C135.36 97.7402 135.44 97.541 135.452 97.3496L135.92 97.8711C135.893 98.0352 135.819 98.2168 135.698 98.416C135.577 98.6152 135.414 98.8066 135.211 98.9902C135.012 99.1699 134.774 99.3203 134.496 99.4414C134.223 99.5586 133.914 99.6172 133.571 99.6172C133.141 99.6172 132.764 99.5352 132.44 99.3711C132.12 99.2031 131.87 98.9766 131.69 98.6914C131.514 98.4062 131.426 98.0898 131.426 97.7422C131.426 97.0586 131.684 96.541 132.2 96.1895C132.715 95.834 133.409 95.6562 134.28 95.6562H135.534V96.418ZM140.93 99.6172C140.293 99.6172 139.766 99.4727 139.348 99.1836C138.93 98.8906 138.617 98.5039 138.41 98.0234C138.207 97.543 138.106 97.0195 138.106 96.4531V96.207C138.106 95.6367 138.209 95.1133 138.416 94.6367C138.623 94.1562 138.936 93.7715 139.354 93.4824C139.772 93.1895 140.297 93.043 140.93 93.043C141.426 93.043 141.86 93.1445 142.231 93.3477C142.606 93.5469 142.899 93.8203 143.11 94.168C143.324 94.5117 143.442 94.9023 143.461 95.3398H142.424C142.404 95.0781 142.33 94.8398 142.201 94.625C142.076 94.4102 141.904 94.2402 141.686 94.1152C141.471 93.9863 141.219 93.9219 140.93 93.9219C140.488 93.9219 140.141 94.0352 139.887 94.2617C139.637 94.4883 139.459 94.7773 139.354 95.1289C139.252 95.4766 139.201 95.8359 139.201 96.207V96.4531C139.201 96.8242 139.252 97.1855 139.354 97.5371C139.455 97.8887 139.631 98.1777 139.881 98.4043C140.135 98.627 140.485 98.7383 140.93 98.7383C141.188 98.7383 141.426 98.6855 141.645 98.5801C141.863 98.4707 142.043 98.3223 142.184 98.1348C142.324 97.9473 142.404 97.7344 142.424 97.4961H143.461C143.442 97.8711 143.315 98.2207 143.08 98.5449C142.846 98.8652 142.541 99.125 142.166 99.3242C141.791 99.5195 141.379 99.6172 140.93 99.6172ZM147.586 93.9863H144.152V93.1602H147.586V93.9863ZM146.402 91.6191V97.9297C146.402 98.1484 146.435 98.3125 146.502 98.4219C146.568 98.5312 146.654 98.6035 146.76 98.6387C146.865 98.6738 146.978 98.6914 147.1 98.6914C147.189 98.6914 147.283 98.6836 147.381 98.668C147.482 98.6523 147.557 98.6387 147.603 98.627V99.5C147.518 99.5273 147.406 99.5527 147.269 99.5762C147.133 99.6035 146.967 99.6172 146.771 99.6172C146.506 99.6172 146.262 99.5645 146.039 99.459C145.816 99.3535 145.639 99.1777 145.506 98.9316C145.373 98.6816 145.307 98.3457 145.307 97.9238V91.6191H146.402ZM149.783 99.5645C149.564 99.5645 149.396 99.5039 149.279 99.3828C149.166 99.2617 149.109 99.1113 149.109 98.9316C149.109 98.748 149.166 98.5938 149.279 98.4688C149.396 98.3398 149.564 98.2754 149.783 98.2754C150.006 98.2754 150.174 98.3398 150.287 98.4688C150.404 98.5938 150.463 98.748 150.463 98.9316C150.463 99.1113 150.404 99.2617 150.287 99.3828C150.174 99.5039 150.006 99.5645 149.783 99.5645ZM155.408 99.6172C155.001 99.6172 154.644 99.5508 154.335 99.418C154.027 99.2852 153.765 99.0938 153.55 98.8438C153.335 98.5898 153.164 98.2871 153.035 97.9355C152.91 97.5801 152.824 97.1797 152.777 96.7344V96.0547C152.839 95.4336 152.974 94.8984 153.181 94.4492C153.392 94 153.679 93.6543 154.042 93.4121C154.41 93.166 154.859 93.043 155.39 93.043C155.921 93.043 156.371 93.1777 156.738 93.4473C157.105 93.7168 157.384 94.0957 157.576 94.584C157.767 95.0684 157.863 95.6328 157.863 96.2773V96.4004C157.863 97.0176 157.767 97.5684 157.576 98.0527C157.384 98.5371 157.105 98.9199 156.738 99.2012C156.374 99.4785 155.931 99.6172 155.408 99.6172ZM152.501 101.938V93.1602H153.497L153.597 94.3789V101.938H152.501ZM155.074 98.7383C155.464 98.7383 155.785 98.6309 156.035 98.416C156.285 98.2012 156.468 97.918 156.585 97.5664C156.706 97.2109 156.767 96.8223 156.767 96.4004V96.2773C156.767 95.8555 156.706 95.4688 156.585 95.1172C156.468 94.7617 156.283 94.4785 156.029 94.2676C155.779 94.0566 155.456 93.9512 155.062 93.9512C154.792 93.9512 154.558 93.998 154.359 94.0918C154.16 94.1855 153.99 94.3125 153.849 94.4727C153.708 94.6289 153.593 94.8086 153.503 95.0117C153.417 95.2109 153.353 95.418 153.31 95.6328V97.1621C153.388 97.4355 153.496 97.6934 153.632 97.9355C153.773 98.1738 153.958 98.3672 154.189 98.5156C154.423 98.6641 154.718 98.7383 155.074 98.7383ZM161.712 99.6172C161.216 99.6172 160.78 99.4785 160.405 99.2012C160.03 98.9199 159.738 98.5371 159.527 98.0527C159.32 97.5684 159.216 97.0176 159.216 96.4004V96.2773C159.216 95.6328 159.32 95.0684 159.527 94.584C159.738 94.0957 160.03 93.7168 160.405 93.4473C160.78 93.1777 161.22 93.043 161.724 93.043C162.255 93.043 162.698 93.166 163.054 93.4121C163.409 93.6543 163.687 94 163.886 94.4492C164.089 94.8984 164.22 95.4336 164.279 96.0547V96.623C164.22 97.2363 164.091 97.7676 163.892 98.2168C163.693 98.6621 163.413 99.0078 163.054 99.2539C162.698 99.4961 162.251 99.6172 161.712 99.6172ZM161.982 98.7031C162.341 98.7031 162.636 98.627 162.866 98.4746C163.101 98.3223 163.288 98.1211 163.429 97.8711C163.57 97.6211 163.679 97.3496 163.757 97.0566V95.6328C163.71 95.418 163.642 95.2109 163.552 95.0117C163.466 94.8086 163.353 94.6289 163.212 94.4727C163.075 94.3125 162.905 94.1855 162.702 94.0918C162.503 93.998 162.267 93.9512 161.993 93.9512C161.599 93.9512 161.277 94.0566 161.027 94.2676C160.78 94.4785 160.599 94.7617 160.482 95.1172C160.368 95.4688 160.312 95.8555 160.312 96.2773V96.4004C160.312 96.8223 160.368 97.207 160.482 97.5547C160.599 97.9023 160.78 98.1816 161.027 98.3926C161.273 98.5996 161.591 98.7031 161.982 98.7031ZM163.57 99.5L163.476 98.2695V90.5H164.571V99.5H163.57ZM167.026 99.5V92.4863C167.026 91.8066 167.212 91.2852 167.583 90.9219C167.958 90.5586 168.47 90.377 169.118 90.377C169.243 90.377 169.368 90.3848 169.493 90.4004C169.618 90.416 169.741 90.4395 169.862 90.4707L169.804 91.3438C169.722 91.3281 169.628 91.3164 169.522 91.3086C169.421 91.3008 169.319 91.2969 169.218 91.2969C168.874 91.2969 168.604 91.4004 168.409 91.6074C168.218 91.8105 168.122 92.1035 168.122 92.4863V99.5H167.026ZM169.47 93.9863H166.03V93.1602H169.47V93.9863Z" fill="white"/>
<path d="M48.0537 113.468C48.0537 114.239 47.9626 114.854 47.7803 115.313C47.6012 115.769 47.3441 116.098 47.0088 116.3C46.6735 116.498 46.2764 116.598 45.8174 116.598C45.3649 116.598 44.9694 116.498 44.6309 116.3C44.2923 116.098 44.0286 115.769 43.8398 115.313C43.6543 114.854 43.5615 114.239 43.5615 113.468V112.379C43.5615 111.604 43.6527 110.992 43.835 110.543C44.0205 110.094 44.2809 109.773 44.6162 109.581C44.9548 109.389 45.3519 109.293 45.8076 109.293C46.2666 109.293 46.6637 109.389 46.999 109.581C47.3343 109.773 47.5931 110.094 47.7754 110.543C47.9609 110.992 48.0537 111.604 48.0537 112.379V113.468ZM47.1406 112.228C47.1406 111.694 47.0902 111.266 46.9893 110.943C46.8883 110.621 46.7386 110.388 46.54 110.245C46.3415 110.099 46.0973 110.025 45.8076 110.025C45.5212 110.025 45.2786 110.099 45.0801 110.245C44.8815 110.388 44.7301 110.621 44.626 110.943C44.5251 111.266 44.4746 111.694 44.4746 112.228V113.609C44.4746 114.14 44.5267 114.571 44.6309 114.903C44.735 115.235 44.8864 115.479 45.085 115.636C45.2868 115.789 45.5309 115.865 45.8174 115.865C46.1104 115.865 46.3545 115.789 46.5498 115.636C46.7451 115.479 46.8916 115.235 46.9893 114.903C47.0902 114.571 47.1406 114.14 47.1406 113.609V112.228ZM52.3895 116.5H51.4764V110.47L49.66 111.139V110.323L52.2479 109.352H52.3895V116.5ZM55.5191 117.11H54.7379L57.7066 109.391H58.483L55.5191 117.11ZM64.0346 113.468C64.0346 114.239 63.9434 114.854 63.7611 115.313C63.5821 115.769 63.3249 116.098 62.9896 116.3C62.6544 116.498 62.2572 116.598 61.7982 116.598C61.3458 116.598 60.9503 116.498 60.6117 116.3C60.2732 116.098 60.0095 115.769 59.8207 115.313C59.6352 114.854 59.5424 114.239 59.5424 113.468V112.379C59.5424 111.604 59.6335 110.992 59.8158 110.543C60.0014 110.094 60.2618 109.773 60.5971 109.581C60.9356 109.389 61.3327 109.293 61.7885 109.293C62.2475 109.293 62.6446 109.389 62.9799 109.581C63.3152 109.773 63.574 110.094 63.7563 110.543C63.9418 110.992 64.0346 111.604 64.0346 112.379V113.468ZM63.1215 112.228C63.1215 111.694 63.071 111.266 62.9701 110.943C62.8692 110.621 62.7195 110.388 62.5209 110.245C62.3223 110.099 62.0782 110.025 61.7885 110.025C61.502 110.025 61.2595 110.099 61.0609 110.245C60.8624 110.388 60.711 110.621 60.6068 110.943C60.5059 111.266 60.4555 111.694 60.4555 112.228V113.609C60.4555 114.14 60.5076 114.571 60.6117 114.903C60.7159 115.235 60.8673 115.479 61.0658 115.636C61.2676 115.789 61.5118 115.865 61.7982 115.865C62.0912 115.865 62.3354 115.789 62.5307 115.636C62.726 115.479 62.8725 115.235 62.9701 114.903C63.071 114.571 63.1215 114.14 63.1215 113.609V112.228ZM66.3879 115.748C66.9087 115.748 67.3319 115.675 67.6574 115.528C67.9829 115.382 68.232 115.185 68.4045 114.938C68.5803 114.687 68.7007 114.407 68.7658 114.098C68.8309 113.785 68.8635 113.465 68.8635 113.136V112.047C68.8635 111.614 68.8 111.248 68.673 110.948C68.5461 110.649 68.3784 110.423 68.1701 110.27C67.965 110.113 67.7421 110.035 67.5012 110.035C67.2245 110.035 66.9868 110.108 66.7883 110.255C66.593 110.401 66.4432 110.6 66.3391 110.851C66.2382 111.101 66.1877 111.384 66.1877 111.7C66.1877 111.98 66.2333 112.249 66.3244 112.506C66.4188 112.763 66.5604 112.973 66.7492 113.136C66.9413 113.299 67.1822 113.38 67.4719 113.38C67.6704 113.38 67.8576 113.339 68.0334 113.258C68.2124 113.176 68.3703 113.067 68.507 112.931C68.6437 112.791 68.7544 112.633 68.8391 112.457C68.9237 112.278 68.9725 112.092 68.9855 111.9H69.4201C69.4201 112.171 69.3664 112.438 69.259 112.701C69.1548 112.965 69.0083 113.204 68.8195 113.419C68.6307 113.634 68.4094 113.805 68.1555 113.932C67.9016 114.059 67.6249 114.122 67.3254 114.122C66.8566 114.122 66.4725 114.005 66.173 113.771C65.8736 113.536 65.6522 113.238 65.509 112.877C65.3658 112.512 65.2941 112.136 65.2941 111.749C65.2941 111.297 65.3771 110.885 65.5432 110.514C65.7092 110.143 65.9566 109.846 66.2854 109.625C66.6141 109.404 67.0194 109.293 67.5012 109.293C67.9081 109.293 68.2548 109.374 68.5412 109.537C68.8309 109.697 69.0653 109.913 69.2443 110.187C69.4266 110.46 69.5601 110.768 69.6447 111.109C69.7294 111.451 69.7717 111.803 69.7717 112.164V112.501C69.7717 112.872 69.7473 113.248 69.6984 113.629C69.6529 114.007 69.5633 114.368 69.4299 114.713C69.2997 115.055 69.1092 115.362 68.8586 115.636C68.6079 115.906 68.2808 116.119 67.8771 116.275C67.4768 116.432 66.9803 116.51 66.3879 116.51H66.2951V115.748H66.3879ZM71.5 117.11H70.7188L73.6875 109.391H74.4639L71.5 117.11ZM78.1111 112.12L79.8104 109.391H80.9188L78.6775 112.911L80.9725 116.5H79.8543L78.1111 113.717L76.3582 116.5H75.2449L77.5447 112.911L75.2938 109.391H76.407L78.1111 112.12ZM84.5904 112.12L86.2896 109.391H87.398L85.1568 112.911L87.4518 116.5H86.3336L84.5904 113.717L82.8375 116.5H81.7242L84.024 112.911L81.773 109.391H82.8863L84.5904 112.12Z" fill="white" fill-opacity="0.5"/>
<g filter="url(#filter3_i_2388_1256)">
<path d="M205 104C205 94.0589 213.059 86 223 86V86C232.941 86 241 94.0589 241 104V104C241 113.941 232.941 122 223 122V122C213.059 122 205 113.941 205 104V104Z" fill="white" fill-opacity="0.02"/>
<path d="M223 121.5C213.335 121.5 205.5 113.665 205.5 104C205.5 94.335 213.335 86.5 223 86.5C232.665 86.5 240.5 94.335 240.5 104C240.5 113.665 232.665 121.5 223 121.5Z" stroke="url(#paint1_linear_2388_1256)"/>
<path d="M222.5 107.411C222.379 107.411 222.267 107.392 222.164 107.354C222.06 107.315 221.961 107.249 221.867 107.156L218.758 104.046C218.609 103.897 218.536 103.723 218.538 103.524C218.54 103.325 218.613 103.147 218.758 102.992C218.913 102.837 219.091 102.757 219.292 102.752C219.494 102.747 219.672 102.822 219.827 102.977L221.75 104.9V97.25C221.75 97.0372 221.822 96.859 221.965 96.7155C222.109 96.5718 222.287 96.5 222.5 96.5C222.713 96.5 222.891 96.5718 223.035 96.7155C223.178 96.859 223.25 97.0372 223.25 97.25V104.9L225.173 102.977C225.322 102.828 225.498 102.755 225.703 102.757C225.907 102.759 226.087 102.837 226.242 102.992C226.387 103.147 226.462 103.323 226.467 103.519C226.472 103.715 226.397 103.891 226.242 104.046L223.133 107.156C223.039 107.249 222.94 107.315 222.836 107.354C222.733 107.392 222.621 107.411 222.5 107.411ZM216.808 111.5C216.303 111.5 215.875 111.325 215.525 110.975C215.175 110.625 215 110.197 215 109.692V107.731C215 107.518 215.072 107.34 215.215 107.196C215.359 107.053 215.537 106.981 215.75 106.981C215.963 106.981 216.141 107.053 216.285 107.196C216.428 107.34 216.5 107.518 216.5 107.731V109.692C216.5 109.769 216.532 109.84 216.596 109.904C216.66 109.968 216.731 110 216.808 110H228.192C228.269 110 228.34 109.968 228.404 109.904C228.468 109.84 228.5 109.769 228.5 109.692V107.731C228.5 107.518 228.572 107.34 228.715 107.196C228.859 107.053 229.037 106.981 229.25 106.981C229.463 106.981 229.641 107.053 229.785 107.196C229.928 107.34 230 107.518 230 107.731V109.692C230 110.197 229.825 110.625 229.475 110.975C229.125 111.325 228.697 111.5 228.192 111.5H216.808Z" fill="white"/>
</g>
</g>
<defs>
<filter id="filter0_bii_2388_1256" x="-20" y="-20" width="297" height="104" filterUnits="userSpaceOnUse" color-interpolation-filters="sRGB">
<feFlood flood-opacity="0" result="BackgroundImageFix"/>
<feGaussianBlur in="BackgroundImageFix" stdDeviation="10"/>
<feComposite in2="SourceAlpha" operator="in" result="effect1_backgroundBlur_2388_1256"/>
<feBlend mode="normal" in="SourceGraphic" in2="effect1_backgroundBlur_2388_1256" result="shape"/>
<feColorMatrix in="SourceAlpha" type="matrix" values="0 0 0 0 0 0 0 0 0 0 0 0 0 0 0 0 0 0 127 0" result="hardAlpha"/>
<feOffset/>
<feGaussianBlur stdDeviation="2"/>
<feComposite in2="hardAlpha" operator="arithmetic" k2="-1" k3="1"/>
<feColorMatrix type="matrix" values="0 0 0 0 1 0 0 0 0 1 0 0 0 0 1 0 0 0 0.05 0"/>
<feBlend mode="normal" in2="shape" result="effect2_innerShadow_2388_1256"/>
<feColorMatrix in="SourceAlpha" type="matrix" values="0 0 0 0 0 0 0 0 0 0 0 0 0 0 0 0 0 0 127 0" result="hardAlpha"/>
<feOffset/>
<feGaussianBlur stdDeviation="10"/>
<feComposite in2="hardAlpha" operator="arithmetic" k2="-1" k3="1"/>
<feColorMatrix type="matrix" values="0 0 0 0 1 0 0 0 0 1 0 0 0 0 1 0 0 0 0.05 0"/>
<feBlend mode="normal" in2="effect2_innerShadow_2388_1256" result="effect3_innerShadow_2388_1256"/>
</filter>
<filter id="filter1_i_2388_1256" x="205" y="11" width="36" height="39" filterUnits="userSpaceOnUse" color-interpolation-filters="sRGB">
<feFlood flood-opacity="0" result="BackgroundImageFix"/>
<feBlend mode="normal" in="SourceGraphic" in2="BackgroundImageFix" result="shape"/>
<feColorMatrix in="SourceAlpha" type="matrix" values="0 0 0 0 0 0 0 0 0 0 0 0 0 0 0 0 0 0 127 0" result="hardAlpha"/>
<feOffset dy="-3"/>
<feGaussianBlur stdDeviation="5"/>
<feComposite in2="hardAlpha" operator="arithmetic" k2="-1" k3="1"/>
<feColorMatrix type="matrix" values="0 0 0 0 1 0 0 0 0 1 0 0 0 0 1 0 0 0 0.14 0"/>
<feBlend mode="normal" in2="shape" result="effect1_innerShadow_2388_1256"/>
</filter>
<filter id="filter2_bii_2388_1256" x="-20" y="52" width="297" height="104" filterUnits="userSpaceOnUse" color-interpolation-filters="sRGB">
<feFlood flood-opacity="0" result="BackgroundImageFix"/>
<feGaussianBlur in="BackgroundImageFix" stdDeviation="10"/>
<feComposite in2="SourceAlpha" operator="in" result="effect1_backgroundBlur_2388_1256"/>
<feBlend mode="normal" in="SourceGraphic" in2="effect1_backgroundBlur_2388_1256" result="shape"/>
<feColorMatrix in="SourceAlpha" type="matrix" values="0 0 0 0 0 0 0 0 0 0 0 0 0 0 0 0 0 0 127 0" result="hardAlpha"/>
<feOffset/>
<feGaussianBlur stdDeviation="2"/>
<feComposite in2="hardAlpha" operator="arithmetic" k2="-1" k3="1"/>
<feColorMatrix type="matrix" values="0 0 0 0 1 0 0 0 0 1 0 0 0 0 1 0 0 0 0.05 0"/>
<feBlend mode="normal" in2="shape" result="effect2_innerShadow_2388_1256"/>
<feColorMatrix in="SourceAlpha" type="matrix" values="0 0 0 0 0 0 0 0 0 0 0 0 0 0 0 0 0 0 127 0" result="hardAlpha"/>
<feOffset/>
<feGaussianBlur stdDeviation="10"/>
<feComposite in2="hardAlpha" operator="arithmetic" k2="-1" k3="1"/>
<feColorMatrix type="matrix" values="0 0 0 0 1 0 0 0 0 1 0 0 0 0 1 0 0 0 0.05 0"/>
<feBlend mode="normal" in2="effect2_innerShadow_2388_1256" result="effect3_innerShadow_2388_1256"/>
</filter>
<filter id="filter3_i_2388_1256" x="205" y="83" width="36" height="39" filterUnits="userSpaceOnUse" color-interpolation-filters="sRGB">
<feFlood flood-opacity="0" result="BackgroundImageFix"/>
<feBlend mode="normal" in="SourceGraphic" in2="BackgroundImageFix" result="shape"/>
<feColorMatrix in="SourceAlpha" type="matrix" values="0 0 0 0 0 0 0 0 0 0 0 0 0 0 0 0 0 0 127 0" result="hardAlpha"/>
<feOffset dy="-3"/>
<feGaussianBlur stdDeviation="5"/>
<feComposite in2="hardAlpha" operator="arithmetic" k2="-1" k3="1"/>
<feColorMatrix type="matrix" values="0 0 0 0 1 0 0 0 0 1 0 0 0 0 1 0 0 0 0.14 0"/>
<feBlend mode="normal" in2="shape" result="effect1_innerShadow_2388_1256"/>
</filter>
<linearGradient id="paint0_linear_2388_1256" x1="205" y1="14" x2="243.276" y2="16.6091" gradientUnits="userSpaceOnUse">
<stop stop-color="#B721FF"/>
<stop offset="1" stop-color="#21FDF6"/>
</linearGradient>
<linearGradient id="paint1_linear_2388_1256" x1="205" y1="86" x2="243.276" y2="88.6091" gradientUnits="userSpaceOnUse">
<stop stop-color="#B721FF"/>
<stop offset="1" stop-color="#21FDF6"/>
</linearGradient>
</defs>
</svg>
