<svg width="257" height="64" viewBox="0 0 257 64" fill="none" xmlns="http://www.w3.org/2000/svg">
<g filter="url(#filter0_bii_2389_1528)">
<rect width="257" height="64" rx="14" fill="white" fill-opacity="0.06"/>
<rect x="0.5" y="0.5" width="256" height="63" rx="13.5" stroke="white"/>
<path d="M26.4187 38.374C25.4641 39.6878 24.1947 40.4736 22.6104 40.7315C21.0261 40.9896 19.5782 40.6422 18.2667 39.6893C16.9551 38.7364 16.1759 37.4657 15.9291 35.8773C15.6822 34.289 16.0361 32.8379 16.9906 31.5241L22.2751 24.2506C22.9533 23.3171 23.8539 22.7592 24.977 22.5768C26.0998 22.3943 27.128 22.6421 28.0615 23.3203C28.995 23.9985 29.5485 24.8999 29.722 26.0243C29.8956 27.1487 29.6433 28.1777 28.9651 29.1111L23.9632 35.9957C23.5653 36.5432 23.035 36.8721 22.3721 36.9824C21.709 37.0925 21.1034 36.9484 20.5551 36.5501C20.0068 36.1517 19.6786 35.6194 19.5707 34.9533C19.4628 34.2871 19.6098 33.6776 20.0115 33.1246L24.7307 26.6292C24.8556 26.4573 25.0184 26.3554 25.2192 26.3235C25.42 26.2918 25.6064 26.3385 25.7785 26.4635C25.9504 26.5884 26.0523 26.7512 26.084 26.9518C26.1156 27.1525 26.0689 27.3388 25.944 27.5108L21.2248 34.0062C21.0673 34.223 21.0075 34.4585 21.0455 34.7127C21.0835 34.9669 21.2109 35.1728 21.4278 35.3303C21.6444 35.4878 21.8795 35.5453 22.1331 35.5028C22.3866 35.4604 22.5921 35.3308 22.7496 35.114L27.7571 28.2218C28.1828 27.6182 28.3429 26.9616 28.2373 26.2518C28.1316 25.5419 27.7792 24.9693 27.1798 24.5339C26.583 24.1003 25.9272 23.9422 25.2122 24.0598C24.4971 24.1774 23.9226 24.5349 23.4886 25.1323L18.2041 32.4057C17.4851 33.3778 17.2189 34.4552 17.4054 35.6381C17.5918 36.8211 18.1738 37.7677 19.1512 38.4778C20.1147 39.1779 21.1829 39.4301 22.3556 39.2346C23.5281 39.0391 24.478 38.4583 25.2052 37.4923L30.2069 30.608C30.3318 30.436 30.4947 30.3342 30.6956 30.3023C30.8965 30.2707 31.0829 30.3173 31.2549 30.4423C31.4269 30.5672 31.5287 30.73 31.5605 30.9307C31.592 31.1314 31.5454 31.3177 31.4205 31.4896L26.4187 38.374Z" fill="white" fill-opacity="0.5"/>
<path d="M45.127 27.5H43.9902V18.9688H45.127V27.5ZM48.6953 23.7266H44.8809V22.8125H48.6953V23.7266ZM49.2754 19.8887H44.8809V18.9688H49.2754V19.8887ZM51.367 18.8574C51.5779 18.8574 51.738 18.918 51.8474 19.0391C51.9607 19.1602 52.0173 19.3066 52.0173 19.4785C52.0173 19.6465 51.9607 19.791 51.8474 19.9121C51.738 20.0293 51.5779 20.0879 51.367 20.0879C51.156 20.0879 50.9959 20.0293 50.8865 19.9121C50.781 19.791 50.7283 19.6465 50.7283 19.4785C50.7283 19.3066 50.781 19.1602 50.8865 19.0391C50.9959 18.918 51.156 18.8574 51.367 18.8574ZM51.9177 27.5H50.8279V21.1602H51.9177V27.5ZM55.0288 27.5H53.9331V21.1602H54.9702L55.0288 22.5137V27.5ZM54.314 24.0664C54.3218 23.4883 54.4331 22.9727 54.648 22.5195C54.8628 22.0625 55.1616 21.7031 55.5445 21.4414C55.9312 21.1758 56.3804 21.043 56.8921 21.043C57.3101 21.043 57.6695 21.1211 57.9702 21.2773C58.2749 21.4297 58.5093 21.6738 58.6734 22.0098C58.8413 22.3457 58.9253 22.791 58.9253 23.3457V27.5H57.8296V23.334C57.8296 23.002 57.7808 22.7344 57.6831 22.5312C57.5894 22.3281 57.4487 22.1816 57.2612 22.0918C57.0737 21.998 56.8433 21.9512 56.5698 21.9512C56.3003 21.9512 56.0562 22.0078 55.8374 22.1211C55.6187 22.2344 55.4292 22.3906 55.2691 22.5898C55.1089 22.7891 54.9859 23.0176 54.8999 23.2754C54.814 23.5293 54.771 23.7988 54.771 24.084L54.314 24.0664ZM64.5442 23.1523C64.5442 22.7734 64.4309 22.4727 64.2044 22.25C63.9817 22.0234 63.6516 21.9102 63.2141 21.9102C62.9446 21.9102 62.7063 21.957 62.4993 22.0508C62.2962 22.1445 62.138 22.2676 62.0247 22.4199C61.9114 22.5723 61.8548 22.7383 61.8548 22.918H60.7591C60.7591 22.6133 60.8626 22.3184 61.0696 22.0332C61.2766 21.7441 61.5677 21.5078 61.9427 21.3242C62.3216 21.1367 62.7669 21.043 63.2786 21.043C63.7395 21.043 64.1477 21.1211 64.5032 21.2773C64.8587 21.4336 65.136 21.6699 65.3352 21.9863C65.5384 22.2988 65.6399 22.6914 65.6399 23.1641V26.1172C65.6399 26.3281 65.6575 26.5527 65.6927 26.791C65.7317 27.0293 65.7884 27.2344 65.8626 27.4062V27.5H64.72C64.6653 27.375 64.6223 27.209 64.5911 27.002C64.5598 26.791 64.5442 26.5957 64.5442 26.416V23.1523ZM64.7317 24.418H63.6536C63.0364 24.418 62.5598 24.5156 62.2239 24.7109C61.888 24.9062 61.72 25.1992 61.72 25.5898C61.72 25.8945 61.8216 26.1523 62.0247 26.3633C62.2317 26.5742 62.5325 26.6797 62.927 26.6797C63.2591 26.6797 63.552 26.6094 63.8059 26.4688C64.0598 26.3281 64.261 26.1543 64.4095 25.9473C64.5579 25.7402 64.638 25.541 64.6497 25.3496L65.1184 25.8711C65.0911 26.0352 65.0169 26.2168 64.8958 26.416C64.7747 26.6152 64.6126 26.8066 64.4095 26.9902C64.2102 27.1699 63.972 27.3203 63.6946 27.4414C63.4212 27.5586 63.1126 27.6172 62.7688 27.6172C62.3391 27.6172 61.9622 27.5352 61.638 27.3711C61.3177 27.2031 61.0677 26.9766 60.888 26.6914C60.7122 26.4062 60.6243 26.0898 60.6243 25.7422C60.6243 25.0586 60.8821 24.541 61.3977 24.1895C61.9134 23.834 62.6067 23.6562 63.4778 23.6562H64.7317V24.418ZM68.7745 27.5H67.6787V18.5H68.7745V27.5ZM75.3482 27.5H74.2115V18.9688H75.3482V27.5ZM78.5648 27.5H77.4691V21.1602H78.5062L78.5648 22.5137V27.5ZM77.8499 24.0664C77.8577 23.4883 77.9691 22.9727 78.1839 22.5195C78.3988 22.0625 78.6976 21.7031 79.0804 21.4414C79.4671 21.1758 79.9163 21.043 80.428 21.043C80.846 21.043 81.2054 21.1211 81.5062 21.2773C81.8109 21.4297 82.0452 21.6738 82.2093 22.0098C82.3773 22.3457 82.4613 22.791 82.4613 23.3457V27.5H81.3655V23.334C81.3655 23.002 81.3167 22.7344 81.2191 22.5312C81.1253 22.3281 80.9847 22.1816 80.7972 22.0918C80.6097 21.998 80.3792 21.9512 80.1058 21.9512C79.8363 21.9512 79.5921 22.0078 79.3734 22.1211C79.1546 22.2344 78.9652 22.3906 78.805 22.5898C78.6448 22.7891 78.5218 23.0176 78.4359 23.2754C78.3499 23.5293 78.307 23.7988 78.307 24.084L77.8499 24.0664ZM86.6739 27.6172C86.1153 27.6172 85.6427 27.5176 85.2559 27.3184C84.8692 27.1191 84.5762 26.8633 84.377 26.5508C84.1778 26.2344 84.0782 25.9004 84.0782 25.5488H85.1739C85.1934 25.8457 85.2794 26.082 85.4317 26.2578C85.588 26.4297 85.7774 26.5527 86.0001 26.627C86.2266 26.7012 86.4512 26.7383 86.6739 26.7383C86.9708 26.7383 87.2188 26.6992 87.418 26.6211C87.6212 26.5391 87.7735 26.4297 87.8751 26.293C87.9805 26.1523 88.0333 25.9941 88.0333 25.8184C88.0333 25.6621 87.9981 25.5176 87.9278 25.3848C87.8614 25.248 87.7247 25.125 87.5177 25.0156C87.3106 24.9023 86.9981 24.8027 86.5802 24.7168C86.1114 24.6191 85.7052 24.4961 85.3614 24.3477C85.0216 24.1953 84.7579 24.002 84.5704 23.7676C84.3868 23.5332 84.295 23.2422 84.295 22.8945C84.295 22.5586 84.3907 22.252 84.5821 21.9746C84.7774 21.6934 85.0509 21.4688 85.4024 21.3008C85.7579 21.1289 86.172 21.043 86.6446 21.043C87.1524 21.043 87.586 21.1328 87.9454 21.3125C88.3087 21.4883 88.586 21.7266 88.7774 22.0273C88.9688 22.3242 89.0645 22.6543 89.0645 23.0176H87.9688C87.9688 22.7559 87.8536 22.5078 87.6231 22.2734C87.3966 22.0391 87.0704 21.9219 86.6446 21.9219C86.3477 21.9219 86.1055 21.9688 85.918 22.0625C85.7345 22.1523 85.5997 22.2695 85.5137 22.4141C85.4317 22.5547 85.3907 22.7031 85.3907 22.8594C85.3907 23.0156 85.4298 23.1523 85.5079 23.2695C85.586 23.3828 85.7286 23.4844 85.9356 23.5742C86.1466 23.6641 86.4512 23.7539 86.8497 23.8438C87.3692 23.9609 87.797 24.1016 88.1329 24.2656C88.4688 24.4297 88.7188 24.6309 88.8829 24.8691C89.047 25.1074 89.129 25.3984 89.129 25.7422C89.129 26.1094 89.0274 26.4355 88.8243 26.7207C88.6212 27.002 88.336 27.2227 87.9688 27.3828C87.6016 27.5391 87.17 27.6172 86.6739 27.6172ZM93.6873 27.6172C93.2811 27.6172 92.9237 27.5508 92.6151 27.418C92.3065 27.2852 92.0448 27.0938 91.8299 26.8438C91.6151 26.5898 91.4432 26.2871 91.3143 25.9355C91.1893 25.5801 91.1034 25.1797 91.0565 24.7344V24.0547C91.119 23.4336 91.2537 22.8984 91.4608 22.4492C91.6717 22 91.9588 21.6543 92.3221 21.4121C92.6893 21.166 93.1385 21.043 93.6698 21.043C94.201 21.043 94.6502 21.1777 95.0174 21.4473C95.3846 21.7168 95.6639 22.0957 95.8553 22.584C96.0467 23.0684 96.1424 23.6328 96.1424 24.2773V24.4004C96.1424 25.0176 96.0467 25.5684 95.8553 26.0527C95.6639 26.5371 95.3846 26.9199 95.0174 27.2012C94.6541 27.4785 94.2108 27.6172 93.6873 27.6172ZM90.7811 29.9375V21.1602H91.7772L91.8768 22.3789V29.9375H90.7811ZM93.3534 26.7383C93.744 26.7383 94.0643 26.6309 94.3143 26.416C94.5643 26.2012 94.7479 25.918 94.8651 25.5664C94.9862 25.2109 95.0467 24.8223 95.0467 24.4004V24.2773C95.0467 23.8555 94.9862 23.4688 94.8651 23.1172C94.7479 22.7617 94.5623 22.4785 94.3084 22.2676C94.0584 22.0566 93.7362 21.9512 93.3416 21.9512C93.0721 21.9512 92.8377 21.998 92.6385 22.0918C92.4393 22.1855 92.2694 22.3125 92.1287 22.4727C91.9881 22.6289 91.8729 22.8086 91.783 23.0117C91.6971 23.2109 91.6327 23.418 91.5897 23.6328V25.1621C91.6678 25.4355 91.7752 25.6934 91.912 25.9355C92.0526 26.1738 92.2381 26.3672 92.4686 26.5156C92.703 26.6641 92.9979 26.7383 93.3534 26.7383ZM100.396 27.6172C99.8063 27.6172 99.2926 27.4863 98.8551 27.2246C98.4215 26.959 98.0836 26.5957 97.8414 26.1348C97.6031 25.6738 97.484 25.1465 97.484 24.5527V24.3008C97.484 23.6133 97.6148 23.0273 97.8766 22.543C98.1422 22.0547 98.4859 21.6836 98.9078 21.4297C99.3336 21.1719 99.7828 21.043 100.255 21.043C100.865 21.043 101.361 21.1797 101.744 21.4531C102.13 21.7227 102.414 22.0918 102.593 22.5605C102.777 23.0254 102.869 23.5527 102.869 24.1426V24.6289H98.1344V23.75H101.773V23.668C101.757 23.3867 101.701 23.1133 101.603 22.8477C101.505 22.5781 101.349 22.3574 101.134 22.1855C100.92 22.0098 100.627 21.9219 100.255 21.9219C99.9273 21.9219 99.6363 22.0156 99.3824 22.2031C99.1324 22.3867 98.9352 22.6562 98.7906 23.0117C98.65 23.3633 98.5797 23.793 98.5797 24.3008V24.5527C98.5797 24.9551 98.6539 25.3223 98.8023 25.6543C98.9508 25.9824 99.1656 26.2461 99.4469 26.4453C99.7281 26.6406 100.064 26.7383 100.455 26.7383C100.838 26.7383 101.162 26.6602 101.427 26.5039C101.693 26.3477 101.925 26.1387 102.125 25.877L102.787 26.3926C102.584 26.7051 102.291 26.9883 101.908 27.2422C101.529 27.4922 101.025 27.6172 100.396 27.6172ZM106.917 27.6172C106.281 27.6172 105.753 27.4727 105.335 27.1836C104.917 26.8906 104.605 26.5039 104.398 26.0234C104.195 25.543 104.093 25.0195 104.093 24.4531V24.207C104.093 23.6367 104.197 23.1133 104.404 22.6367C104.611 22.1562 104.923 21.7715 105.341 21.4824C105.759 21.1895 106.285 21.043 106.917 21.043C107.413 21.043 107.847 21.1445 108.218 21.3477C108.593 21.5469 108.886 21.8203 109.097 22.168C109.312 22.5117 109.429 22.9023 109.449 23.3398H108.411C108.392 23.0781 108.318 22.8398 108.189 22.625C108.064 22.4102 107.892 22.2402 107.673 22.1152C107.458 21.9863 107.206 21.9219 106.917 21.9219C106.476 21.9219 106.128 22.0352 105.874 22.2617C105.624 22.4883 105.447 22.7773 105.341 23.1289C105.24 23.4766 105.189 23.8359 105.189 24.207V24.4531C105.189 24.8242 105.24 25.1855 105.341 25.5371C105.443 25.8887 105.619 26.1777 105.869 26.4043C106.122 26.627 106.472 26.7383 106.917 26.7383C107.175 26.7383 107.413 26.6855 107.632 26.5801C107.851 26.4707 108.031 26.3223 108.171 26.1348C108.312 25.9473 108.392 25.7344 108.411 25.4961H109.449C109.429 25.8711 109.302 26.2207 109.068 26.5449C108.833 26.8652 108.529 27.125 108.154 27.3242C107.779 27.5195 107.367 27.6172 106.917 27.6172ZM113.573 21.9863H110.14V21.1602H113.573V21.9863ZM112.39 19.6191V25.9297C112.39 26.1484 112.423 26.3125 112.489 26.4219C112.556 26.5312 112.642 26.6035 112.747 26.6387C112.853 26.6738 112.966 26.6914 113.087 26.6914C113.177 26.6914 113.271 26.6836 113.368 26.668C113.47 26.6523 113.544 26.6387 113.591 26.627V27.5C113.505 27.5273 113.394 27.5527 113.257 27.5762C113.12 27.6035 112.954 27.6172 112.759 27.6172C112.493 27.6172 112.249 27.5645 112.026 27.459C111.804 27.3535 111.626 27.1777 111.493 26.9316C111.36 26.6816 111.294 26.3457 111.294 25.9238V19.6191H112.39ZM115.747 18.8574C115.958 18.8574 116.118 18.918 116.227 19.0391C116.341 19.1602 116.397 19.3066 116.397 19.4785C116.397 19.6465 116.341 19.791 116.227 19.9121C116.118 20.0293 115.958 20.0879 115.747 20.0879C115.536 20.0879 115.376 20.0293 115.266 19.9121C115.161 19.791 115.108 19.6465 115.108 19.4785C115.108 19.3066 115.161 19.1602 115.266 19.0391C115.376 18.918 115.536 18.8574 115.747 18.8574ZM116.298 27.5H115.208V21.1602H116.298V27.5ZM118.032 24.2656C118.032 23.6523 118.149 23.1035 118.383 22.6191C118.618 22.1348 118.95 21.752 119.38 21.4707C119.809 21.1855 120.319 21.043 120.909 21.043C121.506 21.043 122.022 21.1855 122.456 21.4707C122.889 21.752 123.221 22.1348 123.452 22.6191C123.686 23.1035 123.803 23.6523 123.803 24.2656V24.4004C123.803 25.0098 123.686 25.5586 123.452 26.0469C123.221 26.5312 122.889 26.9141 122.456 27.1953C122.026 27.4766 121.514 27.6172 120.921 27.6172C120.327 27.6172 119.813 27.4766 119.38 27.1953C118.95 26.9141 118.618 26.5312 118.383 26.0469C118.149 25.5586 118.032 25.0098 118.032 24.4004V24.2656ZM119.128 24.4004C119.128 24.8184 119.194 25.2051 119.327 25.5605C119.46 25.916 119.657 26.2012 119.919 26.416C120.184 26.6309 120.518 26.7383 120.921 26.7383C121.319 26.7383 121.649 26.6309 121.911 26.416C122.176 26.2012 122.376 25.916 122.508 25.5605C122.641 25.2051 122.708 24.8184 122.708 24.4004V24.2656C122.708 23.8477 122.641 23.4609 122.508 23.1055C122.376 22.75 122.176 22.4648 121.911 22.25C121.645 22.0312 121.311 21.9219 120.909 21.9219C120.514 21.9219 120.184 22.0312 119.919 22.25C119.653 22.4648 119.454 22.75 119.321 23.1055C119.192 23.4609 119.128 23.8477 119.128 24.2656V24.4004ZM126.504 27.5H125.409V21.1602H126.446L126.504 22.5137V27.5ZM125.789 24.0664C125.797 23.4883 125.909 22.9727 126.123 22.5195C126.338 22.0625 126.637 21.7031 127.02 21.4414C127.407 21.1758 127.856 21.043 128.368 21.043C128.786 21.043 129.145 21.1211 129.446 21.2773C129.75 21.4297 129.985 21.6738 130.149 22.0098C130.317 22.3457 130.401 22.791 130.401 23.3457V27.5H129.305V23.334C129.305 23.002 129.256 22.7344 129.159 22.5312C129.065 22.3281 128.924 22.1816 128.737 22.0918C128.549 21.998 128.319 21.9512 128.045 21.9512C127.776 21.9512 127.532 22.0078 127.313 22.1211C127.094 22.2344 126.905 22.3906 126.745 22.5898C126.584 22.7891 126.461 23.0176 126.375 23.2754C126.289 23.5293 126.246 23.7988 126.246 24.084L125.789 24.0664ZM132.979 27.5645C132.76 27.5645 132.592 27.5039 132.475 27.3828C132.361 27.2617 132.305 27.1113 132.305 26.9316C132.305 26.748 132.361 26.5938 132.475 26.4688C132.592 26.3398 132.76 26.2754 132.979 26.2754C133.201 26.2754 133.369 26.3398 133.483 26.4688C133.6 26.5938 133.658 26.748 133.658 26.9316C133.658 27.1113 133.6 27.2617 133.483 27.3828C133.369 27.5039 133.201 27.5645 132.979 27.5645ZM136.828 21.1602V28.2559C136.828 28.8379 136.691 29.2832 136.418 29.5918C136.144 29.9043 135.728 30.0605 135.17 30.0605C135.072 30.0605 134.959 30.0508 134.83 30.0312C134.697 30.0117 134.586 29.9883 134.496 29.9609V29.0938C134.57 29.1094 134.656 29.1211 134.754 29.1289C134.848 29.1406 134.93 29.1465 135 29.1465C135.234 29.1465 135.414 29.0781 135.539 28.9414C135.668 28.8086 135.732 28.5801 135.732 28.2559V21.1602H136.828ZM136.277 20.4688C136.066 20.4688 135.906 20.4102 135.797 20.293C135.691 20.1719 135.639 20.0273 135.639 19.8594C135.639 19.6875 135.691 19.541 135.797 19.4199C135.906 19.2988 136.066 19.2383 136.277 19.2383C136.488 19.2383 136.648 19.2988 136.758 19.4199C136.871 19.541 136.928 19.6875 136.928 19.8594C136.928 20.0273 136.871 20.1719 136.758 20.293C136.648 20.4102 136.488 20.4688 136.277 20.4688ZM141.797 27.6172C141.39 27.6172 141.033 27.5508 140.724 27.418C140.416 27.2852 140.154 27.0938 139.939 26.8438C139.724 26.5898 139.552 26.2871 139.424 25.9355C139.299 25.5801 139.213 25.1797 139.166 24.7344V24.0547C139.228 23.4336 139.363 22.8984 139.57 22.4492C139.781 22 140.068 21.6543 140.431 21.4121C140.799 21.166 141.248 21.043 141.779 21.043C142.31 21.043 142.759 21.1777 143.127 21.4473C143.494 21.7168 143.773 22.0957 143.965 22.584C144.156 23.0684 144.252 23.6328 144.252 24.2773V24.4004C144.252 25.0176 144.156 25.5684 143.965 26.0527C143.773 26.5371 143.494 26.9199 143.127 27.2012C142.763 27.4785 142.32 27.6172 141.797 27.6172ZM138.89 29.9375V21.1602H139.886L139.986 22.3789V29.9375H138.89ZM141.463 26.7383C141.853 26.7383 142.174 26.6309 142.424 26.416C142.674 26.2012 142.857 25.918 142.974 25.5664C143.095 25.2109 143.156 24.8223 143.156 24.4004V24.2773C143.156 23.8555 143.095 23.4688 142.974 23.1172C142.857 22.7617 142.672 22.4785 142.418 22.2676C142.168 22.0566 141.845 21.9512 141.451 21.9512C141.181 21.9512 140.947 21.998 140.748 22.0918C140.549 22.1855 140.379 22.3125 140.238 22.4727C140.097 22.6289 139.982 22.8086 139.892 23.0117C139.806 23.2109 139.742 23.418 139.699 23.6328V25.1621C139.777 25.4355 139.884 25.6934 140.021 25.9355C140.162 26.1738 140.347 26.3672 140.578 26.5156C140.812 26.6641 141.107 26.7383 141.463 26.7383ZM148.283 30.002C148.064 30.002 147.806 29.9668 147.509 29.8965C147.216 29.8301 146.927 29.7148 146.642 29.5508C146.361 29.3906 146.124 29.1738 145.933 28.9004L146.501 28.2617C146.767 28.582 147.044 28.8047 147.333 28.9297C147.626 29.0586 147.915 29.123 148.201 29.123C148.712 29.123 149.119 28.9766 149.419 28.6836C149.724 28.3945 149.876 27.9727 149.876 27.418V22.5547L149.976 21.1602H150.972V27.3652C150.972 27.9238 150.857 28.4004 150.626 28.7949C150.4 29.1895 150.083 29.4883 149.677 29.6914C149.275 29.8984 148.81 30.002 148.283 30.002ZM148.107 27.6172C147.599 27.6172 147.158 27.4785 146.783 27.2012C146.412 26.9199 146.122 26.5371 145.915 26.0527C145.712 25.5684 145.611 25.0176 145.611 24.4004V24.2773C145.611 23.6328 145.712 23.0684 145.915 22.584C146.119 22.0957 146.408 21.7168 146.783 21.4473C147.158 21.1777 147.603 21.043 148.119 21.043C148.517 21.043 148.865 21.1133 149.162 21.2539C149.462 21.3906 149.716 21.5898 149.923 21.8516C150.134 22.1133 150.3 22.4297 150.421 22.8008C150.546 23.1719 150.632 23.5898 150.679 24.0547V24.623C150.621 25.2363 150.49 25.7676 150.287 26.2168C150.087 26.6621 149.808 27.0078 149.449 27.2539C149.089 27.4961 148.642 27.6172 148.107 27.6172ZM148.376 26.7031C148.736 26.7031 149.031 26.627 149.261 26.4746C149.492 26.3223 149.677 26.1211 149.818 25.8711C149.958 25.6211 150.068 25.3496 150.146 25.0566V23.6328C150.099 23.418 150.033 23.2109 149.947 23.0117C149.861 22.8086 149.747 22.6289 149.607 22.4727C149.466 22.3125 149.294 22.1855 149.091 22.0918C148.892 21.998 148.658 21.9512 148.388 21.9512C147.994 21.9512 147.671 22.0566 147.421 22.2676C147.175 22.4785 146.994 22.7617 146.876 23.1172C146.763 23.4688 146.706 23.8555 146.706 24.2773V24.4004C146.706 24.8223 146.763 25.207 146.876 25.5547C146.994 25.9023 147.175 26.1816 147.421 26.3926C147.667 26.5996 147.986 26.7031 148.376 26.7031Z" fill="white"/>
<path d="M48.0537 41.4678C48.0537 42.2393 47.9626 42.8545 47.7803 43.3135C47.6012 43.7692 47.3441 44.098 47.0088 44.2998C46.6735 44.4984 46.2764 44.5977 45.8174 44.5977C45.3649 44.5977 44.9694 44.4984 44.6309 44.2998C44.2923 44.098 44.0286 43.7692 43.8398 43.3135C43.6543 42.8545 43.5615 42.2393 43.5615 41.4678V40.3789C43.5615 39.6042 43.6527 38.9922 43.835 38.543C44.0205 38.0938 44.2809 37.7731 44.6162 37.5811C44.9548 37.389 45.3519 37.293 45.8076 37.293C46.2666 37.293 46.6637 37.389 46.999 37.5811C47.3343 37.7731 47.5931 38.0938 47.7754 38.543C47.9609 38.9922 48.0537 39.6042 48.0537 40.3789V41.4678ZM47.1406 40.2275C47.1406 39.6937 47.0902 39.2656 46.9893 38.9434C46.8883 38.6211 46.7386 38.3883 46.54 38.2451C46.3415 38.0986 46.0973 38.0254 45.8076 38.0254C45.5212 38.0254 45.2786 38.0986 45.0801 38.2451C44.8815 38.3883 44.7301 38.6211 44.626 38.9434C44.5251 39.2656 44.4746 39.6937 44.4746 40.2275V41.6094C44.4746 42.14 44.5267 42.5713 44.6309 42.9033C44.735 43.2354 44.8864 43.4795 45.085 43.6357C45.2868 43.7887 45.5309 43.8652 45.8174 43.8652C46.1104 43.8652 46.3545 43.7887 46.5498 43.6357C46.7451 43.4795 46.8916 43.2354 46.9893 42.9033C47.0902 42.5713 47.1406 42.14 47.1406 41.6094V40.2275ZM52.3895 44.5H51.4764V38.4697L49.66 39.1387V38.3232L52.2479 37.3516H52.3895V44.5ZM55.5191 45.1104H54.7379L57.7066 37.3906H58.483L55.5191 45.1104ZM61.5346 40.5059C61.8471 40.5059 62.1059 40.4521 62.3109 40.3447C62.5193 40.2373 62.6739 40.0924 62.7748 39.9102C62.879 39.7246 62.9311 39.5146 62.9311 39.2803C62.9311 39.0101 62.8855 38.7822 62.7943 38.5967C62.7032 38.4079 62.5665 38.2663 62.3842 38.1719C62.2019 38.0742 61.9724 38.0254 61.6957 38.0254C61.4418 38.0254 61.2188 38.0758 61.0268 38.1768C60.8347 38.2777 60.685 38.4193 60.5775 38.6016C60.4701 38.7839 60.4164 39.0003 60.4164 39.251H59.5033C59.5033 38.8864 59.5945 38.5576 59.7768 38.2646C59.959 37.9684 60.2146 37.7324 60.5434 37.5566C60.8721 37.3809 61.2563 37.293 61.6957 37.293C62.1254 37.293 62.5014 37.3695 62.8236 37.5225C63.1459 37.6722 63.3965 37.8968 63.5756 38.1963C63.7546 38.4925 63.8441 38.8604 63.8441 39.2998C63.8441 39.4821 63.8018 39.6742 63.7172 39.876C63.6358 40.0778 63.5072 40.2682 63.3314 40.4473C63.1589 40.623 62.9343 40.7679 62.6576 40.8818C62.3809 40.9925 62.0489 41.0479 61.6615 41.0479H60.89V40.5059H61.5346ZM60.89 40.7012H61.6615C62.114 40.7012 62.4883 40.7549 62.7846 40.8623C63.0808 40.9697 63.3135 41.113 63.4828 41.292C63.6553 41.4678 63.7758 41.6631 63.8441 41.8779C63.9158 42.0928 63.9516 42.306 63.9516 42.5176C63.9516 42.9603 63.8523 43.3363 63.6537 43.6455C63.4584 43.9548 63.1898 44.1908 62.848 44.3535C62.5095 44.5163 62.127 44.5977 61.7006 44.5977C61.3913 44.5977 61.1 44.5537 60.8266 44.4658C60.5531 44.3779 60.3122 44.251 60.1039 44.085C59.8988 43.9157 59.7377 43.709 59.6205 43.4648C59.5033 43.2174 59.4447 42.9359 59.4447 42.6201H60.3578C60.3578 42.8675 60.4115 43.0856 60.5189 43.2744C60.6296 43.46 60.7842 43.6048 60.9828 43.709C61.1846 43.8132 61.4239 43.8652 61.7006 43.8652C62.114 43.8652 62.4395 43.7546 62.6771 43.5332C62.918 43.3118 63.0385 42.9798 63.0385 42.5371C63.0385 42.2409 62.9766 41.9967 62.8529 41.8047C62.7292 41.6126 62.5551 41.471 62.3305 41.3799C62.1059 41.2855 61.8406 41.2383 61.5346 41.2383H60.89V40.7012ZM69.8596 41.4678C69.8596 42.2393 69.7684 42.8545 69.5861 43.3135C69.4071 43.7692 69.1499 44.098 68.8146 44.2998C68.4794 44.4984 68.0822 44.5977 67.6232 44.5977C67.1708 44.5977 66.7753 44.4984 66.4367 44.2998C66.0982 44.098 65.8345 43.7692 65.6457 43.3135C65.4602 42.8545 65.3674 42.2393 65.3674 41.4678V40.3789C65.3674 39.6042 65.4585 38.9922 65.6408 38.543C65.8264 38.0938 66.0868 37.7731 66.4221 37.5811C66.7606 37.389 67.1577 37.293 67.6135 37.293C68.0725 37.293 68.4696 37.389 68.8049 37.5811C69.1402 37.7731 69.399 38.0938 69.5812 38.543C69.7668 38.9922 69.8596 39.6042 69.8596 40.3789V41.4678ZM68.9465 40.2275C68.9465 39.6937 68.896 39.2656 68.7951 38.9434C68.6942 38.6211 68.5445 38.3883 68.3459 38.2451C68.1473 38.0986 67.9032 38.0254 67.6135 38.0254C67.327 38.0254 67.0845 38.0986 66.8859 38.2451C66.6874 38.3883 66.536 38.6211 66.4318 38.9434C66.3309 39.2656 66.2805 39.6937 66.2805 40.2275V41.6094C66.2805 42.14 66.3326 42.5713 66.4367 42.9033C66.5409 43.2354 66.6923 43.4795 66.8908 43.6357C67.0926 43.7887 67.3368 43.8652 67.6232 43.8652C67.9162 43.8652 68.1604 43.7887 68.3557 43.6357C68.551 43.4795 68.6975 43.2354 68.7951 42.9033C68.896 42.5713 68.9465 42.14 68.9465 41.6094V40.2275ZM71.5 45.1104H70.7188L73.6875 37.3906H74.4639L71.5 45.1104ZM78.1111 40.1201L79.8104 37.3906H80.9188L78.6775 40.9111L80.9725 44.5H79.8543L78.1111 41.7168L76.3582 44.5H75.2449L77.5447 40.9111L75.2938 37.3906H76.407L78.1111 40.1201ZM84.5904 40.1201L86.2896 37.3906H87.398L85.1568 40.9111L87.4518 44.5H86.3336L84.5904 41.7168L82.8375 44.5H81.7242L84.024 40.9111L81.773 37.3906H82.8863L84.5904 40.1201Z" fill="white" fill-opacity="0.5"/>
<g filter="url(#filter1_i_2389_1528)">
<path d="M205 32C205 22.0589 213.059 14 223 14V14C232.941 14 241 22.0589 241 32V32C241 41.9411 232.941 50 223 50V50C213.059 50 205 41.9411 205 32V32Z" fill="white" fill-opacity="0.02"/>
<path d="M223 49.5C213.335 49.5 205.5 41.665 205.5 32C205.5 22.335 213.335 14.5 223 14.5C232.665 14.5 240.5 22.335 240.5 32C240.5 41.665 232.665 49.5 223 49.5Z" stroke="url(#paint0_linear_2389_1528)"/>
<path d="M222.5 35.4115C222.379 35.4115 222.267 35.3923 222.164 35.3538C222.06 35.3154 221.961 35.2494 221.867 35.1558L218.758 32.0463C218.609 31.8974 218.536 31.7233 218.538 31.524C218.54 31.3247 218.613 31.1474 218.758 30.9922C218.913 30.8372 219.091 30.7572 219.292 30.752C219.494 30.7468 219.672 30.8218 219.827 30.977L221.75 32.9V25.25C221.75 25.0372 221.822 24.859 221.965 24.7155C222.109 24.5718 222.287 24.5 222.5 24.5C222.713 24.5 222.891 24.5718 223.035 24.7155C223.178 24.859 223.25 25.0372 223.25 25.25V32.9L225.173 30.977C225.322 30.8283 225.498 30.7549 225.703 30.7568C225.907 30.7588 226.087 30.8372 226.242 30.9922C226.387 31.1474 226.462 31.3231 226.467 31.5192C226.472 31.7154 226.397 31.8911 226.242 32.0463L223.133 35.1558C223.039 35.2494 222.94 35.3154 222.836 35.3538C222.733 35.3923 222.621 35.4115 222.5 35.4115ZM216.808 39.5C216.303 39.5 215.875 39.325 215.525 38.975C215.175 38.625 215 38.1974 215 37.6923V35.7308C215 35.5179 215.072 35.3397 215.215 35.1962C215.359 35.0526 215.537 34.9808 215.75 34.9808C215.963 34.9808 216.141 35.0526 216.285 35.1962C216.428 35.3397 216.5 35.5179 216.5 35.7308V37.6923C216.5 37.7693 216.532 37.8398 216.596 37.9038C216.66 37.9679 216.731 38 216.808 38H228.192C228.269 38 228.34 37.9679 228.404 37.9038C228.468 37.8398 228.5 37.7693 228.5 37.6923V35.7308C228.5 35.5179 228.572 35.3397 228.715 35.1962C228.859 35.0526 229.037 34.9808 229.25 34.9808C229.463 34.9808 229.641 35.0526 229.785 35.1962C229.928 35.3397 230 35.5179 230 35.7308V37.6923C230 38.1974 229.825 38.625 229.475 38.975C229.125 39.325 228.697 39.5 228.192 39.5H216.808Z" fill="white"/>
</g>
</g>
<defs>
<filter id="filter0_bii_2389_1528" x="-20" y="-20" width="297" height="104" filterUnits="userSpaceOnUse" color-interpolation-filters="sRGB">
<feFlood flood-opacity="0" result="BackgroundImageFix"/>
<feGaussianBlur in="BackgroundImageFix" stdDeviation="10"/>
<feComposite in2="SourceAlpha" operator="in" result="effect1_backgroundBlur_2389_1528"/>
<feBlend mode="normal" in="SourceGraphic" in2="effect1_backgroundBlur_2389_1528" result="shape"/>
<feColorMatrix in="SourceAlpha" type="matrix" values="0 0 0 0 0 0 0 0 0 0 0 0 0 0 0 0 0 0 127 0" result="hardAlpha"/>
<feOffset/>
<feGaussianBlur stdDeviation="2"/>
<feComposite in2="hardAlpha" operator="arithmetic" k2="-1" k3="1"/>
<feColorMatrix type="matrix" values="0 0 0 0 1 0 0 0 0 1 0 0 0 0 1 0 0 0 0.05 0"/>
<feBlend mode="normal" in2="shape" result="effect2_innerShadow_2389_1528"/>
<feColorMatrix in="SourceAlpha" type="matrix" values="0 0 0 0 0 0 0 0 0 0 0 0 0 0 0 0 0 0 127 0" result="hardAlpha"/>
<feOffset/>
<feGaussianBlur stdDeviation="10"/>
<feComposite in2="hardAlpha" operator="arithmetic" k2="-1" k3="1"/>
<feColorMatrix type="matrix" values="0 0 0 0 1 0 0 0 0 1 0 0 0 0 1 0 0 0 0.05 0"/>
<feBlend mode="normal" in2="effect2_innerShadow_2389_1528" result="effect3_innerShadow_2389_1528"/>
</filter>
<filter id="filter1_i_2389_1528" x="205" y="11" width="36" height="39" filterUnits="userSpaceOnUse" color-interpolation-filters="sRGB">
<feFlood flood-opacity="0" result="BackgroundImageFix"/>
<feBlend mode="normal" in="SourceGraphic" in2="BackgroundImageFix" result="shape"/>
<feColorMatrix in="SourceAlpha" type="matrix" values="0 0 0 0 0 0 0 0 0 0 0 0 0 0 0 0 0 0 127 0" result="hardAlpha"/>
<feOffset dy="-3"/>
<feGaussianBlur stdDeviation="5"/>
<feComposite in2="hardAlpha" operator="arithmetic" k2="-1" k3="1"/>
<feColorMatrix type="matrix" values="0 0 0 0 1 0 0 0 0 1 0 0 0 0 1 0 0 0 0.14 0"/>
<feBlend mode="normal" in2="shape" result="effect1_innerShadow_2389_1528"/>
</filter>
<linearGradient id="paint0_linear_2389_1528" x1="205" y1="14" x2="243.276" y2="16.6091" gradientUnits="userSpaceOnUse">
<stop stop-color="#B721FF"/>
<stop offset="1" stop-color="#21FDF6"/>
</linearGradient>
</defs>
</svg>
