<svg width="257" height="64" viewBox="0 0 257 64" fill="none" xmlns="http://www.w3.org/2000/svg">
<g filter="url(#filter0_bii_2389_1537)">
<rect width="257" height="64" rx="14" fill="white" fill-opacity="0.06"/>
<rect x="0.5" y="0.5" width="256" height="63" rx="13.5" stroke="white"/>
<path d="M26.4187 38.374C25.4641 39.6878 24.1947 40.4736 22.6104 40.7315C21.0261 40.9896 19.5782 40.6422 18.2667 39.6893C16.9551 38.7364 16.1759 37.4657 15.9291 35.8773C15.6822 34.289 16.0361 32.8379 16.9906 31.5241L22.2751 24.2506C22.9533 23.3171 23.8539 22.7592 24.977 22.5768C26.0998 22.3943 27.128 22.6421 28.0615 23.3203C28.995 23.9985 29.5485 24.8999 29.722 26.0243C29.8956 27.1487 29.6433 28.1777 28.9651 29.1111L23.9632 35.9957C23.5653 36.5432 23.035 36.8721 22.3721 36.9824C21.709 37.0925 21.1034 36.9484 20.5551 36.5501C20.0068 36.1517 19.6786 35.6194 19.5707 34.9533C19.4628 34.2871 19.6098 33.6776 20.0115 33.1246L24.7307 26.6292C24.8556 26.4573 25.0184 26.3554 25.2192 26.3235C25.42 26.2918 25.6064 26.3385 25.7785 26.4635C25.9504 26.5884 26.0523 26.7512 26.084 26.9518C26.1156 27.1525 26.0689 27.3388 25.944 27.5108L21.2248 34.0062C21.0673 34.223 21.0075 34.4585 21.0455 34.7127C21.0835 34.9669 21.2109 35.1728 21.4278 35.3303C21.6444 35.4878 21.8795 35.5453 22.1331 35.5028C22.3866 35.4604 22.5921 35.3308 22.7496 35.114L27.7571 28.2218C28.1828 27.6182 28.3429 26.9616 28.2373 26.2518C28.1316 25.5419 27.7792 24.9693 27.1798 24.5339C26.583 24.1003 25.9272 23.9422 25.2122 24.0598C24.4971 24.1774 23.9226 24.5349 23.4886 25.1323L18.2041 32.4057C17.4851 33.3778 17.2189 34.4552 17.4054 35.6381C17.5918 36.8211 18.1738 37.7677 19.1512 38.4778C20.1147 39.1779 21.1829 39.4301 22.3556 39.2346C23.5281 39.0391 24.478 38.4583 25.2052 37.4923L30.2069 30.608C30.3318 30.436 30.4947 30.3342 30.6956 30.3023C30.8965 30.2707 31.0829 30.3173 31.2549 30.4423C31.4269 30.5672 31.5287 30.73 31.5605 30.9307C31.592 31.1314 31.5454 31.3177 31.4205 31.4896L26.4187 38.374Z" fill="white" fill-opacity="0.5"/>
<path d="M45.127 27.5H43.9902V18.9688H45.127V27.5ZM48.6953 23.7266H44.8809V22.8125H48.6953V23.7266ZM49.2754 19.8887H44.8809V18.9688H49.2754V19.8887ZM51.367 18.8574C51.5779 18.8574 51.738 18.918 51.8474 19.0391C51.9607 19.1602 52.0173 19.3066 52.0173 19.4785C52.0173 19.6465 51.9607 19.791 51.8474 19.9121C51.738 20.0293 51.5779 20.0879 51.367 20.0879C51.156 20.0879 50.9959 20.0293 50.8865 19.9121C50.781 19.791 50.7283 19.6465 50.7283 19.4785C50.7283 19.3066 50.781 19.1602 50.8865 19.0391C50.9959 18.918 51.156 18.8574 51.367 18.8574ZM51.9177 27.5H50.8279V21.1602H51.9177V27.5ZM55.0288 27.5H53.9331V21.1602H54.9702L55.0288 22.5137V27.5ZM54.314 24.0664C54.3218 23.4883 54.4331 22.9727 54.648 22.5195C54.8628 22.0625 55.1616 21.7031 55.5445 21.4414C55.9312 21.1758 56.3804 21.043 56.8921 21.043C57.3101 21.043 57.6695 21.1211 57.9702 21.2773C58.2749 21.4297 58.5093 21.6738 58.6734 22.0098C58.8413 22.3457 58.9253 22.791 58.9253 23.3457V27.5H57.8296V23.334C57.8296 23.002 57.7808 22.7344 57.6831 22.5312C57.5894 22.3281 57.4487 22.1816 57.2612 22.0918C57.0737 21.998 56.8433 21.9512 56.5698 21.9512C56.3003 21.9512 56.0562 22.0078 55.8374 22.1211C55.6187 22.2344 55.4292 22.3906 55.2691 22.5898C55.1089 22.7891 54.9859 23.0176 54.8999 23.2754C54.814 23.5293 54.771 23.7988 54.771 24.084L54.314 24.0664ZM64.5442 23.1523C64.5442 22.7734 64.4309 22.4727 64.2044 22.25C63.9817 22.0234 63.6516 21.9102 63.2141 21.9102C62.9446 21.9102 62.7063 21.957 62.4993 22.0508C62.2962 22.1445 62.138 22.2676 62.0247 22.4199C61.9114 22.5723 61.8548 22.7383 61.8548 22.918H60.7591C60.7591 22.6133 60.8626 22.3184 61.0696 22.0332C61.2766 21.7441 61.5677 21.5078 61.9427 21.3242C62.3216 21.1367 62.7669 21.043 63.2786 21.043C63.7395 21.043 64.1477 21.1211 64.5032 21.2773C64.8587 21.4336 65.136 21.6699 65.3352 21.9863C65.5384 22.2988 65.6399 22.6914 65.6399 23.1641V26.1172C65.6399 26.3281 65.6575 26.5527 65.6927 26.791C65.7317 27.0293 65.7884 27.2344 65.8626 27.4062V27.5H64.72C64.6653 27.375 64.6223 27.209 64.5911 27.002C64.5598 26.791 64.5442 26.5957 64.5442 26.416V23.1523ZM64.7317 24.418H63.6536C63.0364 24.418 62.5598 24.5156 62.2239 24.7109C61.888 24.9062 61.72 25.1992 61.72 25.5898C61.72 25.8945 61.8216 26.1523 62.0247 26.3633C62.2317 26.5742 62.5325 26.6797 62.927 26.6797C63.2591 26.6797 63.552 26.6094 63.8059 26.4688C64.0598 26.3281 64.261 26.1543 64.4095 25.9473C64.5579 25.7402 64.638 25.541 64.6497 25.3496L65.1184 25.8711C65.0911 26.0352 65.0169 26.2168 64.8958 26.416C64.7747 26.6152 64.6126 26.8066 64.4095 26.9902C64.2102 27.1699 63.972 27.3203 63.6946 27.4414C63.4212 27.5586 63.1126 27.6172 62.7688 27.6172C62.3391 27.6172 61.9622 27.5352 61.638 27.3711C61.3177 27.2031 61.0677 26.9766 60.888 26.6914C60.7122 26.4062 60.6243 26.0898 60.6243 25.7422C60.6243 25.0586 60.8821 24.541 61.3977 24.1895C61.9134 23.834 62.6067 23.6562 63.4778 23.6562H64.7317V24.418ZM68.6807 27.5H67.585V21.1602H68.6221L68.6807 22.5137V27.5ZM67.9659 24.0664C67.9737 23.4883 68.085 22.9727 68.2998 22.5195C68.5147 22.0625 68.8135 21.7031 69.1963 21.4414C69.583 21.1758 70.0323 21.043 70.544 21.043C70.962 21.043 71.3213 21.1211 71.6221 21.2773C71.9268 21.4297 72.1612 21.6738 72.3252 22.0098C72.4932 22.3457 72.5772 22.791 72.5772 23.3457V27.5H71.4815V23.334C71.4815 23.002 71.4327 22.7344 71.335 22.5312C71.2412 22.3281 71.1006 22.1816 70.9131 22.0918C70.7256 21.998 70.4952 21.9512 70.2217 21.9512C69.9522 21.9512 69.708 22.0078 69.4893 22.1211C69.2705 22.2344 69.0811 22.3906 68.9209 22.5898C68.7608 22.7891 68.6377 23.0176 68.5518 23.2754C68.4659 23.5293 68.4229 23.7988 68.4229 24.084L67.9659 24.0664ZM77.0008 27.6172C76.3641 27.6172 75.8367 27.4727 75.4188 27.1836C75.0008 26.8906 74.6883 26.5039 74.4813 26.0234C74.2781 25.543 74.1766 25.0195 74.1766 24.4531V24.207C74.1766 23.6367 74.2801 23.1133 74.4871 22.6367C74.6941 22.1562 75.0066 21.7715 75.4246 21.4824C75.8426 21.1895 76.368 21.043 77.0008 21.043C77.4969 21.043 77.9305 21.1445 78.3016 21.3477C78.6766 21.5469 78.9695 21.8203 79.1805 22.168C79.3953 22.5117 79.5125 22.9023 79.532 23.3398H78.4949C78.4754 23.0781 78.4012 22.8398 78.2723 22.625C78.1473 22.4102 77.9754 22.2402 77.7566 22.1152C77.5418 21.9863 77.2898 21.9219 77.0008 21.9219C76.5594 21.9219 76.2117 22.0352 75.9578 22.2617C75.7078 22.4883 75.5301 22.7773 75.4246 23.1289C75.323 23.4766 75.2723 23.8359 75.2723 24.207V24.4531C75.2723 24.8242 75.323 25.1855 75.4246 25.5371C75.5262 25.8887 75.702 26.1777 75.952 26.4043C76.2059 26.627 76.5555 26.7383 77.0008 26.7383C77.2586 26.7383 77.4969 26.6855 77.7156 26.5801C77.9344 26.4707 78.1141 26.3223 78.2547 26.1348C78.3953 25.9473 78.4754 25.7344 78.4949 25.4961H79.532C79.5125 25.8711 79.3855 26.2207 79.1512 26.5449C78.9168 26.8652 78.6121 27.125 78.2371 27.3242C77.8621 27.5195 77.45 27.6172 77.0008 27.6172ZM81.6646 18.8574C81.8755 18.8574 82.0357 18.918 82.1451 19.0391C82.2584 19.1602 82.315 19.3066 82.315 19.4785C82.315 19.6465 82.2584 19.791 82.1451 19.9121C82.0357 20.0293 81.8755 20.0879 81.6646 20.0879C81.4537 20.0879 81.2935 20.0293 81.1841 19.9121C81.0787 19.791 81.0259 19.6465 81.0259 19.4785C81.0259 19.3066 81.0787 19.1602 81.1841 19.0391C81.2935 18.918 81.4537 18.8574 81.6646 18.8574ZM82.2154 27.5H81.1255V21.1602H82.2154V27.5ZM85.3265 27.5H84.2308V21.1602H85.2679L85.3265 22.5137V27.5ZM84.6116 24.0664C84.6195 23.4883 84.7308 22.9727 84.9456 22.5195C85.1605 22.0625 85.4593 21.7031 85.8421 21.4414C86.2288 21.1758 86.678 21.043 87.1898 21.043C87.6077 21.043 87.9671 21.1211 88.2679 21.2773C88.5726 21.4297 88.807 21.6738 88.971 22.0098C89.139 22.3457 89.223 22.791 89.223 23.3457V27.5H88.1273V23.334C88.1273 23.002 88.0784 22.7344 87.9808 22.5312C87.887 22.3281 87.7464 22.1816 87.5589 22.0918C87.3714 21.998 87.1409 21.9512 86.8675 21.9512C86.598 21.9512 86.3538 22.0078 86.1351 22.1211C85.9163 22.2344 85.7269 22.3906 85.5667 22.5898C85.4066 22.7891 85.2835 23.0176 85.1976 23.2754C85.1116 23.5293 85.0687 23.7988 85.0687 24.084L84.6116 24.0664ZM93.5177 30.002C93.2989 30.002 93.0411 29.9668 92.7442 29.8965C92.4512 29.8301 92.1622 29.7148 91.877 29.5508C91.5958 29.3906 91.3595 29.1738 91.168 28.9004L91.7364 28.2617C92.002 28.582 92.2794 28.8047 92.5684 28.9297C92.8614 29.0586 93.1505 29.123 93.4356 29.123C93.9473 29.123 94.3536 28.9766 94.6544 28.6836C94.9591 28.3945 95.1114 27.9727 95.1114 27.418V22.5547L95.211 21.1602H96.2071V27.3652C96.2071 27.9238 96.0919 28.4004 95.8614 28.7949C95.6348 29.1895 95.3184 29.4883 94.9122 29.6914C94.5098 29.8984 94.045 30.002 93.5177 30.002ZM93.3419 27.6172C92.8341 27.6172 92.3927 27.4785 92.0177 27.2012C91.6466 26.9199 91.3575 26.5371 91.1505 26.0527C90.9473 25.5684 90.8458 25.0176 90.8458 24.4004V24.2773C90.8458 23.6328 90.9473 23.0684 91.1505 22.584C91.3536 22.0957 91.6427 21.7168 92.0177 21.4473C92.3927 21.1777 92.838 21.043 93.3536 21.043C93.752 21.043 94.0997 21.1133 94.3966 21.2539C94.6973 21.3906 94.9512 21.5898 95.1583 21.8516C95.3692 22.1133 95.5352 22.4297 95.6563 22.8008C95.7813 23.1719 95.8673 23.5898 95.9141 24.0547V24.623C95.8555 25.2363 95.7247 25.7676 95.5216 26.2168C95.3223 26.6621 95.043 27.0078 94.6837 27.2539C94.3243 27.4961 93.877 27.6172 93.3419 27.6172ZM93.6114 26.7031C93.9708 26.7031 94.2657 26.627 94.4962 26.4746C94.7266 26.3223 94.9122 26.1211 95.0528 25.8711C95.1934 25.6211 95.3028 25.3496 95.3809 25.0566V23.6328C95.3341 23.418 95.2677 23.2109 95.1817 23.0117C95.0958 22.8086 94.9825 22.6289 94.8419 22.4727C94.7012 22.3125 94.5294 22.1855 94.3262 22.0918C94.127 21.998 93.8927 21.9512 93.6231 21.9512C93.2286 21.9512 92.9063 22.0566 92.6563 22.2676C92.4102 22.4785 92.2286 22.7617 92.1114 23.1172C91.9981 23.4688 91.9415 23.8555 91.9415 24.2773V24.4004C91.9415 24.8223 91.9981 25.207 92.1114 25.5547C92.2286 25.9023 92.4102 26.1816 92.6563 26.3926C92.9024 26.5996 93.2208 26.7031 93.6114 26.7031ZM107.75 24.793C107.691 25.3281 107.537 25.8105 107.287 26.2402C107.037 26.666 106.683 27.002 106.226 27.248C105.769 27.4941 105.197 27.6172 104.509 27.6172C103.841 27.6172 103.257 27.4551 102.757 27.1309C102.257 26.8027 101.869 26.3418 101.591 25.748C101.314 25.1543 101.175 24.4609 101.175 23.668V22.8066C101.175 22.0098 101.314 21.3164 101.591 20.7266C101.873 20.1328 102.271 19.6719 102.787 19.3438C103.302 19.0156 103.912 18.8516 104.615 18.8516C105.259 18.8516 105.804 18.9727 106.25 19.2148C106.695 19.4531 107.041 19.7871 107.287 20.2168C107.537 20.6465 107.691 21.1426 107.75 21.7051H106.613C106.527 21.1074 106.336 20.6367 106.039 20.293C105.746 19.9453 105.271 19.7715 104.615 19.7715C104.111 19.7715 103.689 19.8984 103.349 20.1523C103.009 20.4023 102.752 20.7539 102.576 21.207C102.404 21.6602 102.318 22.1895 102.318 22.7949V23.668C102.318 24.2266 102.396 24.7363 102.552 25.1973C102.709 25.6543 102.947 26.0195 103.267 26.293C103.591 26.5664 104.005 26.7031 104.509 26.7031C104.99 26.7031 105.371 26.627 105.652 26.4746C105.937 26.3223 106.152 26.1035 106.296 25.8184C106.445 25.5332 106.55 25.1914 106.613 24.793H107.75ZM109.074 24.2656C109.074 23.6523 109.191 23.1035 109.425 22.6191C109.66 22.1348 109.992 21.752 110.421 21.4707C110.851 21.1855 111.361 21.043 111.951 21.043C112.548 21.043 113.064 21.1855 113.497 21.4707C113.931 21.752 114.263 22.1348 114.494 22.6191C114.728 23.1035 114.845 23.6523 114.845 24.2656V24.4004C114.845 25.0098 114.728 25.5586 114.494 26.0469C114.263 26.5312 113.931 26.9141 113.497 27.1953C113.068 27.4766 112.556 27.6172 111.962 27.6172C111.369 27.6172 110.855 27.4766 110.421 27.1953C109.992 26.9141 109.66 26.5312 109.425 26.0469C109.191 25.5586 109.074 25.0098 109.074 24.4004V24.2656ZM110.169 24.4004C110.169 24.8184 110.236 25.2051 110.369 25.5605C110.501 25.916 110.699 26.2012 110.96 26.416C111.226 26.6309 111.56 26.7383 111.962 26.7383C112.361 26.7383 112.691 26.6309 112.952 26.416C113.218 26.2012 113.417 25.916 113.55 25.5605C113.683 25.2051 113.749 24.8184 113.749 24.4004V24.2656C113.749 23.8477 113.683 23.4609 113.55 23.1055C113.417 22.75 113.218 22.4648 112.952 22.25C112.687 22.0312 112.353 21.9219 111.951 21.9219C111.556 21.9219 111.226 22.0312 110.96 22.25C110.695 22.4648 110.495 22.75 110.363 23.1055C110.234 23.4609 110.169 23.8477 110.169 24.2656V24.4004ZM117.546 27.5H116.45V21.1602H117.487L117.546 22.5137V27.5ZM116.831 24.0664C116.839 23.4883 116.95 22.9727 117.165 22.5195C117.38 22.0625 117.679 21.7031 118.062 21.4414C118.448 21.1758 118.898 21.043 119.409 21.043C119.827 21.043 120.187 21.1211 120.487 21.2773C120.792 21.4297 121.026 21.6738 121.191 22.0098C121.359 22.3457 121.442 22.791 121.442 23.3457V27.5H120.347V23.334C120.347 23.002 120.298 22.7344 120.2 22.5312C120.107 22.3281 119.966 22.1816 119.778 22.0918C119.591 21.998 119.36 21.9512 119.087 21.9512C118.817 21.9512 118.573 22.0078 118.355 22.1211C118.136 22.2344 117.946 22.3906 117.786 22.5898C117.626 22.7891 117.503 23.0176 117.417 23.2754C117.331 23.5293 117.288 23.7988 117.288 24.084L116.831 24.0664ZM125.989 21.9863H122.556V21.1602H125.989V21.9863ZM124.806 19.6191V25.9297C124.806 26.1484 124.839 26.3125 124.905 26.4219C124.972 26.5312 125.058 26.6035 125.163 26.6387C125.268 26.6738 125.382 26.6914 125.503 26.6914C125.593 26.6914 125.686 26.6836 125.784 26.668C125.886 26.6523 125.96 26.6387 126.007 26.627V27.5C125.921 27.5273 125.809 27.5527 125.673 27.5762C125.536 27.6035 125.37 27.6172 125.175 27.6172C124.909 27.6172 124.665 27.5645 124.442 27.459C124.22 27.3535 124.042 27.1777 123.909 26.9316C123.776 26.6816 123.71 26.3457 123.71 25.9238V19.6191H124.806ZM128.585 27.5H127.489V21.1602H128.555L128.585 22.1562V27.5ZM130.559 22.127C130.465 22.1074 130.378 22.0957 130.296 22.0918C130.217 22.084 130.128 22.0801 130.026 22.0801C129.694 22.0801 129.413 22.1484 129.182 22.2852C128.956 22.4219 128.78 22.6113 128.655 22.8535C128.53 23.0918 128.452 23.3652 128.421 23.6738L128.11 23.8496C128.11 23.3379 128.178 22.8711 128.315 22.4492C128.452 22.0234 128.665 21.6836 128.954 21.4297C129.247 21.1719 129.622 21.043 130.079 21.043C130.153 21.043 130.241 21.0527 130.342 21.0723C130.448 21.0879 130.52 21.1055 130.559 21.125V22.127ZM135.346 23.1523C135.346 22.7734 135.233 22.4727 135.006 22.25C134.784 22.0234 134.454 21.9102 134.016 21.9102C133.746 21.9102 133.508 21.957 133.301 22.0508C133.098 22.1445 132.94 22.2676 132.827 22.4199C132.713 22.5723 132.657 22.7383 132.657 22.918H131.561C131.561 22.6133 131.664 22.3184 131.871 22.0332C132.079 21.7441 132.37 21.5078 132.745 21.3242C133.123 21.1367 133.569 21.043 134.08 21.043C134.541 21.043 134.95 21.1211 135.305 21.2773C135.661 21.4336 135.938 21.6699 136.137 21.9863C136.34 22.2988 136.442 22.6914 136.442 23.1641V26.1172C136.442 26.3281 136.459 26.5527 136.495 26.791C136.534 27.0293 136.59 27.2344 136.664 27.4062V27.5H135.522C135.467 27.375 135.424 27.209 135.393 27.002C135.362 26.791 135.346 26.5957 135.346 26.416V23.1523ZM135.534 24.418H134.455C133.838 24.418 133.362 24.5156 133.026 24.7109C132.69 24.9062 132.522 25.1992 132.522 25.5898C132.522 25.8945 132.623 26.1523 132.827 26.3633C133.034 26.5742 133.334 26.6797 133.729 26.6797C134.061 26.6797 134.354 26.6094 134.608 26.4688C134.862 26.3281 135.063 26.1543 135.211 25.9473C135.36 25.7402 135.44 25.541 135.452 25.3496L135.92 25.8711C135.893 26.0352 135.819 26.2168 135.698 26.416C135.577 26.6152 135.414 26.8066 135.211 26.9902C135.012 27.1699 134.774 27.3203 134.496 27.4414C134.223 27.5586 133.914 27.6172 133.571 27.6172C133.141 27.6172 132.764 27.5352 132.44 27.3711C132.12 27.2031 131.87 26.9766 131.69 26.6914C131.514 26.4062 131.426 26.0898 131.426 25.7422C131.426 25.0586 131.684 24.541 132.2 24.1895C132.715 23.834 133.409 23.6562 134.28 23.6562H135.534V24.418ZM140.93 27.6172C140.293 27.6172 139.766 27.4727 139.348 27.1836C138.93 26.8906 138.617 26.5039 138.41 26.0234C138.207 25.543 138.106 25.0195 138.106 24.4531V24.207C138.106 23.6367 138.209 23.1133 138.416 22.6367C138.623 22.1562 138.936 21.7715 139.354 21.4824C139.772 21.1895 140.297 21.043 140.93 21.043C141.426 21.043 141.86 21.1445 142.231 21.3477C142.606 21.5469 142.899 21.8203 143.11 22.168C143.324 22.5117 143.442 22.9023 143.461 23.3398H142.424C142.404 23.0781 142.33 22.8398 142.201 22.625C142.076 22.4102 141.904 22.2402 141.686 22.1152C141.471 21.9863 141.219 21.9219 140.93 21.9219C140.488 21.9219 140.141 22.0352 139.887 22.2617C139.637 22.4883 139.459 22.7773 139.354 23.1289C139.252 23.4766 139.201 23.8359 139.201 24.207V24.4531C139.201 24.8242 139.252 25.1855 139.354 25.5371C139.455 25.8887 139.631 26.1777 139.881 26.4043C140.135 26.627 140.485 26.7383 140.93 26.7383C141.188 26.7383 141.426 26.6855 141.645 26.5801C141.863 26.4707 142.043 26.3223 142.184 26.1348C142.324 25.9473 142.404 25.7344 142.424 25.4961H143.461C143.442 25.8711 143.315 26.2207 143.08 26.5449C142.846 26.8652 142.541 27.125 142.166 27.3242C141.791 27.5195 141.379 27.6172 140.93 27.6172ZM147.586 21.9863H144.152V21.1602H147.586V21.9863ZM146.402 19.6191V25.9297C146.402 26.1484 146.435 26.3125 146.502 26.4219C146.568 26.5312 146.654 26.6035 146.76 26.6387C146.865 26.6738 146.978 26.6914 147.1 26.6914C147.189 26.6914 147.283 26.6836 147.381 26.668C147.482 26.6523 147.557 26.6387 147.603 26.627V27.5C147.518 27.5273 147.406 27.5527 147.269 27.5762C147.133 27.6035 146.967 27.6172 146.771 27.6172C146.506 27.6172 146.262 27.5645 146.039 27.459C145.816 27.3535 145.639 27.1777 145.506 26.9316C145.373 26.6816 145.307 26.3457 145.307 25.9238V19.6191H146.402ZM149.783 27.5645C149.564 27.5645 149.396 27.5039 149.279 27.3828C149.166 27.2617 149.109 27.1113 149.109 26.9316C149.109 26.748 149.166 26.5938 149.279 26.4688C149.396 26.3398 149.564 26.2754 149.783 26.2754C150.006 26.2754 150.174 26.3398 150.287 26.4688C150.404 26.5938 150.463 26.748 150.463 26.9316C150.463 27.1113 150.404 27.2617 150.287 27.3828C150.174 27.5039 150.006 27.5645 149.783 27.5645ZM155.408 27.6172C155.001 27.6172 154.644 27.5508 154.335 27.418C154.027 27.2852 153.765 27.0938 153.55 26.8438C153.335 26.5898 153.164 26.2871 153.035 25.9355C152.91 25.5801 152.824 25.1797 152.777 24.7344V24.0547C152.839 23.4336 152.974 22.8984 153.181 22.4492C153.392 22 153.679 21.6543 154.042 21.4121C154.41 21.166 154.859 21.043 155.39 21.043C155.921 21.043 156.371 21.1777 156.738 21.4473C157.105 21.7168 157.384 22.0957 157.576 22.584C157.767 23.0684 157.863 23.6328 157.863 24.2773V24.4004C157.863 25.0176 157.767 25.5684 157.576 26.0527C157.384 26.5371 157.105 26.9199 156.738 27.2012C156.374 27.4785 155.931 27.6172 155.408 27.6172ZM152.501 29.9375V21.1602H153.497L153.597 22.3789V29.9375H152.501ZM155.074 26.7383C155.464 26.7383 155.785 26.6309 156.035 26.416C156.285 26.2012 156.468 25.918 156.585 25.5664C156.706 25.2109 156.767 24.8223 156.767 24.4004V24.2773C156.767 23.8555 156.706 23.4688 156.585 23.1172C156.468 22.7617 156.283 22.4785 156.029 22.2676C155.779 22.0566 155.456 21.9512 155.062 21.9512C154.792 21.9512 154.558 21.998 154.359 22.0918C154.16 22.1855 153.99 22.3125 153.849 22.4727C153.708 22.6289 153.593 22.8086 153.503 23.0117C153.417 23.2109 153.353 23.418 153.31 23.6328V25.1621C153.388 25.4355 153.496 25.6934 153.632 25.9355C153.773 26.1738 153.958 26.3672 154.189 26.5156C154.423 26.6641 154.718 26.7383 155.074 26.7383ZM161.712 27.6172C161.216 27.6172 160.78 27.4785 160.405 27.2012C160.03 26.9199 159.738 26.5371 159.527 26.0527C159.32 25.5684 159.216 25.0176 159.216 24.4004V24.2773C159.216 23.6328 159.32 23.0684 159.527 22.584C159.738 22.0957 160.03 21.7168 160.405 21.4473C160.78 21.1777 161.22 21.043 161.724 21.043C162.255 21.043 162.698 21.166 163.054 21.4121C163.409 21.6543 163.687 22 163.886 22.4492C164.089 22.8984 164.22 23.4336 164.279 24.0547V24.623C164.22 25.2363 164.091 25.7676 163.892 26.2168C163.693 26.6621 163.413 27.0078 163.054 27.2539C162.698 27.4961 162.251 27.6172 161.712 27.6172ZM161.982 26.7031C162.341 26.7031 162.636 26.627 162.866 26.4746C163.101 26.3223 163.288 26.1211 163.429 25.8711C163.57 25.6211 163.679 25.3496 163.757 25.0566V23.6328C163.71 23.418 163.642 23.2109 163.552 23.0117C163.466 22.8086 163.353 22.6289 163.212 22.4727C163.075 22.3125 162.905 22.1855 162.702 22.0918C162.503 21.998 162.267 21.9512 161.993 21.9512C161.599 21.9512 161.277 22.0566 161.027 22.2676C160.78 22.4785 160.599 22.7617 160.482 23.1172C160.368 23.4688 160.312 23.8555 160.312 24.2773V24.4004C160.312 24.8223 160.368 25.207 160.482 25.5547C160.599 25.9023 160.78 26.1816 161.027 26.3926C161.273 26.5996 161.591 26.7031 161.982 26.7031ZM163.57 27.5L163.476 26.2695V18.5H164.571V27.5H163.57ZM167.026 27.5V20.4863C167.026 19.8066 167.212 19.2852 167.583 18.9219C167.958 18.5586 168.47 18.377 169.118 18.377C169.243 18.377 169.368 18.3848 169.493 18.4004C169.618 18.416 169.741 18.4395 169.862 18.4707L169.804 19.3438C169.722 19.3281 169.628 19.3164 169.522 19.3086C169.421 19.3008 169.319 19.2969 169.218 19.2969C168.874 19.2969 168.604 19.4004 168.409 19.6074C168.218 19.8105 168.122 20.1035 168.122 20.4863V27.5H167.026ZM169.47 21.9863H166.03V21.1602H169.47V21.9863Z" fill="white"/>
<path d="M48.0537 41.4678C48.0537 42.2393 47.9626 42.8545 47.7803 43.3135C47.6012 43.7692 47.3441 44.098 47.0088 44.2998C46.6735 44.4984 46.2764 44.5977 45.8174 44.5977C45.3649 44.5977 44.9694 44.4984 44.6309 44.2998C44.2923 44.098 44.0286 43.7692 43.8398 43.3135C43.6543 42.8545 43.5615 42.2393 43.5615 41.4678V40.3789C43.5615 39.6042 43.6527 38.9922 43.835 38.543C44.0205 38.0938 44.2809 37.7731 44.6162 37.5811C44.9548 37.389 45.3519 37.293 45.8076 37.293C46.2666 37.293 46.6637 37.389 46.999 37.5811C47.3343 37.7731 47.5931 38.0938 47.7754 38.543C47.9609 38.9922 48.0537 39.6042 48.0537 40.3789V41.4678ZM47.1406 40.2275C47.1406 39.6937 47.0902 39.2656 46.9893 38.9434C46.8883 38.6211 46.7386 38.3883 46.54 38.2451C46.3415 38.0986 46.0973 38.0254 45.8076 38.0254C45.5212 38.0254 45.2786 38.0986 45.0801 38.2451C44.8815 38.3883 44.7301 38.6211 44.626 38.9434C44.5251 39.2656 44.4746 39.6937 44.4746 40.2275V41.6094C44.4746 42.14 44.5267 42.5713 44.6309 42.9033C44.735 43.2354 44.8864 43.4795 45.085 43.6357C45.2868 43.7887 45.5309 43.8652 45.8174 43.8652C46.1104 43.8652 46.3545 43.7887 46.5498 43.6357C46.7451 43.4795 46.8916 43.2354 46.9893 42.9033C47.0902 42.5713 47.1406 42.14 47.1406 41.6094V40.2275ZM52.3895 44.5H51.4764V38.4697L49.66 39.1387V38.3232L52.2479 37.3516H52.3895V44.5ZM55.5191 45.1104H54.7379L57.7066 37.3906H58.483L55.5191 45.1104ZM64.0346 41.4678C64.0346 42.2393 63.9434 42.8545 63.7611 43.3135C63.5821 43.7692 63.3249 44.098 62.9896 44.2998C62.6544 44.4984 62.2572 44.5977 61.7982 44.5977C61.3458 44.5977 60.9503 44.4984 60.6117 44.2998C60.2732 44.098 60.0095 43.7692 59.8207 43.3135C59.6352 42.8545 59.5424 42.2393 59.5424 41.4678V40.3789C59.5424 39.6042 59.6335 38.9922 59.8158 38.543C60.0014 38.0938 60.2618 37.7731 60.5971 37.5811C60.9356 37.389 61.3327 37.293 61.7885 37.293C62.2475 37.293 62.6446 37.389 62.9799 37.5811C63.3152 37.7731 63.574 38.0938 63.7563 38.543C63.9418 38.9922 64.0346 39.6042 64.0346 40.3789V41.4678ZM63.1215 40.2275C63.1215 39.6937 63.071 39.2656 62.9701 38.9434C62.8692 38.6211 62.7195 38.3883 62.5209 38.2451C62.3223 38.0986 62.0782 38.0254 61.7885 38.0254C61.502 38.0254 61.2595 38.0986 61.0609 38.2451C60.8624 38.3883 60.711 38.6211 60.6068 38.9434C60.5059 39.2656 60.4555 39.6937 60.4555 40.2275V41.6094C60.4555 42.14 60.5076 42.5713 60.6117 42.9033C60.7159 43.2354 60.8673 43.4795 61.0658 43.6357C61.2676 43.7887 61.5118 43.8652 61.7982 43.8652C62.0912 43.8652 62.3354 43.7887 62.5307 43.6357C62.726 43.4795 62.8725 43.2354 62.9701 42.9033C63.071 42.5713 63.1215 42.14 63.1215 41.6094V40.2275ZM66.3879 43.748C66.9087 43.748 67.3319 43.6748 67.6574 43.5283C67.9829 43.3818 68.232 43.1849 68.4045 42.9375C68.5803 42.6868 68.7007 42.4069 68.7658 42.0977C68.8309 41.7852 68.8635 41.4645 68.8635 41.1357V40.0469C68.8635 39.6139 68.8 39.2477 68.673 38.9482C68.5461 38.6488 68.3784 38.4225 68.1701 38.2695C67.965 38.1133 67.7421 38.0352 67.5012 38.0352C67.2245 38.0352 66.9868 38.1084 66.7883 38.2549C66.593 38.4014 66.4432 38.5999 66.3391 38.8506C66.2382 39.1012 66.1877 39.3844 66.1877 39.7002C66.1877 39.9801 66.2333 40.2487 66.3244 40.5059C66.4188 40.763 66.5604 40.973 66.7492 41.1357C66.9413 41.2985 67.1822 41.3799 67.4719 41.3799C67.6704 41.3799 67.8576 41.3392 68.0334 41.2578C68.2124 41.1764 68.3703 41.0674 68.507 40.9307C68.6437 40.7907 68.7544 40.6328 68.8391 40.457C68.9237 40.278 68.9725 40.0924 68.9855 39.9004H69.4201C69.4201 40.1706 69.3664 40.4375 69.259 40.7012C69.1548 40.9648 69.0083 41.2041 68.8195 41.4189C68.6307 41.6338 68.4094 41.8047 68.1555 41.9316C67.9016 42.0586 67.6249 42.1221 67.3254 42.1221C66.8566 42.1221 66.4725 42.0049 66.173 41.7705C65.8736 41.5361 65.6522 41.2383 65.509 40.877C65.3658 40.5124 65.2941 40.1364 65.2941 39.749C65.2941 39.2965 65.3771 38.8848 65.5432 38.5137C65.7092 38.1426 65.9566 37.8464 66.2854 37.625C66.6141 37.4036 67.0194 37.293 67.5012 37.293C67.9081 37.293 68.2548 37.3743 68.5412 37.5371C68.8309 37.6966 69.0653 37.9131 69.2443 38.1865C69.4266 38.46 69.5601 38.7676 69.6447 39.1094C69.7294 39.4512 69.7717 39.8027 69.7717 40.1641V40.501C69.7717 40.8721 69.7473 41.248 69.6984 41.6289C69.6529 42.0065 69.5633 42.3678 69.4299 42.7129C69.2997 43.0547 69.1092 43.3623 68.8586 43.6357C68.6079 43.9059 68.2808 44.1191 67.8771 44.2754C67.4768 44.4316 66.9803 44.5098 66.3879 44.5098H66.2951V43.748H66.3879ZM71.5 45.1104H70.7188L73.6875 37.3906H74.4639L71.5 45.1104ZM78.1111 40.1201L79.8104 37.3906H80.9188L78.6775 40.9111L80.9725 44.5H79.8543L78.1111 41.7168L76.3582 44.5H75.2449L77.5447 40.9111L75.2938 37.3906H76.407L78.1111 40.1201ZM84.5904 40.1201L86.2896 37.3906H87.398L85.1568 40.9111L87.4518 44.5H86.3336L84.5904 41.7168L82.8375 44.5H81.7242L84.024 40.9111L81.773 37.3906H82.8863L84.5904 40.1201Z" fill="white" fill-opacity="0.5"/>
<g filter="url(#filter1_i_2389_1537)">
<path d="M205 32C205 22.0589 213.059 14 223 14V14C232.941 14 241 22.0589 241 32V32C241 41.9411 232.941 50 223 50V50C213.059 50 205 41.9411 205 32V32Z" fill="white" fill-opacity="0.02"/>
<path d="M223 49.5C213.335 49.5 205.5 41.665 205.5 32C205.5 22.335 213.335 14.5 223 14.5C232.665 14.5 240.5 22.335 240.5 32C240.5 41.665 232.665 49.5 223 49.5Z" stroke="url(#paint0_linear_2389_1537)"/>
<path d="M222.5 35.4115C222.379 35.4115 222.267 35.3923 222.164 35.3538C222.06 35.3154 221.961 35.2494 221.867 35.1558L218.758 32.0463C218.609 31.8974 218.536 31.7233 218.538 31.524C218.54 31.3247 218.613 31.1474 218.758 30.9922C218.913 30.8372 219.091 30.7572 219.292 30.752C219.494 30.7468 219.672 30.8218 219.827 30.977L221.75 32.9V25.25C221.75 25.0372 221.822 24.859 221.965 24.7155C222.109 24.5718 222.287 24.5 222.5 24.5C222.713 24.5 222.891 24.5718 223.035 24.7155C223.178 24.859 223.25 25.0372 223.25 25.25V32.9L225.173 30.977C225.322 30.8283 225.498 30.7549 225.703 30.7568C225.907 30.7588 226.087 30.8372 226.242 30.9922C226.387 31.1474 226.462 31.3231 226.467 31.5192C226.472 31.7154 226.397 31.8911 226.242 32.0463L223.133 35.1558C223.039 35.2494 222.94 35.3154 222.836 35.3538C222.733 35.3923 222.621 35.4115 222.5 35.4115ZM216.808 39.5C216.303 39.5 215.875 39.325 215.525 38.975C215.175 38.625 215 38.1974 215 37.6923V35.7308C215 35.5179 215.072 35.3397 215.215 35.1962C215.359 35.0526 215.537 34.9808 215.75 34.9808C215.963 34.9808 216.141 35.0526 216.285 35.1962C216.428 35.3397 216.5 35.5179 216.5 35.7308V37.6923C216.5 37.7693 216.532 37.8398 216.596 37.9038C216.66 37.9679 216.731 38 216.808 38H228.192C228.269 38 228.34 37.9679 228.404 37.9038C228.468 37.8398 228.5 37.7693 228.5 37.6923V35.7308C228.5 35.5179 228.572 35.3397 228.715 35.1962C228.859 35.0526 229.037 34.9808 229.25 34.9808C229.463 34.9808 229.641 35.0526 229.785 35.1962C229.928 35.3397 230 35.5179 230 35.7308V37.6923C230 38.1974 229.825 38.625 229.475 38.975C229.125 39.325 228.697 39.5 228.192 39.5H216.808Z" fill="white"/>
</g>
</g>
<defs>
<filter id="filter0_bii_2389_1537" x="-20" y="-20" width="297" height="104" filterUnits="userSpaceOnUse" color-interpolation-filters="sRGB">
<feFlood flood-opacity="0" result="BackgroundImageFix"/>
<feGaussianBlur in="BackgroundImageFix" stdDeviation="10"/>
<feComposite in2="SourceAlpha" operator="in" result="effect1_backgroundBlur_2389_1537"/>
<feBlend mode="normal" in="SourceGraphic" in2="effect1_backgroundBlur_2389_1537" result="shape"/>
<feColorMatrix in="SourceAlpha" type="matrix" values="0 0 0 0 0 0 0 0 0 0 0 0 0 0 0 0 0 0 127 0" result="hardAlpha"/>
<feOffset/>
<feGaussianBlur stdDeviation="2"/>
<feComposite in2="hardAlpha" operator="arithmetic" k2="-1" k3="1"/>
<feColorMatrix type="matrix" values="0 0 0 0 1 0 0 0 0 1 0 0 0 0 1 0 0 0 0.05 0"/>
<feBlend mode="normal" in2="shape" result="effect2_innerShadow_2389_1537"/>
<feColorMatrix in="SourceAlpha" type="matrix" values="0 0 0 0 0 0 0 0 0 0 0 0 0 0 0 0 0 0 127 0" result="hardAlpha"/>
<feOffset/>
<feGaussianBlur stdDeviation="10"/>
<feComposite in2="hardAlpha" operator="arithmetic" k2="-1" k3="1"/>
<feColorMatrix type="matrix" values="0 0 0 0 1 0 0 0 0 1 0 0 0 0 1 0 0 0 0.05 0"/>
<feBlend mode="normal" in2="effect2_innerShadow_2389_1537" result="effect3_innerShadow_2389_1537"/>
</filter>
<filter id="filter1_i_2389_1537" x="205" y="11" width="36" height="39" filterUnits="userSpaceOnUse" color-interpolation-filters="sRGB">
<feFlood flood-opacity="0" result="BackgroundImageFix"/>
<feBlend mode="normal" in="SourceGraphic" in2="BackgroundImageFix" result="shape"/>
<feColorMatrix in="SourceAlpha" type="matrix" values="0 0 0 0 0 0 0 0 0 0 0 0 0 0 0 0 0 0 127 0" result="hardAlpha"/>
<feOffset dy="-3"/>
<feGaussianBlur stdDeviation="5"/>
<feComposite in2="hardAlpha" operator="arithmetic" k2="-1" k3="1"/>
<feColorMatrix type="matrix" values="0 0 0 0 1 0 0 0 0 1 0 0 0 0 1 0 0 0 0.14 0"/>
<feBlend mode="normal" in2="shape" result="effect1_innerShadow_2389_1537"/>
</filter>
<linearGradient id="paint0_linear_2389_1537" x1="205" y1="14" x2="243.276" y2="16.6091" gradientUnits="userSpaceOnUse">
<stop stop-color="#B721FF"/>
<stop offset="1" stop-color="#21FDF6"/>
</linearGradient>
</defs>
</svg>
