<svg width="384" height="208" viewBox="0 0 384 208" fill="none" xmlns="http://www.w3.org/2000/svg">
<path style="mix-blend-mode:color-dodge" d="M345.996 43.5493C345.996 39.1765 349.541 35.6317 353.913 35.6317C358.286 35.6317 361.831 39.1765 361.831 43.5493C361.831 47.922 358.286 51.4668 353.913 51.4668C349.541 51.4668 345.996 47.922 345.996 43.5493Z" fill="url(#paint0_radial_2292_989)" fill-opacity="0.8"/>
<path style="mix-blend-mode:color-dodge" d="M92.635 25.933C92.635 21.5603 96.1798 18.0155 100.553 18.0155C104.925 18.0155 108.47 21.5603 108.47 25.933C108.47 30.3058 104.925 33.8506 100.553 33.8506C96.1798 33.8506 92.635 30.3058 92.635 25.933Z" fill="url(#paint1_radial_2292_989)" fill-opacity="0.8"/>
<path style="mix-blend-mode:color-dodge" d="M0.791814 45.727C0.791814 42.6661 3.27317 40.1848 6.33408 40.1848C9.39499 40.1848 11.8764 42.6661 11.8764 45.727C11.8764 48.7879 9.39499 51.2693 6.33408 51.2693C3.27317 51.2693 0.791814 48.7879 0.791814 45.727Z" fill="url(#paint2_radial_2292_989)" fill-opacity="0.8"/>
<path style="mix-blend-mode:color-dodge" d="M11.8763 70.2712C11.8763 67.2103 14.3577 64.7289 17.4186 64.7289C20.4795 64.7289 22.9608 67.2103 22.9608 70.2712C22.9608 73.3321 20.4795 75.8135 17.4186 75.8135C14.3577 75.8135 11.8763 73.3321 11.8763 70.2712Z" fill="url(#paint3_radial_2292_989)" fill-opacity="0.8"/>
<path style="mix-blend-mode:color-dodge" d="M25.3361 40.1845C25.3361 37.1236 27.8175 34.6423 30.8784 34.6423C33.9393 34.6423 36.4207 37.1236 36.4207 40.1845C36.4207 43.2454 33.9393 45.7268 30.8784 45.7268C27.8175 45.7268 25.3361 43.2454 25.3361 40.1845Z" fill="url(#paint4_radial_2292_989)" fill-opacity="0.8"/>
<path style="mix-blend-mode:color-dodge" d="M52.2559 109.784C52.2559 106.723 54.7372 104.242 57.7981 104.242C60.859 104.242 63.3404 106.723 63.3404 109.784C63.3404 112.845 60.859 115.327 57.7981 115.327C54.7372 115.327 52.2559 112.845 52.2559 109.784Z" fill="url(#paint5_radial_2292_989)" fill-opacity="0.8"/>
<path style="mix-blend-mode:color-dodge" d="M339.662 66.3123C339.662 54.0687 349.587 44.1433 361.831 44.1433C374.075 44.1433 384 54.0687 384 66.3123C384 78.556 374.075 88.4814 361.831 88.4814C349.587 88.4814 339.662 78.556 339.662 66.3123Z" fill="url(#paint6_radial_2292_989)" fill-opacity="0.8"/>
<path style="mix-blend-mode:color-dodge" d="M227.233 90.065C227.233 77.8214 237.159 67.896 249.402 67.896C261.646 67.896 271.571 77.8214 271.571 90.065C271.571 102.309 261.646 112.234 249.402 112.234C237.159 112.234 227.233 102.309 227.233 90.065Z" fill="url(#paint7_radial_2292_989)" fill-opacity="0.8"/>
<path style="mix-blend-mode:color-dodge" d="M112.443 62.3536C112.443 50.1099 122.369 40.1846 134.612 40.1846C146.856 40.1846 156.781 50.1099 156.781 62.3536C156.781 74.5972 146.856 84.5227 134.612 84.5227C122.369 84.5227 112.443 74.5972 112.443 62.3536Z" fill="url(#paint8_radial_2292_989)" fill-opacity="0.8"/>
<path style="mix-blend-mode:color-dodge" d="M52.2558 90.065C52.2558 77.8214 62.1812 67.896 74.4249 67.896C86.6685 67.896 96.5939 77.8214 96.5939 90.065C96.5939 102.309 86.6685 112.234 74.4249 112.234C62.1812 112.234 52.2558 102.309 52.2558 90.065Z" fill="url(#paint9_radial_2292_989)" fill-opacity="0.8"/>
<path style="mix-blend-mode:color-dodge" d="M317.493 52.0609C317.493 43.3155 324.583 36.2259 333.328 36.2259C342.073 36.2259 349.163 43.3155 349.163 52.0609C349.163 60.8064 342.073 67.896 333.328 67.896C324.583 67.896 317.493 60.8064 317.493 52.0609Z" fill="url(#paint10_radial_2292_989)" fill-opacity="0.8"/>
<path style="mix-blend-mode:color-dodge" d="M328.578 128.069C328.578 121.947 333.54 116.984 339.662 116.984C345.784 116.984 350.747 121.947 350.747 128.069C350.747 134.191 345.784 139.154 339.662 139.154C333.54 139.154 328.578 134.191 328.578 128.069Z" fill="url(#paint11_radial_2292_989)" fill-opacity="0.8"/>
<path opacity="0.66" d="M67.7576 117.64L67.0947 118.018C64.6529 119.412 64.9438 121.874 67.7508 123.511L195.38 198.084C198.187 199.721 202.442 199.923 204.884 198.53L205.546 198.151C207.988 196.758 207.697 194.296 204.89 192.659L77.261 118.079C74.4539 116.442 70.1994 116.24 67.7576 117.633V117.64Z" fill="url(#paint12_linear_2292_989)"/>
<path opacity="0.66" d="M102.582 117.737L101.919 118.116C99.4774 119.509 99.7683 121.971 102.575 123.608L164.222 159.626C167.029 161.263 171.284 161.466 173.726 160.073L174.388 159.694C176.83 158.301 176.539 155.839 173.732 154.202L112.085 118.184C109.278 116.547 105.024 116.344 102.582 117.737Z" fill="url(#paint13_linear_2292_989)"/>
<path opacity="0.66" d="M147.185 122.188L146.522 122.567C144.08 123.96 144.371 126.422 147.178 128.059L227.054 174.731C229.861 176.368 234.115 176.57 236.557 175.177L237.22 174.798C239.662 173.405 239.371 170.943 236.564 169.306L156.688 122.635C153.881 120.998 149.626 120.795 147.185 122.188Z" fill="url(#paint14_linear_2292_989)"/>
<path opacity="0.66" d="M67.0657 52.3744L66.4029 52.7532C63.9611 54.1466 64.2519 56.6086 67.059 58.2455L231.89 154.558C234.697 156.195 238.952 156.398 241.394 155.004L242.056 154.625C244.498 153.232 244.207 150.77 241.4 149.133L76.5691 52.8208C73.7621 51.1839 69.5075 50.981 67.0657 52.3744Z" fill="url(#paint15_linear_2292_989)"/>
<path opacity="0.66" d="M147.798 48.1559L147.135 48.5347C144.693 49.9281 144.984 52.3901 147.791 54.027L312.622 150.339C315.429 151.976 319.684 152.179 322.126 150.786L322.789 150.407C325.23 149.013 324.94 146.551 322.132 144.915L157.308 48.6023C154.501 46.9654 150.246 46.7625 147.805 48.1559H147.798Z" fill="url(#paint16_linear_2292_989)"/>
<path opacity="0.66" d="M125.738 12.3766L125.076 12.7554C122.634 14.1488 122.925 16.6108 125.732 18.2477L290.563 114.56C293.37 116.197 297.624 116.4 300.066 115.006L300.729 114.628C303.171 113.234 302.88 110.772 300.073 109.135L135.242 12.823C132.435 11.1861 128.18 10.9832 125.738 12.3766Z" fill="url(#paint17_linear_2292_989)"/>
<path opacity="0.66" d="M127.16 70.5489L126.497 70.9277C124.055 72.321 124.346 74.7831 127.153 76.42L265.72 157.385C268.527 159.022 272.781 159.225 275.223 157.831L275.886 157.452C278.328 156.059 278.037 153.597 275.23 151.96L136.67 70.9885C133.863 69.3517 129.608 69.1487 127.167 70.5421L127.16 70.5489Z" fill="url(#paint18_linear_2292_989)"/>
<path opacity="0.66" d="M155.934 66.7611L155.271 67.1399C152.829 68.5333 153.12 70.9954 155.927 72.6322L207.854 102.975C210.661 104.612 214.916 104.815 217.358 103.422L218.021 103.043C220.462 101.65 220.171 99.1876 217.364 97.5507L165.437 67.2075C162.63 65.5707 158.376 65.3677 155.934 66.7611Z" fill="url(#paint19_linear_2292_989)"/>
<g style="mix-blend-mode:multiply" opacity="0.5" filter="url(#filter0_f_2292_989)">
<path d="M182.53 178.759L93.712 83.502L144.354 67.769L199.446 132.757L219.982 179.104L182.53 178.759Z" fill="#1F2341"/>
</g>
<path d="M292.907 143.028L292.413 150.387C292.411 150.483 292.354 150.577 292.221 150.638L209.224 191.468C208.954 191.604 208.496 191.55 208.209 191.359L195.643 182.945C195.5 182.849 195.431 182.745 195.423 182.637C195.422 182.63 195.42 182.623 195.419 182.617L195.919 175.181L202.017 179.201L278.598 141.523C278.868 141.387 279.327 141.441 279.613 141.633L283.923 144.524L292.901 143.029L292.907 143.028Z" fill="url(#paint20_linear_2292_989)"/>
<path d="M279.107 134.127L196.11 174.957C195.84 175.093 195.85 175.353 196.144 175.55L208.711 183.964C208.997 184.156 209.456 184.21 209.726 184.074L292.723 143.244C292.992 143.108 292.982 142.848 292.688 142.651L280.121 134.237C279.835 134.045 279.376 133.991 279.107 134.127Z" fill="url(#paint21_linear_2292_989)"/>
<path opacity="0.6" d="M275.505 145.018L210.331 176.438C210.024 173.913 209.46 171.343 208.658 168.785L273.759 136.758C274.622 139.511 275.221 142.295 275.503 145.011L275.505 145.018Z" fill="#242993"/>
<path d="M281.61 138.555L203.351 177.055C203.169 177.146 203.177 177.323 203.375 177.457L206.531 179.569C206.73 179.702 207.04 179.737 207.222 179.646L285.481 141.147C285.663 141.056 285.656 140.878 285.457 140.745L282.301 138.632C282.103 138.499 281.792 138.464 281.61 138.555Z" fill="#161A29"/>
<path d="M285.481 141.147L283.892 141.93L282.191 140.791C281.992 140.658 281.682 140.623 281.5 140.714L204.83 178.43L203.375 177.457C203.177 177.323 203.168 177.139 203.351 177.055L281.61 138.555C281.792 138.464 282.109 138.498 282.301 138.632L285.457 140.745C285.656 140.878 285.664 141.062 285.481 141.147Z" fill="#1E2338"/>
<path opacity="0.96" d="M96.0583 51.8027L161.166 19.7678C160.42 31.0166 167.404 45.2243 176.775 51.4989L260.124 107.304C271.141 114.681 279.355 131.375 278.47 144.603L213.362 176.631C214.24 163.405 206.026 146.71 195.016 139.333L111.675 83.5324C102.303 77.2579 95.313 63.0515 96.065 51.8014L96.0583 51.8027Z" fill="#ABB9DF"/>
<path opacity="0.8" d="M278.47 144.603L213.362 176.631C213.399 176.052 213.413 175.463 213.42 174.868L278.522 142.841C278.515 143.436 278.499 144.018 278.462 144.598L278.47 144.603Z" fill="#3A4159"/>
<g opacity="0.5">
<path d="M189.243 111.771L174.496 119.027L175.816 119.91L190.563 112.654L189.243 111.771Z" fill="#1E2338"/>
<path d="M196.809 108.053L191.499 110.662L192.819 111.545L198.129 108.936L196.809 108.053Z" fill="#1E2338"/>
<path d="M202.665 105.17L199.058 106.946L200.378 107.829L203.984 106.053L202.665 105.17Z" fill="#1E2338"/>
<path d="M179.521 113.06L171.485 117.016L172.803 117.893L180.841 113.944L179.521 113.06Z" fill="#1E2338"/>
<path d="M191.623 107.107L181.777 111.952L183.096 112.836L192.942 107.991L191.623 107.107Z" fill="#1E2338"/>
<path d="M197.485 104.223L193.879 105.999L195.192 106.883L198.805 105.106L197.485 104.223Z" fill="#1E2338"/>
<path d="M203.058 101.479L199.452 103.254L200.771 104.138L204.378 102.362L203.058 101.479Z" fill="#1E2338"/>
<path d="M174.291 112.137L168.479 114.998L169.799 115.881L175.611 113.021L174.291 112.137Z" fill="#1E2338"/>
<path d="M178.532 110.05L176.547 111.029L177.86 111.914L179.852 110.933L178.532 110.05Z" fill="#1E2338"/>
<path d="M184.394 107.166L180.781 108.943L182.101 109.826L185.707 108.05L184.394 107.166Z" fill="#1E2338"/>
<path d="M186.924 102.425L165.467 112.981L166.786 113.864L188.244 103.308L186.924 102.425Z" fill="#1E2338"/>
<path d="M194.49 98.7066L189.18 101.316L190.493 102.201L195.802 99.5847L194.49 98.7066Z" fill="#1E2338"/>
<path d="M168.273 108.102L162.454 110.964L163.774 111.847L169.585 108.987L168.273 108.102Z" fill="#1E2338"/>
<path d="M181.915 101.396L170.522 106.995L171.841 107.878L183.233 102.273L181.915 101.396Z" fill="#1E2338"/>
<path d="M187.777 98.5117L184.164 100.289L185.482 101.165L189.09 99.3964L187.777 98.5117Z" fill="#1E2338"/>
<path d="M171.343 103.095L159.45 108.952L160.761 109.83L172.656 103.98L171.343 103.095Z" fill="#1E2338"/>
<path d="M182.195 97.7616L173.592 101.988L174.912 102.872L183.513 98.6384L182.195 97.7616Z" fill="#1E2338"/>
<path d="M190.263 93.7927L184.45 96.6465L185.769 97.5299L191.581 94.6695L190.263 93.7927Z" fill="#1E2338"/>
<path d="M160.452 104.961L156.437 106.935L157.757 107.819L161.771 105.838L160.452 104.961Z" fill="#1E2338"/>
<path d="M168.017 101.237L162.708 103.853L164.027 104.73L169.336 102.12L168.017 101.237Z" fill="#1E2338"/>
<path d="M178.824 95.919L170.266 100.13L171.586 101.013L180.144 96.8024L178.824 95.919Z" fill="#1E2338"/>
<path d="M165.733 98.8617L153.425 104.918L154.744 105.802L167.046 99.7465L165.733 98.8617Z" fill="#1E2338"/>
<path d="M179.514 92.0868L167.983 97.7547L169.302 98.6382L180.832 92.9636L179.514 92.0868Z" fill="#1E2338"/>
<path d="M185.376 89.2027L181.77 90.9784L183.088 91.8552L186.694 90.0795L185.376 89.2027Z" fill="#1E2338"/>
<path d="M190.999 86.4346L187.393 88.2103L188.711 89.0871L192.319 87.3181L190.999 86.4346Z" fill="#1E2338"/>
<path d="M157.789 99.2758L150.412 102.901L151.732 103.785L159.109 100.159L157.789 99.2758Z" fill="#1E2338"/>
<path d="M219.159 97.0578L229.382 92.028L230.701 92.9114L220.472 97.9425L219.159 97.0578Z" fill="#1E2338"/>
<path d="M218.333 93.9666L226.369 90.0109L227.689 90.8944L219.653 94.85L218.333 93.9666Z" fill="#1E2338"/>
<path d="M217.545 90.8543L223.357 87.9939L224.676 88.8773L218.864 91.7377L217.545 90.8543Z" fill="#1E2338"/>
<path d="M211.894 90.1387L220.352 85.9822L221.67 86.859L213.214 91.0221L211.894 90.1387Z" fill="#1E2338"/>
<path d="M211.528 86.8257L217.34 83.9653L218.659 84.8488L212.847 87.7092L211.528 86.8257Z" fill="#1E2338"/>
<path d="M206.958 85.5789L214.327 81.9482L215.647 82.8317L208.276 86.4557L206.958 85.5789Z" fill="#1E2338"/>
<path d="M207.301 81.9118L211.321 79.93L212.634 80.8147L208.62 82.7952L207.301 81.9118Z" fill="#1E2338"/>
<path d="M200.525 81.7498L208.31 77.9196L209.63 78.8031L201.845 82.6332L200.525 81.7498Z" fill="#1E2338"/>
<path d="M197.927 79.5266L205.298 75.9026L206.617 76.786L199.24 80.4113L197.927 79.5266Z" fill="#1E2338"/>
<path d="M163.174 96.6242L160.039 98.1687L161.358 99.0521L164.493 97.5076L163.174 96.6242Z" fill="#1E2338"/>
<path d="M172.486 92.0437L165.43 95.5158L166.749 96.3992L173.805 92.9271L172.486 92.0437Z" fill="#1E2338"/>
<path d="M164.87 77.5679L152.963 83.4273L154.283 84.3108L166.189 78.4513L164.87 77.5679Z" fill="#1E2338"/>
<path d="M173.032 73.5529L168.338 75.861L169.658 76.7444L174.351 74.4363L173.032 73.5529Z" fill="#1E2338"/>
</g>
<defs>
<filter id="filter0_f_2292_989" x="82.712" y="56.769" width="148.27" height="133.335" filterUnits="userSpaceOnUse" color-interpolation-filters="sRGB">
<feFlood flood-opacity="0" result="BackgroundImageFix"/>
<feBlend mode="normal" in="SourceGraphic" in2="BackgroundImageFix" result="shape"/>
<feGaussianBlur stdDeviation="5.5" result="effect1_foregroundBlur_2292_989"/>
</filter>
<radialGradient id="paint0_radial_2292_989" cx="0" cy="0" r="1" gradientUnits="userSpaceOnUse" gradientTransform="translate(353.913 43.5493) rotate(-138.412) scale(10.1182 10.2052)">
<stop stop-color="white"/>
<stop offset="0.15" stop-color="#575757" stop-opacity="0.77"/>
<stop offset="0.32" stop-color="#05041A" stop-opacity="0.54"/>
<stop offset="0.48" stop-color="#05041A" stop-opacity="0.35"/>
<stop offset="0.64" stop-color="#05041A" stop-opacity="0.2"/>
<stop offset="0.78" stop-color="#05041A" stop-opacity="0.09"/>
<stop offset="0.9" stop-color="#05041A" stop-opacity="0.02"/>
<stop offset="1" stop-color="#05041A" stop-opacity="0"/>
</radialGradient>
<radialGradient id="paint1_radial_2292_989" cx="0" cy="0" r="1" gradientUnits="userSpaceOnUse" gradientTransform="translate(100.553 25.9331) rotate(-138.412) scale(10.1182 10.2052)">
<stop stop-color="white"/>
<stop offset="0.15" stop-color="#575757" stop-opacity="0.77"/>
<stop offset="0.32" stop-color="#05041A" stop-opacity="0.54"/>
<stop offset="0.48" stop-color="#05041A" stop-opacity="0.35"/>
<stop offset="0.64" stop-color="#05041A" stop-opacity="0.2"/>
<stop offset="0.78" stop-color="#05041A" stop-opacity="0.09"/>
<stop offset="0.9" stop-color="#05041A" stop-opacity="0.02"/>
<stop offset="1" stop-color="#05041A" stop-opacity="0"/>
</radialGradient>
<radialGradient id="paint2_radial_2292_989" cx="0" cy="0" r="1" gradientUnits="userSpaceOnUse" gradientTransform="translate(6.33408 45.727) rotate(-138.412) scale(7.08273 7.14362)">
<stop stop-color="white"/>
<stop offset="0.15" stop-color="#575757" stop-opacity="0.77"/>
<stop offset="0.32" stop-color="#05041A" stop-opacity="0.54"/>
<stop offset="0.48" stop-color="#05041A" stop-opacity="0.35"/>
<stop offset="0.64" stop-color="#05041A" stop-opacity="0.2"/>
<stop offset="0.78" stop-color="#05041A" stop-opacity="0.09"/>
<stop offset="0.9" stop-color="#05041A" stop-opacity="0.02"/>
<stop offset="1" stop-color="#05041A" stop-opacity="0"/>
</radialGradient>
<radialGradient id="paint3_radial_2292_989" cx="0" cy="0" r="1" gradientUnits="userSpaceOnUse" gradientTransform="translate(17.4186 70.2712) rotate(-138.412) scale(7.08273 7.14362)">
<stop stop-color="white"/>
<stop offset="0.15" stop-color="#575757" stop-opacity="0.77"/>
<stop offset="0.32" stop-color="#05041A" stop-opacity="0.54"/>
<stop offset="0.48" stop-color="#05041A" stop-opacity="0.35"/>
<stop offset="0.64" stop-color="#05041A" stop-opacity="0.2"/>
<stop offset="0.78" stop-color="#05041A" stop-opacity="0.09"/>
<stop offset="0.9" stop-color="#05041A" stop-opacity="0.02"/>
<stop offset="1" stop-color="#05041A" stop-opacity="0"/>
</radialGradient>
<radialGradient id="paint4_radial_2292_989" cx="0" cy="0" r="1" gradientUnits="userSpaceOnUse" gradientTransform="translate(30.8784 40.1845) rotate(-138.412) scale(7.08273 7.14362)">
<stop stop-color="white"/>
<stop offset="0.15" stop-color="#575757" stop-opacity="0.77"/>
<stop offset="0.32" stop-color="#05041A" stop-opacity="0.54"/>
<stop offset="0.48" stop-color="#05041A" stop-opacity="0.35"/>
<stop offset="0.64" stop-color="#05041A" stop-opacity="0.2"/>
<stop offset="0.78" stop-color="#05041A" stop-opacity="0.09"/>
<stop offset="0.9" stop-color="#05041A" stop-opacity="0.02"/>
<stop offset="1" stop-color="#05041A" stop-opacity="0"/>
</radialGradient>
<radialGradient id="paint5_radial_2292_989" cx="0" cy="0" r="1" gradientUnits="userSpaceOnUse" gradientTransform="translate(57.7981 109.784) rotate(-138.412) scale(7.08273 7.14362)">
<stop stop-color="white"/>
<stop offset="0.15" stop-color="#575757" stop-opacity="0.77"/>
<stop offset="0.32" stop-color="#05041A" stop-opacity="0.54"/>
<stop offset="0.48" stop-color="#05041A" stop-opacity="0.35"/>
<stop offset="0.64" stop-color="#05041A" stop-opacity="0.2"/>
<stop offset="0.78" stop-color="#05041A" stop-opacity="0.09"/>
<stop offset="0.9" stop-color="#05041A" stop-opacity="0.02"/>
<stop offset="1" stop-color="#05041A" stop-opacity="0"/>
</radialGradient>
<radialGradient id="paint6_radial_2292_989" cx="0" cy="0" r="1" gradientUnits="userSpaceOnUse" gradientTransform="translate(361.831 66.3124) rotate(-138.412) scale(28.3309 28.5745)">
<stop stop-color="white"/>
<stop offset="0.15" stop-color="#575757" stop-opacity="0.77"/>
<stop offset="0.32" stop-color="#05041A" stop-opacity="0.54"/>
<stop offset="0.48" stop-color="#05041A" stop-opacity="0.35"/>
<stop offset="0.64" stop-color="#05041A" stop-opacity="0.2"/>
<stop offset="0.78" stop-color="#05041A" stop-opacity="0.09"/>
<stop offset="0.9" stop-color="#05041A" stop-opacity="0.02"/>
<stop offset="1" stop-color="#05041A" stop-opacity="0"/>
</radialGradient>
<radialGradient id="paint7_radial_2292_989" cx="0" cy="0" r="1" gradientUnits="userSpaceOnUse" gradientTransform="translate(249.402 90.0651) rotate(-138.412) scale(28.3309 28.5745)">
<stop stop-color="white"/>
<stop offset="0.15" stop-color="#575757" stop-opacity="0.77"/>
<stop offset="0.32" stop-color="#05041A" stop-opacity="0.54"/>
<stop offset="0.48" stop-color="#05041A" stop-opacity="0.35"/>
<stop offset="0.64" stop-color="#05041A" stop-opacity="0.2"/>
<stop offset="0.78" stop-color="#05041A" stop-opacity="0.09"/>
<stop offset="0.9" stop-color="#05041A" stop-opacity="0.02"/>
<stop offset="1" stop-color="#05041A" stop-opacity="0"/>
</radialGradient>
<radialGradient id="paint8_radial_2292_989" cx="0" cy="0" r="1" gradientUnits="userSpaceOnUse" gradientTransform="translate(134.612 62.3536) rotate(-138.412) scale(28.3309 28.5745)">
<stop stop-color="white"/>
<stop offset="0.15" stop-color="#575757" stop-opacity="0.77"/>
<stop offset="0.32" stop-color="#05041A" stop-opacity="0.54"/>
<stop offset="0.48" stop-color="#05041A" stop-opacity="0.35"/>
<stop offset="0.64" stop-color="#05041A" stop-opacity="0.2"/>
<stop offset="0.78" stop-color="#05041A" stop-opacity="0.09"/>
<stop offset="0.9" stop-color="#05041A" stop-opacity="0.02"/>
<stop offset="1" stop-color="#05041A" stop-opacity="0"/>
</radialGradient>
<radialGradient id="paint9_radial_2292_989" cx="0" cy="0" r="1" gradientUnits="userSpaceOnUse" gradientTransform="translate(74.4249 90.0651) rotate(-138.412) scale(28.3309 28.5745)">
<stop stop-color="white"/>
<stop offset="0.15" stop-color="#575757" stop-opacity="0.77"/>
<stop offset="0.32" stop-color="#05041A" stop-opacity="0.54"/>
<stop offset="0.48" stop-color="#05041A" stop-opacity="0.35"/>
<stop offset="0.64" stop-color="#05041A" stop-opacity="0.2"/>
<stop offset="0.78" stop-color="#05041A" stop-opacity="0.09"/>
<stop offset="0.9" stop-color="#05041A" stop-opacity="0.02"/>
<stop offset="1" stop-color="#05041A" stop-opacity="0"/>
</radialGradient>
<radialGradient id="paint10_radial_2292_989" cx="0" cy="0" r="1" gradientUnits="userSpaceOnUse" gradientTransform="translate(333.328 52.0609) rotate(-138.412) scale(20.2364 20.4103)">
<stop stop-color="white"/>
<stop offset="0.15" stop-color="#575757" stop-opacity="0.77"/>
<stop offset="0.32" stop-color="#05041A" stop-opacity="0.54"/>
<stop offset="0.48" stop-color="#05041A" stop-opacity="0.35"/>
<stop offset="0.64" stop-color="#05041A" stop-opacity="0.2"/>
<stop offset="0.78" stop-color="#05041A" stop-opacity="0.09"/>
<stop offset="0.9" stop-color="#05041A" stop-opacity="0.02"/>
<stop offset="1" stop-color="#05041A" stop-opacity="0"/>
</radialGradient>
<radialGradient id="paint11_radial_2292_989" cx="0" cy="0" r="1" gradientUnits="userSpaceOnUse" gradientTransform="translate(339.662 128.069) rotate(-138.412) scale(14.1655 14.2872)">
<stop stop-color="white"/>
<stop offset="0.15" stop-color="#575757" stop-opacity="0.77"/>
<stop offset="0.32" stop-color="#05041A" stop-opacity="0.54"/>
<stop offset="0.48" stop-color="#05041A" stop-opacity="0.35"/>
<stop offset="0.64" stop-color="#05041A" stop-opacity="0.2"/>
<stop offset="0.78" stop-color="#05041A" stop-opacity="0.09"/>
<stop offset="0.9" stop-color="#05041A" stop-opacity="0.02"/>
<stop offset="1" stop-color="#05041A" stop-opacity="0"/>
</radialGradient>
<linearGradient id="paint12_linear_2292_989" x1="65.4385" y1="116.707" x2="214.829" y2="134.152" gradientUnits="userSpaceOnUse">
<stop stop-color="#B721FF"/>
<stop offset="1" stop-color="#21FDF6"/>
</linearGradient>
<linearGradient id="paint13_linear_2292_989" x1="100.263" y1="116.811" x2="180.119" y2="126.146" gradientUnits="userSpaceOnUse">
<stop stop-color="#B721FF"/>
<stop offset="1" stop-color="#21FDF6"/>
</linearGradient>
<linearGradient id="paint14_linear_2292_989" x1="144.865" y1="121.262" x2="243.932" y2="132.838" gradientUnits="userSpaceOnUse">
<stop stop-color="#B721FF"/>
<stop offset="1" stop-color="#21FDF6"/>
</linearGradient>
<linearGradient id="paint15_linear_2292_989" x1="64.7466" y1="51.4482" x2="253.341" y2="73.4682" gradientUnits="userSpaceOnUse">
<stop stop-color="#B721FF"/>
<stop offset="1" stop-color="#21FDF6"/>
</linearGradient>
<linearGradient id="paint16_linear_2292_989" x1="145.479" y1="47.2297" x2="334.073" y2="69.2497" gradientUnits="userSpaceOnUse">
<stop stop-color="#B721FF"/>
<stop offset="1" stop-color="#21FDF6"/>
</linearGradient>
<linearGradient id="paint17_linear_2292_989" x1="123.419" y1="11.4504" x2="312.014" y2="33.4704" gradientUnits="userSpaceOnUse">
<stop stop-color="#B721FF"/>
<stop offset="1" stop-color="#21FDF6"/>
</linearGradient>
<linearGradient id="paint18_linear_2292_989" x1="-328.57" y1="502.28" x2="-402.486" y2="372.692" gradientUnits="userSpaceOnUse">
<stop stop-color="#567CFF"/>
<stop offset="0.13" stop-color="#4FAAFF"/>
<stop offset="0.24" stop-color="#49CFFF"/>
<stop offset="0.34" stop-color="#45E9FF"/>
<stop offset="0.43" stop-color="#42F9FF"/>
<stop offset="0.51" stop-color="#42FFFF"/>
<stop offset="0.57" stop-color="#43F7FF"/>
<stop offset="0.67" stop-color="#46E2FF"/>
<stop offset="0.8" stop-color="#4BC0FF"/>
<stop offset="0.93" stop-color="#5391FF"/>
<stop offset="1" stop-color="#5778FF"/>
</linearGradient>
<linearGradient id="paint19_linear_2292_989" x1="-348.357" y1="426.142" x2="-379.212" y2="372.048" gradientUnits="userSpaceOnUse">
<stop stop-color="#567CFF"/>
<stop offset="0.13" stop-color="#4FAAFF"/>
<stop offset="0.24" stop-color="#49CFFF"/>
<stop offset="0.34" stop-color="#45E9FF"/>
<stop offset="0.43" stop-color="#42F9FF"/>
<stop offset="0.51" stop-color="#42FFFF"/>
<stop offset="0.57" stop-color="#43F7FF"/>
<stop offset="0.67" stop-color="#46E2FF"/>
<stop offset="0.8" stop-color="#4BC0FF"/>
<stop offset="0.93" stop-color="#5391FF"/>
<stop offset="1" stop-color="#5778FF"/>
</linearGradient>
<linearGradient id="paint20_linear_2292_989" x1="408.468" y1="133.927" x2="213.678" y2="172.482" gradientUnits="userSpaceOnUse">
<stop stop-color="#59668C"/>
<stop offset="1" stop-color="#99B0F2"/>
</linearGradient>
<linearGradient id="paint21_linear_2292_989" x1="222.018" y1="118.867" x2="252.15" y2="172.985" gradientUnits="userSpaceOnUse">
<stop stop-color="#C0D6FF"/>
<stop offset="0.3" stop-color="#C4DAFF"/>
<stop offset="0.65" stop-color="#D3E9FF"/>
<stop offset="1" stop-color="#E9FFFF"/>
</linearGradient>
</defs>
</svg>
