<svg width="384" height="208" viewBox="0 0 384 208" fill="none" xmlns="http://www.w3.org/2000/svg">
<g filter="url(#filter0_bii_167_6387)">
<path style="mix-blend-mode:color-dodge" d="M369.996 67.5488C369.996 63.176 373.541 59.6313 377.914 59.6313C382.286 59.6313 385.831 63.176 385.831 67.5488C385.831 71.9215 382.286 75.4663 377.914 75.4663C373.541 75.4663 369.996 71.9215 369.996 67.5488Z" fill="url(#paint1_radial_167_6387)" fill-opacity="0.8"/>
<path style="mix-blend-mode:color-dodge" d="M116.635 49.933C116.635 45.5603 120.179 42.0155 124.552 42.0155C128.925 42.0155 132.47 45.5603 132.47 49.933C132.47 54.3058 128.925 57.8506 124.552 57.8506C120.179 57.8506 116.635 54.3058 116.635 49.933Z" fill="url(#paint2_radial_167_6387)" fill-opacity="0.8"/>
<path style="mix-blend-mode:color-dodge" d="M24.7914 69.7268C24.7914 66.6659 27.2728 64.1845 30.3337 64.1845C33.3946 64.1845 35.876 66.6659 35.876 69.7268C35.876 72.7877 33.3946 75.269 30.3337 75.269C27.2728 75.269 24.7914 72.7877 24.7914 69.7268Z" fill="url(#paint3_radial_167_6387)" fill-opacity="0.8"/>
<path style="mix-blend-mode:color-dodge" d="M35.8764 94.2707C35.8764 91.2098 38.3578 88.7285 41.4187 88.7285C44.4796 88.7285 46.9609 91.2098 46.9609 94.2707C46.9609 97.3316 44.4796 99.813 41.4187 99.813C38.3578 99.813 35.8764 97.3316 35.8764 94.2707Z" fill="url(#paint4_radial_167_6387)" fill-opacity="0.8"/>
<path style="mix-blend-mode:color-dodge" d="M49.3364 64.1843C49.3364 61.1234 51.8177 58.642 54.8786 58.642C57.9395 58.642 60.4209 61.1234 60.4209 64.1843C60.4209 67.2452 57.9395 69.7266 54.8786 69.7266C51.8177 69.7266 49.3364 67.2452 49.3364 64.1843Z" fill="url(#paint5_radial_167_6387)" fill-opacity="0.8"/>
<path style="mix-blend-mode:color-dodge" d="M76.2563 133.784C76.2563 130.723 78.7376 128.242 81.7986 128.242C84.8595 128.242 87.3408 130.723 87.3408 133.784C87.3408 136.845 84.8595 139.327 81.7986 139.327C78.7376 139.327 76.2563 136.845 76.2563 133.784Z" fill="url(#paint6_radial_167_6387)" fill-opacity="0.8"/>
<path style="mix-blend-mode:color-dodge" d="M363.662 90.3118C363.662 78.0682 373.587 68.1428 385.831 68.1428C398.075 68.1428 408 78.0682 408 90.3118C408 102.555 398.075 112.481 385.831 112.481C373.587 112.481 363.662 102.555 363.662 90.3118Z" fill="url(#paint7_radial_167_6387)" fill-opacity="0.8"/>
<path style="mix-blend-mode:color-dodge" d="M251.233 114.065C251.233 101.821 261.159 91.8957 273.402 91.8957C285.646 91.8957 295.571 101.821 295.571 114.065C295.571 126.308 285.646 136.234 273.402 136.234C261.159 136.234 251.233 126.308 251.233 114.065Z" fill="url(#paint8_radial_167_6387)" fill-opacity="0.8"/>
<path style="mix-blend-mode:color-dodge" d="M136.443 86.3533C136.443 74.1097 146.369 64.1843 158.612 64.1843C170.856 64.1843 180.781 74.1097 180.781 86.3533C180.781 98.597 170.856 108.522 158.612 108.522C146.369 108.522 136.443 98.597 136.443 86.3533Z" fill="url(#paint9_radial_167_6387)" fill-opacity="0.8"/>
<path style="mix-blend-mode:color-dodge" d="M76.2556 114.065C76.2556 101.821 86.181 91.8957 98.4247 91.8957C110.668 91.8957 120.594 101.821 120.594 114.065C120.594 126.308 110.668 136.234 98.4247 136.234C86.181 136.234 76.2556 126.308 76.2556 114.065Z" fill="url(#paint10_radial_167_6387)" fill-opacity="0.8"/>
<path style="mix-blend-mode:color-dodge" d="M341.493 76.0604C341.493 67.315 348.583 60.2254 357.328 60.2254C366.073 60.2254 373.163 67.315 373.163 76.0604C373.163 84.8059 366.073 91.8955 357.328 91.8955C348.583 91.8955 341.493 84.8059 341.493 76.0604Z" fill="url(#paint11_radial_167_6387)" fill-opacity="0.8"/>
<path style="mix-blend-mode:color-dodge" d="M352.578 152.069C352.578 145.947 357.541 140.984 363.663 140.984C369.784 140.984 374.747 145.947 374.747 152.069C374.747 158.191 369.784 163.153 363.663 163.153C357.541 163.153 352.578 158.191 352.578 152.069Z" fill="url(#paint12_radial_167_6387)" fill-opacity="0.8"/>
<path opacity="0.66" d="M144.73 164.887L144.067 165.266C141.626 166.659 141.916 169.121 144.723 170.758L272.353 245.331C275.16 246.968 279.414 247.171 281.856 245.777L282.519 245.399C284.961 244.005 284.67 241.543 281.863 239.906L154.234 165.327C151.427 163.69 147.172 163.487 144.73 164.88V164.887Z" fill="url(#paint13_linear_167_6387)"/>
<path opacity="0.66" d="M136.254 139.985L135.591 140.364C133.149 141.757 133.44 144.219 136.247 145.856L197.894 181.874C200.701 183.511 204.955 183.714 207.397 182.32L208.06 181.942C210.502 180.548 210.211 178.086 207.404 176.449L145.757 140.431C142.95 138.794 138.695 138.591 136.254 139.985Z" fill="url(#paint14_linear_167_6387)"/>
<path opacity="0.66" d="M189.516 149.436L188.854 149.815C186.412 151.208 186.703 153.67 189.51 155.307L269.385 201.978C272.192 203.615 276.447 203.818 278.889 202.425L279.552 202.046C281.993 200.653 281.703 198.191 278.896 196.554L199.02 149.882C196.213 148.245 191.958 148.043 189.516 149.436Z" fill="url(#paint15_linear_167_6387)"/>
<path opacity="0.66" d="M83.4168 64.622L82.7539 65.0007C80.3121 66.3941 80.603 68.8562 83.41 70.4931L248.241 166.805C251.048 168.442 255.303 168.645 257.745 167.252L258.408 166.873C260.849 165.48 260.558 163.017 257.751 161.381L92.9202 65.0684C90.1131 63.4315 85.8586 63.2286 83.4168 64.622Z" fill="url(#paint16_linear_167_6387)"/>
<path opacity="0.66" d="M181.47 70.4037L180.807 70.7825C178.365 72.1759 178.656 74.6379 181.463 76.2748L346.294 172.587C349.101 174.224 353.356 174.427 355.797 173.033L356.46 172.655C358.902 171.261 358.611 168.799 355.804 167.162L190.98 70.8501C188.173 69.2132 183.918 69.0103 181.476 70.4037H181.47Z" fill="url(#paint17_linear_167_6387)"/>
<path opacity="0.66" d="M150.75 29.6249L150.087 30.0037C147.645 31.397 147.936 33.8591 150.743 35.496L315.574 131.808C318.381 133.445 322.636 133.648 325.078 132.255L325.741 131.876C328.182 130.482 327.891 128.02 325.084 126.384L160.253 30.0713C157.446 28.4344 153.192 28.2315 150.75 29.6249Z" fill="url(#paint18_linear_167_6387)"/>
<path opacity="0.66" d="M169.491 97.7967L168.828 98.1755C166.386 99.5688 166.677 102.031 169.484 103.668L308.051 184.633C310.858 186.269 315.113 186.472 317.554 185.079L318.217 184.7C320.659 183.307 320.368 180.845 317.561 179.208L179.001 98.2363C176.194 96.5995 171.94 96.3965 169.498 97.7899L169.491 97.7967Z" fill="url(#paint19_linear_167_6387)"/>
<path opacity="0.66" d="M172.285 79.0092L171.622 79.3879C169.18 80.7813 169.471 83.2434 172.278 84.8803L224.205 115.223C227.012 116.86 231.267 117.063 233.709 115.67L234.371 115.291C236.813 113.898 236.522 111.436 233.715 109.799L181.788 79.4556C178.981 77.8187 174.727 77.6158 172.285 79.0092Z" fill="url(#paint20_linear_167_6387)"/>
<g style="mix-blend-mode:multiply" opacity="0.5" filter="url(#filter1_f_167_6387)">
<path d="M206.53 202.759L117.712 107.502L168.354 91.769L223.446 156.757L243.982 203.104L206.53 202.759Z" fill="#1F2341"/>
</g>
<path d="M316.908 167.028L316.413 174.387C316.411 174.483 316.354 174.577 316.221 174.638L233.224 215.468C232.955 215.604 232.496 215.55 232.21 215.359L219.643 206.945C219.5 206.849 219.431 206.745 219.424 206.637C219.422 206.63 219.421 206.623 219.42 206.617L219.92 199.181L226.018 203.201L302.599 165.523C302.868 165.387 303.327 165.441 303.613 165.633L307.923 168.524L316.901 167.029L316.908 167.028Z" fill="url(#paint21_linear_167_6387)"/>
<path d="M303.107 158.127L220.11 198.957C219.84 199.093 219.85 199.353 220.144 199.55L232.711 207.964C232.997 208.156 233.456 208.21 233.725 208.074L316.723 167.244C316.992 167.108 316.982 166.848 316.688 166.651L304.121 158.237C303.835 158.045 303.376 157.991 303.107 158.127Z" fill="url(#paint22_linear_167_6387)"/>
<path opacity="0.6" d="M299.505 169.018L234.331 200.438C234.024 197.913 233.46 195.342 232.658 192.785L297.759 160.758C298.622 163.511 299.221 166.295 299.503 169.011L299.505 169.018Z" fill="#242993"/>
<path d="M305.61 162.555L227.351 201.054C227.169 201.145 227.177 201.323 227.375 201.456L230.531 203.569C230.73 203.702 231.04 203.737 231.222 203.646L309.481 165.147C309.663 165.055 309.656 164.878 309.457 164.745L306.301 162.632C306.102 162.499 305.792 162.464 305.61 162.555Z" fill="#161A29"/>
<path d="M309.481 165.147L307.892 165.93L306.191 164.791C305.992 164.658 305.682 164.623 305.5 164.714L228.83 202.43L227.375 201.456C227.177 201.323 227.168 201.139 227.351 201.054L305.61 162.555C305.792 162.464 306.109 162.497 306.301 162.632L309.457 164.745C309.656 164.878 309.664 165.062 309.481 165.147Z" fill="#1E2338"/>
<path opacity="0.96" d="M120.058 75.803L185.166 43.7681C184.42 55.0169 191.404 69.2246 200.775 75.4991L284.124 131.305C295.141 138.681 303.355 155.376 302.47 168.603L237.362 200.631C238.24 187.405 230.026 170.71 219.016 163.333L135.675 107.533C126.303 101.258 119.313 87.0518 120.065 75.8016L120.058 75.803Z" fill="#ABB9DF"/>
<path opacity="0.8" d="M302.471 168.603L237.362 200.632C237.399 200.052 237.414 199.463 237.42 198.869L302.522 166.842C302.516 167.436 302.5 168.018 302.463 168.598L302.471 168.603Z" fill="#3A4159"/>
<g opacity="0.5">
<path d="M213.243 135.771L198.496 143.027L199.815 143.911L214.562 136.655L213.243 135.771Z" fill="#1E2338"/>
<path d="M220.809 132.053L215.499 134.663L216.818 135.546L222.128 132.937L220.809 132.053Z" fill="#1E2338"/>
<path d="M226.665 129.17L223.059 130.946L224.378 131.83L227.985 130.054L226.665 129.17Z" fill="#1E2338"/>
<path d="M203.521 137.061L195.485 141.017L196.803 141.893L204.84 137.944L203.521 137.061Z" fill="#1E2338"/>
<path d="M215.623 131.108L205.777 135.952L207.097 136.836L216.942 131.991L215.623 131.108Z" fill="#1E2338"/>
<path d="M221.485 128.224L217.879 129.999L219.192 130.884L222.805 129.107L221.485 128.224Z" fill="#1E2338"/>
<path d="M227.058 125.48L223.451 127.255L224.771 128.139L228.377 126.363L227.058 125.48Z" fill="#1E2338"/>
<path d="M198.291 136.138L192.479 138.998L193.798 139.882L199.61 137.021L198.291 136.138Z" fill="#1E2338"/>
<path d="M202.532 134.05L200.547 135.029L201.86 135.914L203.852 134.934L202.532 134.05Z" fill="#1E2338"/>
<path d="M208.394 131.166L204.781 132.943L206.101 133.827L209.707 132.051L208.394 131.166Z" fill="#1E2338"/>
<path d="M210.924 126.425L189.466 136.981L190.786 137.865L212.243 127.309L210.924 126.425Z" fill="#1E2338"/>
<path d="M218.491 122.707L213.181 125.316L214.493 126.201L219.802 123.585L218.491 122.707Z" fill="#1E2338"/>
<path d="M192.272 132.103L186.454 134.964L187.773 135.848L193.585 132.987L192.272 132.103Z" fill="#1E2338"/>
<path d="M205.914 125.396L194.522 130.995L195.841 131.879L207.233 126.273L205.914 125.396Z" fill="#1E2338"/>
<path d="M211.777 122.512L208.164 124.289L209.482 125.166L213.09 123.397L211.777 122.512Z" fill="#1E2338"/>
<path d="M195.343 127.096L183.449 132.953L184.761 133.831L196.656 127.981L195.343 127.096Z" fill="#1E2338"/>
<path d="M206.195 121.762L197.592 125.989L198.911 126.872L207.513 122.639L206.195 121.762Z" fill="#1E2338"/>
<path d="M214.263 117.793L208.449 120.647L209.769 121.531L215.581 118.67L214.263 117.793Z" fill="#1E2338"/>
<path d="M184.453 128.962L180.437 130.935L181.757 131.819L185.771 129.838L184.453 128.962Z" fill="#1E2338"/>
<path d="M192.017 125.237L186.708 127.853L188.026 128.73L193.336 126.121L192.017 125.237Z" fill="#1E2338"/>
<path d="M202.824 119.92L194.266 124.13L195.586 125.014L204.144 120.803L202.824 119.92Z" fill="#1E2338"/>
<path d="M189.734 122.862L177.425 128.919L178.744 129.802L191.047 123.747L189.734 122.862Z" fill="#1E2338"/>
<path d="M203.514 116.087L191.983 121.755L193.302 122.638L204.832 116.964L203.514 116.087Z" fill="#1E2338"/>
<path d="M209.376 113.203L205.77 114.979L207.088 115.856L210.694 114.08L209.376 113.203Z" fill="#1E2338"/>
<path d="M214.999 110.435L211.393 112.211L212.711 113.088L216.319 111.319L214.999 110.435Z" fill="#1E2338"/>
<path d="M181.79 123.276L174.412 126.902L175.732 127.785L183.109 124.16L181.79 123.276Z" fill="#1E2338"/>
<path d="M243.159 121.058L253.381 116.029L254.701 116.912L244.471 121.943L243.159 121.058Z" fill="#1E2338"/>
<path d="M242.333 117.967L250.369 114.012L251.689 114.895L243.653 118.851L242.333 117.967Z" fill="#1E2338"/>
<path d="M241.545 114.855L247.357 111.995L248.677 112.878L242.865 115.738L241.545 114.855Z" fill="#1E2338"/>
<path d="M235.894 114.139L244.352 109.983L245.67 110.86L237.213 115.023L235.894 114.139Z" fill="#1E2338"/>
<path d="M235.528 110.826L241.34 107.966L242.659 108.849L236.847 111.71L235.528 110.826Z" fill="#1E2338"/>
<path d="M230.958 109.579L238.327 105.949L239.647 106.832L232.276 110.456L230.958 109.579Z" fill="#1E2338"/>
<path d="M231.301 105.912L235.322 103.93L236.635 104.815L232.621 106.796L231.301 105.912Z" fill="#1E2338"/>
<path d="M224.525 105.75L232.31 101.92L233.629 102.804L225.844 106.634L224.525 105.75Z" fill="#1E2338"/>
<path d="M221.927 103.527L229.298 99.9028L230.617 100.786L223.24 104.412L221.927 103.527Z" fill="#1E2338"/>
<path d="M187.173 120.624L184.038 122.169L185.358 123.052L188.493 121.508L187.173 120.624Z" fill="#1E2338"/>
<path d="M196.486 116.044L189.429 119.516L190.749 120.4L197.805 116.928L196.486 116.044Z" fill="#1E2338"/>
<path d="M188.87 101.568L176.963 107.428L178.283 108.311L190.189 102.452L188.87 101.568Z" fill="#1E2338"/>
<path d="M197.032 97.5536L192.338 99.8617L193.657 100.745L198.351 98.437L197.032 97.5536Z" fill="#1E2338"/>
</g>
</g>
<defs>
<filter id="filter0_bii_167_6387" x="-40" y="-40" width="512" height="508" filterUnits="userSpaceOnUse" color-interpolation-filters="sRGB">
<feFlood flood-opacity="0" result="BackgroundImageFix"/>
<feGaussianBlur in="BackgroundImageFix" stdDeviation="20"/>
<feComposite in2="SourceAlpha" operator="in" result="effect1_backgroundBlur_167_6387"/>
<feBlend mode="normal" in="SourceGraphic" in2="effect1_backgroundBlur_167_6387" result="shape"/>
<feColorMatrix in="SourceAlpha" type="matrix" values="0 0 0 0 0 0 0 0 0 0 0 0 0 0 0 0 0 0 127 0" result="hardAlpha"/>
<feOffset/>
<feGaussianBlur stdDeviation="2"/>
<feComposite in2="hardAlpha" operator="arithmetic" k2="-1" k3="1"/>
<feColorMatrix type="matrix" values="0 0 0 0 1 0 0 0 0 1 0 0 0 0 1 0 0 0 0.05 0"/>
<feBlend mode="normal" in2="shape" result="effect2_innerShadow_167_6387"/>
<feColorMatrix in="SourceAlpha" type="matrix" values="0 0 0 0 0 0 0 0 0 0 0 0 0 0 0 0 0 0 127 0" result="hardAlpha"/>
<feOffset/>
<feGaussianBlur stdDeviation="10"/>
<feComposite in2="hardAlpha" operator="arithmetic" k2="-1" k3="1"/>
<feColorMatrix type="matrix" values="0 0 0 0 1 0 0 0 0 1 0 0 0 0 1 0 0 0 0.05 0"/>
<feBlend mode="normal" in2="effect2_innerShadow_167_6387" result="effect3_innerShadow_167_6387"/>
</filter>
<filter id="filter1_f_167_6387" x="106.712" y="80.769" width="148.27" height="133.335" filterUnits="userSpaceOnUse" color-interpolation-filters="sRGB">
<feFlood flood-opacity="0" result="BackgroundImageFix"/>
<feBlend mode="normal" in="SourceGraphic" in2="BackgroundImageFix" result="shape"/>
<feGaussianBlur stdDeviation="5.5" result="effect1_foregroundBlur_167_6387"/>
</filter>
<linearGradient id="paint0_linear_167_6387" x1="0" y1="0" x2="254.548" y2="147.456" gradientUnits="userSpaceOnUse">
<stop stop-color="white" stop-opacity="0.24"/>
<stop offset="1" stop-color="white" stop-opacity="0"/>
</linearGradient>
<radialGradient id="paint1_radial_167_6387" cx="0" cy="0" r="1" gradientUnits="userSpaceOnUse" gradientTransform="translate(377.914 67.5488) rotate(-138.412) scale(10.1182 10.2052)">
<stop stop-color="white"/>
<stop offset="0.15" stop-color="#575757" stop-opacity="0.77"/>
<stop offset="0.32" stop-color="#05041A" stop-opacity="0.54"/>
<stop offset="0.48" stop-color="#05041A" stop-opacity="0.35"/>
<stop offset="0.64" stop-color="#05041A" stop-opacity="0.2"/>
<stop offset="0.78" stop-color="#05041A" stop-opacity="0.09"/>
<stop offset="0.9" stop-color="#05041A" stop-opacity="0.02"/>
<stop offset="1" stop-color="#05041A" stop-opacity="0"/>
</radialGradient>
<radialGradient id="paint2_radial_167_6387" cx="0" cy="0" r="1" gradientUnits="userSpaceOnUse" gradientTransform="translate(124.552 49.9331) rotate(-138.412) scale(10.1182 10.2052)">
<stop stop-color="white"/>
<stop offset="0.15" stop-color="#575757" stop-opacity="0.77"/>
<stop offset="0.32" stop-color="#05041A" stop-opacity="0.54"/>
<stop offset="0.48" stop-color="#05041A" stop-opacity="0.35"/>
<stop offset="0.64" stop-color="#05041A" stop-opacity="0.2"/>
<stop offset="0.78" stop-color="#05041A" stop-opacity="0.09"/>
<stop offset="0.9" stop-color="#05041A" stop-opacity="0.02"/>
<stop offset="1" stop-color="#05041A" stop-opacity="0"/>
</radialGradient>
<radialGradient id="paint3_radial_167_6387" cx="0" cy="0" r="1" gradientUnits="userSpaceOnUse" gradientTransform="translate(30.3337 69.7268) rotate(-138.412) scale(7.08273 7.14362)">
<stop stop-color="white"/>
<stop offset="0.15" stop-color="#575757" stop-opacity="0.77"/>
<stop offset="0.32" stop-color="#05041A" stop-opacity="0.54"/>
<stop offset="0.48" stop-color="#05041A" stop-opacity="0.35"/>
<stop offset="0.64" stop-color="#05041A" stop-opacity="0.2"/>
<stop offset="0.78" stop-color="#05041A" stop-opacity="0.09"/>
<stop offset="0.9" stop-color="#05041A" stop-opacity="0.02"/>
<stop offset="1" stop-color="#05041A" stop-opacity="0"/>
</radialGradient>
<radialGradient id="paint4_radial_167_6387" cx="0" cy="0" r="1" gradientUnits="userSpaceOnUse" gradientTransform="translate(41.4187 94.2707) rotate(-138.412) scale(7.08273 7.14362)">
<stop stop-color="white"/>
<stop offset="0.15" stop-color="#575757" stop-opacity="0.77"/>
<stop offset="0.32" stop-color="#05041A" stop-opacity="0.54"/>
<stop offset="0.48" stop-color="#05041A" stop-opacity="0.35"/>
<stop offset="0.64" stop-color="#05041A" stop-opacity="0.2"/>
<stop offset="0.78" stop-color="#05041A" stop-opacity="0.09"/>
<stop offset="0.9" stop-color="#05041A" stop-opacity="0.02"/>
<stop offset="1" stop-color="#05041A" stop-opacity="0"/>
</radialGradient>
<radialGradient id="paint5_radial_167_6387" cx="0" cy="0" r="1" gradientUnits="userSpaceOnUse" gradientTransform="translate(54.8786 64.1843) rotate(-138.412) scale(7.08273 7.14362)">
<stop stop-color="white"/>
<stop offset="0.15" stop-color="#575757" stop-opacity="0.77"/>
<stop offset="0.32" stop-color="#05041A" stop-opacity="0.54"/>
<stop offset="0.48" stop-color="#05041A" stop-opacity="0.35"/>
<stop offset="0.64" stop-color="#05041A" stop-opacity="0.2"/>
<stop offset="0.78" stop-color="#05041A" stop-opacity="0.09"/>
<stop offset="0.9" stop-color="#05041A" stop-opacity="0.02"/>
<stop offset="1" stop-color="#05041A" stop-opacity="0"/>
</radialGradient>
<radialGradient id="paint6_radial_167_6387" cx="0" cy="0" r="1" gradientUnits="userSpaceOnUse" gradientTransform="translate(81.7986 133.784) rotate(-138.412) scale(7.08273 7.14362)">
<stop stop-color="white"/>
<stop offset="0.15" stop-color="#575757" stop-opacity="0.77"/>
<stop offset="0.32" stop-color="#05041A" stop-opacity="0.54"/>
<stop offset="0.48" stop-color="#05041A" stop-opacity="0.35"/>
<stop offset="0.64" stop-color="#05041A" stop-opacity="0.2"/>
<stop offset="0.78" stop-color="#05041A" stop-opacity="0.09"/>
<stop offset="0.9" stop-color="#05041A" stop-opacity="0.02"/>
<stop offset="1" stop-color="#05041A" stop-opacity="0"/>
</radialGradient>
<radialGradient id="paint7_radial_167_6387" cx="0" cy="0" r="1" gradientUnits="userSpaceOnUse" gradientTransform="translate(385.831 90.3119) rotate(-138.412) scale(28.3309 28.5745)">
<stop stop-color="white"/>
<stop offset="0.15" stop-color="#575757" stop-opacity="0.77"/>
<stop offset="0.32" stop-color="#05041A" stop-opacity="0.54"/>
<stop offset="0.48" stop-color="#05041A" stop-opacity="0.35"/>
<stop offset="0.64" stop-color="#05041A" stop-opacity="0.2"/>
<stop offset="0.78" stop-color="#05041A" stop-opacity="0.09"/>
<stop offset="0.9" stop-color="#05041A" stop-opacity="0.02"/>
<stop offset="1" stop-color="#05041A" stop-opacity="0"/>
</radialGradient>
<radialGradient id="paint8_radial_167_6387" cx="0" cy="0" r="1" gradientUnits="userSpaceOnUse" gradientTransform="translate(273.402 114.065) rotate(-138.412) scale(28.3309 28.5745)">
<stop stop-color="white"/>
<stop offset="0.15" stop-color="#575757" stop-opacity="0.77"/>
<stop offset="0.32" stop-color="#05041A" stop-opacity="0.54"/>
<stop offset="0.48" stop-color="#05041A" stop-opacity="0.35"/>
<stop offset="0.64" stop-color="#05041A" stop-opacity="0.2"/>
<stop offset="0.78" stop-color="#05041A" stop-opacity="0.09"/>
<stop offset="0.9" stop-color="#05041A" stop-opacity="0.02"/>
<stop offset="1" stop-color="#05041A" stop-opacity="0"/>
</radialGradient>
<radialGradient id="paint9_radial_167_6387" cx="0" cy="0" r="1" gradientUnits="userSpaceOnUse" gradientTransform="translate(158.612 86.3534) rotate(-138.412) scale(28.3309 28.5745)">
<stop stop-color="white"/>
<stop offset="0.15" stop-color="#575757" stop-opacity="0.77"/>
<stop offset="0.32" stop-color="#05041A" stop-opacity="0.54"/>
<stop offset="0.48" stop-color="#05041A" stop-opacity="0.35"/>
<stop offset="0.64" stop-color="#05041A" stop-opacity="0.2"/>
<stop offset="0.78" stop-color="#05041A" stop-opacity="0.09"/>
<stop offset="0.9" stop-color="#05041A" stop-opacity="0.02"/>
<stop offset="1" stop-color="#05041A" stop-opacity="0"/>
</radialGradient>
<radialGradient id="paint10_radial_167_6387" cx="0" cy="0" r="1" gradientUnits="userSpaceOnUse" gradientTransform="translate(98.4247 114.065) rotate(-138.412) scale(28.3309 28.5745)">
<stop stop-color="white"/>
<stop offset="0.15" stop-color="#575757" stop-opacity="0.77"/>
<stop offset="0.32" stop-color="#05041A" stop-opacity="0.54"/>
<stop offset="0.48" stop-color="#05041A" stop-opacity="0.35"/>
<stop offset="0.64" stop-color="#05041A" stop-opacity="0.2"/>
<stop offset="0.78" stop-color="#05041A" stop-opacity="0.09"/>
<stop offset="0.9" stop-color="#05041A" stop-opacity="0.02"/>
<stop offset="1" stop-color="#05041A" stop-opacity="0"/>
</radialGradient>
<radialGradient id="paint11_radial_167_6387" cx="0" cy="0" r="1" gradientUnits="userSpaceOnUse" gradientTransform="translate(357.328 76.0605) rotate(-138.412) scale(20.2364 20.4103)">
<stop stop-color="white"/>
<stop offset="0.15" stop-color="#575757" stop-opacity="0.77"/>
<stop offset="0.32" stop-color="#05041A" stop-opacity="0.54"/>
<stop offset="0.48" stop-color="#05041A" stop-opacity="0.35"/>
<stop offset="0.64" stop-color="#05041A" stop-opacity="0.2"/>
<stop offset="0.78" stop-color="#05041A" stop-opacity="0.09"/>
<stop offset="0.9" stop-color="#05041A" stop-opacity="0.02"/>
<stop offset="1" stop-color="#05041A" stop-opacity="0"/>
</radialGradient>
<radialGradient id="paint12_radial_167_6387" cx="0" cy="0" r="1" gradientUnits="userSpaceOnUse" gradientTransform="translate(363.663 152.069) rotate(-138.412) scale(14.1655 14.2872)">
<stop stop-color="white"/>
<stop offset="0.15" stop-color="#575757" stop-opacity="0.77"/>
<stop offset="0.32" stop-color="#05041A" stop-opacity="0.54"/>
<stop offset="0.48" stop-color="#05041A" stop-opacity="0.35"/>
<stop offset="0.64" stop-color="#05041A" stop-opacity="0.2"/>
<stop offset="0.78" stop-color="#05041A" stop-opacity="0.09"/>
<stop offset="0.9" stop-color="#05041A" stop-opacity="0.02"/>
<stop offset="1" stop-color="#05041A" stop-opacity="0"/>
</radialGradient>
<linearGradient id="paint13_linear_167_6387" x1="142.411" y1="163.954" x2="291.801" y2="181.4" gradientUnits="userSpaceOnUse">
<stop stop-color="#B721FF"/>
<stop offset="1" stop-color="#21FDF6"/>
</linearGradient>
<linearGradient id="paint14_linear_167_6387" x1="133.935" y1="139.059" x2="213.791" y2="148.394" gradientUnits="userSpaceOnUse">
<stop stop-color="#B721FF"/>
<stop offset="1" stop-color="#21FDF6"/>
</linearGradient>
<linearGradient id="paint15_linear_167_6387" x1="187.197" y1="148.51" x2="286.263" y2="160.086" gradientUnits="userSpaceOnUse">
<stop stop-color="#B721FF"/>
<stop offset="1" stop-color="#21FDF6"/>
</linearGradient>
<linearGradient id="paint16_linear_167_6387" x1="81.0977" y1="63.6958" x2="269.692" y2="85.7158" gradientUnits="userSpaceOnUse">
<stop stop-color="#B721FF"/>
<stop offset="1" stop-color="#21FDF6"/>
</linearGradient>
<linearGradient id="paint17_linear_167_6387" x1="179.15" y1="69.4775" x2="367.745" y2="91.4975" gradientUnits="userSpaceOnUse">
<stop stop-color="#B721FF"/>
<stop offset="1" stop-color="#21FDF6"/>
</linearGradient>
<linearGradient id="paint18_linear_167_6387" x1="148.431" y1="28.6987" x2="337.025" y2="50.7187" gradientUnits="userSpaceOnUse">
<stop stop-color="#B721FF"/>
<stop offset="1" stop-color="#21FDF6"/>
</linearGradient>
<linearGradient id="paint19_linear_167_6387" x1="-286.239" y1="529.528" x2="-360.155" y2="399.94" gradientUnits="userSpaceOnUse">
<stop stop-color="#567CFF"/>
<stop offset="0.13" stop-color="#4FAAFF"/>
<stop offset="0.24" stop-color="#49CFFF"/>
<stop offset="0.34" stop-color="#45E9FF"/>
<stop offset="0.43" stop-color="#42F9FF"/>
<stop offset="0.51" stop-color="#42FFFF"/>
<stop offset="0.57" stop-color="#43F7FF"/>
<stop offset="0.67" stop-color="#46E2FF"/>
<stop offset="0.8" stop-color="#4BC0FF"/>
<stop offset="0.93" stop-color="#5391FF"/>
<stop offset="1" stop-color="#5778FF"/>
</linearGradient>
<linearGradient id="paint20_linear_167_6387" x1="-332.006" y1="438.39" x2="-362.861" y2="384.296" gradientUnits="userSpaceOnUse">
<stop stop-color="#567CFF"/>
<stop offset="0.13" stop-color="#4FAAFF"/>
<stop offset="0.24" stop-color="#49CFFF"/>
<stop offset="0.34" stop-color="#45E9FF"/>
<stop offset="0.43" stop-color="#42F9FF"/>
<stop offset="0.51" stop-color="#42FFFF"/>
<stop offset="0.57" stop-color="#43F7FF"/>
<stop offset="0.67" stop-color="#46E2FF"/>
<stop offset="0.8" stop-color="#4BC0FF"/>
<stop offset="0.93" stop-color="#5391FF"/>
<stop offset="1" stop-color="#5778FF"/>
</linearGradient>
<linearGradient id="paint21_linear_167_6387" x1="432.468" y1="157.927" x2="237.678" y2="196.482" gradientUnits="userSpaceOnUse">
<stop stop-color="#59668C"/>
<stop offset="1" stop-color="#99B0F2"/>
</linearGradient>
<linearGradient id="paint22_linear_167_6387" x1="246.018" y1="142.867" x2="276.15" y2="196.985" gradientUnits="userSpaceOnUse">
<stop stop-color="#C0D6FF"/>
<stop offset="0.3" stop-color="#C4DAFF"/>
<stop offset="0.65" stop-color="#D3E9FF"/>
<stop offset="1" stop-color="#E9FFFF"/>
</linearGradient>
</defs>
</svg>
