<svg width="328" height="410" viewBox="0 0 328 410" fill="none" xmlns="http://www.w3.org/2000/svg">
<g filter="url(#filter0_f_399_4186)">
<circle cx="380.825" cy="239.649" r="139.818" fill="url(#paint0_radial_399_4186)"/>
</g>
<g filter="url(#filter1_f_399_4186)">
<circle cx="107.946" cy="507.849" r="151.555" fill="url(#paint1_radial_399_4186)"/>
</g>
<path style="mix-blend-mode:color-dodge" d="M296.154 235.121C296.154 229.399 300.803 224.76 306.538 224.76C312.273 224.76 316.923 229.399 316.923 235.121C316.923 240.843 312.273 245.482 306.538 245.482C300.803 245.482 296.154 240.843 296.154 235.121Z" fill="url(#paint2_radial_399_4186)" fill-opacity="0.8"/>
<path style="mix-blend-mode:color-dodge" d="M287.846 264.91C287.846 248.887 300.864 235.898 316.923 235.898C332.982 235.898 346 248.887 346 264.91C346 280.933 332.982 293.922 316.923 293.922C300.864 293.922 287.846 280.933 287.846 264.91Z" fill="url(#paint3_radial_399_4186)" fill-opacity="0.8"/>
<path style="mix-blend-mode:color-dodge" d="M140.384 295.995C140.384 279.972 153.403 266.983 169.461 266.983C185.52 266.983 198.538 279.972 198.538 295.995C198.538 312.018 185.52 325.007 169.461 325.007C153.403 325.007 140.384 312.018 140.384 295.995Z" fill="url(#paint4_radial_399_4186)" fill-opacity="0.8"/>
<path style="mix-blend-mode:color-dodge" d="M9.82613 259.729C9.82613 243.707 22.8443 230.718 38.9031 230.718C54.9619 230.718 67.9801 243.707 67.9801 259.729C67.9801 275.752 54.9619 288.741 38.9031 288.741C22.8443 288.741 9.82613 275.752 9.82613 259.729Z" fill="url(#paint5_radial_399_4186)" fill-opacity="0.8"/>
<path style="mix-blend-mode:color-dodge" d="M258.769 246.26C258.769 234.815 268.068 225.537 279.538 225.537C291.009 225.537 300.308 234.815 300.308 246.26C300.308 257.705 291.009 266.983 279.538 266.983C268.068 266.983 258.769 257.705 258.769 246.26Z" fill="url(#paint6_radial_399_4186)" fill-opacity="0.8"/>
<path style="mix-blend-mode:color-dodge" d="M273.308 345.729C273.308 337.718 279.817 331.223 287.847 331.223C295.876 331.223 302.385 337.718 302.385 345.729C302.385 353.741 295.876 360.235 287.847 360.235C279.817 360.235 273.308 353.741 273.308 345.729Z" fill="url(#paint7_radial_399_4186)" fill-opacity="0.8"/>
<ellipse cx="248.284" cy="347.524" rx="16.6326" ry="9.61572" fill="url(#paint8_radial_399_4186)"/>
<ellipse cx="202.544" cy="370.891" rx="16.6326" ry="9.61572" fill="url(#paint9_radial_399_4186)"/>
<ellipse cx="135.494" cy="335.569" rx="16.6326" ry="9.61572" fill="url(#paint10_radial_399_4186)"/>
<ellipse cx="47.1331" cy="363.094" rx="16.6326" ry="9.61572" fill="url(#paint11_radial_399_4186)"/>
<path d="M320.012 306.982L247.244 347.783M247.244 347.783L207.376 370.137C204.214 371.911 200.356 371.908 197.196 370.13L141.298 338.688L136.273 335.862M247.244 347.783L277.91 364.936M136.273 335.862L124.097 329.012C120.998 327.269 117.223 327.231 114.089 328.91L58.0482 358.947M136.273 335.862L106.387 353.761M58.0482 358.947L51.9431 362.219C48.7886 363.91 44.986 363.859 41.8779 362.084L-30.5898 320.706C-33.657 318.955 -37.4036 318.881 -40.5377 320.51L-193 399.738M58.0482 358.947L-6.92284 323.355" stroke="url(#paint12_linear_399_4186)" stroke-width="5.19769" stroke-linecap="round"/>
<path fill-rule="evenodd" clip-rule="evenodd" d="M118.135 253.423C118.383 253.566 118.383 253.799 118.135 253.942L86.6254 272.134C86.3768 272.278 85.9737 272.278 85.7251 272.134C85.4765 271.991 85.4765 271.758 85.7251 271.615L117.234 253.423C117.483 253.279 117.886 253.279 118.135 253.423Z" fill="url(#paint13_linear_399_4186)"/>
<circle cx="14.5535" cy="14.5535" r="14.5535" transform="matrix(0.866025 0.5 -0.866025 0.5 117.685 239.129)" fill="url(#paint14_radial_399_4186)"/>
<circle cx="1.55931" cy="1.55931" r="1.55931" transform="matrix(0.866025 0.5 -0.866025 0.5 117.685 252.123)" fill="#21FDF6"/>
<path fill-rule="evenodd" clip-rule="evenodd" d="M83.4472 307.998C83.6958 308.142 83.6958 308.374 83.4472 308.518L51.9379 326.71C51.6893 326.853 51.2862 326.853 51.0376 326.71C50.789 326.566 50.789 326.334 51.0376 326.19L82.5469 307.998C82.7955 307.855 83.1986 307.855 83.4472 307.998Z" fill="url(#paint15_linear_399_4186)"/>
<circle cx="14.5535" cy="14.5535" r="14.5535" transform="matrix(0.866025 0.5 -0.866025 0.5 51.0376 312.156)" fill="url(#paint16_radial_399_4186)"/>
<circle cx="1.55931" cy="1.55931" r="1.55931" transform="matrix(0.866025 0.5 -0.866025 0.5 51.0376 325.151)" fill="#21FDF6"/>
<path fill-rule="evenodd" clip-rule="evenodd" d="M292.777 274.733C293.026 274.877 293.026 275.11 292.777 275.253L261.268 293.445C261.019 293.588 260.616 293.588 260.368 293.445C260.119 293.301 260.119 293.069 260.368 292.925L291.877 274.733C292.125 274.59 292.529 274.59 292.777 274.733Z" fill="url(#paint17_linear_399_4186)"/>
<circle cx="14.5535" cy="14.5535" r="14.5535" transform="matrix(0.866025 0.5 -0.866025 0.5 292.327 260.44)" fill="url(#paint18_radial_399_4186)"/>
<circle cx="1.55931" cy="1.55931" r="1.55931" transform="matrix(0.866025 0.5 -0.866025 0.5 292.327 273.434)" fill="#21FDF6"/>
<path fill-rule="evenodd" clip-rule="evenodd" d="M262.248 198.327C262.496 198.471 262.496 198.704 262.248 198.847L230.738 217.039C230.49 217.182 230.087 217.182 229.838 217.039C229.589 216.895 229.589 216.663 229.838 216.519L261.347 198.327C261.596 198.184 261.999 198.184 262.248 198.327Z" fill="url(#paint19_linear_399_4186)"/>
<circle cx="14.5535" cy="14.5535" r="14.5535" transform="matrix(0.866025 0.5 -0.866025 0.5 229.838 202.486)" fill="url(#paint20_radial_399_4186)"/>
<circle cx="1.55931" cy="1.55931" r="1.55931" transform="matrix(0.866025 0.5 -0.866025 0.5 229.838 215.48)" fill="#21FDF6"/>
<g opacity="0.67">
<path d="M203.431 356.298C202.994 356.551 202.455 356.548 202.02 356.291L113.172 303.78C112.251 303.236 112.258 301.9 113.185 301.365L200.152 251.164C200.589 250.911 201.128 250.914 201.562 251.171L290.403 303.682C291.324 304.227 291.318 305.562 290.391 306.097L203.431 356.298Z" fill="#1E2140"/>
</g>
<path d="M163.629 256.552C162.471 255.886 162.471 254.801 163.629 254.127C164.787 253.46 166.671 253.46 167.829 254.127C168.987 254.794 168.987 255.878 167.829 256.552C166.671 257.219 164.787 257.219 163.629 256.552Z" fill="white"/>
<path d="M163.629 262.312C162.471 261.646 162.471 260.561 163.629 259.887C164.787 259.22 166.671 259.22 167.829 259.887C168.987 260.554 168.987 261.638 167.829 262.312C166.671 262.979 164.787 262.979 163.629 262.312Z" fill="white"/>
<path d="M163.629 268.183C162.471 267.516 162.471 266.432 163.629 265.757C164.787 265.09 166.671 265.09 167.829 265.757C168.987 266.424 168.987 267.509 167.829 268.183C166.671 268.85 164.787 268.85 163.629 268.183Z" fill="white"/>
<path d="M168.701 255.336V252.339C168.701 252.778 168.408 253.218 167.829 253.548C166.671 254.215 164.787 254.215 163.629 253.548C163.065 253.225 162.779 252.8 162.765 252.375V239.689H168.701V277.058C168.701 278.7 167.374 280.027 165.733 280.027C164.091 280.027 162.765 278.7 162.765 277.058V266.93C162.75 267.384 163.036 267.839 163.629 268.183C164.787 268.85 166.671 268.85 167.829 268.183C168.408 267.846 168.694 267.414 168.701 266.974V263.969C168.701 264.409 168.408 264.849 167.829 265.179C166.671 265.845 164.787 265.845 163.629 265.179C163.065 264.856 162.779 264.431 162.765 264.006V261.06C162.75 261.514 163.036 261.969 163.629 262.313C164.787 262.98 166.671 262.98 167.829 262.313C168.408 261.976 168.694 261.543 168.701 261.104V258.099C168.701 258.539 168.408 258.978 167.829 259.308C166.671 259.975 164.787 259.975 163.629 259.308C163.065 258.986 162.779 258.561 162.765 258.136V255.292C162.75 255.746 163.036 256.201 163.629 256.545C164.787 257.212 166.671 257.212 167.829 256.545C168.408 256.208 168.694 255.776 168.701 255.336Z" fill="url(#paint21_linear_399_4186)"/>
<path d="M163.629 268.037C164.787 268.704 166.671 268.704 167.829 268.037C168.378 267.721 168.664 267.311 168.693 266.901C168.73 267.362 168.444 267.831 167.829 268.183C166.671 268.85 164.787 268.85 163.629 268.183C163.021 267.831 162.735 267.362 162.764 266.901C162.794 267.311 163.08 267.721 163.629 268.037Z" fill="white"/>
<path opacity="0.48" d="M163.629 253.555C164.787 254.222 166.671 254.222 167.828 253.555C168.407 253.218 168.701 252.785 168.701 252.345V255.343C168.701 255.783 168.407 256.215 167.828 256.552C166.671 257.219 164.787 257.219 163.629 256.552C163.035 256.208 162.742 255.753 162.764 255.299V252.382C162.779 252.807 163.065 253.232 163.629 253.555Z" fill="url(#paint22_linear_399_4186)"/>
<path opacity="0.48" d="M163.629 259.315C164.787 259.982 166.671 259.982 167.828 259.315C168.407 258.978 168.701 258.546 168.701 258.106V261.103C168.701 261.543 168.407 261.976 167.828 262.313C166.671 262.98 164.787 262.98 163.629 262.313C163.035 261.968 162.742 261.514 162.764 261.059V258.143C162.779 258.568 163.065 258.993 163.629 259.315Z" fill="url(#paint23_linear_399_4186)"/>
<path opacity="0.48" d="M163.629 265.186C164.787 265.852 166.671 265.852 167.828 265.186C168.407 264.848 168.701 264.416 168.701 263.976V266.974C168.701 267.413 168.407 267.846 167.828 268.183C166.671 268.85 164.787 268.85 163.629 268.183C163.035 267.839 162.742 267.384 162.764 266.93V264.013C162.779 264.438 163.065 264.863 163.629 265.186Z" fill="url(#paint24_linear_399_4186)"/>
<path d="M176.454 235.079C176.594 235.006 176.726 234.925 176.858 234.837L178.309 226.622L176.491 215.717L171.434 210.205L166.224 205.149L157.927 201.711L157.708 201.623C157.312 201.821 156.945 202.063 156.601 202.334C154.527 202.078 152.453 201.814 150.379 201.558C150.731 200.7 151.141 199.923 151.625 199.242L150.635 198.853L154.351 196.713C154.395 196.684 154.439 196.662 154.483 196.64L154.622 196.559H154.629C157.825 194.837 162.171 195.152 166.964 197.922C176.77 203.58 184.714 217.351 184.714 228.667C184.714 234.28 182.757 238.238 179.591 240.114L179.569 240.129C179.532 240.151 179.496 240.173 179.459 240.195L175.516 242.452L175.722 241.309C175.231 241.345 174.725 241.353 174.205 241.316C175.296 239.388 176.777 237.256 176.462 235.086L176.454 235.079Z" fill="url(#paint25_linear_399_4186)"/>
<path d="M149.228 208.623C149.228 208.469 149.221 208.315 149.221 208.161C149.221 205.596 149.639 203.39 150.386 201.558C152.46 201.814 154.534 202.078 156.608 202.334C154.615 203.91 153.406 206.732 153.406 210.579C153.406 219.227 159.481 229.751 166.971 234.075C170.665 236.208 174.014 236.428 176.454 235.079C176.77 237.241 175.289 239.381 174.197 241.309C172.548 241.206 170.775 240.752 168.906 239.909L169.492 240.568C169.492 240.568 162.112 238.003 161.958 237.842C161.804 237.681 153.208 228.996 153.208 228.996L147.594 216.889L149.221 208.623H149.228Z" fill="url(#paint26_linear_399_4186)"/>
<path opacity="0.5" d="M174.144 236.829C179.44 233.771 179.439 223.853 174.14 214.676C168.842 205.499 160.253 200.539 154.957 203.596C149.66 206.654 149.662 216.573 154.96 225.749C160.258 234.926 168.847 239.887 174.144 236.829Z" fill="url(#paint27_linear_399_4186)"/>
<path d="M145.315 210.418C145.315 221.741 153.259 235.504 163.065 241.162C172.871 246.82 180.815 242.232 180.815 230.916C180.815 219.601 172.871 205.83 163.065 200.172C153.259 194.515 145.315 199.102 145.315 210.418ZM149.499 212.836C149.499 204.189 155.575 200.678 163.065 205.002C170.555 209.326 176.63 219.85 176.63 228.498C176.63 237.146 170.555 240.656 163.065 236.332C155.575 232.008 149.499 221.484 149.499 212.836Z" fill="url(#paint28_linear_399_4186)"/>
<path d="M180.551 231.217C180.551 219.894 172.607 206.131 162.801 200.473C156.77 196.992 151.442 197.395 148.232 200.854C151.405 197.116 156.865 196.589 163.072 200.172C172.878 205.83 180.822 219.601 180.822 230.916C180.822 235.27 179.643 238.619 177.642 240.781C179.481 238.612 180.551 235.372 180.551 231.217Z" fill="#E1E8FC"/>
<path d="M162.794 236.633C155.304 232.309 149.228 221.785 149.228 213.137C149.228 209.788 150.144 207.208 151.698 205.559C150.313 207.215 149.499 209.678 149.499 212.837C149.499 221.484 155.575 232.008 163.065 236.332C167.653 238.985 171.705 238.692 174.16 236.076C171.742 238.963 167.557 239.381 162.794 236.633Z" fill="#E1E8FC"/>
<rect y="0.779653" width="90.3486" height="54.3833" rx="1.29942" transform="matrix(0.866025 0.5 -0.866025 0.5 184.617 267.587)" stroke="white" stroke-opacity="0.08" stroke-width="1.55931"/>
<rect y="0.779653" width="90.3486" height="54.3833" rx="1.29942" transform="matrix(0.866025 0.5 -0.866025 0.5 184.617 267.587)" stroke="url(#paint29_radial_399_4186)" stroke-width="1.55931"/>
<path d="M186.392 248.351L196.77 186.768L195.934 186.416L197.188 185.698C197.429 185.544 197.774 185.551 198.155 185.771L281.116 233.665C281.798 234.06 282.311 235.064 282.194 235.775L271.728 297.85C271.677 298.172 271.516 298.385 271.288 298.48L270.065 299.191L269.852 298.047L269.925 298.069L187.47 250.462C186.788 250.066 186.275 249.062 186.392 248.351Z" fill="#272E4A"/>
<path d="M280.654 235.35L282.018 234.75C282.171 235.101 282.245 235.468 282.193 235.776L271.728 297.85C271.677 298.172 271.516 298.385 271.288 298.48L270.064 299.191L269.852 298.048L269.925 298.07L265.755 295.659L280.654 235.35Z" fill="#272E4A"/>
<path d="M186.165 251.202L269.126 299.095C269.764 299.462 270.313 299.249 270.431 298.59L280.896 236.515C281.013 235.812 280.5 234.8 279.819 234.405L196.858 186.511C196.22 186.145 195.67 186.357 195.553 187.017L185.088 249.091C184.97 249.795 185.483 250.806 186.165 251.202Z" fill="#1E2338"/>
<g opacity="0.51">
<path d="M197.942 190.477L277.906 236.648L267.99 295.109L188.078 248.967L197.942 190.477Z" fill="#3A4159"/>
</g>
<path d="M134.021 280.591L138.55 282.958L183.944 256.751C184.707 256.311 186.033 256.37 186.905 256.875L265.205 302.079C265.953 301.661 269.368 300.019 269.368 300.019L267.712 304.336C267.646 304.527 267.499 304.71 267.25 304.849L219.437 332.456C218.675 332.896 217.349 332.838 216.477 332.332L136.352 286.073C135.992 285.868 135.773 285.611 135.677 285.355L134.028 280.598L134.021 280.591Z" fill="#363F66"/>
<path d="M134.717 281.338L216.836 328.748C217.737 329.268 219.093 329.32 219.87 328.873L268.87 300.584C269.646 300.137 269.551 299.352 268.65 298.832L186.531 251.422C185.63 250.902 184.274 250.851 183.497 251.298L134.497 279.587C133.72 280.034 133.816 280.818 134.717 281.338Z" fill="#272E4A"/>
<path d="M241.607 318.487V317.586C241.607 317.498 241.556 317.461 241.49 317.498L238.316 319.33C238.25 319.367 238.199 319.469 238.199 319.55V320.451C238.199 320.539 238.25 320.576 238.316 320.539L241.49 318.707C241.556 318.671 241.607 318.568 241.607 318.487Z" fill="#1E2338"/>
<path d="M236.85 321.228V320.327C236.85 320.239 236.799 320.202 236.733 320.239L233.56 322.071C233.494 322.108 233.443 322.21 233.443 322.291V323.192C233.443 323.28 233.494 323.317 233.56 323.28L236.733 321.448C236.799 321.412 236.85 321.309 236.85 321.228Z" fill="#1E2338"/>
<path d="M256.096 297.931L187.858 258.531C187.404 258.268 186.839 258.268 186.385 258.531L162.083 272.588C161.731 272.793 161.731 273.291 162.083 273.497L230.291 312.874C230.746 313.138 231.303 313.138 231.757 312.874L256.089 298.832C256.44 298.627 256.44 298.129 256.089 297.923L256.096 297.931Z" fill="#1E2338"/>
<path d="M256.096 298.839L255.854 298.978L187.858 259.726C187.403 259.462 186.839 259.462 186.385 259.726L162.332 273.643L162.09 273.504C161.738 273.306 161.738 272.8 162.09 272.595L186.392 258.538C186.846 258.275 187.411 258.275 187.865 258.538L256.103 297.938C256.455 298.143 256.455 298.641 256.103 298.846L256.096 298.839Z" fill="#161A29"/>
<path d="M184.56 262.093L243.828 296.319L246.466 294.794L187.191 260.569L184.56 262.093Z" fill="#363F66"/>
<path d="M178.096 265.824L233.692 297.924L236.33 296.399L180.734 264.307L178.096 265.824Z" fill="#363F66"/>
<path d="M173.889 268.256L239.35 306.043L241.981 304.526L176.52 266.732L173.889 268.256Z" fill="#363F66"/>
<path d="M169.675 270.683L235.136 308.477L237.774 306.952L172.314 269.166L169.675 270.683Z" fill="#363F66"/>
<path d="M165.469 273.116L230.929 310.91L233.567 309.386L168.107 271.591L165.469 273.116Z" fill="#363F66"/>
<path d="M247.411 298.385L250.05 299.902L252.681 298.385L250.05 296.861L247.411 298.385Z" fill="#363F66"/>
<path d="M238.118 300.481L243.586 303.632L246.224 302.115L240.749 298.956L238.118 300.481Z" fill="#363F66"/>
<path d="M185.234 307.465L166.832 296.846C166.114 296.428 166.114 295.754 166.832 295.343L179.415 288.081C180.134 287.663 181.299 287.663 182.017 288.081L200.419 298.7C201.138 299.118 201.138 299.792 200.419 300.202L187.836 307.465C187.118 307.883 185.953 307.883 185.234 307.465Z" fill="url(#paint30_linear_399_4186)"/>
<path d="M200.419 299.308L182.017 288.689C181.299 288.271 180.133 288.271 179.415 288.689L166.832 295.952C166.612 296.076 166.465 296.23 166.377 296.399C166.187 296.032 166.333 295.629 166.832 295.336L179.415 288.073C180.133 287.656 181.299 287.656 182.017 288.073L200.419 298.693C200.918 298.978 201.064 299.389 200.874 299.755C200.786 299.594 200.647 299.44 200.419 299.308Z" fill="#9198DB"/>
<g opacity="0.11">
<mask id="mask0_399_4186" style="mask-type:luminance" maskUnits="userSpaceOnUse" x="188" y="190" width="90" height="106">
<path d="M197.942 190.477L277.906 236.648L267.991 295.109L188.078 248.967L197.942 190.477Z" fill="white"/>
</mask>
<g mask="url(#mask0_399_4186)">
<path d="M186.458 251.32L268.577 298.729C269.478 299.25 270.834 299.301 271.611 298.854L320.611 270.565C321.388 270.118 321.292 269.334 320.391 268.813L238.272 221.404C237.371 220.884 236.015 220.832 235.238 221.279L186.238 249.568C185.462 250.015 185.557 250.799 186.458 251.32Z" fill="#444D6A"/>
<path d="M292.095 276.421L223.857 237.021C223.402 236.758 222.838 236.758 222.384 237.021L198.082 251.078C197.73 251.283 197.73 251.781 198.082 251.987L266.29 291.364C266.745 291.628 267.302 291.628 267.756 291.364L292.087 277.322C292.439 277.117 292.439 276.619 292.087 276.413L292.095 276.421Z" fill="#ADB1F2"/>
<path d="M292.095 277.33L291.853 277.469L223.857 238.216C223.402 237.952 222.838 237.952 222.384 238.216L198.331 252.133L198.089 251.994C197.737 251.796 197.737 251.291 198.089 251.085L222.391 237.029C222.845 236.765 223.41 236.765 223.864 237.029L292.102 276.428C292.454 276.633 292.454 277.132 292.102 277.337L292.095 277.33Z" fill="#9198DB"/>
<g opacity="0.5">
<path d="M204.443 250.125L263.894 284.445L261.541 285.801L202.09 251.481L204.443 250.125Z" fill="#444D6A"/>
<path d="M210.709 246.505L267.214 279.132L264.861 280.488L208.357 247.868L210.709 246.505Z" fill="#444D6A"/>
<path d="M271.435 281.565L276.712 284.614L274.352 285.97L269.075 282.929L271.435 281.565Z" fill="#444D6A"/>
<path d="M266.774 286.109L270.445 288.227L268.093 289.591L264.414 287.465L266.774 286.109Z" fill="#444D6A"/>
<path d="M214.637 244.24L280.632 282.35L278.28 283.705L212.277 245.603L214.637 244.24Z" fill="#444D6A"/>
<path d="M218.558 241.976L284.561 280.078L282.201 281.441L216.206 243.331L218.558 241.976Z" fill="#444D6A"/>
<path d="M222.486 239.711L288.482 277.813L286.129 279.176L220.126 241.067L222.486 239.711Z" fill="#444D6A"/>
</g>
</g>
</g>
<path opacity="0.42" d="M224.48 294.42L242.171 283.537L202.398 260.569L183.629 273.189L224.48 294.42Z" fill="#232942"/>
<path opacity="0.42" d="M242.171 283.537L246.224 257.937L208.899 236.53V264.277L242.171 283.537Z" fill="#232942"/>
<path d="M204.993 224.093L208.943 221.821C208.994 221.792 209.06 221.792 209.141 221.836L258.617 250.404C258.778 250.499 258.91 250.748 258.91 250.961V260.297C258.91 260.4 258.881 260.473 258.829 260.517C258.829 260.517 258.822 260.517 258.815 260.517L254.828 262.811L254.799 258.297L209.141 231.935C208.979 231.84 208.847 231.591 208.847 231.378V228.175L204.993 224.079V224.093Z" fill="#99B0F2"/>
<path d="M205.168 234.236L254.645 262.804C254.806 262.899 254.938 262.804 254.938 262.584V253.247C254.938 253.035 254.806 252.778 254.645 252.69L205.168 224.123C205.007 224.027 204.875 224.123 204.875 224.343V233.679C204.875 233.892 205.007 234.148 205.168 234.236Z" fill="white"/>
<path opacity="0.6" d="M211.992 232.346L250.519 254.999C249.331 256.025 248.203 257.197 247.169 258.487L208.356 236.083C209.47 234.691 210.694 233.43 211.992 232.353V232.346Z" fill="#868C9D"/>
<path d="M206.583 231.43L253.238 258.363C253.348 258.429 253.436 258.363 253.436 258.209V255.864C253.436 255.717 253.348 255.548 253.238 255.483L206.583 228.549C206.473 228.483 206.385 228.549 206.385 228.703V231.048C206.385 231.195 206.473 231.364 206.583 231.43Z" fill="#161A29"/>
<path d="M206.583 228.549L207.528 229.099V230.367C207.528 230.513 207.616 230.682 207.726 230.748L253.436 257.139V258.216C253.436 258.362 253.348 258.428 253.238 258.37L206.583 231.437C206.473 231.371 206.385 231.202 206.385 231.056V228.71C206.385 228.564 206.473 228.498 206.583 228.556V228.549Z" fill="#272E4A"/>
<path opacity="0.96" d="M180.368 332.493L141.555 310.081C146.561 307.194 150.782 300.862 152.072 294.815C152.592 292.36 154.095 290.235 156.264 288.982L185.593 272.052C193.765 267.34 199.056 258.846 199.613 249.429C200.082 241.477 206.092 233.657 210.76 230.968L249.573 253.379C244.978 256.032 239.921 263.448 239.342 271.261C238.646 280.678 233.531 289.202 225.352 293.921L195.084 311.393C192.915 312.646 191.412 314.779 190.892 317.227C189.602 323.28 185.381 329.605 180.375 332.493H180.368Z" fill="#ABB9DF"/>
<path opacity="0.8" d="M210.76 230.968L249.573 253.379C249.266 253.562 248.958 253.753 248.65 253.958L209.844 231.547C210.152 231.349 210.453 231.151 210.768 230.975L210.76 230.968Z" fill="#272E4A"/>
<path d="M173.589 250.316H185.967V276.758C185.967 277.674 185.366 278.59 184.157 279.286C181.738 280.679 177.818 280.679 175.399 279.286C174.19 278.59 173.589 277.674 173.589 276.758V250.316Z" fill="url(#paint31_linear_399_4186)"/>
<path d="M173.589 250.316H185.967V276.758C185.967 277.674 185.366 278.59 184.157 279.286C181.738 280.679 177.818 280.679 175.399 279.286C174.19 278.59 173.589 277.674 173.589 276.758V250.316Z" fill="url(#paint32_linear_399_4186)"/>
<path d="M175.399 252.844C177.818 254.237 181.739 254.237 184.157 252.844C186.576 251.452 186.576 249.187 184.157 247.787C181.739 246.395 177.818 246.395 175.399 247.787C172.981 249.18 172.981 251.444 175.399 252.844Z" fill="white"/>
<path opacity="0.3" d="M176.953 251.95C178.514 252.851 181.042 252.851 182.603 251.95C184.164 251.049 184.164 249.59 182.603 248.689C181.042 247.787 178.514 247.787 176.953 248.689C175.392 249.59 175.392 251.049 176.953 251.95Z" fill="#9AB1F3"/>
<path opacity="0.5" d="M175.399 252.58C177.817 253.973 181.738 253.973 184.157 252.58C185.307 251.913 185.901 251.056 185.96 250.184C186.018 251.144 185.425 252.111 184.157 252.844C181.738 254.236 177.817 254.236 175.399 252.844C174.131 252.111 173.537 251.144 173.596 250.184C173.655 251.056 174.248 251.913 175.399 252.58Z" fill="white"/>
<path d="M173.589 244.57H185.967V246.988C185.967 247.904 185.366 248.82 184.157 249.516C181.738 250.909 177.818 250.909 175.399 249.516C174.19 248.82 173.589 247.904 173.589 246.988V244.57Z" fill="url(#paint33_linear_399_4186)"/>
<path d="M173.589 244.57H185.967V246.988C185.967 247.904 185.366 248.82 184.157 249.516C181.738 250.909 177.818 250.909 175.399 249.516C174.19 248.82 173.589 247.904 173.589 246.988V244.57Z" fill="url(#paint34_linear_399_4186)"/>
<path d="M175.399 247.098C177.818 248.491 181.739 248.491 184.157 247.098C186.576 245.706 186.576 243.441 184.157 242.041C181.739 240.649 177.818 240.649 175.399 242.041C172.981 243.434 172.981 245.698 175.399 247.098Z" fill="white"/>
<path opacity="0.5" d="M175.399 246.834C177.817 248.227 181.738 248.227 184.157 246.834C185.307 246.168 185.901 245.31 185.96 244.438C186.018 245.398 185.425 246.365 184.157 247.098C181.738 248.491 177.817 248.491 175.399 247.098C174.131 246.365 173.537 245.398 173.596 244.438C173.655 245.31 174.248 246.168 175.399 246.834Z" fill="white"/>
<path d="M183.82 265.031H196.198V282.664C196.198 283.58 195.597 284.496 194.388 285.193C191.969 286.585 188.049 286.585 185.63 285.193C184.421 284.496 183.82 283.58 183.82 282.664V265.031Z" fill="url(#paint35_linear_399_4186)"/>
<path d="M183.82 265.031H196.198V282.664C196.198 283.58 195.597 284.496 194.388 285.193C191.969 286.585 188.049 286.585 185.63 285.193C184.421 284.496 183.82 283.58 183.82 282.664V265.031Z" fill="url(#paint36_linear_399_4186)"/>
<path d="M185.638 267.56C188.056 268.952 191.977 268.952 194.396 267.56C196.814 266.167 196.814 263.903 194.396 262.503C191.977 261.111 188.056 261.111 185.638 262.503C183.219 263.896 183.219 266.16 185.638 267.56Z" fill="white"/>
<path opacity="0.5" d="M185.637 267.296C188.056 268.689 191.977 268.689 194.395 267.296C195.546 266.629 196.139 265.772 196.198 264.9C196.257 265.86 195.663 266.827 194.395 267.56C191.977 268.952 188.056 268.952 185.637 267.56C184.37 266.827 183.776 265.86 183.835 264.9C183.893 265.772 184.487 266.629 185.637 267.296Z" fill="white"/>
<path d="M194.058 261.91H206.436V288.572C206.436 289.488 205.835 290.404 204.626 291.1C202.208 292.492 198.287 292.492 195.868 291.1C194.659 290.404 194.058 289.488 194.058 288.572V261.91Z" fill="url(#paint37_linear_399_4186)"/>
<path d="M194.058 261.91H206.436V288.572C206.436 289.488 205.835 290.404 204.626 291.1C202.208 292.492 198.287 292.492 195.868 291.1C194.659 290.404 194.058 289.488 194.058 288.572V261.91Z" fill="url(#paint38_linear_399_4186)"/>
<path d="M195.876 264.438C198.294 265.831 202.215 265.831 204.633 264.438C207.052 263.046 207.052 260.781 204.633 259.382C202.215 257.989 198.294 257.989 195.876 259.382C193.457 260.774 193.457 263.039 195.876 264.438Z" fill="white"/>
<path opacity="0.5" d="M195.875 264.174C198.294 265.567 202.215 265.567 204.633 264.174C205.784 263.507 206.377 262.65 206.436 261.778C206.495 262.738 205.901 263.705 204.633 264.438C202.215 265.831 198.294 265.831 195.875 264.438C194.608 263.705 194.014 262.738 194.073 261.778C194.131 262.65 194.725 263.507 195.875 264.174Z" fill="white"/>
<path d="M204.296 272.617H216.674V294.471C216.674 295.387 216.073 296.303 214.864 297C212.446 298.392 208.525 298.392 206.106 297C204.897 296.303 204.296 295.387 204.296 294.471V272.617Z" fill="url(#paint39_linear_399_4186)"/>
<path d="M204.296 272.617H216.674V294.471C216.674 295.387 216.073 296.303 214.864 297C212.446 298.392 208.525 298.392 206.106 297C204.897 296.303 204.296 295.387 204.296 294.471V272.617Z" fill="url(#paint40_linear_399_4186)"/>
<path d="M206.107 275.145C208.525 276.538 212.446 276.538 214.864 275.145C217.283 273.753 217.283 271.488 214.864 270.089C212.446 268.696 208.525 268.696 206.107 270.089C203.688 271.481 203.688 273.746 206.107 275.145Z" fill="white"/>
<path opacity="0.5" d="M206.106 274.882C208.525 276.274 212.446 276.274 214.864 274.882C216.015 274.215 216.608 273.357 216.667 272.485C216.726 273.445 216.132 274.413 214.864 275.146C212.446 276.538 208.525 276.538 206.106 275.146C204.839 274.413 204.245 273.445 204.304 272.485C204.362 273.357 204.956 274.215 206.106 274.882Z" fill="white"/>
<path d="M214.535 283.91H226.913V300.378C226.913 301.294 226.312 302.21 225.103 302.906C222.684 304.299 218.763 304.299 216.345 302.906C215.136 302.21 214.535 301.294 214.535 300.378V283.91Z" fill="url(#paint41_linear_399_4186)"/>
<path d="M214.535 283.91H226.913V300.378C226.913 301.294 226.312 302.21 225.103 302.906C222.684 304.299 218.763 304.299 216.345 302.906C215.136 302.21 214.535 301.294 214.535 300.378V283.91Z" fill="url(#paint42_linear_399_4186)"/>
<path d="M216.345 286.439C218.763 287.832 222.684 287.832 225.102 286.439C227.521 285.047 227.521 282.782 225.102 281.382C222.684 279.99 218.763 279.99 216.345 281.382C213.926 282.775 213.926 285.039 216.345 286.439Z" fill="white"/>
<path opacity="0.5" d="M216.345 286.168C218.763 287.56 222.684 287.56 225.103 286.168C226.253 285.501 226.847 284.643 226.905 283.771C226.964 284.731 226.37 285.699 225.103 286.432C222.684 287.824 218.763 287.824 216.345 286.432C215.077 285.699 214.483 284.731 214.542 283.771C214.601 284.643 215.194 285.501 216.345 286.168Z" fill="white"/>
<path d="M270.299 239.527L271.501 240.282L271.64 239.403L270.446 238.641L270.299 239.527Z" fill="#25F8F6"/>
<path d="M269.339 245.501L270.541 246.263L271.369 241.089L270.174 240.327L269.339 245.501Z" fill="#25F8F6"/>
<path d="M268.885 248.359L270.079 249.121L270.409 247.069L269.214 246.307L268.885 248.359Z" fill="#25F8F6"/>
<path d="M268.408 251.32L269.603 252.082L269.932 250.03L268.738 249.268L268.408 251.32Z" fill="#25F8F6"/>
<path d="M268.056 241.25L269.258 242.005L269.588 239.953L268.386 239.198L268.056 241.25Z" fill="#25F8F6"/>
<path d="M267.426 245.171L268.628 245.933L269.112 242.921L267.91 242.159L267.426 245.171Z" fill="#25F8F6"/>
<path d="M266.847 248.784L268.049 249.539L268.459 246.959L267.265 246.197L266.847 248.784Z" fill="#25F8F6"/>
<path d="M267.932 254.28L269.126 255.043L269.456 252.99L268.262 252.228L267.932 254.28Z" fill="#25F8F6"/>
<path d="M268.518 238.392L269.713 239.154L269.852 238.267L268.657 237.505L268.518 238.392Z" fill="#25F8F6"/>
<path d="M266.583 256.589L268.672 257.916L268.804 257.058L266.715 255.732L266.583 256.589Z" fill="#25F8F6"/>
<defs>
<filter id="filter0_f_399_4186" x="-18.8774" y="-160.053" width="799.404" height="799.404" filterUnits="userSpaceOnUse" color-interpolation-filters="sRGB">
<feFlood flood-opacity="0" result="BackgroundImageFix"/>
<feBlend mode="normal" in="SourceGraphic" in2="BackgroundImageFix" result="shape"/>
<feGaussianBlur stdDeviation="129.942" result="effect1_foregroundBlur_399_4186"/>
</filter>
<filter id="filter1_f_399_4186" x="-251.516" y="148.387" width="718.925" height="718.925" filterUnits="userSpaceOnUse" color-interpolation-filters="sRGB">
<feFlood flood-opacity="0" result="BackgroundImageFix"/>
<feBlend mode="normal" in="SourceGraphic" in2="BackgroundImageFix" result="shape"/>
<feGaussianBlur stdDeviation="103.954" result="effect1_foregroundBlur_399_4186"/>
</filter>
<radialGradient id="paint0_radial_399_4186" cx="0" cy="0" r="1" gradientUnits="userSpaceOnUse" gradientTransform="translate(380.825 239.649) rotate(90) scale(139.818)">
<stop stop-color="#21FDF6"/>
<stop offset="1" stop-color="#21FDF6" stop-opacity="0"/>
</radialGradient>
<radialGradient id="paint1_radial_399_4186" cx="0" cy="0" r="1" gradientUnits="userSpaceOnUse" gradientTransform="translate(107.946 507.849) rotate(90) scale(151.555)">
<stop stop-color="#B721FF"/>
<stop offset="1" stop-color="#B721FF" stop-opacity="0"/>
</radialGradient>
<radialGradient id="paint2_radial_399_4186" cx="0" cy="0" r="1" gradientUnits="userSpaceOnUse" gradientTransform="translate(306.538 235.121) rotate(-138.476) scale(13.2579 13.3683)">
<stop stop-color="white"/>
<stop offset="0.15" stop-color="#575757" stop-opacity="0.77"/>
<stop offset="0.32" stop-color="#05041A" stop-opacity="0.54"/>
<stop offset="0.48" stop-color="#05041A" stop-opacity="0.35"/>
<stop offset="0.64" stop-color="#05041A" stop-opacity="0.2"/>
<stop offset="0.78" stop-color="#05041A" stop-opacity="0.09"/>
<stop offset="0.9" stop-color="#05041A" stop-opacity="0.02"/>
<stop offset="1" stop-color="#05041A" stop-opacity="0"/>
</radialGradient>
<radialGradient id="paint3_radial_399_4186" cx="0" cy="0" r="1" gradientUnits="userSpaceOnUse" gradientTransform="translate(316.923 264.91) rotate(-138.476) scale(37.1223 37.4314)">
<stop stop-color="white"/>
<stop offset="0.15" stop-color="#575757" stop-opacity="0.77"/>
<stop offset="0.32" stop-color="#05041A" stop-opacity="0.54"/>
<stop offset="0.48" stop-color="#05041A" stop-opacity="0.35"/>
<stop offset="0.64" stop-color="#05041A" stop-opacity="0.2"/>
<stop offset="0.78" stop-color="#05041A" stop-opacity="0.09"/>
<stop offset="0.9" stop-color="#05041A" stop-opacity="0.02"/>
<stop offset="1" stop-color="#05041A" stop-opacity="0"/>
</radialGradient>
<radialGradient id="paint4_radial_399_4186" cx="0" cy="0" r="1" gradientUnits="userSpaceOnUse" gradientTransform="translate(169.461 295.995) rotate(-138.476) scale(37.1223 37.4314)">
<stop stop-color="white"/>
<stop offset="0.15" stop-color="#575757" stop-opacity="0.77"/>
<stop offset="0.32" stop-color="#05041A" stop-opacity="0.54"/>
<stop offset="0.48" stop-color="#05041A" stop-opacity="0.35"/>
<stop offset="0.64" stop-color="#05041A" stop-opacity="0.2"/>
<stop offset="0.78" stop-color="#05041A" stop-opacity="0.09"/>
<stop offset="0.9" stop-color="#05041A" stop-opacity="0.02"/>
<stop offset="1" stop-color="#05041A" stop-opacity="0"/>
</radialGradient>
<radialGradient id="paint5_radial_399_4186" cx="0" cy="0" r="1" gradientUnits="userSpaceOnUse" gradientTransform="translate(38.9031 259.73) rotate(-138.476) scale(37.1223 37.4314)">
<stop stop-color="white"/>
<stop offset="0.15" stop-color="#575757" stop-opacity="0.77"/>
<stop offset="0.32" stop-color="#05041A" stop-opacity="0.54"/>
<stop offset="0.48" stop-color="#05041A" stop-opacity="0.35"/>
<stop offset="0.64" stop-color="#05041A" stop-opacity="0.2"/>
<stop offset="0.78" stop-color="#05041A" stop-opacity="0.09"/>
<stop offset="0.9" stop-color="#05041A" stop-opacity="0.02"/>
<stop offset="1" stop-color="#05041A" stop-opacity="0"/>
</radialGradient>
<radialGradient id="paint6_radial_399_4186" cx="0" cy="0" r="1" gradientUnits="userSpaceOnUse" gradientTransform="translate(279.538 246.26) rotate(-138.476) scale(26.5159 26.7367)">
<stop stop-color="white"/>
<stop offset="0.15" stop-color="#575757" stop-opacity="0.77"/>
<stop offset="0.32" stop-color="#05041A" stop-opacity="0.54"/>
<stop offset="0.48" stop-color="#05041A" stop-opacity="0.35"/>
<stop offset="0.64" stop-color="#05041A" stop-opacity="0.2"/>
<stop offset="0.78" stop-color="#05041A" stop-opacity="0.09"/>
<stop offset="0.9" stop-color="#05041A" stop-opacity="0.02"/>
<stop offset="1" stop-color="#05041A" stop-opacity="0"/>
</radialGradient>
<radialGradient id="paint7_radial_399_4186" cx="0" cy="0" r="1" gradientUnits="userSpaceOnUse" gradientTransform="translate(287.847 345.729) rotate(-138.476) scale(18.5611 18.7157)">
<stop stop-color="white"/>
<stop offset="0.15" stop-color="#575757" stop-opacity="0.77"/>
<stop offset="0.32" stop-color="#05041A" stop-opacity="0.54"/>
<stop offset="0.48" stop-color="#05041A" stop-opacity="0.35"/>
<stop offset="0.64" stop-color="#05041A" stop-opacity="0.2"/>
<stop offset="0.78" stop-color="#05041A" stop-opacity="0.09"/>
<stop offset="0.9" stop-color="#05041A" stop-opacity="0.02"/>
<stop offset="1" stop-color="#05041A" stop-opacity="0"/>
</radialGradient>
<radialGradient id="paint8_radial_399_4186" cx="0" cy="0" r="1" gradientUnits="userSpaceOnUse" gradientTransform="translate(248.284 347.524) rotate(90) scale(9.61572 16.6326)">
<stop stop-color="#3CD6F8"/>
<stop offset="0.29" stop-color="#3CD6F8" stop-opacity="0.506767"/>
<stop offset="0.665" stop-color="#3CD6F8" stop-opacity="0.2"/>
<stop offset="1" stop-color="#3CD6F8" stop-opacity="0"/>
</radialGradient>
<radialGradient id="paint9_radial_399_4186" cx="0" cy="0" r="1" gradientUnits="userSpaceOnUse" gradientTransform="translate(202.544 370.891) rotate(90) scale(9.61572 16.6326)">
<stop stop-color="#47C6F9"/>
<stop offset="0.29" stop-color="#47C6F9" stop-opacity="0.506767"/>
<stop offset="0.665" stop-color="#47C6F9" stop-opacity="0.2"/>
<stop offset="1" stop-color="#47C6F9" stop-opacity="0"/>
</radialGradient>
<radialGradient id="paint10_radial_399_4186" cx="0" cy="0" r="1" gradientUnits="userSpaceOnUse" gradientTransform="translate(135.494 335.569) rotate(90) scale(9.61572 16.6326)">
<stop stop-color="#5FA3FA"/>
<stop offset="0.29" stop-color="#5FA3FA" stop-opacity="0.506767"/>
<stop offset="0.665" stop-color="#5FA3FA" stop-opacity="0.2"/>
<stop offset="1" stop-color="#5FA3FA" stop-opacity="0"/>
</radialGradient>
<radialGradient id="paint11_radial_399_4186" cx="0" cy="0" r="1" gradientUnits="userSpaceOnUse" gradientTransform="translate(47.1331 363.094) rotate(90) scale(9.61572 16.6326)">
<stop stop-color="#7781FC"/>
<stop offset="0.29" stop-color="#7781FC" stop-opacity="0.506767"/>
<stop offset="0.665" stop-color="#7781FC" stop-opacity="0.2"/>
<stop offset="1" stop-color="#7781FC" stop-opacity="0"/>
</radialGradient>
<linearGradient id="paint12_linear_399_4186" x1="-193" y1="306.982" x2="286.788" y2="487.864" gradientUnits="userSpaceOnUse">
<stop stop-color="#B721FF"/>
<stop offset="1" stop-color="#21FDF6"/>
</linearGradient>
<linearGradient id="paint13_linear_399_4186" x1="85.9502" y1="272.004" x2="101.93" y2="244.327" gradientUnits="userSpaceOnUse">
<stop stop-color="#B721FF"/>
<stop offset="1" stop-color="#21FDF6"/>
</linearGradient>
<radialGradient id="paint14_radial_399_4186" cx="0" cy="0" r="1" gradientUnits="userSpaceOnUse" gradientTransform="translate(14.5535 14.5535) rotate(90) scale(14.5535)">
<stop stop-color="#3CD6F8"/>
<stop offset="0.29" stop-color="#3CD6F8" stop-opacity="0.506767"/>
<stop offset="0.665" stop-color="#3CD6F8" stop-opacity="0.2"/>
<stop offset="1" stop-color="#3CD6F8" stop-opacity="0"/>
</radialGradient>
<linearGradient id="paint15_linear_399_4186" x1="51.2627" y1="326.58" x2="67.2424" y2="298.902" gradientUnits="userSpaceOnUse">
<stop stop-color="#B721FF"/>
<stop offset="1" stop-color="#21FDF6"/>
</linearGradient>
<radialGradient id="paint16_radial_399_4186" cx="0" cy="0" r="1" gradientUnits="userSpaceOnUse" gradientTransform="translate(14.5535 14.5535) rotate(90) scale(14.5535)">
<stop stop-color="#3CD6F8"/>
<stop offset="0.29" stop-color="#3CD6F8" stop-opacity="0.506767"/>
<stop offset="0.665" stop-color="#3CD6F8" stop-opacity="0.2"/>
<stop offset="1" stop-color="#3CD6F8" stop-opacity="0"/>
</radialGradient>
<linearGradient id="paint17_linear_399_4186" x1="260.593" y1="293.315" x2="276.572" y2="265.637" gradientUnits="userSpaceOnUse">
<stop stop-color="#B721FF"/>
<stop offset="1" stop-color="#21FDF6"/>
</linearGradient>
<radialGradient id="paint18_radial_399_4186" cx="0" cy="0" r="1" gradientUnits="userSpaceOnUse" gradientTransform="translate(14.5535 14.5535) rotate(90) scale(14.5535)">
<stop stop-color="#3CD6F8"/>
<stop offset="0.29" stop-color="#3CD6F8" stop-opacity="0.506767"/>
<stop offset="0.665" stop-color="#3CD6F8" stop-opacity="0.2"/>
<stop offset="1" stop-color="#3CD6F8" stop-opacity="0"/>
</radialGradient>
<linearGradient id="paint19_linear_399_4186" x1="230.063" y1="216.909" x2="246.043" y2="189.231" gradientUnits="userSpaceOnUse">
<stop stop-color="#B721FF"/>
<stop offset="1" stop-color="#21FDF6"/>
</linearGradient>
<radialGradient id="paint20_radial_399_4186" cx="0" cy="0" r="1" gradientUnits="userSpaceOnUse" gradientTransform="translate(14.5535 14.5535) rotate(90) scale(14.5535)">
<stop stop-color="#3CD6F8"/>
<stop offset="0.29" stop-color="#3CD6F8" stop-opacity="0.506767"/>
<stop offset="0.665" stop-color="#3CD6F8" stop-opacity="0.2"/>
<stop offset="1" stop-color="#3CD6F8" stop-opacity="0"/>
</radialGradient>
<linearGradient id="paint21_linear_399_4186" x1="175.316" y1="259.86" x2="163.906" y2="259.86" gradientUnits="userSpaceOnUse">
<stop stop-color="#59668C"/>
<stop offset="1" stop-color="#99B0F2"/>
</linearGradient>
<linearGradient id="paint22_linear_399_4186" x1="162.763" y1="252.345" x2="169.059" y2="252.887" gradientUnits="userSpaceOnUse">
<stop stop-color="#B721FF"/>
<stop offset="1" stop-color="#21FDF6"/>
</linearGradient>
<linearGradient id="paint23_linear_399_4186" x1="162.763" y1="258.106" x2="169.059" y2="258.647" gradientUnits="userSpaceOnUse">
<stop stop-color="#B721FF"/>
<stop offset="1" stop-color="#21FDF6"/>
</linearGradient>
<linearGradient id="paint24_linear_399_4186" x1="168.701" y1="266.329" x2="492.352" y2="266.329" gradientUnits="userSpaceOnUse">
<stop stop-color="#42E8E0"/>
<stop offset="0.15" stop-color="#42E3DF"/>
<stop offset="0.33" stop-color="#44D4DE"/>
<stop offset="0.52" stop-color="#48BDDD"/>
<stop offset="0.72" stop-color="#4D9BDA"/>
<stop offset="0.93" stop-color="#5471D8"/>
<stop offset="1" stop-color="#5761D7"/>
</linearGradient>
<linearGradient id="paint25_linear_399_4186" x1="222.972" y1="218.977" x2="156.986" y2="218.977" gradientUnits="userSpaceOnUse">
<stop stop-color="#59668C"/>
<stop offset="1" stop-color="#99B0F2"/>
</linearGradient>
<linearGradient id="paint26_linear_399_4186" x1="208.704" y1="221.436" x2="153.156" y2="221.436" gradientUnits="userSpaceOnUse">
<stop stop-color="#99B0F2"/>
<stop offset="1" stop-color="#7F93C9"/>
</linearGradient>
<linearGradient id="paint27_linear_399_4186" x1="145.367" y1="209.133" x2="166.287" y2="198.128" gradientUnits="userSpaceOnUse">
<stop stop-color="#B721FF"/>
<stop offset="1" stop-color="#21FDF6"/>
</linearGradient>
<linearGradient id="paint28_linear_399_4186" x1="220.372" y1="220.67" x2="152.146" y2="220.67" gradientUnits="userSpaceOnUse">
<stop stop-color="#59668C"/>
<stop offset="1" stop-color="#99B0F2"/>
</linearGradient>
<radialGradient id="paint29_radial_399_4186" cx="0" cy="0" r="1" gradientUnits="userSpaceOnUse" gradientTransform="translate(46.1738) rotate(90) scale(27.4972 14.1542)">
<stop stop-color="#B721FF"/>
<stop offset="1" stop-color="#B721FF" stop-opacity="0"/>
</radialGradient>
<linearGradient id="paint30_linear_399_4186" x1="200.962" y1="297.769" x2="166.297" y2="297.769" gradientUnits="userSpaceOnUse">
<stop stop-color="#C0BFF6"/>
<stop offset="0.29" stop-color="#C4C3F6"/>
<stop offset="0.64" stop-color="#D2D2F9"/>
<stop offset="1" stop-color="#E9E9FD"/>
</linearGradient>
<linearGradient id="paint31_linear_399_4186" x1="185.967" y1="265.325" x2="173.655" y2="265.325" gradientUnits="userSpaceOnUse">
<stop stop-color="#C0BFF6"/>
<stop offset="0.49" stop-color="#D1D1F9"/>
<stop offset="1" stop-color="#E9E9FD"/>
</linearGradient>
<linearGradient id="paint32_linear_399_4186" x1="199.76" y1="265.325" x2="175.971" y2="265.325" gradientUnits="userSpaceOnUse">
<stop stop-color="#59668C"/>
<stop offset="1" stop-color="#99B0F2"/>
</linearGradient>
<linearGradient id="paint33_linear_399_4186" x1="1916.43" y1="247.567" x2="1915.7" y2="247.567" gradientUnits="userSpaceOnUse">
<stop stop-color="#C0BFF6"/>
<stop offset="0.49" stop-color="#D1D1F9"/>
<stop offset="1" stop-color="#E9E9FD"/>
</linearGradient>
<linearGradient id="paint34_linear_399_4186" x1="199.76" y1="247.566" x2="175.971" y2="247.566" gradientUnits="userSpaceOnUse">
<stop stop-color="#59668C"/>
<stop offset="1" stop-color="#99B0F2"/>
</linearGradient>
<linearGradient id="paint35_linear_399_4186" x1="196.205" y1="275.636" x2="183.893" y2="275.636" gradientUnits="userSpaceOnUse">
<stop stop-color="#C0BFF6"/>
<stop offset="0.49" stop-color="#D1D1F9"/>
<stop offset="1" stop-color="#E9E9FD"/>
</linearGradient>
<linearGradient id="paint36_linear_399_4186" x1="209.991" y1="275.635" x2="186.202" y2="275.635" gradientUnits="userSpaceOnUse">
<stop stop-color="#59668C"/>
<stop offset="1" stop-color="#99B0F2"/>
</linearGradient>
<linearGradient id="paint37_linear_399_4186" x1="206.436" y1="277.022" x2="194.131" y2="277.022" gradientUnits="userSpaceOnUse">
<stop stop-color="#C0BFF6"/>
<stop offset="0.49" stop-color="#D1D1F9"/>
<stop offset="1" stop-color="#E9E9FD"/>
</linearGradient>
<linearGradient id="paint38_linear_399_4186" x1="220.229" y1="277.029" x2="196.44" y2="277.029" gradientUnits="userSpaceOnUse">
<stop stop-color="#59668C"/>
<stop offset="1" stop-color="#99B0F2"/>
</linearGradient>
<linearGradient id="paint39_linear_399_4186" x1="216.674" y1="285.332" x2="204.362" y2="285.332" gradientUnits="userSpaceOnUse">
<stop stop-color="#C0BFF6"/>
<stop offset="0.49" stop-color="#D1D1F9"/>
<stop offset="1" stop-color="#E9E9FD"/>
</linearGradient>
<linearGradient id="paint40_linear_399_4186" x1="230.467" y1="285.332" x2="206.678" y2="285.332" gradientUnits="userSpaceOnUse">
<stop stop-color="#59668C"/>
<stop offset="1" stop-color="#99B0F2"/>
</linearGradient>
<linearGradient id="paint41_linear_399_4186" x1="226.913" y1="293.929" x2="214.601" y2="293.929" gradientUnits="userSpaceOnUse">
<stop stop-color="#C0BFF6"/>
<stop offset="0.49" stop-color="#D1D1F9"/>
<stop offset="1" stop-color="#E9E9FD"/>
</linearGradient>
<linearGradient id="paint42_linear_399_4186" x1="240.705" y1="293.932" x2="216.916" y2="293.932" gradientUnits="userSpaceOnUse">
<stop stop-color="#59668C"/>
<stop offset="1" stop-color="#99B0F2"/>
</linearGradient>
</defs>
</svg>
