<svg width="20" height="20" viewBox="0 0 20 20" fill="none" xmlns="http://www.w3.org/2000/svg">
<g filter="url(#filter0_i_2292_1511)">
<rect width="20" height="20" rx="10" fill="white" fill-opacity="0.06"/>
<rect x="0.2" y="0.2" width="19.6" height="19.6" rx="9.8" stroke="url(#paint0_linear_2292_1511)" stroke-width="0.4"/>
<path d="M9.96867 15.1657C9.81457 15.1657 9.68254 15.1136 9.57258 15.0093C9.46262 14.905 9.40765 14.772 9.40765 14.6104C9.40765 14.5387 9.4232 14.4617 9.45431 14.3794C9.48533 14.2972 9.53185 14.225 9.59387 14.1629L11.8352 11.9215C11.8898 11.8669 11.9171 11.8048 11.9171 11.7353C11.9171 11.6658 11.8898 11.6037 11.8352 11.5491C11.7806 11.4945 11.7176 11.4697 11.6462 11.4746C11.5748 11.4794 11.5137 11.5073 11.4629 11.5581L9.23046 13.7904C9.16843 13.8525 9.09965 13.8991 9.0241 13.9301C8.94856 13.9611 8.87001 13.9766 8.78844 13.9766C8.63065 13.9766 8.49774 13.9226 8.38973 13.8146C8.28162 13.7065 8.22756 13.5735 8.22756 13.4157C8.22756 13.3223 8.24404 13.2384 8.277 13.1639C8.30986 13.0895 8.35249 13.0261 8.4049 12.9737L10.6462 10.7324C10.7008 10.6779 10.728 10.6173 10.728 10.5507C10.728 10.4841 10.7008 10.4235 10.6462 10.369C10.5916 10.3144 10.53 10.288 10.4616 10.29C10.3931 10.2918 10.3335 10.3182 10.2826 10.369L8.04133 12.6013C7.983 12.6596 7.91514 12.7053 7.83775 12.7382C7.76036 12.7711 7.67792 12.7875 7.59042 12.7875C7.43856 12.7875 7.30711 12.732 7.19608 12.621C7.08506 12.5099 7.02954 12.3785 7.02954 12.2266C7.02954 12.1452 7.04505 12.0666 7.07606 11.9911C7.10708 11.9156 7.15365 11.8467 7.21577 11.7846L9.38081 9.61956C9.43535 9.56502 9.46262 9.50299 9.46262 9.43348C9.46262 9.36387 9.43535 9.30179 9.38081 9.24725C9.32617 9.19261 9.26463 9.16622 9.19619 9.16806C9.12774 9.17001 9.0681 9.1964 9.01725 9.24725L6.85221 11.4212C6.7999 11.4736 6.73506 11.5162 6.65767 11.5491C6.58028 11.582 6.49482 11.5985 6.40129 11.5985C6.2398 11.5985 6.10593 11.5454 5.99967 11.4391C5.8935 11.333 5.84042 11.1991 5.84042 11.0375C5.84042 10.956 5.85592 10.8775 5.88694 10.802C5.91795 10.7264 5.96452 10.6577 6.02665 10.5956L8.72223 7.8999C8.82548 7.79674 8.95075 7.74813 9.09804 7.75406C9.24543 7.76009 9.3707 7.81468 9.47385 7.91783L10.8155 9.2595C10.9225 9.36644 11.046 9.44685 11.1862 9.50071C11.3265 9.55457 11.4677 9.5815 11.6097 9.5815C11.9059 9.5815 12.1594 9.48053 12.3704 9.2786C12.5813 9.07667 12.6867 8.81865 12.6867 8.50452C12.6867 8.36841 12.6615 8.22933 12.611 8.08729C12.5605 7.94515 12.4757 7.81463 12.3568 7.69573L10.9592 6.29806C10.8073 6.1462 10.7163 5.97436 10.686 5.78254C10.6557 5.59072 10.7026 5.42151 10.8268 5.2749C10.933 5.13285 11.0616 5.0278 11.2126 4.95975C11.3637 4.89169 11.5256 4.85767 11.6984 4.85767C11.8914 4.85767 12.0854 4.89971 12.2806 4.98381C12.4758 5.06791 12.6534 5.18997 12.8134 5.35L15.2949 7.84039C15.4437 7.98924 15.5566 8.16128 15.6337 8.3565C15.7107 8.55162 15.7492 8.77334 15.7492 9.02165C15.7492 9.21609 15.7092 9.40645 15.6292 9.59273C15.5492 9.77891 15.4378 9.94341 15.2949 10.0862L10.4105 14.9795C10.3403 15.0498 10.2694 15.0984 10.1981 15.1254C10.1266 15.1523 10.0501 15.1657 9.96867 15.1657ZM4.79829 10.1457C4.60229 9.98716 4.45442 9.80185 4.35467 9.58981C4.25482 9.37787 4.2049 9.15746 4.2049 8.9286C4.2049 8.71248 4.24733 8.50214 4.33221 8.29758C4.41708 8.09303 4.54328 7.90699 4.71079 7.73948L7.09123 5.35C7.23774 5.20349 7.39947 5.09022 7.57642 5.01021C7.75326 4.93019 7.94226 4.89019 8.14342 4.89019C8.35653 4.89019 8.56332 4.93019 8.76379 5.01021C8.96417 5.09022 9.13766 5.20349 9.28427 5.35L11.9934 8.05914C12.0495 8.11524 12.0946 8.18165 12.1286 8.25835C12.1626 8.33496 12.1796 8.41405 12.1796 8.49562C12.1796 8.65342 12.1256 8.78724 12.0175 8.8971C11.9095 9.00706 11.7766 9.06204 11.6188 9.06204C11.5335 9.06204 11.4525 9.04503 11.3758 9.011C11.2992 8.97697 11.2328 8.93191 11.1768 8.87581L9.83173 7.53983C9.63058 7.33868 9.38305 7.2381 9.08915 7.2381C8.79524 7.2381 8.54772 7.33868 8.34656 7.53983L5.74504 10.1412C5.61496 10.2714 5.4611 10.3342 5.28348 10.3298C5.10585 10.3252 4.94412 10.2639 4.79829 10.1457Z" fill="white"/>
</g>
<defs>
<filter id="filter0_i_2292_1511" x="0" y="-2" width="20" height="22" filterUnits="userSpaceOnUse" color-interpolation-filters="sRGB">
<feFlood flood-opacity="0" result="BackgroundImageFix"/>
<feBlend mode="normal" in="SourceGraphic" in2="BackgroundImageFix" result="shape"/>
<feColorMatrix in="SourceAlpha" type="matrix" values="0 0 0 0 0 0 0 0 0 0 0 0 0 0 0 0 0 0 127 0" result="hardAlpha"/>
<feOffset dy="-2"/>
<feGaussianBlur stdDeviation="1"/>
<feComposite in2="hardAlpha" operator="arithmetic" k2="-1" k3="1"/>
<feColorMatrix type="matrix" values="0 0 0 0 1 0 0 0 0 1 0 0 0 0 1 0 0 0 0.14 0"/>
<feBlend mode="normal" in2="shape" result="effect1_innerShadow_2292_1511"/>
</filter>
<linearGradient id="paint0_linear_2292_1511" x1="10" y1="-1.76471" x2="10" y2="20" gradientUnits="userSpaceOnUse">
<stop stop-color="white" stop-opacity="0"/>
<stop offset="1" stop-color="white" stop-opacity="0.3"/>
</linearGradient>
</defs>
</svg>
