<svg width="20" height="20" viewBox="0 0 20 20" fill="none" xmlns="http://www.w3.org/2000/svg">
<g filter="url(#filter0_i_2277_1151)">
<rect width="20" height="20" rx="10" fill="white" fill-opacity="0.06"/>
<rect x="0.2" y="0.2" width="19.6" height="19.6" rx="9.8" stroke="url(#paint0_linear_2277_1151)" stroke-width="0.4"/>
<path d="M10 15.2164C9.76593 15.2164 9.55894 15.1547 9.37908 15.0313C9.19922 14.9078 9.07341 14.7459 9.00166 14.5455H8.83337C8.59479 14.5455 8.38931 14.4593 8.21693 14.287C8.04456 14.1146 7.95837 13.9091 7.95837 13.6705V11.7568C7.36979 11.4 6.90667 10.9218 6.56902 10.322C6.23136 9.72218 6.06254 9.08012 6.06254 8.39587C6.06254 7.29804 6.44433 6.36733 7.20791 5.60375C7.9715 4.84017 8.9022 4.45837 10 4.45837C11.0979 4.45837 12.0286 4.84017 12.7922 5.60375C13.5557 6.36733 13.9375 7.29804 13.9375 8.39587C13.9375 9.09208 13.7687 9.7371 13.4311 10.3309C13.0934 10.9248 12.6303 11.4 12.0417 11.7568V13.6705C12.0417 13.9091 11.9555 14.1146 11.7831 14.287C11.6108 14.4593 11.4053 14.5455 11.1667 14.5455H10.9984C10.9267 14.7459 10.8009 14.9078 10.621 15.0313C10.4411 15.1547 10.2341 15.2164 10 15.2164ZM8.83337 13.6705H11.1667V13.1231H8.83337V13.6705ZM8.83337 12.6071H11.1667V12.0417H8.83337V12.6071ZM10.3479 11.1667V9.46833L11.3529 8.4631C11.4218 8.39437 11.4571 8.31382 11.459 8.22146C11.4608 8.1291 11.4255 8.04665 11.3529 7.97412C11.2804 7.9016 11.1989 7.86533 11.1084 7.86533C11.0179 7.86533 10.9363 7.9016 10.8638 7.97412L10 8.8379L9.13627 7.97412C9.06743 7.90529 8.98684 7.86995 8.89448 7.8681C8.80211 7.86626 8.71967 7.9016 8.64714 7.97412C8.57462 8.04665 8.53835 8.12817 8.53835 8.21869C8.53835 8.3091 8.57462 8.39058 8.64714 8.4631L9.65223 9.46833V11.1667H10.3479Z" fill="white"/>
</g>
<defs>
<filter id="filter0_i_2277_1151" x="0" y="-2" width="20" height="22" filterUnits="userSpaceOnUse" color-interpolation-filters="sRGB">
<feFlood flood-opacity="0" result="BackgroundImageFix"/>
<feBlend mode="normal" in="SourceGraphic" in2="BackgroundImageFix" result="shape"/>
<feColorMatrix in="SourceAlpha" type="matrix" values="0 0 0 0 0 0 0 0 0 0 0 0 0 0 0 0 0 0 127 0" result="hardAlpha"/>
<feOffset dy="-2"/>
<feGaussianBlur stdDeviation="1"/>
<feComposite in2="hardAlpha" operator="arithmetic" k2="-1" k3="1"/>
<feColorMatrix type="matrix" values="0 0 0 0 1 0 0 0 0 1 0 0 0 0 1 0 0 0 0.14 0"/>
<feBlend mode="normal" in2="shape" result="effect1_innerShadow_2277_1151"/>
</filter>
<linearGradient id="paint0_linear_2277_1151" x1="10" y1="-1.76471" x2="10" y2="20" gradientUnits="userSpaceOnUse">
<stop stop-color="white" stop-opacity="0"/>
<stop offset="1" stop-color="white" stop-opacity="0.3"/>
</linearGradient>
</defs>
</svg>
