<svg width="727" height="685" viewBox="0 0 727 685" fill="none" xmlns="http://www.w3.org/2000/svg">
<path d="M322.641 220.938V466.791" stroke="url(#paint0_linear_141_729)"/>
<path d="M446.649 220.938V466.791" stroke="url(#paint1_linear_141_729)"/>
<path d="M124.648 280.824V386.795C124.648 430.976 160.464 466.791 204.645 466.791V466.791H229" stroke="url(#paint2_linear_141_729)"/>
<path d="M644.348 278.824V384.795C644.348 428.976 608.532 464.791 564.352 464.791V464.791H539.996" stroke="url(#paint3_linear_141_729)"/>
<path d="M205 166V257V301.971C205 346.151 240.815 381.967 284.996 381.967V381.967" stroke="url(#paint4_linear_141_729)"/>
<path d="M563.996 164V255V299.971C563.996 344.151 528.181 379.967 484 379.967V379.967" stroke="url(#paint5_linear_141_729)"/>
<path fill-rule="evenodd" clip-rule="evenodd" d="M559.139 412.369C559.291 414.912 555.727 416.968 551.321 416.958L480.478 416.782C476.187 416.772 472.686 414.799 472.279 412.33C470.236 399.912 463.147 390.434 446.202 380.871C411.655 361.377 356.644 361.406 323.04 381.109C307.033 390.494 299.333 402.733 299.203 414.973V522C299.333 509.759 307.033 497.52 323.04 488.135C356.644 468.432 411.655 468.403 446.202 487.898C463.147 497.46 470.236 506.938 472.279 519.357C472.686 521.825 476.187 523.798 480.478 523.808L551.321 523.984C555.727 523.995 559.291 521.938 559.139 519.395V412.369Z" fill="url(#paint6_linear_141_729)"/>
<path fill-rule="evenodd" clip-rule="evenodd" d="M559.139 412.369C559.291 414.912 555.727 416.968 551.321 416.958L480.478 416.782C476.187 416.772 472.686 414.799 472.279 412.33C470.236 399.912 463.147 390.434 446.202 380.871C411.655 361.377 356.644 361.406 323.04 381.109C307.033 390.494 299.333 402.733 299.203 414.973V522C299.333 509.759 307.033 497.52 323.04 488.135C356.644 468.432 411.655 468.403 446.202 487.898C463.147 497.46 470.236 506.938 472.279 519.357C472.686 521.825 476.187 523.798 480.478 523.808L551.321 523.984C555.727 523.995 559.291 521.938 559.139 519.395V412.369Z" fill="url(#paint7_linear_141_729)" fill-opacity="0.6"/>
<path fill-rule="evenodd" clip-rule="evenodd" d="M559.139 412.369C559.291 414.912 555.727 416.968 551.321 416.958L480.478 416.782C476.187 416.772 472.686 414.799 472.279 412.33C470.236 399.912 463.147 390.434 446.202 380.871C411.655 361.377 356.644 361.406 323.04 381.109C307.033 390.494 299.333 402.733 299.203 414.973V522C299.333 509.759 307.033 497.52 323.04 488.135C356.644 468.432 411.655 468.403 446.202 487.898C463.147 497.46 470.236 506.938 472.279 519.357C472.686 521.825 476.187 523.798 480.478 523.808L551.321 523.984C555.727 523.995 559.291 521.938 559.139 519.395V412.369Z" fill="url(#paint8_linear_141_729)" fill-opacity="0.2"/>
<path fill-rule="evenodd" clip-rule="evenodd" d="M419.155 465.786L471.579 435.519L486.234 443.98V551.006L471.579 542.545L419.155 572.813V465.786Z" fill="#687ABB"/>
<path fill-rule="evenodd" clip-rule="evenodd" d="M486.234 443.981L475.574 470.045V577.071L486.234 551.007V443.981Z" fill="#687ABB"/>
<path fill-rule="evenodd" clip-rule="evenodd" d="M475.574 470.043L520.226 463.605L534.88 472.066V579.092L520.226 570.632L475.574 577.07V470.043Z" fill="#687ABB"/>
<path fill-rule="evenodd" clip-rule="evenodd" d="M458.48 461.836L435.395 475.164L419.155 465.787V572.814L435.395 582.19L458.48 568.863V461.836Z" fill="#55A5EE"/>
<path fill-rule="evenodd" clip-rule="evenodd" d="M458.48 461.836L435.395 475.164L419.155 465.787V572.814L435.395 582.19L458.48 568.863V461.836Z" fill="url(#paint9_linear_141_729)"/>
<path fill-rule="evenodd" clip-rule="evenodd" d="M390.104 483.251C389.915 485.562 385.917 515.474 381.908 515.514C342.99 515.898 297.848 507.484 261.778 487.348C228.438 468.738 211.376 444.305 210.078 419.568V526.595C211.376 551.331 228.438 575.764 261.778 594.375C297.848 614.51 342.99 622.924 381.908 622.54C385.917 622.5 389.078 620.641 389.267 618.329L390.104 483.251Z" fill="url(#paint10_linear_141_729)"/>
<path fill-rule="evenodd" clip-rule="evenodd" d="M490.15 479.165L459.451 483.604L451.595 479.069V586.095L459.451 590.631L490.15 586.191V479.165Z" fill="#55A5EE"/>
<path fill-rule="evenodd" clip-rule="evenodd" d="M490.15 479.165L459.451 483.604L451.595 479.069V586.095L459.451 590.631L490.15 586.191V479.165Z" fill="url(#paint11_linear_141_729)"/>
<path fill-rule="evenodd" clip-rule="evenodd" d="M534.879 472.066L482.606 502.421L466.365 493.044V600.07L482.606 609.447L534.879 579.092V472.066Z" fill="#55A5EE"/>
<path fill-rule="evenodd" clip-rule="evenodd" d="M534.879 472.066L482.606 502.421L466.365 493.044V600.07L482.606 609.447L534.879 579.092V472.066Z" fill="url(#paint12_linear_141_729)"/>
<path d="M551.322 416.958L480.479 416.782C476.188 416.772 472.687 414.799 472.28 412.331C470.237 399.913 463.148 390.434 446.202 380.872C411.656 361.377 356.645 361.407 323.041 381.109C289.694 400.661 292.398 432.6 324.502 451.136C341.736 461.086 360.517 464.168 381.751 464.756C386.054 464.875 389.604 466.841 389.737 469.326C390.481 483.202 390.501 496.24 389.268 511.303C389.079 513.615 385.919 515.474 381.909 515.514C342.992 515.899 297.85 507.484 261.779 487.349C192.323 448.577 193.51 384.531 260.721 345.129C328.447 305.425 440.548 304.65 508.925 344.659C543.965 365.161 557.571 386.288 559.139 412.369C559.292 414.912 555.728 416.969 551.322 416.958Z" fill="url(#paint13_linear_141_729)"/>
<path d="M419.155 465.787L471.58 435.52L486.235 443.981L475.576 470.045L520.227 463.606L534.882 472.067L482.608 502.422L466.367 493.045L490.151 479.165L459.452 483.605L451.596 479.069L458.481 461.836L435.396 475.164L419.155 465.787Z" fill="url(#paint14_linear_141_729)"/>
<g filter="url(#filter0_d_141_729)">
<path fill-rule="evenodd" clip-rule="evenodd" d="M159.282 221L124.641 241L90 221V261L124.641 281L159.282 261V221Z" fill="#61C2E1"/>
<path fill-rule="evenodd" clip-rule="evenodd" d="M159.282 221L124.641 241L90 221V261L124.641 281L159.282 261V221Z" fill="black" fill-opacity="0.2"/>
<g filter="url(#filter1_f_141_729)">
<path d="M124.642 241V280.996" stroke="white" stroke-opacity="0.5" stroke-width="0.1"/>
</g>
<g filter="url(#filter2_i_141_729)">
<rect width="40" height="40" transform="matrix(0.866025 0.5 -0.866025 0.5 124.641 201)" fill="#61C2E1"/>
</g>
<g style="mix-blend-mode:overlay">
<g style="mix-blend-mode:soft-light">
<path d="M148.811 249.732L137.131 256.476C136.925 256.595 136.784 256.754 136.695 256.907C136.607 257.061 136.54 257.262 136.54 257.5C136.54 257.738 136.607 257.862 136.695 257.913C136.784 257.964 136.925 257.96 137.131 257.841L148.811 251.097C150.112 250.346 151.175 250.96 151.175 252.462C151.175 253.965 150.112 255.806 148.811 256.557C147.51 257.309 146.447 256.695 146.447 255.192C146.447 254.955 146.38 254.83 146.292 254.779C146.203 254.728 146.062 254.732 145.856 254.851C145.65 254.97 145.509 255.129 145.42 255.282C145.332 255.436 145.265 255.637 145.265 255.875C145.265 258.126 146.862 259.048 148.811 257.922C150.761 256.797 152.358 254.031 152.358 251.78C152.358 249.529 150.761 248.607 148.811 249.732Z" fill="white"/>
<path d="M133.19 253.291L148.811 244.273C150.761 243.147 152.358 240.381 152.358 238.13C152.358 235.879 150.761 234.957 148.811 236.083C146.862 237.208 145.265 239.974 145.265 242.225C145.265 242.463 145.332 242.587 145.42 242.638C145.509 242.689 145.65 242.685 145.856 242.566C146.062 242.447 146.203 242.289 146.291 242.135C146.38 241.982 146.447 241.781 146.447 241.543C146.447 240.04 147.51 238.199 148.811 237.448C150.112 236.696 151.175 237.31 151.175 238.813C151.175 240.315 150.112 242.156 148.811 242.908L133.19 251.926C132.984 252.045 132.843 252.204 132.755 252.357C132.666 252.511 132.599 252.712 132.599 252.95C132.599 253.188 132.666 253.312 132.755 253.363C132.843 253.414 132.984 253.41 133.19 253.291Z" fill="white"/>
<path d="M140.086 252.723C140.292 252.604 140.433 252.445 140.522 252.292C140.61 252.138 140.677 251.937 140.677 251.699C140.677 251.461 140.61 251.337 140.522 251.286C140.433 251.235 140.292 251.239 140.086 251.358L131.22 256.476C131.014 256.595 130.873 256.754 130.785 256.908C130.696 257.061 130.629 257.262 130.629 257.5C130.629 257.738 130.696 257.862 130.785 257.913C130.873 257.965 131.014 257.96 131.22 257.841L140.086 252.723Z" fill="white"/>
<path d="M145.265 249.05C145.265 249.288 145.332 249.412 145.42 249.464C145.509 249.515 145.65 249.511 145.856 249.392L148.811 247.685C149.017 247.566 149.158 247.408 149.247 247.254C149.335 247.101 149.402 246.899 149.402 246.662C149.402 246.424 149.335 246.3 149.247 246.248C149.158 246.197 149.017 246.201 148.811 246.32L145.856 248.027C145.65 248.146 145.509 248.304 145.42 248.458C145.332 248.611 145.265 248.812 145.265 249.05Z" fill="white"/>
</g>
</g>
</g>
<g filter="url(#filter3_d_141_729)">
<path fill-rule="evenodd" clip-rule="evenodd" d="M239.282 106L204.641 126L170 106V146L204.641 166L239.282 146V106Z" fill="#B794F1"/>
<path fill-rule="evenodd" clip-rule="evenodd" d="M239.282 106L204.641 126L170 106V146L204.641 166L239.282 146V106Z" fill="black" fill-opacity="0.2"/>
<g filter="url(#filter4_f_141_729)">
<path d="M204.642 126V165.996" stroke="white" stroke-opacity="0.5" stroke-width="0.1"/>
</g>
<g filter="url(#filter5_i_141_729)">
<rect width="40" height="40" transform="matrix(0.866025 0.5 -0.866025 0.5 204.641 86)" fill="#B794F1"/>
</g>
<g style="mix-blend-mode:overlay">
<path fill-rule="evenodd" clip-rule="evenodd" d="M227.558 141.612L216.618 147.929C215.054 148.832 213.634 148.928 212.605 148.353C211.576 147.778 210.938 146.534 210.938 144.757C210.938 142.98 211.576 140.999 212.605 139.236C213.634 137.473 215.054 135.929 216.618 135.026L224.815 130.294C224.972 130.203 225.116 130.044 225.222 129.863C225.328 129.681 225.394 129.479 225.394 129.301C225.394 129.122 225.328 128.996 225.224 128.936C225.118 128.877 224.973 128.886 224.815 128.977L218.823 132.437C218.516 132.614 218.267 132.475 218.267 132.127V127.596C218.267 127.247 218.516 126.821 218.823 126.644L224.815 123.184C226.38 122.281 227.8 122.186 228.829 122.76C229.858 123.335 230.495 124.58 230.495 126.356C230.495 128.133 229.858 130.114 228.829 131.877C227.8 133.64 226.38 135.184 224.816 136.087L216.619 140.819C216.462 140.91 216.317 141.069 216.211 141.249C216.106 141.43 216.041 141.632 216.041 141.811C216.041 141.989 216.107 142.115 216.213 142.173C216.319 142.233 216.463 142.225 216.619 142.134L227.56 135.818V135.209C227.56 134.86 227.809 134.434 228.115 134.257L231.415 132.352C231.723 132.174 231.971 132.314 231.971 132.662V139.673C231.971 140.022 231.722 140.448 231.415 140.625L228.115 142.53C227.809 142.707 227.56 142.568 227.56 142.22V141.611L227.558 141.612ZM216.618 143.397L228.67 136.439V135.199L230.859 133.936V139.685L228.67 140.949V139.709L216.618 146.667C215.36 147.393 214.218 147.47 213.391 147.007C212.563 146.546 212.05 145.544 212.05 144.116C212.05 142.687 212.563 141.094 213.391 139.676C214.218 138.257 215.36 137.015 216.618 136.289L224.815 131.556C225.278 131.289 225.701 130.828 226.007 130.303C226.314 129.778 226.505 129.188 226.505 128.661C226.505 128.137 226.314 127.768 226.007 127.596L226.005 127.595C225.699 127.424 225.277 127.451 224.815 127.717L223.02 128.753L221.909 129.393L219.378 130.854V127.585L221.909 126.124L223.02 125.484L224.815 124.448C226.072 123.723 227.214 123.645 228.042 124.108C228.869 124.571 229.383 125.571 229.383 127C229.383 128.427 228.87 130.021 228.042 131.439C227.215 132.857 226.073 134.099 224.815 134.826L216.618 139.558C216.156 139.825 215.734 140.285 215.428 140.81L215.425 140.814C215.119 141.339 214.928 141.929 214.928 142.453C214.928 142.979 215.119 143.349 215.425 143.52C215.732 143.692 216.155 143.665 216.618 143.397Z" fill="white"/>
</g>
</g>
<g filter="url(#filter6_d_141_729)">
<path fill-rule="evenodd" clip-rule="evenodd" d="M357.282 161L322.641 181L288 161V201L322.641 221L357.282 201V161Z" fill="#EC6424"/>
<path fill-rule="evenodd" clip-rule="evenodd" d="M357.282 161L322.641 181L288 161V201L322.641 221L357.282 201V161Z" fill="black" fill-opacity="0.2"/>
<g filter="url(#filter7_f_141_729)">
<path d="M322.642 181V220.996" stroke="white" stroke-opacity="0.5" stroke-width="0.1"/>
</g>
<g filter="url(#filter8_i_141_729)">
<rect width="40" height="40" transform="matrix(0.866025 0.5 -0.866025 0.5 322.641 141)" fill="#EC6424"/>
</g>
<g style="mix-blend-mode:overlay">
<path d="M345.948 192.842L344.723 193.549L345.401 192.027C345.561 191.666 345.504 191.331 345.272 191.279C345.041 191.227 344.721 191.478 344.56 191.839L343.473 194.276C343.336 194.586 343.32 194.891 343.432 195.074C343.544 195.256 343.764 195.283 344.007 195.143L345.217 194.444L344.564 195.872C344.399 196.232 344.452 196.571 344.682 196.629C344.773 196.651 344.876 196.628 344.98 196.568C345.14 196.475 345.297 196.3 345.397 196.08L346.474 193.723C346.617 193.412 346.636 193.102 346.525 192.915C346.414 192.73 346.193 192.701 345.948 192.842Z" fill="white"/>
<path d="M348.641 187.726C349.256 186.835 349.954 185.825 349.954 184.94C349.954 184.053 349.255 183.851 348.638 183.672C348.292 183.572 347.861 183.447 347.787 183.229C347.707 182.986 347.862 182.307 347.999 181.709C348.229 180.701 348.467 179.66 348.034 179.215C347.596 178.775 346.735 179.252 345.974 179.674C345.506 179.934 344.975 180.228 344.768 180.176C344.561 180.121 344.392 179.643 344.242 179.222C343.997 178.534 343.718 177.753 343 177.895C342.304 178.04 341.641 178.957 340.997 179.847C340.606 180.389 340.161 181.003 339.887 181.161C339.614 181.319 339.169 181.219 338.778 181.129C338.135 180.982 337.472 180.827 336.773 181.492C336.057 182.177 335.777 183.284 335.53 184.26C335.38 184.852 335.21 185.523 335.006 185.811C334.803 186.1 334.252 186.429 333.81 186.694C333.048 187.15 332.184 187.667 331.74 188.624C331.304 189.575 331.555 190.377 331.776 191.085C331.913 191.522 332.068 192.017 331.99 192.345C331.913 192.655 331.483 193.278 331.137 193.777C330.52 194.668 329.821 195.677 329.821 196.564C329.821 197.451 330.52 197.653 331.137 197.832C331.483 197.932 331.913 198.058 331.988 198.275C332.068 198.518 331.913 199.196 331.776 199.794C331.546 200.802 331.308 201.845 331.741 202.29C332.179 202.729 333.04 202.252 333.8 201.831C334.268 201.571 334.799 201.276 335.006 201.329C335.214 201.384 335.383 201.86 335.534 202.28C335.779 202.969 336.057 203.749 336.776 203.608C336.9 203.582 337.024 203.532 337.146 203.462C337.707 203.137 338.25 202.386 338.778 201.657C339.17 201.115 339.613 200.501 339.888 200.343C340.161 200.185 340.606 200.286 340.997 200.376C341.613 200.517 342.25 200.654 342.927 200.072C343.55 200.06 344.245 199.86 344.981 199.435C347.597 197.924 349.725 194.238 349.725 191.218C349.725 189.715 349.198 188.656 348.347 188.157C348.44 188.016 348.538 187.874 348.641 187.726ZM338.192 201.025C337.815 201.547 337.301 202.264 337.092 202.302C336.86 202.347 336.653 201.766 336.502 201.341C336.293 200.756 336.078 200.152 335.607 200.026C335.139 199.907 334.468 200.278 333.819 200.638C333.35 200.898 332.706 201.256 332.57 201.118C332.434 200.979 332.619 200.167 332.755 199.574C332.944 198.746 333.139 197.891 332.961 197.348C332.784 196.832 332.259 196.68 331.751 196.533C331.369 196.421 330.845 196.269 330.845 195.973C330.845 195.676 331.368 194.92 331.752 194.367C332.26 193.632 332.785 192.874 332.964 192.147C333.142 191.405 332.945 190.78 332.755 190.174C332.619 189.737 332.432 189.138 332.569 188.84C332.711 188.534 333.358 188.147 333.829 187.864C334.476 187.477 335.144 187.078 335.61 186.418C336.073 185.76 336.289 184.907 336.497 184.084C336.65 183.48 336.859 182.653 337.089 182.433C337.304 182.229 337.815 182.35 338.192 182.437C338.733 182.559 339.292 182.687 339.887 182.343C340.483 181.999 341.042 181.227 341.583 180.479C341.958 179.959 342.469 179.25 342.683 179.203C342.915 179.157 343.122 179.738 343.273 180.164C343.482 180.749 343.697 181.354 344.167 181.479C344.636 181.599 345.306 181.227 345.954 180.868C346.424 180.608 347.069 180.249 347.204 180.388C347.34 180.528 347.154 181.339 347.019 181.932C346.83 182.759 346.635 183.615 346.813 184.157C346.99 184.673 347.515 184.826 348.023 184.973C348.407 185.083 348.93 185.237 348.93 185.532C348.93 185.828 348.406 186.585 348.024 187.138C347.857 187.379 347.692 187.626 347.533 187.872C346.822 187.755 345.982 187.927 345.08 188.426C345.103 188.19 345.115 187.958 345.115 187.734C345.115 185.292 343.854 183.827 341.901 184C339.231 184.251 336.152 187.481 335.035 191.203C334.49 193.008 334.481 194.66 335.01 195.855C335.538 197.048 336.541 197.643 337.832 197.526C338.477 197.466 339.157 197.232 339.841 196.837C339.974 196.76 340.108 196.671 340.241 196.582C340.24 196.62 340.236 196.658 340.236 196.695C340.236 197.622 340.439 198.38 340.792 198.942C340.499 198.931 340.198 198.98 339.887 199.16C339.292 199.504 338.733 200.277 338.192 201.025ZM340.383 195.288C339.655 195.819 338.917 196.146 338.23 196.207C336.083 196.4 335.073 194.117 335.979 191.116C336.878 188.119 339.356 185.519 341.505 185.318C343.077 185.177 344.093 186.357 344.093 188.323C344.093 188.583 344.067 188.858 344.029 189.137C342.24 190.594 340.821 193.003 340.383 195.288ZM344.981 198.252C344.345 198.619 343.744 198.78 343.219 198.755C343.213 198.755 343.207 198.754 343.201 198.754C342.046 198.691 341.261 197.728 341.261 196.104C341.261 193.735 342.93 190.844 344.981 189.66C347.033 188.475 348.702 189.439 348.702 191.808C348.702 194.176 347.033 197.067 344.981 198.252Z" fill="white"/>
</g>
</g>
<g filter="url(#filter9_d_141_729)">
<path fill-rule="evenodd" clip-rule="evenodd" d="M599.282 106L564.641 126L530 106V146L564.641 166L599.282 146V106Z" fill="#C83874"/>
<path fill-rule="evenodd" clip-rule="evenodd" d="M599.282 106L564.641 126L530 106V146L564.641 166L599.282 146V106Z" fill="black" fill-opacity="0.2"/>
<g style="mix-blend-mode:overlay">
<path d="M547.743 124.779C547.63 124.585 547.478 124.424 547.319 124.333C547.16 124.241 547.008 124.225 546.895 124.29L543.197 126.425C543.188 126.058 543.057 125.64 542.832 125.259C542.608 124.878 542.307 124.564 541.994 124.383L540.708 123.641C540.389 123.456 540.083 123.426 539.857 123.556C539.632 123.687 539.505 123.967 539.505 124.335V128.563L536.673 130.191C536.617 130.223 536.572 130.274 536.541 130.341C536.511 130.408 536.495 130.49 536.495 130.582C536.495 130.673 536.511 130.773 536.541 130.875C536.572 130.978 536.617 131.08 536.673 131.177C536.786 131.372 536.938 131.532 537.097 131.624C537.256 131.716 537.408 131.731 537.521 131.667L543.029 128.487L547.322 126.036L557.117 143.008C557.658 143.967 558.524 143.467 557.965 142.512L547.743 124.779ZM540.708 127.897V125.057L542 125.803V127.143L540.708 127.897Z" fill="white"/>
<path d="M547.743 129.32C547.63 129.125 547.478 128.965 547.319 128.873C547.16 128.781 547.008 128.766 546.895 128.83L536.673 134.732C536.617 134.764 536.572 134.815 536.541 134.882C536.511 134.949 536.495 135.03 536.495 135.122C536.495 135.214 536.511 135.314 536.541 135.416C536.572 135.518 536.617 135.621 536.673 135.718C536.782 135.914 536.933 136.079 537.092 136.176C537.251 136.272 537.405 136.294 537.521 136.235L547.322 130.549L557.117 147.549C557.658 148.507 558.524 148.007 557.965 147.052L547.743 129.32Z" fill="white"/>
<path d="M548.524 146.09C549.003 146.366 549.462 146.412 549.8 146.216C550.138 146.021 550.328 145.601 550.328 145.048V141.577C550.328 141.024 550.138 140.385 549.8 139.799C549.462 139.213 549.003 138.729 548.524 138.452L546.119 137.064C545.641 136.788 545.182 136.742 544.844 136.938C544.505 137.133 544.315 137.553 544.315 138.105V141.577C544.315 142.129 544.505 142.769 544.844 143.355C545.182 143.941 545.641 144.425 546.119 144.701L548.524 146.09ZM545.518 142.271V138.8C545.518 138.616 545.581 138.475 545.694 138.41C545.807 138.345 545.96 138.36 546.119 138.452L548.524 139.841C548.684 139.933 548.837 140.095 548.95 140.29C549.062 140.485 549.126 140.698 549.126 140.883V144.354C549.126 144.538 549.062 144.678 548.95 144.743C548.837 144.809 548.684 144.793 548.524 144.701L546.119 143.313C545.96 143.221 545.807 143.059 545.694 142.864C545.581 142.669 545.518 142.455 545.518 142.271Z" fill="white"/>
</g>
<g filter="url(#filter10_i_141_729)">
<rect width="40" height="40" transform="matrix(0.866025 0.5 -0.866025 0.5 564.641 86)" fill="#C83874"/>
</g>
<g filter="url(#filter11_f_141_729)">
<path d="M564.642 126V165.996" stroke="white" stroke-opacity="0.5" stroke-width="0.1"/>
</g>
</g>
<g filter="url(#filter12_d_141_729)">
<path fill-rule="evenodd" clip-rule="evenodd" d="M679.282 220L644.641 240L610 220V260L644.641 280L679.282 260V220Z" fill="#FF8F6D"/>
<path fill-rule="evenodd" clip-rule="evenodd" d="M679.282 220L644.641 240L610 220V260L644.641 280L679.282 260V220Z" fill="black" fill-opacity="0.2"/>
<g style="mix-blend-mode:overlay">
<path fill-rule="evenodd" clip-rule="evenodd" d="M626.768 247.001C626.836 246.745 626.923 246.46 627.032 246.164C627.385 245.206 628.016 244.004 629.123 243.525C629.526 243.351 629.881 243.181 630.138 242.985C630.265 242.889 630.344 242.804 630.388 242.738C630.4 242.72 630.407 242.707 630.412 242.697C630.415 242.608 630.403 242.572 630.401 242.565C630.396 242.545 630.369 242.463 630.254 242.256C630.254 242.256 630.251 242.253 630.245 242.245C630.222 242.214 630.152 242.121 630.01 241.962C629.815 241.743 629.563 241.487 629.285 241.226C628.691 240.667 628.522 240.519 628.017 240.177C627.357 239.731 626.749 239.478 626.326 239.359C625.942 239.251 625.583 239.247 625.163 239.439C624.447 239.766 624.179 240.694 624.242 241.377C624.259 241.563 624.377 242.012 624.683 242.769C624.969 243.477 625.348 244.281 625.742 245.062C626.114 245.798 626.482 246.483 626.768 247.001ZM624.337 237.898C623.329 238.358 622.903 239.648 623.012 240.828C623.207 242.929 626.413 248.429 626.413 248.429C626.413 248.429 626.691 248.875 626.974 249.039C627.582 249.389 627.766 248.986 627.766 248.986C627.766 248.986 628.199 245.824 629.938 245.071C630.744 244.722 631.595 244.295 631.644 243.558C631.684 242.961 631.519 242.442 631.133 241.757C630.638 240.878 629.3 239.55 628.017 238.748C626.518 237.811 625.457 237.386 624.337 237.898ZM624.145 248.641C624.456 248.946 624.747 249.215 625.002 249.441C624.697 249.595 624.288 249.784 623.836 249.952C623.356 250.13 622.85 250.275 622.38 250.335C621.877 250.398 621.547 250.343 621.395 250.275C620.835 250.025 619.897 249.174 619.256 247.977C618.879 247.274 618.703 246.758 618.605 246.258C618.497 245.707 618.412 244.956 618.468 244.226C618.512 243.668 618.555 243.498 618.742 242.92C618.83 242.65 618.925 242.415 619.018 242.242C619.084 242.117 619.13 242.063 619.145 242.044C619.149 242.039 619.151 242.037 619.151 242.037C619.272 241.974 619.329 241.977 619.343 241.979C619.348 241.979 619.374 241.981 619.453 242.029C619.463 242.041 619.479 242.059 619.5 242.085C619.58 242.182 619.693 242.338 619.839 242.569C620.137 243.038 620.462 243.635 620.815 244.304C621.783 246.141 623.139 247.654 624.145 248.641ZM621.534 251.775C620.567 251.343 619.237 250.083 618.334 248.399C617.331 246.526 617.169 245.207 617.231 243.512C617.284 242.061 617.765 240.794 618.279 240.518C618.679 240.304 619.045 240.325 619.582 240.681C620.246 241.121 621.041 242.563 621.746 243.901C623.267 246.787 626.222 248.993 626.222 248.993C626.222 248.993 626.664 249.461 626.664 250.162C626.664 250.49 626.417 250.667 626.417 250.667C626.417 250.667 623.256 252.545 621.534 251.775ZM629.638 250.836C629.894 251.063 630.185 251.331 630.495 251.636C631.501 252.624 632.858 254.137 633.826 255.973C634.179 256.643 634.504 257.24 634.801 257.709C634.948 257.94 635.061 258.096 635.14 258.193C635.162 258.219 635.177 258.237 635.188 258.248C635.266 258.297 635.292 258.299 635.297 258.299C635.311 258.301 635.369 258.304 635.491 258.241L635.491 258.239L635.493 258.237L635.496 258.234C635.511 258.215 635.557 258.161 635.623 258.036C635.715 257.863 635.811 257.627 635.898 257.358C636.086 256.779 636.129 256.609 636.172 256.051C636.229 255.322 636.144 254.571 636.036 254.02C635.937 253.52 635.761 253.004 635.385 252.3C634.743 251.103 633.806 250.253 633.246 250.003C633.094 249.935 632.764 249.88 632.261 249.943C631.791 250.002 631.284 250.148 630.805 250.326C630.353 250.493 629.944 250.683 629.638 250.836ZM636.306 251.879C635.404 250.195 634.074 248.934 633.107 248.502C631.385 247.733 628.224 249.61 628.224 249.61C628.224 249.61 627.977 249.788 627.977 250.115C627.977 250.817 628.419 251.285 628.419 251.285C628.419 251.285 631.373 253.491 632.895 256.377C633.6 257.714 634.395 259.156 635.059 259.596C635.595 259.952 635.962 259.974 636.362 259.759C636.876 259.484 637.357 258.217 637.41 256.766C637.472 255.071 637.31 253.752 636.306 251.879ZM627.878 253.001C627.809 253.256 627.722 253.542 627.613 253.838C627.261 254.796 626.629 255.997 625.523 256.476C625.119 256.651 624.764 256.821 624.507 257.016C624.381 257.112 624.302 257.197 624.257 257.264C624.246 257.281 624.238 257.295 624.233 257.305C624.231 257.394 624.242 257.43 624.244 257.437C624.25 257.456 624.276 257.539 624.391 257.746C624.391 257.746 624.394 257.749 624.4 257.757C624.424 257.788 624.494 257.881 624.635 258.039C624.831 258.259 625.083 258.515 625.36 258.776C625.954 259.335 626.123 259.483 626.628 259.824C627.288 260.271 627.896 260.523 628.319 260.643C628.703 260.751 629.062 260.755 629.483 260.563C630.199 260.235 630.467 259.307 630.403 258.625C630.386 258.439 630.269 257.99 629.963 257.233C629.676 256.525 629.297 255.721 628.903 254.94C628.532 254.203 628.163 253.518 627.878 253.001ZM630.309 262.104C631.316 261.643 631.743 260.354 631.633 259.174C631.438 257.073 628.232 251.572 628.232 251.572C628.232 251.572 627.955 251.127 627.671 250.963C627.064 250.612 626.879 251.016 626.879 251.016C626.879 251.016 626.446 254.178 624.708 254.93C623.902 255.279 623.051 255.706 623.001 256.444C622.961 257.041 623.126 257.559 623.512 258.244C624.008 259.124 625.346 260.452 626.628 261.253C628.128 262.19 629.189 262.616 630.309 262.104Z" fill="white"/>
</g>
<g filter="url(#filter13_i_141_729)">
<rect width="40" height="40" transform="matrix(0.866025 0.5 -0.866025 0.5 644.641 200)" fill="#FF8F6D"/>
</g>
<g filter="url(#filter14_f_141_729)">
<path d="M644.642 240V279.996" stroke="white" stroke-opacity="0.5" stroke-width="0.1"/>
</g>
</g>
<g filter="url(#filter15_d_141_729)">
<path fill-rule="evenodd" clip-rule="evenodd" d="M481.564 161L446.923 181L412.282 161V201L446.923 221L481.564 201V161Z" fill="#5735C8"/>
<path fill-rule="evenodd" clip-rule="evenodd" d="M481.564 161L446.923 181L412.282 161V201L446.923 221L481.564 201V161Z" fill="black" fill-opacity="0.2"/>
<g style="mix-blend-mode:overlay">
<path d="M438.418 203.925L438.239 203.822V186.663C438.239 185.365 437.335 183.797 436.21 183.148L422.995 175.518C421.871 174.869 420.966 175.392 420.966 176.69V193.849L420.788 193.746C420.075 193.335 419.499 193.667 419.499 194.491V195.345C419.499 196.168 420.075 197.166 420.788 197.577L438.418 207.756C439.13 208.168 439.706 207.835 439.706 207.012V206.157C439.706 205.334 439.13 204.337 438.418 203.925ZM422.076 177.331C422.076 176.745 422.488 176.508 422.995 176.801L436.21 184.431C436.718 184.723 437.129 185.436 437.129 186.021V203.181L436.032 202.548V186.227C436.032 186.069 435.977 185.863 435.868 185.689C435.772 185.507 435.621 185.357 435.484 185.277L423.721 178.486C423.42 178.312 423.173 178.455 423.173 178.803V195.124L422.076 194.491V177.331ZM430.165 190.675V183.489L434.922 186.235V193.422L430.165 190.675ZM434.922 194.72V201.907L430.165 199.16V191.974L434.922 194.72ZM424.284 187.28V180.093L429.041 182.84V190.026L424.284 187.28ZM429.041 191.325V198.511L424.284 195.765V188.578L429.041 191.325ZM438.596 206.577L420.609 196.192V194.926L438.596 205.31V206.577Z" fill="white"/>
</g>
<g filter="url(#filter16_i_141_729)">
<rect width="40" height="40" transform="matrix(0.866025 0.5 -0.866025 0.5 446.923 141)" fill="#5735C8"/>
</g>
<g filter="url(#filter17_f_141_729)">
<path d="M446.925 181V220.996" stroke="white" stroke-opacity="0.5" stroke-width="0.1"/>
</g>
</g>
<defs>
<filter id="filter0_d_141_729" x="0" y="115" width="249.282" height="260" filterUnits="userSpaceOnUse" color-interpolation-filters="sRGB">
<feFlood flood-opacity="0" result="BackgroundImageFix"/>
<feColorMatrix in="SourceAlpha" type="matrix" values="0 0 0 0 0 0 0 0 0 0 0 0 0 0 0 0 0 0 127 0" result="hardAlpha"/>
<feOffset dy="4"/>
<feGaussianBlur stdDeviation="45"/>
<feComposite in2="hardAlpha" operator="out"/>
<feColorMatrix type="matrix" values="0 0 0 0 0.380392 0 0 0 0 0.760784 0 0 0 0 0.882353 0 0 0 1 0"/>
<feBlend mode="normal" in2="BackgroundImageFix" result="effect1_dropShadow_141_729"/>
<feBlend mode="normal" in="SourceGraphic" in2="effect1_dropShadow_141_729" result="shape"/>
</filter>
<filter id="filter1_f_141_729" x="124.092" y="240.5" width="1.09998" height="40.9961" filterUnits="userSpaceOnUse" color-interpolation-filters="sRGB">
<feFlood flood-opacity="0" result="BackgroundImageFix"/>
<feBlend mode="normal" in="SourceGraphic" in2="BackgroundImageFix" result="shape"/>
<feGaussianBlur stdDeviation="0.25" result="effect1_foregroundBlur_141_729"/>
</filter>
<filter id="filter2_i_141_729" x="90.0001" y="201" width="69.282" height="40" filterUnits="userSpaceOnUse" color-interpolation-filters="sRGB">
<feFlood flood-opacity="0" result="BackgroundImageFix"/>
<feBlend mode="normal" in="SourceGraphic" in2="BackgroundImageFix" result="shape"/>
<feColorMatrix in="SourceAlpha" type="matrix" values="0 0 0 0 0 0 0 0 0 0 0 0 0 0 0 0 0 0 127 0" result="hardAlpha"/>
<feOffset/>
<feGaussianBlur stdDeviation="5"/>
<feComposite in2="hardAlpha" operator="arithmetic" k2="-1" k3="1"/>
<feColorMatrix type="matrix" values="0 0 0 0 0 0 0 0 0 0 0 0 0 0 0 0 0 0 0.2 0"/>
<feBlend mode="normal" in2="shape" result="effect1_innerShadow_141_729"/>
</filter>
<filter id="filter3_d_141_729" x="80" y="0" width="249.282" height="260" filterUnits="userSpaceOnUse" color-interpolation-filters="sRGB">
<feFlood flood-opacity="0" result="BackgroundImageFix"/>
<feColorMatrix in="SourceAlpha" type="matrix" values="0 0 0 0 0 0 0 0 0 0 0 0 0 0 0 0 0 0 127 0" result="hardAlpha"/>
<feOffset dy="4"/>
<feGaussianBlur stdDeviation="45"/>
<feComposite in2="hardAlpha" operator="out"/>
<feColorMatrix type="matrix" values="0 0 0 0 0.717647 0 0 0 0 0.580392 0 0 0 0 0.945098 0 0 0 1 0"/>
<feBlend mode="normal" in2="BackgroundImageFix" result="effect1_dropShadow_141_729"/>
<feBlend mode="normal" in="SourceGraphic" in2="effect1_dropShadow_141_729" result="shape"/>
</filter>
<filter id="filter4_f_141_729" x="204.092" y="125.5" width="1.09998" height="40.9961" filterUnits="userSpaceOnUse" color-interpolation-filters="sRGB">
<feFlood flood-opacity="0" result="BackgroundImageFix"/>
<feBlend mode="normal" in="SourceGraphic" in2="BackgroundImageFix" result="shape"/>
<feGaussianBlur stdDeviation="0.25" result="effect1_foregroundBlur_141_729"/>
</filter>
<filter id="filter5_i_141_729" x="170" y="86" width="69.282" height="40" filterUnits="userSpaceOnUse" color-interpolation-filters="sRGB">
<feFlood flood-opacity="0" result="BackgroundImageFix"/>
<feBlend mode="normal" in="SourceGraphic" in2="BackgroundImageFix" result="shape"/>
<feColorMatrix in="SourceAlpha" type="matrix" values="0 0 0 0 0 0 0 0 0 0 0 0 0 0 0 0 0 0 127 0" result="hardAlpha"/>
<feOffset/>
<feGaussianBlur stdDeviation="5"/>
<feComposite in2="hardAlpha" operator="arithmetic" k2="-1" k3="1"/>
<feColorMatrix type="matrix" values="0 0 0 0 0 0 0 0 0 0 0 0 0 0 0 0 0 0 0.2 0"/>
<feBlend mode="normal" in2="shape" result="effect1_innerShadow_141_729"/>
</filter>
<filter id="filter6_d_141_729" x="198" y="55" width="249.282" height="260" filterUnits="userSpaceOnUse" color-interpolation-filters="sRGB">
<feFlood flood-opacity="0" result="BackgroundImageFix"/>
<feColorMatrix in="SourceAlpha" type="matrix" values="0 0 0 0 0 0 0 0 0 0 0 0 0 0 0 0 0 0 127 0" result="hardAlpha"/>
<feOffset dy="4"/>
<feGaussianBlur stdDeviation="45"/>
<feComposite in2="hardAlpha" operator="out"/>
<feColorMatrix type="matrix" values="0 0 0 0 0.92549 0 0 0 0 0.392157 0 0 0 0 0.141176 0 0 0 1 0"/>
<feBlend mode="normal" in2="BackgroundImageFix" result="effect1_dropShadow_141_729"/>
<feBlend mode="normal" in="SourceGraphic" in2="effect1_dropShadow_141_729" result="shape"/>
</filter>
<filter id="filter7_f_141_729" x="322.092" y="180.5" width="1.1001" height="40.9961" filterUnits="userSpaceOnUse" color-interpolation-filters="sRGB">
<feFlood flood-opacity="0" result="BackgroundImageFix"/>
<feBlend mode="normal" in="SourceGraphic" in2="BackgroundImageFix" result="shape"/>
<feGaussianBlur stdDeviation="0.25" result="effect1_foregroundBlur_141_729"/>
</filter>
<filter id="filter8_i_141_729" x="288" y="141" width="69.282" height="40" filterUnits="userSpaceOnUse" color-interpolation-filters="sRGB">
<feFlood flood-opacity="0" result="BackgroundImageFix"/>
<feBlend mode="normal" in="SourceGraphic" in2="BackgroundImageFix" result="shape"/>
<feColorMatrix in="SourceAlpha" type="matrix" values="0 0 0 0 0 0 0 0 0 0 0 0 0 0 0 0 0 0 127 0" result="hardAlpha"/>
<feOffset/>
<feGaussianBlur stdDeviation="5"/>
<feComposite in2="hardAlpha" operator="arithmetic" k2="-1" k3="1"/>
<feColorMatrix type="matrix" values="0 0 0 0 0 0 0 0 0 0 0 0 0 0 0 0 0 0 0.2 0"/>
<feBlend mode="normal" in2="shape" result="effect1_innerShadow_141_729"/>
</filter>
<filter id="filter9_d_141_729" x="440" y="0" width="249.282" height="260" filterUnits="userSpaceOnUse" color-interpolation-filters="sRGB">
<feFlood flood-opacity="0" result="BackgroundImageFix"/>
<feColorMatrix in="SourceAlpha" type="matrix" values="0 0 0 0 0 0 0 0 0 0 0 0 0 0 0 0 0 0 127 0" result="hardAlpha"/>
<feOffset dy="4"/>
<feGaussianBlur stdDeviation="45"/>
<feComposite in2="hardAlpha" operator="out"/>
<feColorMatrix type="matrix" values="0 0 0 0 0.784314 0 0 0 0 0.219608 0 0 0 0 0.454902 0 0 0 1 0"/>
<feBlend mode="normal" in2="BackgroundImageFix" result="effect1_dropShadow_141_729"/>
<feBlend mode="normal" in="SourceGraphic" in2="effect1_dropShadow_141_729" result="shape"/>
</filter>
<filter id="filter10_i_141_729" x="530" y="86" width="69.282" height="40" filterUnits="userSpaceOnUse" color-interpolation-filters="sRGB">
<feFlood flood-opacity="0" result="BackgroundImageFix"/>
<feBlend mode="normal" in="SourceGraphic" in2="BackgroundImageFix" result="shape"/>
<feColorMatrix in="SourceAlpha" type="matrix" values="0 0 0 0 0 0 0 0 0 0 0 0 0 0 0 0 0 0 127 0" result="hardAlpha"/>
<feOffset/>
<feGaussianBlur stdDeviation="5"/>
<feComposite in2="hardAlpha" operator="arithmetic" k2="-1" k3="1"/>
<feColorMatrix type="matrix" values="0 0 0 0 0 0 0 0 0 0 0 0 0 0 0 0 0 0 0.2 0"/>
<feBlend mode="normal" in2="shape" result="effect1_innerShadow_141_729"/>
</filter>
<filter id="filter11_f_141_729" x="564.092" y="125.5" width="1.1001" height="40.9961" filterUnits="userSpaceOnUse" color-interpolation-filters="sRGB">
<feFlood flood-opacity="0" result="BackgroundImageFix"/>
<feBlend mode="normal" in="SourceGraphic" in2="BackgroundImageFix" result="shape"/>
<feGaussianBlur stdDeviation="0.25" result="effect1_foregroundBlur_141_729"/>
</filter>
<filter id="filter12_d_141_729" x="520" y="114" width="249.282" height="260" filterUnits="userSpaceOnUse" color-interpolation-filters="sRGB">
<feFlood flood-opacity="0" result="BackgroundImageFix"/>
<feColorMatrix in="SourceAlpha" type="matrix" values="0 0 0 0 0 0 0 0 0 0 0 0 0 0 0 0 0 0 127 0" result="hardAlpha"/>
<feOffset dy="4"/>
<feGaussianBlur stdDeviation="45"/>
<feComposite in2="hardAlpha" operator="out"/>
<feColorMatrix type="matrix" values="0 0 0 0 1 0 0 0 0 0.560784 0 0 0 0 0.427451 0 0 0 1 0"/>
<feBlend mode="normal" in2="BackgroundImageFix" result="effect1_dropShadow_141_729"/>
<feBlend mode="normal" in="SourceGraphic" in2="effect1_dropShadow_141_729" result="shape"/>
</filter>
<filter id="filter13_i_141_729" x="610" y="200" width="69.282" height="40" filterUnits="userSpaceOnUse" color-interpolation-filters="sRGB">
<feFlood flood-opacity="0" result="BackgroundImageFix"/>
<feBlend mode="normal" in="SourceGraphic" in2="BackgroundImageFix" result="shape"/>
<feColorMatrix in="SourceAlpha" type="matrix" values="0 0 0 0 0 0 0 0 0 0 0 0 0 0 0 0 0 0 127 0" result="hardAlpha"/>
<feOffset/>
<feGaussianBlur stdDeviation="5"/>
<feComposite in2="hardAlpha" operator="arithmetic" k2="-1" k3="1"/>
<feColorMatrix type="matrix" values="0 0 0 0 0 0 0 0 0 0 0 0 0 0 0 0 0 0 0.2 0"/>
<feBlend mode="normal" in2="shape" result="effect1_innerShadow_141_729"/>
</filter>
<filter id="filter14_f_141_729" x="644.092" y="239.5" width="1.1001" height="40.9961" filterUnits="userSpaceOnUse" color-interpolation-filters="sRGB">
<feFlood flood-opacity="0" result="BackgroundImageFix"/>
<feBlend mode="normal" in="SourceGraphic" in2="BackgroundImageFix" result="shape"/>
<feGaussianBlur stdDeviation="0.25" result="effect1_foregroundBlur_141_729"/>
</filter>
<filter id="filter15_d_141_729" x="322.282" y="55" width="249.282" height="260" filterUnits="userSpaceOnUse" color-interpolation-filters="sRGB">
<feFlood flood-opacity="0" result="BackgroundImageFix"/>
<feColorMatrix in="SourceAlpha" type="matrix" values="0 0 0 0 0 0 0 0 0 0 0 0 0 0 0 0 0 0 127 0" result="hardAlpha"/>
<feOffset dy="4"/>
<feGaussianBlur stdDeviation="45"/>
<feComposite in2="hardAlpha" operator="out"/>
<feColorMatrix type="matrix" values="0 0 0 0 0.341176 0 0 0 0 0.207843 0 0 0 0 0.784314 0 0 0 1 0"/>
<feBlend mode="normal" in2="BackgroundImageFix" result="effect1_dropShadow_141_729"/>
<feBlend mode="normal" in="SourceGraphic" in2="effect1_dropShadow_141_729" result="shape"/>
</filter>
<filter id="filter16_i_141_729" x="412.282" y="141" width="69.282" height="40" filterUnits="userSpaceOnUse" color-interpolation-filters="sRGB">
<feFlood flood-opacity="0" result="BackgroundImageFix"/>
<feBlend mode="normal" in="SourceGraphic" in2="BackgroundImageFix" result="shape"/>
<feColorMatrix in="SourceAlpha" type="matrix" values="0 0 0 0 0 0 0 0 0 0 0 0 0 0 0 0 0 0 127 0" result="hardAlpha"/>
<feOffset/>
<feGaussianBlur stdDeviation="5"/>
<feComposite in2="hardAlpha" operator="arithmetic" k2="-1" k3="1"/>
<feColorMatrix type="matrix" values="0 0 0 0 0 0 0 0 0 0 0 0 0 0 0 0 0 0 0.2 0"/>
<feBlend mode="normal" in2="shape" result="effect1_innerShadow_141_729"/>
</filter>
<filter id="filter17_f_141_729" x="446.375" y="180.5" width="1.1001" height="40.9961" filterUnits="userSpaceOnUse" color-interpolation-filters="sRGB">
<feFlood flood-opacity="0" result="BackgroundImageFix"/>
<feBlend mode="normal" in="SourceGraphic" in2="BackgroundImageFix" result="shape"/>
<feGaussianBlur stdDeviation="0.25" result="effect1_foregroundBlur_141_729"/>
</filter>
<linearGradient id="paint0_linear_141_729" x1="322.641" y1="220.938" x2="323.709" y2="220.938" gradientUnits="userSpaceOnUse">
<stop stop-color="#B721FF"/>
<stop offset="1" stop-color="#21FDF6"/>
</linearGradient>
<linearGradient id="paint1_linear_141_729" x1="446.649" y1="220.938" x2="447.717" y2="220.938" gradientUnits="userSpaceOnUse">
<stop stop-color="#B721FF"/>
<stop offset="1" stop-color="#21FDF6"/>
</linearGradient>
<linearGradient id="paint2_linear_141_729" x1="124.648" y1="280.824" x2="235.95" y2="285.081" gradientUnits="userSpaceOnUse">
<stop stop-color="#B721FF"/>
<stop offset="1" stop-color="#21FDF6"/>
</linearGradient>
<linearGradient id="paint3_linear_141_729" x1="644.348" y1="278.824" x2="533.046" y2="283.081" gradientUnits="userSpaceOnUse">
<stop stop-color="#B721FF"/>
<stop offset="1" stop-color="#21FDF6"/>
</linearGradient>
<linearGradient id="paint4_linear_141_729" x1="205" y1="166" x2="290.395" y2="168.156" gradientUnits="userSpaceOnUse">
<stop stop-color="#B721FF"/>
<stop offset="1" stop-color="#21FDF6"/>
</linearGradient>
<linearGradient id="paint5_linear_141_729" x1="563.996" y1="164" x2="478.602" y2="166.156" gradientUnits="userSpaceOnUse">
<stop stop-color="#B721FF"/>
<stop offset="1" stop-color="#21FDF6"/>
</linearGradient>
<linearGradient id="paint6_linear_141_729" x1="299.203" y1="366.291" x2="559.143" y2="366.291" gradientUnits="userSpaceOnUse">
<stop stop-color="#8655EB"/>
<stop offset="1" stop-color="#6F7AED"/>
</linearGradient>
<linearGradient id="paint7_linear_141_729" x1="429.173" y1="366.291" x2="429.173" y2="523.984" gradientUnits="userSpaceOnUse">
<stop stop-color="#687ABB" stop-opacity="0"/>
<stop offset="1" stop-color="#2F3755"/>
</linearGradient>
<linearGradient id="paint8_linear_141_729" x1="350.622" y1="366.291" x2="559.143" y2="366.291" gradientUnits="userSpaceOnUse">
<stop stop-opacity="0"/>
<stop offset="0.278246" stop-opacity="0.994868"/>
<stop offset="0.570118"/>
<stop offset="0.596503" stop-opacity="0"/>
<stop offset="1" stop-opacity="0"/>
</linearGradient>
<linearGradient id="paint9_linear_141_729" x1="419.155" y1="505.239" x2="458.48" y2="505.239" gradientUnits="userSpaceOnUse">
<stop offset="0.410701" stop-color="#54A4ED"/>
<stop offset="0.411882" stop-color="#305D87" stop-opacity="0.2"/>
</linearGradient>
<linearGradient id="paint10_linear_141_729" x1="210.078" y1="481.748" x2="390.104" y2="481.748" gradientUnits="userSpaceOnUse">
<stop stop-color="#6091ED"/>
<stop offset="1" stop-color="#37CEEB"/>
</linearGradient>
<linearGradient id="paint11_linear_141_729" x1="451.595" y1="519.301" x2="490.15" y2="519.301" gradientUnits="userSpaceOnUse">
<stop offset="0.202789" stop-color="#54A4ED"/>
<stop offset="0.205199" stop-color="#305D87" stop-opacity="0.2"/>
</linearGradient>
<linearGradient id="paint12_linear_141_729" x1="466.365" y1="521.609" x2="534.879" y2="521.609" gradientUnits="userSpaceOnUse">
<stop offset="0.234163" stop-color="#54A4ED"/>
<stop offset="0.237553" stop-color="#305D87" stop-opacity="0.2"/>
</linearGradient>
<linearGradient id="paint13_linear_141_729" x1="385.23" y1="273.24" x2="385.23" y2="558.644" gradientUnits="userSpaceOnUse">
<stop stop-color="#B721FF"/>
<stop offset="1" stop-color="#21FDF6"/>
</linearGradient>
<linearGradient id="paint14_linear_141_729" x1="385.23" y1="273.24" x2="385.23" y2="558.644" gradientUnits="userSpaceOnUse">
<stop stop-color="#B721FF"/>
<stop offset="1" stop-color="#21FDF6"/>
</linearGradient>
</defs>
</svg>
