<svg width="304" height="104" viewBox="0 0 304 104" fill="none" xmlns="http://www.w3.org/2000/svg">
<g filter="url(#filter0_bii_2292_1132)">
<rect width="304" height="104" rx="20" fill="white" fill-opacity="0.06"/>
<rect x="0.5" y="0.5" width="303" height="103" rx="19.5" stroke="white" stroke-opacity="0.06"/>
<rect x="0.5" y="0.5" width="303" height="103" rx="19.5" stroke="url(#paint0_linear_2292_1132)"/>
<g clip-path="url(#clip0_2292_1132)">
<path fill-rule="evenodd" clip-rule="evenodd" d="M35.5 55C46.2696 55 55 46.2696 55 35.5C55 24.7304 46.2696 16 35.5 16C24.7304 16 16 24.7304 16 35.5C16 46.2696 24.7304 55 35.5 55ZM35.5 26.3929C33.4044 26.3929 31.7013 28.1427 31.7013 30.2959C31.7013 32.4491 33.4044 34.199 35.5 34.199C37.5956 34.199 39.2987 32.4491 39.2987 30.2959C39.2987 28.1427 37.5956 26.3929 35.5 26.3929ZM28.5357 41.3546C28.5357 38.7201 31.7519 35.5 35.5 35.5C39.2481 35.5 42.4643 38.7201 42.4643 41.3546C42.4643 44.2233 38.9442 44.6072 35.5 44.6072C32.0558 44.6072 28.5357 44.2233 28.5357 41.3546Z" fill="white"/>
</g>
<path d="M69.5547 27.8438V26.1641H72.4844C72.9792 26.1641 73.3776 26.0859 73.6797 25.9297C73.987 25.7682 74.2109 25.5469 74.3516 25.2656C74.4974 24.9844 74.5703 24.6641 74.5703 24.3047C74.5703 23.9557 74.4974 23.6302 74.3516 23.3281C74.2109 23.0208 73.987 22.7734 73.6797 22.5859C73.3776 22.3984 72.9792 22.3047 72.4844 22.3047H70.1953V32H68.1172V20.625H72.4844C73.3698 20.625 74.1224 20.7839 74.7422 21.1016C75.3672 21.4141 75.8438 21.8464 76.1719 22.3984C76.5052 22.9453 76.6719 23.5755 76.6719 24.2891C76.6719 25.0234 76.5052 25.6562 76.1719 26.1875C75.8438 26.7188 75.3672 27.1276 74.7422 27.4141C74.1224 27.7005 73.3698 27.8438 72.4844 27.8438H69.5547ZM81.9844 32.1562C81.1354 32.1562 80.4036 31.9766 79.7891 31.6172C79.1797 31.2526 78.7083 30.7604 78.375 30.1406C78.0469 29.5208 77.8828 28.8307 77.8828 28.0703V27.75C77.8828 26.875 78.0495 26.112 78.3828 25.4609C78.7161 24.8047 79.1745 24.2969 79.7578 23.9375C80.3411 23.5729 81.0052 23.3906 81.75 23.3906C82.5625 23.3906 83.237 23.5677 83.7734 23.9219C84.3151 24.2708 84.7214 24.7578 84.9922 25.3828C85.263 26.0026 85.3984 26.7214 85.3984 27.5391V28.3984H78.8281V26.9766H83.4219V26.8203C83.4115 26.4974 83.349 26.1979 83.2344 25.9219C83.1198 25.6458 82.9401 25.4245 82.6953 25.2578C82.4557 25.0859 82.138 25 81.7422 25C81.3307 25 80.987 25.1146 80.7109 25.3438C80.4401 25.5729 80.2344 25.8932 80.0938 26.3047C79.9583 26.7161 79.8906 27.1979 79.8906 27.75V28.0703C79.8906 28.5391 79.9766 28.9609 80.1484 29.3359C80.3255 29.7109 80.5781 30.0078 80.9062 30.2266C81.2396 30.4401 81.638 30.5469 82.1016 30.5469C82.5443 30.5469 82.9401 30.4609 83.2891 30.2891C83.6432 30.112 83.9479 29.8594 84.2031 29.5312L85.2422 30.5859C84.9766 30.9818 84.5729 31.3438 84.0312 31.6719C83.4948 31.9948 82.8125 32.1562 81.9844 32.1562ZM89.7734 32.1562C89.0911 32.1562 88.5026 31.9714 88.0078 31.6016C87.513 31.2266 87.1328 30.7161 86.8672 30.0703C86.6016 29.4245 86.4688 28.6901 86.4688 27.8672V27.7031C86.4688 26.849 86.6016 26.099 86.8672 25.4531C87.1328 24.8021 87.513 24.2969 88.0078 23.9375C88.5026 23.5729 89.0964 23.3906 89.7891 23.3906C90.4714 23.3906 91.0391 23.5703 91.4922 23.9297C91.9505 24.2839 92.3099 24.776 92.5703 25.4062C92.8359 26.0312 93.013 26.7552 93.1016 27.5781V28.0391C93.013 28.8307 92.8385 29.5365 92.5781 30.1562C92.3177 30.776 91.9583 31.2656 91.5 31.625C91.0417 31.9792 90.4661 32.1562 89.7734 32.1562ZM90.2812 30.5156C90.6979 30.5156 91.0391 30.4245 91.3047 30.2422C91.5755 30.0599 91.7839 29.8125 91.9297 29.5C92.0807 29.1875 92.1823 28.8333 92.2344 28.4375V27.1875C92.2031 26.875 92.1406 26.5859 92.0469 26.3203C91.9583 26.0547 91.8359 25.8255 91.6797 25.6328C91.5286 25.4401 91.3385 25.2917 91.1094 25.1875C90.8802 25.0781 90.6094 25.0234 90.2969 25.0234C89.8594 25.0234 89.5052 25.1432 89.2344 25.3828C88.9688 25.6224 88.7734 25.9453 88.6484 26.3516C88.5286 26.7578 88.4688 27.2083 88.4688 27.7031V27.8672C88.4688 28.3568 88.5286 28.8021 88.6484 29.2031C88.7682 29.6042 88.9609 29.9245 89.2266 30.1641C89.4922 30.3984 89.8438 30.5156 90.2812 30.5156ZM92.1172 32L91.9219 30.2109V20H93.9297V32H92.1172ZM97.8516 32H95.8516V23.5469H97.75L97.8516 25.25V32ZM100.391 25.3984C100.271 25.3776 100.141 25.362 100 25.3516C99.8646 25.3411 99.7318 25.3359 99.6016 25.3359C99.1797 25.3359 98.8281 25.4115 98.5469 25.5625C98.2656 25.7083 98.0521 25.9219 97.9062 26.2031C97.7656 26.4792 97.6823 26.8099 97.6562 27.1953L97.2109 27.1641C97.2109 26.4505 97.3047 25.8099 97.4922 25.2422C97.6797 24.6693 97.9583 24.2188 98.3281 23.8906C98.7031 23.5573 99.1693 23.3906 99.7266 23.3906C99.8359 23.3906 99.9583 23.401 100.094 23.4219C100.229 23.4375 100.333 23.4609 100.406 23.4922L100.391 25.3984ZM101.039 27.6953C101.039 26.8724 101.195 26.138 101.508 25.4922C101.82 24.8464 102.268 24.3359 102.852 23.9609C103.44 23.5807 104.148 23.3906 104.977 23.3906C105.815 23.3906 106.531 23.5807 107.125 23.9609C107.719 24.3359 108.169 24.8464 108.477 25.4922C108.789 26.138 108.945 26.8724 108.945 27.6953V27.8594C108.945 28.6771 108.789 29.4115 108.477 30.0625C108.169 30.7083 107.719 31.2188 107.125 31.5938C106.536 31.9688 105.826 32.1562 104.992 32.1562C104.159 32.1562 103.448 31.9688 102.859 31.5938C102.271 31.2188 101.82 30.7083 101.508 30.0625C101.195 29.4115 101.039 28.6771 101.039 27.8594V27.6953ZM103.039 27.8594C103.039 28.349 103.107 28.7995 103.242 29.2109C103.378 29.6172 103.589 29.9427 103.875 30.1875C104.161 30.4271 104.534 30.5469 104.992 30.5469C105.451 30.5469 105.823 30.4271 106.109 30.1875C106.396 29.9427 106.604 29.6172 106.734 29.2109C106.87 28.7995 106.938 28.349 106.938 27.8594V27.6953C106.938 27.2109 106.87 26.7656 106.734 26.3594C106.604 25.9479 106.393 25.6198 106.102 25.375C105.815 25.125 105.44 25 104.977 25C104.523 25 104.154 25.125 103.867 25.375C103.581 25.6198 103.37 25.9479 103.234 26.3594C103.104 26.7656 103.039 27.2109 103.039 27.6953V27.8594ZM116.07 27.8438V26.1641H119C119.495 26.1641 119.893 26.0859 120.195 25.9297C120.503 25.7682 120.727 25.5469 120.867 25.2656C121.013 24.9844 121.086 24.6641 121.086 24.3047C121.086 23.9557 121.013 23.6302 120.867 23.3281C120.727 23.0208 120.503 22.7734 120.195 22.5859C119.893 22.3984 119.495 22.3047 119 22.3047H116.711V32H114.633V20.625H119C119.885 20.625 120.638 20.7839 121.258 21.1016C121.883 21.4141 122.359 21.8464 122.688 22.3984C123.021 22.9453 123.188 23.5755 123.188 24.2891C123.188 25.0234 123.021 25.6562 122.688 26.1875C122.359 26.7188 121.883 27.1276 121.258 27.4141C120.638 27.7005 119.885 27.8438 119 27.8438H116.07ZM128.5 32.1562C127.651 32.1562 126.919 31.9766 126.305 31.6172C125.695 31.2526 125.224 30.7604 124.891 30.1406C124.562 29.5208 124.398 28.8307 124.398 28.0703V27.75C124.398 26.875 124.565 26.112 124.898 25.4609C125.232 24.8047 125.69 24.2969 126.273 23.9375C126.857 23.5729 127.521 23.3906 128.266 23.3906C129.078 23.3906 129.753 23.5677 130.289 23.9219C130.831 24.2708 131.237 24.7578 131.508 25.3828C131.779 26.0026 131.914 26.7214 131.914 27.5391V28.3984H125.344V26.9766H129.938V26.8203C129.927 26.4974 129.865 26.1979 129.75 25.9219C129.635 25.6458 129.456 25.4245 129.211 25.2578C128.971 25.0859 128.654 25 128.258 25C127.846 25 127.503 25.1146 127.227 25.3438C126.956 25.5729 126.75 25.8932 126.609 26.3047C126.474 26.7161 126.406 27.1979 126.406 27.75V28.0703C126.406 28.5391 126.492 28.9609 126.664 29.3359C126.841 29.7109 127.094 30.0078 127.422 30.2266C127.755 30.4401 128.154 30.5469 128.617 30.5469C129.06 30.5469 129.456 30.4609 129.805 30.2891C130.159 30.112 130.464 29.8594 130.719 29.5312L131.758 30.5859C131.492 30.9818 131.089 31.3438 130.547 31.6719C130.01 31.9948 129.328 32.1562 128.5 32.1562ZM135.336 32H133.336V23.5469H135.234L135.336 25.25V32ZM137.875 25.3984C137.755 25.3776 137.625 25.362 137.484 25.3516C137.349 25.3411 137.216 25.3359 137.086 25.3359C136.664 25.3359 136.312 25.4115 136.031 25.5625C135.75 25.7083 135.536 25.9219 135.391 26.2031C135.25 26.4792 135.167 26.8099 135.141 27.1953L134.695 27.1641C134.695 26.4505 134.789 25.8099 134.977 25.2422C135.164 24.6693 135.443 24.2188 135.812 23.8906C136.188 23.5573 136.654 23.3906 137.211 23.3906C137.32 23.3906 137.443 23.401 137.578 23.4219C137.714 23.4375 137.818 23.4609 137.891 23.4922L137.875 25.3984ZM142.812 32.1562C141.964 32.1562 141.232 31.9766 140.617 31.6172C140.008 31.2526 139.536 30.7604 139.203 30.1406C138.875 29.5208 138.711 28.8307 138.711 28.0703V27.75C138.711 26.875 138.878 26.112 139.211 25.4609C139.544 24.8047 140.003 24.2969 140.586 23.9375C141.169 23.5729 141.833 23.3906 142.578 23.3906C143.391 23.3906 144.065 23.5677 144.602 23.9219C145.143 24.2708 145.549 24.7578 145.82 25.3828C146.091 26.0026 146.227 26.7214 146.227 27.5391V28.3984H139.656V26.9766H144.25V26.8203C144.24 26.4974 144.177 26.1979 144.062 25.9219C143.948 25.6458 143.768 25.4245 143.523 25.2578C143.284 25.0859 142.966 25 142.57 25C142.159 25 141.815 25.1146 141.539 25.3438C141.268 25.5729 141.062 25.8932 140.922 26.3047C140.786 26.7161 140.719 27.1979 140.719 27.75V28.0703C140.719 28.5391 140.805 28.9609 140.977 29.3359C141.154 29.7109 141.406 30.0078 141.734 30.2266C142.068 30.4401 142.466 30.5469 142.93 30.5469C143.372 30.5469 143.768 30.4609 144.117 30.2891C144.471 30.112 144.776 29.8594 145.031 29.5312L146.07 30.5859C145.805 30.9818 145.401 31.3438 144.859 31.6719C144.323 31.9948 143.641 32.1562 142.812 32.1562ZM154.234 32H147.922V30.3906H154.234V32ZM148.633 32H147.32V30.7266L152.75 23.5469H154.078V24.7812L148.633 32ZM153.328 25.1641H147.422V23.5469H153.328V25.1641Z" fill="white"/>
<rect x="227" y="20" width="60" height="17" rx="8.5" fill="url(#paint1_linear_2292_1132)"/>
<path d="M239.564 32H238.651V25.9697L236.835 26.6387V25.8232L239.423 24.8516H239.564V32ZM243.217 32H242.304V26.7168H243.168L243.217 27.7666V32ZM242.606 29.1387C242.61 28.6569 242.691 28.2272 242.851 27.8496C243.013 27.4688 243.253 27.1693 243.568 26.9512C243.887 26.7298 244.283 26.6191 244.755 26.6191C245.25 26.6191 245.658 26.764 245.98 27.0537C246.303 27.3434 246.464 27.8187 246.464 28.4795V32H245.551V28.5234C245.551 28.2467 245.504 28.0254 245.409 27.8594C245.318 27.6901 245.188 27.568 245.019 27.4932C244.849 27.415 244.651 27.376 244.423 27.376C244.159 27.376 243.938 27.4232 243.759 27.5176C243.583 27.612 243.441 27.7422 243.334 27.9082C243.227 28.0742 243.148 28.2646 243.1 28.4795C243.054 28.6911 243.031 28.9157 243.031 29.1533L242.606 29.1387ZM245.844 28.8408C245.847 28.4567 245.928 28.0954 246.088 27.7568C246.251 27.4183 246.488 27.1449 246.801 26.9365C247.113 26.7249 247.494 26.6191 247.943 26.6191C248.321 26.6191 248.642 26.6859 248.905 26.8193C249.169 26.9528 249.369 27.1595 249.506 27.4395C249.643 27.7194 249.711 28.0824 249.711 28.5283V32H248.798V28.5186C248.798 28.2223 248.751 27.9912 248.656 27.8252C248.565 27.6592 248.435 27.5436 248.266 27.4785C248.1 27.4102 247.903 27.376 247.675 27.376C247.476 27.376 247.3 27.4102 247.147 27.4785C246.998 27.5469 246.871 27.6413 246.767 27.7617C246.666 27.8789 246.588 28.014 246.532 28.167C246.48 28.32 246.454 28.4827 246.454 28.6553L245.844 28.8408ZM251.64 24.7979C251.815 24.7979 251.949 24.8483 252.04 24.9492C252.134 25.0501 252.182 25.1722 252.182 25.3154C252.182 25.4554 252.134 25.5758 252.04 25.6768C251.949 25.7744 251.815 25.8232 251.64 25.8232C251.464 25.8232 251.33 25.7744 251.239 25.6768C251.151 25.5758 251.107 25.4554 251.107 25.3154C251.107 25.1722 251.151 25.0501 251.239 24.9492C251.33 24.8483 251.464 24.7979 251.64 24.7979ZM252.099 32H251.19V26.7168H252.099V32ZM254.491 32H253.578V26.7168H254.442L254.491 27.8447V32ZM253.896 29.1387C253.902 28.6569 253.995 28.2272 254.174 27.8496C254.353 27.4688 254.602 27.1693 254.921 26.9512C255.243 26.7298 255.618 26.6191 256.044 26.6191C256.392 26.6191 256.692 26.6842 256.942 26.8145C257.196 26.9414 257.392 27.1449 257.528 27.4248C257.668 27.7048 257.738 28.0758 257.738 28.5381V32H256.825V28.5283C256.825 28.2516 256.785 28.0286 256.703 27.8594C256.625 27.6901 256.508 27.568 256.352 27.4932C256.195 27.415 256.003 27.376 255.775 27.376C255.551 27.376 255.347 27.4232 255.165 27.5176C254.983 27.612 254.825 27.7422 254.691 27.9082C254.558 28.0742 254.455 28.2646 254.384 28.4795C254.312 28.6911 254.276 28.9157 254.276 29.1533L253.896 29.1387ZM264.701 28.377C264.701 28.0612 264.607 27.8105 264.418 27.625C264.232 27.4362 263.957 27.3418 263.593 27.3418C263.368 27.3418 263.17 27.3809 262.997 27.459C262.828 27.5371 262.696 27.6396 262.602 27.7666C262.507 27.8936 262.46 28.0319 262.46 28.1816H261.547C261.547 27.9277 261.633 27.682 261.806 27.4443C261.978 27.2035 262.221 27.0065 262.533 26.8535C262.849 26.6973 263.22 26.6191 263.646 26.6191C264.031 26.6191 264.371 26.6842 264.667 26.8145C264.963 26.9447 265.194 27.1416 265.36 27.4053C265.53 27.6657 265.614 27.9928 265.614 28.3867V30.8477C265.614 31.0234 265.629 31.2106 265.658 31.4092C265.691 31.6077 265.738 31.7786 265.8 31.9219V32H264.848C264.802 31.8958 264.766 31.7575 264.74 31.585C264.714 31.4092 264.701 31.2464 264.701 31.0967V28.377ZM264.857 29.4316H263.959C263.445 29.4316 263.048 29.513 262.768 29.6758C262.488 29.8385 262.348 30.0827 262.348 30.4082C262.348 30.6621 262.432 30.877 262.602 31.0527C262.774 31.2285 263.025 31.3164 263.354 31.3164C263.63 31.3164 263.874 31.2578 264.086 31.1406C264.298 31.0234 264.465 30.8786 264.589 30.7061C264.713 30.5335 264.779 30.3675 264.789 30.208L265.18 30.6426C265.157 30.7793 265.095 30.9307 264.994 31.0967C264.893 31.2627 264.758 31.4222 264.589 31.5752C264.423 31.7249 264.224 31.8503 263.993 31.9512C263.765 32.0488 263.508 32.0977 263.222 32.0977C262.864 32.0977 262.549 32.0293 262.279 31.8926C262.012 31.7526 261.804 31.5638 261.654 31.3262C261.508 31.0885 261.435 30.8249 261.435 30.5352C261.435 29.9655 261.649 29.5342 262.079 29.2412C262.509 28.945 263.087 28.7969 263.812 28.7969H264.857V29.4316ZM269.047 34.085C268.865 34.085 268.65 34.0557 268.402 33.9971C268.158 33.9417 267.917 33.8457 267.68 33.709C267.445 33.5755 267.248 33.3949 267.089 33.167L267.562 32.6348C267.784 32.9017 268.015 33.0872 268.256 33.1914C268.5 33.2988 268.741 33.3525 268.979 33.3525C269.405 33.3525 269.743 33.2305 269.994 32.9863C270.248 32.7454 270.375 32.3939 270.375 31.9316V27.8789L270.458 26.7168H271.288V31.8877C271.288 32.3532 271.192 32.7503 271 33.0791C270.811 33.4079 270.548 33.6569 270.209 33.8262C269.874 33.9987 269.486 34.085 269.047 34.085ZM268.9 32.0977C268.477 32.0977 268.109 31.9821 267.797 31.751C267.488 31.5166 267.247 31.1976 267.074 30.7939C266.905 30.3903 266.82 29.9313 266.82 29.417V29.3145C266.82 28.7773 266.905 28.307 267.074 27.9033C267.243 27.4964 267.484 27.1807 267.797 26.9561C268.109 26.7314 268.48 26.6191 268.91 26.6191C269.242 26.6191 269.532 26.6777 269.779 26.7949C270.03 26.9089 270.242 27.0749 270.414 27.293C270.59 27.5111 270.728 27.7747 270.829 28.084C270.933 28.3932 271.005 28.7415 271.044 29.1289V29.6025C270.995 30.1136 270.886 30.5563 270.717 30.9307C270.551 31.3018 270.318 31.5898 270.019 31.7949C269.719 31.9967 269.346 32.0977 268.9 32.0977ZM269.125 31.3359C269.424 31.3359 269.67 31.2725 269.862 31.1455C270.054 31.0186 270.209 30.8509 270.326 30.6426C270.443 30.4342 270.535 30.208 270.6 29.9639V28.7773C270.561 28.5983 270.505 28.4258 270.434 28.2598C270.362 28.0905 270.268 27.9408 270.15 27.8105C270.033 27.6771 269.89 27.5713 269.721 27.4932C269.555 27.415 269.359 27.376 269.135 27.376C268.806 27.376 268.537 27.4639 268.329 27.6396C268.124 27.8154 267.973 28.0514 267.875 28.3477C267.781 28.6406 267.733 28.9629 267.733 29.3145V29.417C267.733 29.7686 267.781 30.0892 267.875 30.3789C267.973 30.6686 268.124 30.9014 268.329 31.0771C268.534 31.2497 268.799 31.3359 269.125 31.3359ZM272.416 29.3047C272.416 28.7936 272.514 28.3363 272.709 27.9326C272.904 27.529 273.181 27.21 273.539 26.9756C273.897 26.738 274.322 26.6191 274.813 26.6191C275.312 26.6191 275.741 26.738 276.103 26.9756C276.464 27.21 276.741 27.529 276.933 27.9326C277.128 28.3363 277.226 28.7936 277.226 29.3047V29.417C277.226 29.9248 277.128 30.3822 276.933 30.7891C276.741 31.1927 276.464 31.5117 276.103 31.7461C275.744 31.9805 275.318 32.0977 274.823 32.0977C274.328 32.0977 273.9 31.9805 273.539 31.7461C273.181 31.5117 272.904 31.1927 272.709 30.7891C272.514 30.3822 272.416 29.9248 272.416 29.417V29.3047ZM273.329 29.417C273.329 29.7653 273.384 30.0876 273.495 30.3838C273.606 30.68 273.77 30.9176 273.988 31.0967C274.21 31.2757 274.488 31.3652 274.823 31.3652C275.155 31.3652 275.43 31.2757 275.648 31.0967C275.87 30.9176 276.036 30.68 276.146 30.3838C276.257 30.0876 276.312 29.7653 276.312 29.417V29.3047C276.312 28.9564 276.257 28.6341 276.146 28.3379C276.036 28.0417 275.87 27.804 275.648 27.625C275.427 27.4427 275.149 27.3516 274.813 27.3516C274.485 27.3516 274.21 27.4427 273.988 27.625C273.767 27.804 273.601 28.0417 273.49 28.3379C273.383 28.6341 273.329 28.9564 273.329 29.3047V29.417Z" fill="white"/>
<path d="M68.043 50H67.1758L70.4102 41.4688H70.9844L70.9609 42.043L68.043 50ZM70.6328 42.043L70.6094 41.4688H71.1836L74.418 50H73.5566L70.6328 42.043ZM73.1348 47.6504H68.5293V46.9531H73.1348V47.6504ZM77.6641 50.1172C77.1641 50.1172 76.7305 49.9805 76.3633 49.707C75.9961 49.4297 75.7109 49.0488 75.5078 48.5645C75.3086 48.0801 75.209 47.5234 75.209 46.8945V46.7715C75.209 46.1191 75.3086 45.5508 75.5078 45.0664C75.7109 44.582 75.9961 44.207 76.3633 43.9414C76.7344 43.6758 77.1719 43.543 77.6758 43.543C78.1797 43.543 78.6035 43.6543 78.9473 43.877C79.2949 44.0996 79.5703 44.4102 79.7734 44.8086C79.9805 45.207 80.1191 45.6758 80.1895 46.2148V47.5273C80.127 48.0352 79.9941 48.4844 79.791 48.875C79.5918 49.2617 79.3164 49.5664 78.9648 49.7891C78.6133 50.0078 78.1797 50.1172 77.6641 50.1172ZM77.8281 49.4199C78.2188 49.4199 78.5449 49.3438 78.8066 49.1914C79.0684 49.0391 79.2773 48.8359 79.4336 48.582C79.5938 48.3242 79.7109 48.0449 79.7852 47.7441V46.0273C79.7422 45.8203 79.6758 45.6113 79.5859 45.4004C79.4961 45.1895 79.375 44.9961 79.2227 44.8203C79.0742 44.6445 78.8867 44.5039 78.6602 44.3984C78.4336 44.2891 78.1602 44.2344 77.8398 44.2344C77.4219 44.2344 77.0781 44.3477 76.8086 44.5742C76.5391 44.7969 76.3398 45.1016 76.2109 45.4883C76.0859 45.8711 76.0234 46.2988 76.0234 46.7715V46.8945C76.0234 47.3672 76.0859 47.7949 76.2109 48.1777C76.3398 48.5566 76.5371 48.8594 76.8027 49.0859C77.0723 49.3086 77.4141 49.4199 77.8281 49.4199ZM79.6328 50L79.5684 48.7695V41H80.3828V50H79.6328ZM86.0195 43.6602H86.8516L84.5078 50H83.9336L84.0742 49.2441L86.0195 43.6602ZM84.3262 49.2676L84.4434 50H83.8691L81.5137 43.6602H82.3457L84.3262 49.2676ZM88.4746 41.3867C88.6387 41.3867 88.7676 41.4375 88.8613 41.5391C88.959 41.6367 89.0078 41.7578 89.0078 41.9023C89.0078 42.0391 88.959 42.1582 88.8613 42.2598C88.7676 42.3574 88.6387 42.4062 88.4746 42.4062C88.3066 42.4062 88.1758 42.3574 88.082 42.2598C87.9922 42.1582 87.9473 42.0391 87.9473 41.9023C87.9473 41.7617 87.9922 41.6406 88.082 41.5391C88.1758 41.4375 88.3066 41.3867 88.4746 41.3867ZM88.8789 50H88.0762V43.6602H88.8789V50ZM92.9746 50.1172C92.4316 50.1172 91.9727 50.0254 91.5977 49.8418C91.2227 49.6582 90.9395 49.418 90.748 49.1211C90.5566 48.8242 90.4609 48.5078 90.4609 48.1719H91.2695C91.293 48.4922 91.3926 48.7461 91.5684 48.9336C91.7441 49.1172 91.959 49.248 92.2129 49.3262C92.4668 49.4043 92.7207 49.4434 92.9746 49.4434C93.3145 49.4434 93.5996 49.3945 93.8301 49.2969C94.0645 49.1953 94.2402 49.0625 94.3574 48.8984C94.4746 48.7344 94.5332 48.5566 94.5332 48.3652C94.5332 48.1973 94.4922 48.0352 94.4102 47.8789C94.3281 47.7188 94.1699 47.5723 93.9355 47.4395C93.7051 47.3066 93.3613 47.1914 92.9043 47.0938C92.4355 46.9961 92.0332 46.875 91.6973 46.7305C91.3652 46.582 91.1113 46.3945 90.9355 46.168C90.7598 45.9375 90.6719 45.6484 90.6719 45.3008C90.6719 44.9805 90.7637 44.6875 90.9473 44.4219C91.1348 44.1562 91.3984 43.9434 91.7383 43.7832C92.0781 43.623 92.4785 43.543 92.9395 43.543C93.4316 43.543 93.8535 43.627 94.2051 43.7949C94.5605 43.9629 94.832 44.1914 95.0195 44.4805C95.207 44.7695 95.3008 45.0957 95.3008 45.459H94.4922C94.4922 45.1465 94.3574 44.8613 94.0879 44.6035C93.8223 44.3457 93.4395 44.2168 92.9395 44.2168C92.5957 44.2168 92.3164 44.2695 92.1016 44.375C91.8867 44.4805 91.7285 44.6152 91.627 44.7793C91.5293 44.9395 91.4805 45.1055 91.4805 45.2773C91.4805 45.4531 91.5215 45.6113 91.6035 45.752C91.6895 45.8887 91.8477 46.0117 92.0781 46.1211C92.3125 46.2305 92.6562 46.3359 93.1094 46.4375C93.625 46.5547 94.0469 46.6953 94.375 46.8594C94.7031 47.0195 94.9473 47.2188 95.1074 47.457C95.2676 47.6914 95.3477 47.9785 95.3477 48.3184C95.3477 48.6699 95.25 48.9824 95.0547 49.2559C94.8594 49.5254 94.584 49.7363 94.2285 49.8887C93.873 50.041 93.4551 50.1172 92.9746 50.1172ZM96.5254 46.7422C96.5254 46.1289 96.6426 45.582 96.877 45.1016C97.1113 44.6172 97.4414 44.2363 97.8672 43.959C98.293 43.6816 98.793 43.543 99.3672 43.543C99.9492 43.543 100.453 43.6816 100.879 43.959C101.305 44.2363 101.633 44.6172 101.863 45.1016C102.098 45.582 102.215 46.1289 102.215 46.7422V46.918C102.215 47.5312 102.098 48.0801 101.863 48.5645C101.633 49.0449 101.305 49.4238 100.879 49.7012C100.457 49.9785 99.957 50.1172 99.3789 50.1172C98.8008 50.1172 98.2969 49.9785 97.8672 49.7012C97.4414 49.4238 97.1113 49.0449 96.877 48.5645C96.6426 48.0801 96.5254 47.5312 96.5254 46.918V46.7422ZM97.3398 46.918C97.3398 47.3672 97.416 47.7852 97.5684 48.1719C97.7246 48.5547 97.9531 48.8633 98.2539 49.0977C98.5586 49.3281 98.9336 49.4434 99.3789 49.4434C99.8203 49.4434 100.191 49.3281 100.492 49.0977C100.793 48.8633 101.02 48.5547 101.172 48.1719C101.328 47.7852 101.406 47.3672 101.406 46.918V46.7422C101.406 46.2969 101.328 45.8828 101.172 45.5C101.016 45.1172 100.787 44.8086 100.486 44.5742C100.186 44.3359 99.8125 44.2168 99.3672 44.2168C98.9258 44.2168 98.5547 44.3359 98.2539 44.5742C97.9531 44.8086 97.7246 45.1172 97.5684 45.5C97.416 45.8828 97.3398 46.2969 97.3398 46.7422V46.918ZM104.453 50H103.645V43.6602H104.436L104.453 44.6973V50ZM106.615 44.3574C106.529 44.3418 106.449 44.332 106.375 44.3281C106.301 44.3203 106.217 44.3164 106.123 44.3164C105.74 44.3164 105.418 44.4062 105.156 44.5859C104.898 44.7617 104.699 45.002 104.559 45.3066C104.422 45.6113 104.344 45.9531 104.324 46.332L104.049 46.4492C104.049 45.9062 104.123 45.416 104.271 44.9785C104.424 44.541 104.654 44.1934 104.963 43.9355C105.275 43.6738 105.674 43.543 106.158 43.543C106.24 43.543 106.328 43.5508 106.422 43.5664C106.516 43.582 106.584 43.5996 106.627 43.6191L106.615 44.3574Z" fill="white" fill-opacity="0.5"/>
<path d="M21.8926 72.0469H22.6514L22.0977 74.3574L19.8486 82H19.1035L19.7803 79.2725L21.8926 72.0469ZM19.1582 79.1904L19.6777 82H18.9258L16.417 72.0469H17.4082L19.1582 79.1904ZM27.1768 72.0469H28.168L25.666 82H24.9141L25.4541 79.1836L27.1768 72.0469ZM24.8184 79.2725L25.4814 82H24.7432L22.542 74.3574L21.9951 72.0469H22.7471L24.8184 79.2725ZM28.9268 78.1992C28.9268 77.4837 29.0635 76.8457 29.3369 76.2852C29.6104 75.7201 29.9954 75.2757 30.4922 74.9521C30.9889 74.6286 31.5723 74.4668 32.2422 74.4668C32.9212 74.4668 33.5091 74.6286 34.0059 74.9521C34.5026 75.2757 34.8854 75.7201 35.1543 76.2852C35.4277 76.8457 35.5645 77.4837 35.5645 78.1992V78.4043C35.5645 79.1198 35.4277 79.7601 35.1543 80.3252C34.8854 80.8857 34.5026 81.3278 34.0059 81.6514C33.5137 81.9749 32.9303 82.1367 32.2559 82.1367C31.5814 82.1367 30.9935 81.9749 30.4922 81.6514C29.9954 81.3278 29.6104 80.8857 29.3369 80.3252C29.0635 79.7601 28.9268 79.1198 28.9268 78.4043V78.1992ZM29.877 78.4043C29.877 78.9284 29.9658 79.416 30.1436 79.8672C30.3258 80.3138 30.5924 80.6738 30.9434 80.9473C31.2988 81.2161 31.7363 81.3506 32.2559 81.3506C32.7708 81.3506 33.2038 81.2161 33.5547 80.9473C33.9056 80.6738 34.1699 80.3138 34.3477 79.8672C34.5299 79.416 34.6211 78.9284 34.6211 78.4043V78.1992C34.6211 77.6797 34.5299 77.1966 34.3477 76.75C34.1654 76.3034 33.8988 75.9434 33.5479 75.6699C33.1969 75.3919 32.7617 75.2529 32.2422 75.2529C31.7272 75.2529 31.2943 75.3919 30.9434 75.6699C30.5924 75.9434 30.3258 76.3034 30.1436 76.75C29.9658 77.1966 29.877 77.6797 29.877 78.1992V78.4043ZM41.915 74.6035H42.8584V82H41.9561L41.915 80.291V74.6035ZM42.5439 78.8555C42.5439 79.4844 42.446 80.0472 42.25 80.5439C42.0586 81.0361 41.7487 81.4258 41.3203 81.7129C40.8965 81.9954 40.3337 82.1367 39.6318 82.1367C38.9072 82.1367 38.3216 81.9225 37.875 81.4941C37.4284 81.0658 37.2051 80.3503 37.2051 79.3477V74.6035H38.1484V79.3613C38.1484 79.8626 38.2214 80.2568 38.3672 80.5439C38.5176 80.8311 38.7135 81.0339 38.9551 81.1523C39.2012 81.2663 39.4678 81.3232 39.7549 81.3232C40.3428 81.3232 40.8053 81.2116 41.1426 80.9883C41.4844 80.765 41.7259 80.4665 41.8672 80.0928C42.013 79.7145 42.0859 79.3066 42.0859 78.8691L42.5439 78.8555ZM45.9756 82H45.0322V71.5H45.9756V82ZM50.6855 82.1367C50.1022 82.1367 49.5964 81.9772 49.168 81.6582C48.7396 81.3346 48.4069 80.8903 48.1699 80.3252C47.9375 79.7601 47.8213 79.1107 47.8213 78.377V78.2334C47.8213 77.4723 47.9375 76.8092 48.1699 76.2441C48.4069 75.679 48.7396 75.2415 49.168 74.9316C49.6009 74.6217 50.1113 74.4668 50.6992 74.4668C51.2871 74.4668 51.7816 74.5967 52.1826 74.8564C52.5882 75.1162 52.9095 75.4785 53.1465 75.9434C53.388 76.4082 53.5498 76.9551 53.6318 77.584V79.1152C53.5589 79.7077 53.404 80.2318 53.167 80.6875C52.9346 81.1387 52.6133 81.4941 52.2031 81.7539C51.793 82.0091 51.2871 82.1367 50.6855 82.1367ZM50.877 81.3232C51.3327 81.3232 51.7132 81.2344 52.0186 81.0566C52.3239 80.8789 52.5677 80.6419 52.75 80.3457C52.9368 80.0449 53.0736 79.7191 53.1602 79.3682V77.3652C53.11 77.1237 53.0326 76.8799 52.9277 76.6338C52.8229 76.3877 52.6816 76.1621 52.5039 75.957C52.3307 75.752 52.112 75.5879 51.8477 75.4648C51.5833 75.3372 51.2643 75.2734 50.8906 75.2734C50.403 75.2734 50.002 75.4056 49.6875 75.6699C49.373 75.9297 49.1406 76.2852 48.9902 76.7363C48.8444 77.1829 48.7715 77.682 48.7715 78.2334V78.377C48.7715 78.9284 48.8444 79.4274 48.9902 79.874C49.1406 80.3161 49.3708 80.6693 49.6807 80.9336C49.9951 81.1934 50.3939 81.3232 50.877 81.3232ZM52.9824 82L52.9072 80.5645V71.5H53.8574V82H52.9824ZM63.7969 74.6035H64.8086L61.7256 83.1758C61.6618 83.349 61.5775 83.5381 61.4727 83.7432C61.3724 83.9528 61.2425 84.151 61.083 84.3379C60.9235 84.5293 60.723 84.6842 60.4814 84.8027C60.2445 84.9258 59.9574 84.9873 59.6201 84.9873C59.5563 84.9873 59.4811 84.9805 59.3945 84.9668C59.3079 84.9577 59.2236 84.9463 59.1416 84.9326C59.0641 84.9189 59.0049 84.9053 58.9639 84.8916V84.1191C59.0094 84.1283 59.0778 84.1374 59.1689 84.1465C59.2601 84.1556 59.3239 84.1602 59.3604 84.1602C59.8024 84.1602 60.1419 84.0531 60.3789 83.8389C60.6204 83.6292 60.8164 83.3011 60.9668 82.8545L61.5547 81.2549L63.7969 74.6035ZM61.8213 80.7969L62.0742 81.7744L61.3838 82.1436L58.5605 74.6035H59.5928L61.8213 80.7969ZM65.6221 78.1992C65.6221 77.4837 65.7588 76.8457 66.0322 76.2852C66.3057 75.7201 66.6908 75.2757 67.1875 74.9521C67.6842 74.6286 68.2676 74.4668 68.9375 74.4668C69.6165 74.4668 70.2044 74.6286 70.7012 74.9521C71.1979 75.2757 71.5807 75.7201 71.8496 76.2852C72.123 76.8457 72.2598 77.4837 72.2598 78.1992V78.4043C72.2598 79.1198 72.123 79.7601 71.8496 80.3252C71.5807 80.8857 71.1979 81.3278 70.7012 81.6514C70.209 81.9749 69.6257 82.1367 68.9512 82.1367C68.2767 82.1367 67.6888 81.9749 67.1875 81.6514C66.6908 81.3278 66.3057 80.8857 66.0322 80.3252C65.7588 79.7601 65.6221 79.1198 65.6221 78.4043V78.1992ZM66.5723 78.4043C66.5723 78.9284 66.6611 79.416 66.8389 79.8672C67.0212 80.3138 67.2878 80.6738 67.6387 80.9473C67.9941 81.2161 68.4316 81.3506 68.9512 81.3506C69.4661 81.3506 69.8991 81.2161 70.25 80.9473C70.6009 80.6738 70.8652 80.3138 71.043 79.8672C71.2253 79.416 71.3164 78.9284 71.3164 78.4043V78.1992C71.3164 77.6797 71.2253 77.1966 71.043 76.75C70.8607 76.3034 70.5941 75.9434 70.2432 75.6699C69.8923 75.3919 69.457 75.2529 68.9375 75.2529C68.4225 75.2529 67.9896 75.3919 67.6387 75.6699C67.2878 75.9434 67.0212 76.3034 66.8389 76.75C66.6611 77.1966 66.5723 77.6797 66.5723 78.1992V78.4043ZM78.6104 74.6035H79.5537V82H78.6514L78.6104 80.291V74.6035ZM79.2393 78.8555C79.2393 79.4844 79.1413 80.0472 78.9453 80.5439C78.7539 81.0361 78.444 81.4258 78.0156 81.7129C77.5918 81.9954 77.029 82.1367 76.3271 82.1367C75.6025 82.1367 75.0169 81.9225 74.5703 81.4941C74.1237 81.0658 73.9004 80.3503 73.9004 79.3477V74.6035H74.8438V79.3613C74.8438 79.8626 74.9167 80.2568 75.0625 80.5439C75.2129 80.8311 75.4089 81.0339 75.6504 81.1523C75.8965 81.2663 76.1631 81.3232 76.4502 81.3232C77.0381 81.3232 77.5007 81.2116 77.8379 80.9883C78.1797 80.765 78.4212 80.4665 78.5625 80.0928C78.7083 79.7145 78.7812 79.3066 78.7812 78.8691L79.2393 78.8555ZM86.1025 82H85.1592V71.5H86.1025V82ZM88.8506 71.9512C89.042 71.9512 89.1924 72.0104 89.3018 72.1289C89.4157 72.2428 89.4727 72.3841 89.4727 72.5527C89.4727 72.7122 89.4157 72.8512 89.3018 72.9697C89.1924 73.0837 89.042 73.1406 88.8506 73.1406C88.6546 73.1406 88.502 73.0837 88.3926 72.9697C88.2878 72.8512 88.2354 72.7122 88.2354 72.5527C88.2354 72.3887 88.2878 72.2474 88.3926 72.1289C88.502 72.0104 88.6546 71.9512 88.8506 71.9512ZM89.3223 82H88.3857V74.6035H89.3223V82ZM92.4736 82H91.5234V71.5H92.4736V82ZM93.6904 78.0352L92.1182 79.5801L92.002 78.6367L93.2188 77.29L95.8984 74.6035H97.0742L93.6904 78.0352ZM93.2734 78.2402L93.7861 77.4199L97.3682 82H96.2402L93.2734 78.2402ZM101.374 82.1367C100.722 82.1367 100.144 81.9818 99.6377 81.6719C99.1364 81.362 98.7445 80.9359 98.4619 80.3936C98.1794 79.8467 98.0381 79.2246 98.0381 78.5273V78.2266C98.0381 77.4564 98.1862 76.791 98.4824 76.2305C98.7786 75.6654 99.1683 75.2301 99.6514 74.9248C100.139 74.6195 100.663 74.4668 101.224 74.4668C101.875 74.4668 102.42 74.6172 102.857 74.918C103.299 75.2142 103.63 75.6221 103.849 76.1416C104.072 76.6566 104.184 77.2467 104.184 77.9121V78.4316H98.6055V77.6455H103.24V77.5566C103.227 77.1647 103.147 76.7933 103.001 76.4424C102.855 76.0915 102.636 75.8066 102.345 75.5879C102.053 75.3646 101.679 75.2529 101.224 75.2529C100.782 75.2529 100.392 75.376 100.055 75.6221C99.7174 75.8682 99.4531 76.2145 99.2617 76.6611C99.0749 77.1077 98.9814 77.6296 98.9814 78.2266V78.5273C98.9814 79.0469 99.0817 79.5208 99.2822 79.9492C99.4873 80.3776 99.7721 80.7194 100.137 80.9746C100.506 81.2298 100.934 81.3574 101.422 81.3574C101.859 81.3574 102.242 81.2731 102.57 81.1045C102.903 80.9359 103.199 80.6829 103.459 80.3457L104.04 80.79C103.803 81.1501 103.47 81.4645 103.042 81.7334C102.614 82.0023 102.058 82.1367 101.374 82.1367ZM110.104 82H109.153V74.6035H110.056L110.104 76.1143V82ZM109.468 77.7344C109.495 77.1283 109.625 76.5791 109.857 76.0869C110.094 75.5902 110.427 75.196 110.855 74.9043C111.288 74.6126 111.812 74.4668 112.428 74.4668C113.139 74.4668 113.713 74.6696 114.15 75.0752C114.592 75.4808 114.813 76.1462 114.813 77.0713V82H113.863V77.1123C113.863 76.652 113.79 76.2874 113.645 76.0186C113.499 75.7497 113.294 75.5583 113.029 75.4443C112.77 75.3304 112.466 75.2734 112.12 75.2734C111.719 75.2734 111.38 75.3532 111.102 75.5127C110.824 75.6722 110.598 75.8818 110.425 76.1416C110.252 76.4014 110.124 76.6839 110.042 76.9893C109.965 77.2946 109.924 77.5931 109.919 77.8848L109.468 77.7344ZM114.164 77.3105C114.191 76.8184 114.324 76.3558 114.561 75.9229C114.798 75.4899 115.13 75.139 115.559 74.8701C115.987 74.6012 116.497 74.4668 117.09 74.4668C117.609 74.4668 118.051 74.5602 118.416 74.7471C118.781 74.9339 119.056 75.2256 119.243 75.6221C119.435 76.014 119.53 76.529 119.53 77.167V82H118.587V77.1602C118.587 76.668 118.514 76.2852 118.368 76.0117C118.222 75.7337 118.017 75.54 117.753 75.4307C117.493 75.3213 117.19 75.2689 116.844 75.2734C116.511 75.2734 116.217 75.3327 115.962 75.4512C115.711 75.5697 115.502 75.7246 115.333 75.916C115.164 76.1074 115.035 76.3171 114.943 76.5449C114.857 76.7728 114.809 77.0007 114.8 77.2285L114.164 77.3105ZM124.479 82.1367C123.828 82.1367 123.249 81.9818 122.743 81.6719C122.242 81.362 121.85 80.9359 121.567 80.3936C121.285 79.8467 121.144 79.2246 121.144 78.5273V78.2266C121.144 77.4564 121.292 76.791 121.588 76.2305C121.884 75.6654 122.274 75.2301 122.757 74.9248C123.244 74.6195 123.769 74.4668 124.329 74.4668C124.981 74.4668 125.525 74.6172 125.963 74.918C126.405 75.2142 126.735 75.6221 126.954 76.1416C127.177 76.6566 127.289 77.2467 127.289 77.9121V78.4316H121.711V77.6455H126.346V77.5566C126.332 77.1647 126.252 76.7933 126.106 76.4424C125.961 76.0915 125.742 75.8066 125.45 75.5879C125.159 75.3646 124.785 75.2529 124.329 75.2529C123.887 75.2529 123.497 75.376 123.16 75.6221C122.823 75.8682 122.559 76.2145 122.367 76.6611C122.18 77.1077 122.087 77.6296 122.087 78.2266V78.5273C122.087 79.0469 122.187 79.5208 122.388 79.9492C122.593 80.3776 122.878 80.7194 123.242 80.9746C123.611 81.2298 124.04 81.3574 124.527 81.3574C124.965 81.3574 125.348 81.2731 125.676 81.1045C126.008 80.9359 126.305 80.6829 126.564 80.3457L127.146 80.79C126.909 81.1501 126.576 81.4645 126.147 81.7334C125.719 82.0023 125.163 82.1367 124.479 82.1367ZM135.178 75.3486H131.391V74.6035H135.178V75.3486ZM133.688 72.7305V80.1885C133.688 80.512 133.731 80.7559 133.817 80.9199C133.904 81.0794 134.018 81.1865 134.159 81.2412C134.3 81.2913 134.451 81.3164 134.61 81.3164C134.729 81.3164 134.845 81.3096 134.959 81.2959C135.073 81.2777 135.171 81.2617 135.253 81.248L135.273 82.0205C135.173 82.0524 135.043 82.0798 134.884 82.1025C134.724 82.1253 134.556 82.1367 134.378 82.1367C134.068 82.1367 133.788 82.0775 133.537 81.959C133.291 81.8405 133.097 81.64 132.956 81.3574C132.815 81.0703 132.744 80.6807 132.744 80.1885V72.7305H133.688ZM136.224 78.1992C136.224 77.4837 136.36 76.8457 136.634 76.2852C136.907 75.7201 137.292 75.2757 137.789 74.9521C138.286 74.6286 138.869 74.4668 139.539 74.4668C140.218 74.4668 140.806 74.6286 141.303 74.9521C141.799 75.2757 142.182 75.7201 142.451 76.2852C142.725 76.8457 142.861 77.4837 142.861 78.1992V78.4043C142.861 79.1198 142.725 79.7601 142.451 80.3252C142.182 80.8857 141.799 81.3278 141.303 81.6514C140.811 81.9749 140.227 82.1367 139.553 82.1367C138.878 82.1367 138.29 81.9749 137.789 81.6514C137.292 81.3278 136.907 80.8857 136.634 80.3252C136.36 79.7601 136.224 79.1198 136.224 78.4043V78.1992ZM137.174 78.4043C137.174 78.9284 137.263 79.416 137.44 79.8672C137.623 80.3138 137.889 80.6738 138.24 80.9473C138.596 81.2161 139.033 81.3506 139.553 81.3506C140.068 81.3506 140.501 81.2161 140.852 80.9473C141.202 80.6738 141.467 80.3138 141.645 79.8672C141.827 79.416 141.918 78.9284 141.918 78.4043V78.1992C141.918 77.6797 141.827 77.1966 141.645 76.75C141.462 76.3034 141.196 75.9434 140.845 75.6699C140.494 75.3919 140.059 75.2529 139.539 75.2529C139.024 75.2529 138.591 75.3919 138.24 75.6699C137.889 75.9434 137.623 76.3034 137.44 76.75C137.263 77.1966 137.174 77.6797 137.174 78.1992V78.4043ZM148.556 82V73.7217C148.556 72.9606 148.758 72.3773 149.164 71.9717C149.574 71.5615 150.146 71.3564 150.88 71.3564C151.035 71.3564 151.213 71.3701 151.413 71.3975C151.618 71.4202 151.837 71.4521 152.069 71.4932C152.302 71.5296 152.536 71.5729 152.773 71.623C153.015 71.6732 153.25 71.7233 153.478 71.7734L153.013 72.4502C152.607 72.3682 152.231 72.3021 151.885 72.252C151.538 72.1973 151.224 72.1699 150.941 72.1699C150.486 72.1699 150.132 72.3044 149.882 72.5732C149.631 72.8421 149.506 73.2249 149.506 73.7217V82H148.556ZM152.534 71.7734H153.478V82H152.534V71.7734ZM151.215 75.3486H147.353V74.6035H151.215V75.3486ZM155.255 78.1992C155.255 77.4837 155.392 76.8457 155.665 76.2852C155.938 75.7201 156.324 75.2757 156.82 74.9521C157.317 74.6286 157.9 74.4668 158.57 74.4668C159.249 74.4668 159.837 74.6286 160.334 74.9521C160.831 75.2757 161.214 75.7201 161.482 76.2852C161.756 76.8457 161.893 77.4837 161.893 78.1992V78.4043C161.893 79.1198 161.756 79.7601 161.482 80.3252C161.214 80.8857 160.831 81.3278 160.334 81.6514C159.842 81.9749 159.258 82.1367 158.584 82.1367C157.91 82.1367 157.322 81.9749 156.82 81.6514C156.324 81.3278 155.938 80.8857 155.665 80.3252C155.392 79.7601 155.255 79.1198 155.255 78.4043V78.1992ZM156.205 78.4043C156.205 78.9284 156.294 79.416 156.472 79.8672C156.654 80.3138 156.921 80.6738 157.271 80.9473C157.627 81.2161 158.064 81.3506 158.584 81.3506C159.099 81.3506 159.532 81.2161 159.883 80.9473C160.234 80.6738 160.498 80.3138 160.676 79.8672C160.858 79.416 160.949 78.9284 160.949 78.4043V78.1992C160.949 77.6797 160.858 77.1966 160.676 76.75C160.493 76.3034 160.227 75.9434 159.876 75.6699C159.525 75.3919 159.09 75.2529 158.57 75.2529C158.055 75.2529 157.622 75.3919 157.271 75.6699C156.921 75.9434 156.654 76.3034 156.472 76.75C156.294 77.1966 156.205 77.6797 156.205 78.1992V78.4043ZM168.024 76.8799C168.024 76.374 167.869 75.9753 167.56 75.6836C167.25 75.3919 166.801 75.2461 166.213 75.2461C165.848 75.2461 165.525 75.3099 165.242 75.4375C164.96 75.5605 164.739 75.7292 164.579 75.9434C164.42 76.1576 164.34 76.3923 164.34 76.6475H163.396C163.396 76.2783 163.515 75.9274 163.752 75.5947C163.993 75.262 164.328 74.9909 164.757 74.7812C165.185 74.5716 165.687 74.4668 166.261 74.4668C166.789 74.4668 167.257 74.5579 167.662 74.7402C168.072 74.918 168.391 75.1868 168.619 75.5469C168.852 75.9023 168.968 76.3512 168.968 76.8936V80.4346C168.968 80.6852 168.988 80.9495 169.029 81.2275C169.07 81.501 169.127 81.7288 169.2 81.9111V82H168.202C168.147 81.8405 168.104 81.6377 168.072 81.3916C168.04 81.1455 168.024 80.9108 168.024 80.6875V76.8799ZM168.223 78.3496H166.726C165.919 78.3496 165.29 78.4863 164.839 78.7598C164.392 79.0332 164.169 79.4183 164.169 79.915C164.169 80.3024 164.31 80.6328 164.593 80.9062C164.875 81.1751 165.265 81.3096 165.762 81.3096C166.195 81.3096 166.577 81.2275 166.91 81.0635C167.247 80.8949 167.521 80.6784 167.73 80.4141C167.945 80.1452 168.084 79.8626 168.147 79.5664L168.551 80.0791C168.501 80.2933 168.398 80.5189 168.243 80.7559C168.093 80.9928 167.895 81.2161 167.648 81.4258C167.402 81.6354 167.111 81.8063 166.773 81.9385C166.441 82.0706 166.065 82.1367 165.646 82.1367C165.158 82.1367 164.732 82.0456 164.367 81.8633C164.003 81.6764 163.72 81.4212 163.52 81.0977C163.324 80.7741 163.226 80.4141 163.226 80.0176C163.226 79.2702 163.526 78.6891 164.128 78.2744C164.729 77.8551 165.55 77.6455 166.589 77.6455H168.223V78.3496ZM173.992 75.3486H170.205V74.6035H173.992V75.3486ZM172.502 72.7305V80.1885C172.502 80.512 172.545 80.7559 172.632 80.9199C172.718 81.0794 172.832 81.1865 172.974 81.2412C173.115 81.2913 173.265 81.3164 173.425 81.3164C173.543 81.3164 173.66 81.3096 173.773 81.2959C173.887 81.2777 173.985 81.2617 174.067 81.248L174.088 82.0205C173.988 82.0524 173.858 82.0798 173.698 82.1025C173.539 82.1253 173.37 82.1367 173.192 82.1367C172.882 82.1367 172.602 82.0775 172.352 81.959C172.105 81.8405 171.912 81.64 171.771 81.3574C171.629 81.0703 171.559 80.6807 171.559 80.1885V72.7305H172.502ZM183.467 74.6035H184.479L181.396 83.1758C181.332 83.349 181.247 83.5381 181.143 83.7432C181.042 83.9528 180.912 84.151 180.753 84.3379C180.593 84.5293 180.393 84.6842 180.151 84.8027C179.914 84.9258 179.627 84.9873 179.29 84.9873C179.226 84.9873 179.151 84.9805 179.064 84.9668C178.978 84.9577 178.894 84.9463 178.812 84.9326C178.734 84.9189 178.675 84.9053 178.634 84.8916V84.1191C178.679 84.1283 178.748 84.1374 178.839 84.1465C178.93 84.1556 178.994 84.1602 179.03 84.1602C179.472 84.1602 179.812 84.0531 180.049 83.8389C180.29 83.6292 180.486 83.3011 180.637 82.8545L181.225 81.2549L183.467 74.6035ZM181.491 80.7969L181.744 81.7744L181.054 82.1436L178.23 74.6035H179.263L181.491 80.7969ZM185.292 78.1992C185.292 77.4837 185.429 76.8457 185.702 76.2852C185.976 75.7201 186.361 75.2757 186.857 74.9521C187.354 74.6286 187.938 74.4668 188.607 74.4668C189.286 74.4668 189.874 74.6286 190.371 74.9521C190.868 75.2757 191.251 75.7201 191.52 76.2852C191.793 76.8457 191.93 77.4837 191.93 78.1992V78.4043C191.93 79.1198 191.793 79.7601 191.52 80.3252C191.251 80.8857 190.868 81.3278 190.371 81.6514C189.879 81.9749 189.296 82.1367 188.621 82.1367C187.947 82.1367 187.359 81.9749 186.857 81.6514C186.361 81.3278 185.976 80.8857 185.702 80.3252C185.429 79.7601 185.292 79.1198 185.292 78.4043V78.1992ZM186.242 78.4043C186.242 78.9284 186.331 79.416 186.509 79.8672C186.691 80.3138 186.958 80.6738 187.309 80.9473C187.664 81.2161 188.102 81.3506 188.621 81.3506C189.136 81.3506 189.569 81.2161 189.92 80.9473C190.271 80.6738 190.535 80.3138 190.713 79.8672C190.895 79.416 190.986 78.9284 190.986 78.4043V78.1992C190.986 77.6797 190.895 77.1966 190.713 76.75C190.531 76.3034 190.264 75.9434 189.913 75.6699C189.562 75.3919 189.127 75.2529 188.607 75.2529C188.092 75.2529 187.66 75.3919 187.309 75.6699C186.958 75.9434 186.691 76.3034 186.509 76.75C186.331 77.1966 186.242 77.6797 186.242 78.1992V78.4043ZM198.28 74.6035H199.224V82H198.321L198.28 80.291V74.6035ZM198.909 78.8555C198.909 79.4844 198.811 80.0472 198.615 80.5439C198.424 81.0361 198.114 81.4258 197.686 81.7129C197.262 81.9954 196.699 82.1367 195.997 82.1367C195.272 82.1367 194.687 81.9225 194.24 81.4941C193.794 81.0658 193.57 80.3503 193.57 79.3477V74.6035H194.514V79.3613C194.514 79.8626 194.587 80.2568 194.732 80.5439C194.883 80.8311 195.079 81.0339 195.32 81.1523C195.566 81.2663 195.833 81.3232 196.12 81.3232C196.708 81.3232 197.171 81.2116 197.508 80.9883C197.85 80.765 198.091 80.4665 198.232 80.0928C198.378 79.7145 198.451 79.3066 198.451 78.8691L198.909 78.8555ZM202.238 82H201.295V74.6035H202.218L202.238 75.8135V82ZM204.761 75.417C204.66 75.3988 204.567 75.3874 204.48 75.3828C204.394 75.3737 204.296 75.3691 204.187 75.3691C203.74 75.3691 203.364 75.474 203.059 75.6836C202.758 75.8887 202.525 76.1689 202.361 76.5244C202.202 76.8799 202.111 77.2786 202.088 77.7207L201.767 77.8574C201.767 77.224 201.853 76.652 202.026 76.1416C202.204 75.6312 202.473 75.2256 202.833 74.9248C203.198 74.6195 203.662 74.4668 204.228 74.4668C204.323 74.4668 204.426 74.4759 204.535 74.4941C204.645 74.5124 204.724 74.5329 204.774 74.5557L204.761 75.417ZM210.4 82H209.457V74.6035H210.359L210.4 76.1826V82ZM209.778 77.7344C209.806 77.1283 209.945 76.5791 210.195 76.0869C210.446 75.5902 210.788 75.196 211.221 74.9043C211.658 74.6126 212.164 74.4668 212.738 74.4668C213.23 74.4668 213.652 74.5579 214.003 74.7402C214.358 74.9225 214.63 75.2119 214.816 75.6084C215.008 76.0049 215.104 76.5267 215.104 77.1738V82H214.16V77.167C214.16 76.693 214.092 76.3171 213.955 76.0391C213.823 75.7611 213.632 75.5651 213.381 75.4512C213.135 75.3327 212.839 75.2734 212.492 75.2734C212.123 75.2734 211.797 75.3532 211.515 75.5127C211.232 75.6722 210.993 75.8818 210.797 76.1416C210.601 76.4014 210.451 76.6839 210.346 76.9893C210.245 77.2946 210.193 77.5931 210.188 77.8848L209.778 77.7344ZM220.087 82.1367C219.435 82.1367 218.856 81.9818 218.351 81.6719C217.849 81.362 217.457 80.9359 217.175 80.3936C216.892 79.8467 216.751 79.2246 216.751 78.5273V78.2266C216.751 77.4564 216.899 76.791 217.195 76.2305C217.492 75.6654 217.881 75.2301 218.364 74.9248C218.852 74.6195 219.376 74.4668 219.937 74.4668C220.588 74.4668 221.133 74.6172 221.57 74.918C222.012 75.2142 222.343 75.6221 222.562 76.1416C222.785 76.6566 222.896 77.2467 222.896 77.9121V78.4316H217.318V77.6455H221.953V77.5566C221.939 77.1647 221.86 76.7933 221.714 76.4424C221.568 76.0915 221.349 75.8066 221.058 75.5879C220.766 75.3646 220.392 75.2529 219.937 75.2529C219.494 75.2529 219.105 75.376 218.768 75.6221C218.43 75.8682 218.166 76.2145 217.975 76.6611C217.788 77.1077 217.694 77.6296 217.694 78.2266V78.5273C217.694 79.0469 217.795 79.5208 217.995 79.9492C218.2 80.3776 218.485 80.7194 218.85 80.9746C219.219 81.2298 219.647 81.3574 220.135 81.3574C220.572 81.3574 220.955 81.2731 221.283 81.1045C221.616 80.9359 221.912 80.6829 222.172 80.3457L222.753 80.79C222.516 81.1501 222.183 81.4645 221.755 81.7334C221.326 82.0023 220.771 82.1367 220.087 82.1367ZM226.841 77.5156L228.734 74.6035H229.849L227.367 78.2334L229.944 82H228.844L226.848 78.9648L224.858 82H223.744L226.328 78.2334L223.84 74.6035H224.947L226.841 77.5156ZM234.203 75.3486H230.416V74.6035H234.203V75.3486ZM232.713 72.7305V80.1885C232.713 80.512 232.756 80.7559 232.843 80.9199C232.929 81.0794 233.043 81.1865 233.185 81.2412C233.326 81.2913 233.476 81.3164 233.636 81.3164C233.754 81.3164 233.87 81.3096 233.984 81.2959C234.098 81.2777 234.196 81.2617 234.278 81.248L234.299 82.0205C234.199 82.0524 234.069 82.0798 233.909 82.1025C233.75 82.1253 233.581 82.1367 233.403 82.1367C233.093 82.1367 232.813 82.0775 232.562 81.959C232.316 81.8405 232.123 81.64 231.981 81.3574C231.84 81.0703 231.77 80.6807 231.77 80.1885V72.7305H232.713ZM242.475 82.1367C242.023 82.1367 241.622 82.0661 241.271 81.9248C240.921 81.7835 240.622 81.5807 240.376 81.3164C240.13 81.0521 239.932 80.7422 239.781 80.3867C239.631 80.0267 239.528 79.6279 239.474 79.1904V77.584C239.56 76.9551 239.724 76.4082 239.966 75.9434C240.212 75.4785 240.54 75.1162 240.95 74.8564C241.365 74.5967 241.868 74.4668 242.461 74.4668C243.067 74.4668 243.582 74.6217 244.006 74.9316C244.43 75.2415 244.751 75.679 244.97 76.2441C245.193 76.8092 245.305 77.4723 245.305 78.2334V78.377C245.305 79.1107 245.193 79.7601 244.97 80.3252C244.751 80.8903 244.43 81.3346 244.006 81.6582C243.587 81.9772 243.076 82.1367 242.475 82.1367ZM239.269 84.8438V74.6035H240.137L240.212 76.0254V84.8438H239.269ZM242.229 81.3506C242.716 81.3506 243.117 81.2184 243.432 80.9541C243.746 80.6852 243.979 80.3275 244.129 79.8809C244.284 79.4297 244.361 78.9284 244.361 78.377V78.2334C244.361 77.682 244.284 77.1829 244.129 76.7363C243.979 76.2852 243.744 75.9297 243.425 75.6699C243.11 75.4056 242.707 75.2734 242.215 75.2734C241.846 75.2734 241.529 75.3372 241.265 75.4648C241.005 75.5879 240.786 75.752 240.608 75.957C240.431 76.1621 240.289 76.3877 240.185 76.6338C240.084 76.8799 240.009 77.1237 239.959 77.3652V79.4434C240.046 79.7852 240.18 80.1019 240.362 80.3936C240.545 80.6807 240.788 80.9131 241.094 81.0908C241.399 81.264 241.777 81.3506 242.229 81.3506ZM248.012 82H247.068V74.6035H247.991L248.012 75.8135V82ZM250.534 75.417C250.434 75.3988 250.34 75.3874 250.254 75.3828C250.167 75.3737 250.069 75.3691 249.96 75.3691C249.513 75.3691 249.137 75.474 248.832 75.6836C248.531 75.8887 248.299 76.1689 248.135 76.5244C247.975 76.8799 247.884 77.2786 247.861 77.7207L247.54 77.8574C247.54 77.224 247.627 76.652 247.8 76.1416C247.978 75.6312 248.246 75.2256 248.606 74.9248C248.971 74.6195 249.436 74.4668 250.001 74.4668C250.097 74.4668 250.199 74.4759 250.309 74.4941C250.418 74.5124 250.498 74.5329 250.548 74.5557L250.534 75.417ZM251.177 78.1992C251.177 77.4837 251.313 76.8457 251.587 76.2852C251.86 75.7201 252.245 75.2757 252.742 74.9521C253.239 74.6286 253.822 74.4668 254.492 74.4668C255.171 74.4668 255.759 74.6286 256.256 74.9521C256.753 75.2757 257.135 75.7201 257.404 76.2852C257.678 76.8457 257.814 77.4837 257.814 78.1992V78.4043C257.814 79.1198 257.678 79.7601 257.404 80.3252C257.135 80.8857 256.753 81.3278 256.256 81.6514C255.764 81.9749 255.18 82.1367 254.506 82.1367C253.831 82.1367 253.243 81.9749 252.742 81.6514C252.245 81.3278 251.86 80.8857 251.587 80.3252C251.313 79.7601 251.177 79.1198 251.177 78.4043V78.1992ZM252.127 78.4043C252.127 78.9284 252.216 79.416 252.394 79.8672C252.576 80.3138 252.842 80.6738 253.193 80.9473C253.549 81.2161 253.986 81.3506 254.506 81.3506C255.021 81.3506 255.454 81.2161 255.805 80.9473C256.156 80.6738 256.42 80.3138 256.598 79.8672C256.78 79.416 256.871 78.9284 256.871 78.4043V78.1992C256.871 77.6797 256.78 77.1966 256.598 76.75C256.415 76.3034 256.149 75.9434 255.798 75.6699C255.447 75.3919 255.012 75.2529 254.492 75.2529C253.977 75.2529 253.544 75.3919 253.193 75.6699C252.842 75.9434 252.576 76.3034 252.394 76.75C252.216 77.1966 252.127 77.6797 252.127 78.1992V78.4043ZM260.487 74.6035V82.8818C260.487 83.5609 260.323 84.0804 259.995 84.4404C259.667 84.805 259.184 84.9873 258.546 84.9873C258.432 84.9873 258.307 84.9759 258.17 84.9531C258.033 84.9303 257.91 84.9007 257.801 84.8643V84.0918C257.883 84.1146 257.983 84.1328 258.102 84.1465C258.215 84.1647 258.323 84.1738 258.423 84.1738C258.783 84.1738 259.059 84.069 259.25 83.8594C259.446 83.6497 259.544 83.3239 259.544 82.8818V74.6035H260.487ZM260.009 73.6602C259.817 73.6602 259.667 73.6032 259.558 73.4893C259.453 73.3753 259.4 73.2363 259.4 73.0723C259.4 72.9082 259.453 72.7669 259.558 72.6484C259.667 72.5299 259.817 72.4707 260.009 72.4707C260.205 72.4707 260.357 72.5299 260.467 72.6484C260.576 72.7669 260.631 72.9082 260.631 73.0723C260.631 73.2363 260.576 73.3753 260.467 73.4893C260.357 73.6032 260.205 73.6602 260.009 73.6602ZM265.683 82.1367C265.031 82.1367 264.452 81.9818 263.946 81.6719C263.445 81.362 263.053 80.9359 262.771 80.3936C262.488 79.8467 262.347 79.2246 262.347 78.5273V78.2266C262.347 77.4564 262.495 76.791 262.791 76.2305C263.087 75.6654 263.477 75.2301 263.96 74.9248C264.448 74.6195 264.972 74.4668 265.532 74.4668C266.184 74.4668 266.729 74.6172 267.166 74.918C267.608 75.2142 267.938 75.6221 268.157 76.1416C268.381 76.6566 268.492 77.2467 268.492 77.9121V78.4316H262.914V77.6455H267.549V77.5566C267.535 77.1647 267.455 76.7933 267.31 76.4424C267.164 76.0915 266.945 75.8066 266.653 75.5879C266.362 75.3646 265.988 75.2529 265.532 75.2529C265.09 75.2529 264.701 75.376 264.363 75.6221C264.026 75.8682 263.762 76.2145 263.57 76.6611C263.383 77.1077 263.29 77.6296 263.29 78.2266V78.5273C263.29 79.0469 263.39 79.5208 263.591 79.9492C263.796 80.3776 264.081 80.7194 264.445 80.9746C264.814 81.2298 265.243 81.3574 265.73 81.3574C266.168 81.3574 266.551 81.2731 266.879 81.1045C267.212 80.9359 267.508 80.6829 267.768 80.3457L268.349 80.79C268.112 81.1501 267.779 81.4645 267.351 81.7334C266.922 82.0023 266.366 82.1367 265.683 82.1367ZM272.86 82.1367C272.159 82.1367 271.568 81.9727 271.09 81.6445C270.616 81.3118 270.26 80.8675 270.023 80.3115C269.786 79.751 269.668 79.1289 269.668 78.4453V78.1582C269.668 77.4701 269.786 76.848 270.023 76.292C270.265 75.736 270.623 75.2939 271.097 74.9658C271.571 74.6331 272.156 74.4668 272.854 74.4668C273.396 74.4668 273.879 74.5762 274.303 74.7949C274.731 75.0137 275.071 75.3213 275.321 75.7178C275.576 76.1143 275.715 76.5791 275.738 77.1123H274.836C274.813 76.734 274.713 76.4059 274.535 76.1279C274.357 75.8499 274.123 75.6357 273.831 75.4854C273.544 75.3304 273.218 75.2529 272.854 75.2529C272.307 75.2529 271.869 75.3919 271.541 75.6699C271.213 75.9434 270.976 76.3011 270.83 76.7432C270.684 77.1852 270.611 77.6569 270.611 78.1582V78.4453C270.611 78.9466 270.682 79.4206 270.823 79.8672C270.969 80.3092 271.206 80.667 271.534 80.9404C271.867 81.2139 272.309 81.3506 272.86 81.3506C273.193 81.3506 273.503 81.2868 273.79 81.1592C274.082 81.027 274.323 80.8379 274.515 80.5918C274.706 80.3457 274.813 80.0472 274.836 79.6963H275.738C275.715 80.1566 275.57 80.5713 275.301 80.9404C275.036 81.3096 274.69 81.6012 274.262 81.8154C273.838 82.0296 273.371 82.1367 272.86 82.1367ZM280.209 75.3486H276.422V74.6035H280.209V75.3486ZM278.719 72.7305V80.1885C278.719 80.512 278.762 80.7559 278.849 80.9199C278.935 81.0794 279.049 81.1865 279.19 81.2412C279.332 81.2913 279.482 81.3164 279.642 81.3164C279.76 81.3164 279.876 81.3096 279.99 81.2959C280.104 81.2777 280.202 81.2617 280.284 81.248L280.305 82.0205C280.204 82.0524 280.075 82.0798 279.915 82.1025C279.756 82.1253 279.587 82.1367 279.409 82.1367C279.099 82.1367 278.819 82.0775 278.568 81.959C278.322 81.8405 278.129 81.64 277.987 81.3574C277.846 81.0703 277.775 80.6807 277.775 80.1885V72.7305H278.719ZM283.347 79.2246C283.351 78.8236 283.39 78.4863 283.463 78.2129C283.536 77.9395 283.654 77.6888 283.818 77.4609C283.982 77.2285 284.206 76.9756 284.488 76.7021C284.721 76.4652 284.93 76.2464 285.117 76.0459C285.304 75.8408 285.45 75.6175 285.555 75.376C285.664 75.1344 285.719 74.8382 285.719 74.4873C285.719 73.9632 285.577 73.5417 285.295 73.2227C285.017 72.8991 284.607 72.7373 284.064 72.7373C283.572 72.7373 283.158 72.8786 282.82 73.1611C282.488 73.4437 282.319 73.8493 282.314 74.3779H281.371C281.38 73.8584 281.503 73.4141 281.74 73.0449C281.982 72.6758 282.305 72.3955 282.711 72.2041C283.121 72.0081 283.572 71.9102 284.064 71.9102C284.898 71.9102 285.539 72.1449 285.985 72.6143C286.432 73.0837 286.655 73.7035 286.655 74.4736C286.655 74.8792 286.585 75.2484 286.443 75.5811C286.302 75.9092 286.108 76.2191 285.862 76.5107C285.616 76.8024 285.336 77.0918 285.021 77.3789C284.743 77.6204 284.552 77.8984 284.447 78.2129C284.342 78.5273 284.29 78.8646 284.29 79.2246H283.347ZM283.866 82.0615C283.67 82.0615 283.518 82.0046 283.408 81.8906C283.303 81.7767 283.251 81.6377 283.251 81.4736C283.251 81.3096 283.303 81.1683 283.408 81.0498C283.518 80.9313 283.67 80.8721 283.866 80.8721C284.062 80.8721 284.213 80.9313 284.317 81.0498C284.427 81.1683 284.481 81.3096 284.481 81.4736C284.481 81.6377 284.427 81.7767 284.317 81.8906C284.213 82.0046 284.062 82.0615 283.866 82.0615Z" fill="white"/>
</g>
<defs>
<filter id="filter0_bii_2292_1132" x="-40" y="-40" width="384" height="184" filterUnits="userSpaceOnUse" color-interpolation-filters="sRGB">
<feFlood flood-opacity="0" result="BackgroundImageFix"/>
<feGaussianBlur in="BackgroundImageFix" stdDeviation="20"/>
<feComposite in2="SourceAlpha" operator="in" result="effect1_backgroundBlur_2292_1132"/>
<feBlend mode="normal" in="SourceGraphic" in2="effect1_backgroundBlur_2292_1132" result="shape"/>
<feColorMatrix in="SourceAlpha" type="matrix" values="0 0 0 0 0 0 0 0 0 0 0 0 0 0 0 0 0 0 127 0" result="hardAlpha"/>
<feOffset/>
<feGaussianBlur stdDeviation="2"/>
<feComposite in2="hardAlpha" operator="arithmetic" k2="-1" k3="1"/>
<feColorMatrix type="matrix" values="0 0 0 0 1 0 0 0 0 1 0 0 0 0 1 0 0 0 0.05 0"/>
<feBlend mode="normal" in2="shape" result="effect2_innerShadow_2292_1132"/>
<feColorMatrix in="SourceAlpha" type="matrix" values="0 0 0 0 0 0 0 0 0 0 0 0 0 0 0 0 0 0 127 0" result="hardAlpha"/>
<feOffset/>
<feGaussianBlur stdDeviation="10"/>
<feComposite in2="hardAlpha" operator="arithmetic" k2="-1" k3="1"/>
<feColorMatrix type="matrix" values="0 0 0 0 1 0 0 0 0 1 0 0 0 0 1 0 0 0 0.05 0"/>
<feBlend mode="normal" in2="effect2_innerShadow_2292_1132" result="effect3_innerShadow_2292_1132"/>
</filter>
<linearGradient id="paint0_linear_2292_1132" x1="0" y1="0" x2="62.7193" y2="105.219" gradientUnits="userSpaceOnUse">
<stop stop-color="white" stop-opacity="0.24"/>
<stop offset="1" stop-color="white" stop-opacity="0"/>
</linearGradient>
<linearGradient id="paint1_linear_2292_1132" x1="227" y1="20" x2="287.583" y2="34.5752" gradientUnits="userSpaceOnUse">
<stop stop-color="#B721FF"/>
<stop offset="1" stop-color="#21FDF6"/>
</linearGradient>
<clipPath id="clip0_2292_1132">
<rect x="16" y="16" width="39" height="39" rx="19.5" fill="white"/>
</clipPath>
</defs>
</svg>
